<svg width="251" height="60" viewBox="0 0 251 60" fill="none" xmlns="http://www.w3.org/2000/svg">
<g clip-path="url(#clip0_599_3788)">
<path d="M130.448 8.25322H132.184V2.76465H130.448V8.25322Z" fill="#092D4D"/>
<path d="M185.706 8.25322H185.459H187.442V2.76465H185.706V8.25322Z" fill="#092D4D"/>
<path d="M178.669 8.25317H176.631V27.5827H178.669V8.25317Z" fill="#092D4D"/>
<path d="M212.258 2.76465L220.068 59.3416H222.105L214.301 2.76465H212.258Z" fill="#092D4D"/>
<path d="M237.335 54.6331H237.431C237.641 54.6322 237.849 54.608 238.053 54.561C237.505 54.37 237.032 54.0119 236.703 53.5385C236.375 53.065 236.207 52.5008 236.225 51.9272V2.76904H234.187V51.9272C234.187 53.6951 235.645 54.6331 237.436 54.6331H237.335Z" fill="#092D4D"/>
<path d="M161.762 49.4647V37.3601C161.762 33.901 159.792 30.947 156.489 30.2885H156.457L156.886 30.1803C159.377 29.5669 161.095 27.2804 161.606 24.7323C162.52 20.8132 162.52 12.772 161.67 8.49658C161.423 6.91825 160.613 5.47895 159.386 4.43765C157.753 3.3046 155.792 2.72677 153.797 2.79153H151.746C153.74 2.72743 155.701 3.30519 157.334 4.43765C158.561 5.4792 159.371 6.91839 159.619 8.49658C160.496 12.7765 160.464 20.8177 159.555 24.7323C159.043 27.2804 157.32 29.5669 154.83 30.1803L154.405 30.2885H154.437C157.741 30.947 159.71 33.8965 159.71 37.3601V49.4647C159.683 55.3637 159.989 58.9716 162.2 59.3459H164.238C162.041 58.9716 161.734 55.3637 161.762 49.4647Z" fill="#092D4D"/>
<path d="M125.307 8.25317H123.269V59.3461H125.307V8.25317Z" fill="#092D4D"/>
<path d="M84.3879 59.3416H86.4259V34.7444L84.3879 28.5208V59.3416Z" fill="#092D4D"/>
<path d="M86.9468 2.76465H84.9043L94.2716 35.651V28.4757L86.9468 2.76465Z" fill="#092D4D"/>
<path d="M70.6431 2.76465H68.6052V59.3461H70.6431V2.76465Z" fill="#092D4D"/>
<path d="M51.4105 4.26631C49.6695 2.86373 46.7314 1.68213 42.427 1.68213H40.3799C44.6889 1.68213 47.627 2.86373 49.3679 4.26631C50.9535 5.54262 51.6801 7.42325 51.7303 10.4224V51.1966C51.6801 54.1821 50.9535 56.0808 49.3679 57.3571C47.6316 58.7597 44.7026 59.9413 40.4028 59.9413H42.4453C46.7451 59.9413 49.6832 58.7597 51.4242 57.3571C53.0052 56.0808 53.7317 54.2002 53.782 51.1966V10.4314C53.718 7.45483 52.9915 5.55164 51.4105 4.26631Z" fill="#092D4D"/>
<path d="M23.5736 17.9179V0H21.5311V17.9179H23.5736Z" fill="#092D4D"/>
<path d="M11.7434 54.5837H11.8622C12.0714 54.5827 12.2799 54.5585 12.4836 54.5115C11.9354 54.3205 11.4629 53.9624 11.1343 53.489C10.8058 53.0155 10.6382 52.4513 10.6559 51.8777V9.75503C10.6392 9.18221 10.8072 8.61897 11.1357 8.14645C11.4642 7.67392 11.9361 7.31652 12.4836 7.12574C12.2773 7.07528 12.0656 7.04954 11.8531 7.04907C10.0664 7.04907 8.61334 7.99165 8.61334 9.75503V51.8777C8.61334 53.6456 10.071 54.5837 11.8622 54.5837H11.7434Z" fill="#092D4D"/>
<path d="M21.5311 43.7236V51.2056C21.4443 56.4281 19.8358 59.9503 11.8622 59.9503H13.9002C21.8783 59.9503 23.4959 56.4281 23.569 51.2056V43.7236H21.5311Z" fill="#092D4D"/>
<path d="M41.0059 54.5159C40.4577 54.3249 39.9851 53.9668 39.6566 53.4934C39.3281 53.0199 39.1605 52.4557 39.1782 51.8821V9.75942C39.1605 9.18585 39.3281 8.62159 39.6566 8.14816C39.9851 7.67473 40.4577 7.31664 41.0059 7.12563C40.8006 7.07863 40.5907 7.05443 40.3799 7.05347C38.5933 7.05347 37.1402 7.99604 37.1402 9.75942V51.8821C37.1402 53.65 38.5978 54.588 40.3891 54.588C40.5967 54.5864 40.8036 54.5622 41.0059 54.5159Z" fill="#092D4D"/>
<path d="M103.918 2.76465H101.88V59.3461H103.918V2.76465Z" fill="#092D4D"/>
<path d="M146.834 8.23975H144.796V27.3844H146.834V8.23975Z" fill="#092D4D"/>
<path d="M146.834 32.9043H144.796V59.3415H146.834V32.9043Z" fill="#092D4D"/>
<path d="M186.926 27.5828H185.189V33.0713H184.947L186.926 33.0758V27.5828Z" fill="#092D4D"/>
<path d="M178.669 33.0757H176.631V53.8529H178.669V33.0757Z" fill="#092D4D"/>
<path d="M187.442 53.853H185.706V59.3416H187.442V53.853Z" fill="#092D4D"/>
<path d="M205.811 11.7529H204.915L202.229 36.0749H204.271L206.455 16.2538L205.875 11.7529H205.811Z" fill="#092D4D"/>
<path d="M199.45 59.3416H201.488L203.531 41.5635H201.488L199.45 59.3416Z" fill="#092D4D"/>
<path d="M250.811 2.76465H248.768V51.2508C248.722 54.2364 247.996 56.1396 246.41 57.4114C244.669 58.8185 241.727 60.0001 237.422 60.0001H239.46C243.769 60.0001 246.707 58.8185 248.453 57.4114C250.034 56.1396 250.737 54.2544 250.811 51.2508V2.76465Z" fill="#092D4D"/>
<path d="M168.058 59.3461H185.701V53.8576H176.626V33.0758H185.185V27.5873H176.626V8.25322H185.701V2.76465H168.058V59.3461Z" fill="#FA4616"/>
<path d="M198.948 2.76465L191.18 59.3461H199.464L201.507 41.568H209.732L211.774 59.3461H220.058L212.254 2.76465H198.948ZM202.219 36.0749L204.911 11.7574H205.866L209 36.0749H202.219Z" fill="#FA4616"/>
<path d="M159.715 49.4693V37.3601C159.715 33.901 157.745 30.9515 154.442 30.2886H154.396C154.396 30.2886 154.519 30.248 154.821 30.1758C157.311 29.567 159.034 27.276 159.541 24.7278C160.455 20.8132 160.478 12.7675 159.605 8.49213C159.359 6.91328 158.549 5.47348 157.32 4.4332C155.688 3.29671 153.724 2.71716 151.727 2.78258H136.191V59.346H144.8V32.9089H148.538C150.201 32.9089 151.476 33.6981 151.618 36.5664V50.5877C151.567 57.4473 151.833 59.346 155.543 59.346H162.21C159.993 58.9762 159.687 55.3638 159.715 49.4693ZM151.513 23.208C151.266 25.8283 150.142 27.3977 148.524 27.3977H144.8V8.24409H148.538C150.201 8.24409 151.476 9.03332 151.618 11.9016C151.604 11.9016 151.755 20.714 151.513 23.208Z" fill="#FA4616"/>
<path d="M107.77 8.25322H114.669V59.3461H123.265V8.25322H130.443V2.76465H107.77V8.25322Z" fill="#FA4616"/>
<path d="M94.267 35.651L84.8997 2.76465H76.8987V59.3461H84.3788V28.5253L94.4818 59.3461H101.871V2.76465H94.2624L94.267 35.651Z" fill="#FA4616"/>
<path d="M68.6006 2.76465H60.0055V59.3461H68.6006V2.76465Z" fill="#FA4616"/>
<path d="M49.3634 4.26631C47.6224 2.86373 44.6797 1.68213 40.3753 1.68213C31.2639 1.68213 28.6137 4.63162 28.5223 10.4178V51.2146C28.6137 57.0053 31.2639 59.9548 40.3753 59.9548C44.6752 59.9548 47.6133 58.7732 49.3542 57.3706C50.9353 56.0943 51.6664 54.1911 51.7121 51.2056V10.4359C51.6755 7.45482 50.9444 5.55615 49.3634 4.26631ZM43.1124 51.8866C43.1124 52.6042 42.8236 53.2925 42.3094 53.8C41.7952 54.3074 41.0979 54.5925 40.3708 54.5925C38.5796 54.5925 37.1265 53.6545 37.1265 51.8866V9.76391C37.1265 7.99602 38.575 7.05795 40.3662 7.05795C41.0933 7.05795 41.7907 7.34304 42.3048 7.85051C42.819 8.35797 43.1078 9.04624 43.1078 9.76391L43.1124 51.8866Z" fill="#FA4616"/>
<path d="M12.5979 1.70488H11.8531C2.71423 1.70488 0.0913883 4.65437 0 10.4406V51.2148C0.0913883 57.0055 2.74165 59.955 11.8531 59.955C19.8313 59.955 21.4488 56.4328 21.5219 51.2058V43.7283H14.5947V51.8868C14.5947 52.6044 14.3059 53.2927 13.7917 53.8002C13.2775 54.3076 12.5802 54.5927 11.8531 54.5927C10.0618 54.5927 8.60421 53.6547 8.60421 51.8868V9.76411C8.60421 7.99622 10.0573 7.05816 11.8485 7.05816C12.5756 7.05816 13.273 7.34324 13.7871 7.85071C14.3013 8.35817 14.5901 9.04644 14.5901 9.76411V17.9226H21.5174V0.00463867C19.9181 2.15587 15.5771 1.77704 12.5979 1.70488Z" fill="#FA4616"/>
<path d="M248.773 2.76465H240.164V51.9228C240.164 52.6405 239.875 53.3287 239.361 53.8362C238.847 54.3437 238.149 54.6288 237.422 54.6288C235.631 54.6288 234.173 53.6907 234.173 51.9228V2.76465H225.569V51.2599C225.661 57.0506 228.311 60.0001 237.422 60.0001C241.731 60.0001 244.674 58.8185 246.415 57.4159C247.996 56.1396 248.699 54.2589 248.773 51.2553V2.76465Z" fill="#FA4616"/>
</g>
<defs>
<clipPath id="clip0_599_3788">
<rect width="250.82" height="60" fill="white"/>
</clipPath>
</defs>
</svg>
