<?xml version="1.0" standalone="no"?>
<!DOCTYPE svg PUBLIC "-//W3C//DTD SVG 1.1//EN" "http://www.w3.org/Graphics/SVG/1.1/DTD/svg11.dtd" >
<svg xmlns="http://www.w3.org/2000/svg" xmlns:xlink="http://www.w3.org/1999/xlink" version="1.1">
<metadata>
Created by FontForge 20170731 at Tue Dec 21 13:21:52 2021
 By Aleksey,,,
Copyright (c) 2004 by Laurenz Brunner. www.lineto.com. All rights reserved.
</metadata>
<defs>
<font id="AkkuratCointreau-Bold" horiz-adv-x="1167" >
  <font-face 
    font-family="Akkurat Cointreau"
    font-weight="700"
    font-stretch="normal"
    units-per-em="2048"
    panose-1="2 11 8 4 2 1 1 2 1 2"
    ascent="1604"
    descent="-444"
    x-height="1065"
    cap-height="1452"
    bbox="-215 -500 2349 1982"
    underline-thickness="92"
    underline-position="-327"
    unicode-range="U+000D-FB02"
  />
<missing-glyph horiz-adv-x="1204" 
d="M180 0v1430h844v-1430h-844zM334 152h536v1124h-536v-1124z" />
    <glyph glyph-name="fi" unicode="fi" horiz-adv-x="1349" 
d="M1194 1208h-274v269h274v-269zM1188 0h-260v1065h260v-1065zM776 1276q-85 16 -168 16q-67 0 -103 -35t-36 -94v-98h285v-211h-285v-854h-256v854h-180v211h180v102q0 151 96.5 243.5t265.5 92.5q91 0 201 -22v-205z" />
    <glyph glyph-name="fl" unicode="fl" horiz-adv-x="1378" 
d="M1317 2q-71 -14 -113 -14q-137 0 -214 69.5t-77 216.5v1207h258v-1164q0 -51 21 -76.5t82 -25.5q13 0 25 1t18 1v-215zM776 1276q-85 16 -168 16q-67 0 -103 -35t-36 -94v-98h285v-211h-285v-854h-256v854h-180v211h180v102q0 151 96.5 243.5t265.5 92.5q91 0 201 -22
v-205z" />
    <glyph glyph-name=".notdef" horiz-adv-x="1204" 
d="M180 0v1430h844v-1430h-844zM334 152h536v1124h-536v-1124z" />
    <glyph glyph-name=".null" horiz-adv-x="0" 
 />
    <glyph glyph-name=".null" horiz-adv-x="0" 
 />
    <glyph glyph-name="uni000D" unicode="&#xd;" horiz-adv-x="428" 
 />
    <glyph glyph-name="space" unicode=" " horiz-adv-x="428" 
 />
    <glyph glyph-name="exclam" unicode="!" horiz-adv-x="679" 
d="M510 997l-57 -563h-154l-57 563v455h268v-455zM512 0h-270v272h270v-272z" />
    <glyph glyph-name="quotedbl" unicode="&#x22;" horiz-adv-x="1075" 
d="M907 1153l-51 -350h-170l-51 350v301h272v-301zM440 1153l-51 -350h-170l-51 350v301h272v-301z" />
    <glyph glyph-name="numbersign" unicode="#" horiz-adv-x="1552" 
d="M1434 846h-279l-35 -268h248v-201h-278l-54 -377h-215l53 377h-282l-53 -377h-215l53 377h-248v201h279l36 268h-249v203h278l55 374h213l-53 -374h283l55 374h213l-53 -374h248v-203zM942 846h-283l-36 -268h282z" />
    <glyph glyph-name="dollar" unicode="$" 
d="M1130 444q0 -167 -116 -286q-125 -128 -334 -150v-186h-150v184q-207 16 -348 146q-65 58 -104.5 140t-40.5 175h252q3 -102 76 -172q65 -62 165 -72v406q-69 8 -100 14q-167 26 -261.5 127.5t-94.5 257.5q0 148 125 270q130 130 331 148v190h150v-194q179 -22 293 -127
q135 -125 141 -293h-252q-3 75 -63 139q-41 44 -119 64v-375l70 -10q167 -26 273.5 -128.5t106.5 -267.5zM883 434q0 135 -168 166l-35 6v-381q93 16 145 68q58 58 58 141zM530 870v361q-94 -14 -151 -68q-55 -52 -55 -129q0 -129 145 -153q49 -10 61 -11z" />
    <glyph glyph-name="percent" unicode="%" horiz-adv-x="1851" 
d="M1749 373q0 -153 -63 -246q-101 -147 -289 -147t-289 147q-64 94 -64 246q0 151 64 245q101 148 289 148t289 -148q63 -93 63 -245zM1522 1372l-1039 -1413l-151 115l1034 1407zM797 1079q0 -151 -64 -245q-101 -148 -289 -148q-187 0 -288 148q-64 94 -64 245
q0 152 64 246q101 148 288 148q188 0 289 -148q64 -94 64 -246zM1546 373q0 47 -6 82t-21 67.5t-45.5 50t-76.5 17.5t-77 -17.5t-46 -50t-21 -68t-6 -81.5t6 -81.5t21 -68t46 -50t77 -17.5t76.5 17.5t45.5 50t21 67.5t6 82zM594 1079q0 46 -6 81.5t-21 68t-46 50t-77 17.5
t-76.5 -17.5t-45.5 -50t-21 -67.5t-6 -82t6 -82t21 -67.5t45.5 -50t76.5 -17.5t77 17.5t46 50t21 68t6 81.5z" />
    <glyph glyph-name="ampersand" unicode="&#x26;" horiz-adv-x="1519" 
d="M1442 -2h-312l-102 115q-174 -152 -412 -152q-130 0 -238.5 52.5t-175.5 154t-67 233.5q0 243 258 400q-81 88 -118 155t-37 160q0 167 114 267t283 100q107 0 197.5 -41.5t147 -124.5t56.5 -193q0 -68 -19.5 -126t-58 -105t-85.5 -84t-111 -74l252 -274q30 53 37 178
q4 66 4 178h375v-203h-168q-11 -204 -88 -325q47 -50 135.5 -147t132.5 -144zM797 1114q0 73 -45.5 115.5t-116.5 42.5q-67 0 -114.5 -40.5t-47.5 -111.5q0 -20 3.5 -38t14 -37.5t17 -32t24.5 -32.5t24.5 -27.5t28 -29.5t25.5 -26q93 50 124 78q63 57 63 139zM874 274
q-56 62 -165.5 184t-165.5 183q-45 -26 -69 -43.5t-51.5 -45t-39.5 -62t-12 -78.5q0 -107 75.5 -167.5t184.5 -60.5q162 0 243 90z" />
    <glyph glyph-name="quotesingle" unicode="'" horiz-adv-x="567" 
d="M420 1153l-51 -350h-170l-52 350v301h273v-301z" />
    <glyph glyph-name="parenleft" unicode="(" horiz-adv-x="671" 
d="M651 -236l-145 -108q-187 215 -280 459t-93 534t93 534t280 459l145 -108q-109 -147 -173 -273t-98 -276.5t-34 -335.5t34 -335.5t98 -276.5t173 -273z" />
    <glyph glyph-name="parenright" unicode=")" horiz-adv-x="671" 
d="M539 649q0 -290 -93 -534t-280 -459l-146 108q164 220 235 417t71 468t-71 468t-235 417l146 108q187 -215 280 -459t93 -534z" />
    <glyph glyph-name="asterisk" unicode="*" horiz-adv-x="1075" 
d="M993 1036l-309 -82l205 -256l-178 -133l-172 285l-174 -287l-179 133l205 258l-309 82l68 217l296 -123l-20 330l221 -2l-22 -330l299 125z" />
    <glyph glyph-name="plus" unicode="+" horiz-adv-x="1390" 
d="M1278 522h-467v-512h-231v512h-467v219h467v480h231v-480h467v-219z" />
    <glyph glyph-name="comma" unicode="," horiz-adv-x="598" 
d="M455 25q0 -142 -49.5 -230.5t-178.5 -142.5l-71 119q85 39 113 89.5t28 139.5h-154v319h312v-294z" />
    <glyph glyph-name="hyphen" unicode="-" horiz-adv-x="948" 
d="M825 516h-702v229h702v-229z" />
    <glyph glyph-name="period" unicode="." horiz-adv-x="600" 
d="M455 0h-312v319h312v-319z" />
    <glyph glyph-name="slash" unicode="/" horiz-adv-x="796" 
d="M817 1479l-629 -1506h-188l629 1506h188z" />
    <glyph glyph-name="zero" unicode="0" 
d="M1085 713q0 -98 -6.5 -176.5t-23 -162.5t-52 -153.5t-88.5 -120.5q-131 -127 -331 -127q-201 0 -332 127q-53 51 -88.5 120.5t-52 153.5t-23 162.5t-6.5 176.5t6.5 176t23 162t52 153.5t88.5 120.5q128 125 332 125q203 0 331 -125q53 -51 88.5 -120.5t52 -153.5t23 -162
t6.5 -176zM825 713v41q2 35 0.5 73.5t-3 77.5t-8.5 77t-17 72t-28.5 63.5t-43 51t-60.5 33.5t-81 12q-51 0 -91 -16t-65 -43t-43 -64t-26 -78.5t-13 -86.5t-4 -89t0 -84v-40q0 -167 4 -214q21 -233 160 -277q35 -11 78 -11q51 0 90.5 15.5t64.5 43t43.5 64t26 78.5t12.5 87
t4 88.5t0 84.5v41z" />
    <glyph glyph-name="one" unicode="1" 
d="M807 0h-256v1120l-313 -227v278l350 252h219v-1423z" />
    <glyph glyph-name="two" unicode="2" 
d="M1036 0h-909v205l555 661q74 86 74 183q0 78 -48 128t-133 50q-88 0 -139 -58.5t-51 -146.5h-262q2 193 121 310.5t334 117.5q123 0 221.5 -47t157.5 -138.5t59 -213.5q0 -162 -156 -349l-393 -471h569v-231z" />
    <glyph glyph-name="three" unicode="3" 
d="M1057 408q0 -104 -38 -187.5t-104.5 -137t-154.5 -82t-189 -28.5q-201 0 -339 121.5t-144 317.5h256q7 -102 70 -157.5t159 -55.5q98 0 162 57t64 156q0 105 -71.5 160t-178.5 55h-107v223h107q219 0 219 190q0 78 -55.5 132.5t-139.5 54.5q-99 0 -158.5 -49.5
t-60.5 -143.5h-258q3 194 138.5 305t338.5 111q197 0 326 -111t129 -292q0 -100 -55.5 -186.5t-149.5 -119.5q107 -30 170.5 -124.5t63.5 -208.5z" />
    <glyph glyph-name="four" unicode="4" 
d="M1126 287h-180v-287h-256v287h-635v241l523 895h278l-530 -905h364v334h256v-334h180v-231z" />
    <glyph glyph-name="five" unicode="5" 
d="M1092 483q0 -231 -131.5 -371.5t-364.5 -140.5q-212 0 -348 122t-146 323h256q4 -103 70 -160t170 -57q83 0 136.5 38.5t75 98.5t21.5 141q0 119 -57.5 188.5t-175.5 69.5q-64 0 -122 -30.5t-91 -83.5h-252l31 802h864v-229h-643l-16 -326q101 93 282 93q140 0 241 -63.5
t150.5 -170.5t49.5 -244z" />
    <glyph glyph-name="six" unicode="6" 
d="M1096 469q0 -142 -54 -252.5t-166.5 -177t-269.5 -66.5q-196 0 -321.5 124.5t-159.5 324.5q-23 132 -23 266q0 94 4.5 166t19.5 161t48.5 163.5t85.5 130.5q64 68 146.5 104.5t201.5 36.5q204 0 326 -115q58 -55 89.5 -126t31.5 -136h-258q-6 66 -49 109q-48 51 -152 51
q-81 0 -141 -57q-99 -91 -99 -326q44 53 120.5 78.5t150.5 25.5q225 0 347 -131.5t122 -353.5zM836 479q0 116 -60 191t-174 75q-101 0 -161 -75.5t-60 -190.5q0 -123 57.5 -199.5t167.5 -76.5q113 0 171.5 74t58.5 202z" />
    <glyph glyph-name="seven" unicode="7" 
d="M1077 1219l-555 -1219h-276l557 1194h-707v229h981v-204z" />
    <glyph glyph-name="eight" unicode="8" 
d="M1075 399q0 -100 -40.5 -182.5t-109 -135.5t-156.5 -81.5t-185 -28.5t-185 28.5t-157 81.5t-109.5 135.5t-40.5 182.5q0 109 54 201.5t153 138.5q-78 43 -128 130t-50 178q0 98 37 176t101.5 126.5t147.5 74.5t177 26t177 -26t147.5 -74.5t101.5 -126.5t37 -176
q0 -91 -50.5 -178t-128.5 -130q99 -46 153 -138.5t54 -201.5zM788 1042q0 81 -53 133t-151 52q-99 0 -152 -51.5t-53 -133.5t54 -136t151 -54t150.5 54t53.5 136zM817 416q0 92 -61.5 151.5t-171.5 59.5t-172 -60t-62 -151q0 -98 64.5 -157.5t169.5 -59.5t169 59.5t64 157.5
z" />
    <glyph glyph-name="nine" unicode="9" 
d="M1069 737q0 -94 -4.5 -166t-19.5 -160.5t-48.5 -163t-85.5 -130.5q-65 -69 -147 -106.5t-201 -37.5q-201 0 -325 117q-58 55 -89.5 126t-31.5 136h258q6 -65 49 -108q48 -51 151 -51q82 0 142 57q98 90 98 325q-44 -53 -120 -78.5t-150 -25.5q-225 0 -347 131.5
t-122 353.5q0 142 53.5 252t166 176t269.5 66q196 0 322 -123.5t160 -322.5q22 -126 22 -267zM791 946q0 123 -58 200t-168 77q-113 0 -171 -74.5t-58 -202.5q0 -117 60 -191.5t173 -74.5q101 0 161.5 75.5t60.5 190.5z" />
    <glyph glyph-name="colon" unicode=":" horiz-adv-x="657" 
d="M502 756h-309v309h309v-309zM502 0h-309v309h309v-309z" />
    <glyph glyph-name="semicolon" unicode=";" horiz-adv-x="657" 
d="M502 756h-309v309h309v-309zM502 25q0 -142 -48.5 -229.5t-177.5 -141.5l-71 119q82 38 111.5 89t29.5 138h-153v309h309v-284z" />
    <glyph glyph-name="less" unicode="&#x3c;" horiz-adv-x="954" 
d="M719 1321l143 -143l-520 -519l520 -520l-141 -139l-660 662z" />
    <glyph glyph-name="equal" unicode="=" horiz-adv-x="1413" 
d="M1229 672h-1045v200h1045v-200zM1229 264h-1045v203h1045v-203z" />
    <glyph glyph-name="greater" unicode="&#x3e;" horiz-adv-x="954" 
d="M92 1178l144 143l657 -659l-660 -662l-141 139l520 520z" />
    <glyph glyph-name="question" unicode="?" horiz-adv-x="1069" 
d="M1012 1083q0 -187 -162 -325q-16 -14 -50 -41t-48.5 -40t-37.5 -38t-33 -46t-18 -53t-8 -69v-57h-254q0 144 11 198q11 51 31 93t49 74t53.5 54t62 52t58.5 49q79 71 79 147q0 72 -53 122t-145 50q-99 0 -158 -53t-59 -151h-264q0 105 38.5 189t105.5 137.5t155.5 81.5
t191.5 28q199 0 327 -115.5t128 -286.5zM670 0h-285v287h285v-287z" />
    <glyph glyph-name="at" unicode="@" horiz-adv-x="1898" 
d="M1790 786q0 -74 -15.5 -149t-50 -148.5t-84.5 -129.5t-124.5 -91t-163.5 -35q-75 0 -126.5 31.5t-80.5 110.5q-38 -68 -102 -102.5t-140 -34.5q-84 0 -149 33t-104 89.5t-59 126.5t-20 150q0 116 38.5 210.5t120.5 155t196 60.5q68 0 128 -35t79 -96l28 108h189l-37 -520
q-3 -45 11 -70.5t44 -25.5q56 0 104.5 53.5t71.5 122.5q27 85 27 182q0 241 -152 370.5t-407 129.5q-296 0 -469.5 -175t-173.5 -462q0 -127 42 -237.5t117 -191t185 -127t241 -46.5q286 0 506 78v-197q-222 -82 -508 -82q-183 0 -336 62.5t-256 171.5t-160 260t-57 326
q0 243 109.5 429t306.5 287t451 101q162 0 302.5 -44.5t247.5 -129t168.5 -218.5t61.5 -301zM1118 678q0 203 -153 203q-83 0 -125.5 -72t-42.5 -172q0 -90 36 -149.5t109 -59.5q48 0 83.5 20t55 56t28.5 79t9 95z" />
    <glyph glyph-name="A" unicode="A" horiz-adv-x="1308" 
d="M1309 0h-277l-94 279h-578l-94 -279h-266l510 1452h289zM856 516l-207 612l-207 -612h414z" />
    <glyph glyph-name="B" unicode="B" horiz-adv-x="1359" 
d="M1282 422q0 -213 -147 -326q-77 -59 -170 -78.5t-217 -19.5h-578v1454h578q211 0 335 -80q79 -52 123.5 -136.5t44.5 -178.5q0 -97 -45.5 -182.5t-132.5 -124.5q100 -46 154.5 -135t54.5 -193zM983 1040q0 97 -63 141t-162 44h-326v-365h332q219 0 219 180zM1014 428
q0 110 -67.5 160.5t-180.5 50.5h-334v-403h326q49 0 92.5 9.5t81.5 31t60 60t22 91.5z" />
    <glyph glyph-name="C" unicode="C" horiz-adv-x="1286" 
d="M1229 463q-21 -197 -139 -318q-81 -83 -189.5 -127.5t-226.5 -44.5q-250 0 -412 162q-109 109 -144.5 246.5t-35.5 343.5t35.5 343.5t144.5 246.5q164 164 412 164q119 0 227 -43t189 -125q119 -122 139 -316h-271q-8 85 -65 154q-72 90 -219 90q-133 0 -223 -96
q-35 -37 -57.5 -87t-31 -114.5t-10.5 -106.5t-2 -110t2 -110t10.5 -106.5t31 -114.5t57.5 -87q90 -96 223 -96q68 0 126 24t93 68q56 68 65 160h271z" />
    <glyph glyph-name="D" unicode="D" horiz-adv-x="1400" 
d="M1313 727q0 -118 -10 -206t-49.5 -190.5t-110.5 -174.5q-72 -75 -178 -115.5t-230 -40.5h-565v1452h565q124 0 230 -40.5t178 -115.5q71 -72 110.5 -174t49.5 -189.5t10 -205.5zM1044 727q0 66 -2.5 108t-11 103.5t-31.5 110t-59 84.5q-81 81 -205 81h-301v-976h301
q124 0 205 81q36 36 59 85t31.5 110.5t11 104t2.5 108.5z" />
    <glyph glyph-name="E" unicode="E" horiz-adv-x="1286" 
d="M1204 0h-1034v1452h1034v-240h-770v-338h678v-237h-678v-397h770v-240z" />
    <glyph glyph-name="F" unicode="F" horiz-adv-x="1204" 
d="M1174 1212h-740v-389h660v-239h-660v-584h-264v1452h1004v-240z" />
    <glyph glyph-name="G" unicode="G" horiz-adv-x="1400" 
d="M1272 0h-170l-31 160q-36 -71 -136.5 -128.5t-227.5 -58.5q-276 -3 -433 162q-107 111 -147.5 253t-40.5 337q0 199 39 336.5t149 247.5q81 81 197 125.5t236 44.5q130 0 242.5 -44.5t187.5 -121.5q122 -126 133 -293h-271q-4 63 -63 133q-76 88 -231 88
q-64 0 -130 -26.5t-108 -71.5q-113 -118 -113 -418q0 -304 115 -424q41 -44 105.5 -68t130.5 -24q136 0 217 84q55 58 74.5 124t19.5 158h-346v220h602v-795z" />
    <glyph glyph-name="H" unicode="H" horiz-adv-x="1464" 
d="M1294 0h-264v633h-596v-633h-264v1452h264v-567h596v567h264v-1452z" />
    <glyph glyph-name="I" unicode="I" horiz-adv-x="608" 
d="M438 0h-268v1452h268v-1452z" />
    <glyph glyph-name="J" unicode="J" horiz-adv-x="1005" 
d="M877 424q0 -208 -117 -330.5t-324 -122.5q-193 0 -309 119q-127 130 -127 365h256q0 -137 53 -195q50 -53 127 -53q87 0 131.5 52t44.5 144v1049h265v-1028z" />
    <glyph glyph-name="K" unicode="K" horiz-adv-x="1388" 
d="M1389 0h-312l-393 686l-250 -293v-393h-264v1452h264v-670l580 670h321l-467 -549z" />
    <glyph glyph-name="L" unicode="L" horiz-adv-x="1126" 
d="M1108 0h-938v1452h264v-1202h674v-250z" />
    <glyph glyph-name="M" unicode="M" horiz-adv-x="1798" 
d="M1628 0h-256v1036l-377 -1016h-194l-375 1029v-1049h-256v1452h356l381 -1034l383 1034h338v-1452z" />
    <glyph glyph-name="N" unicode="N" horiz-adv-x="1501" 
d="M1331 0h-272l-629 997v-997h-260v1452h281l620 -983v983h260v-1452z" />
    <glyph glyph-name="O" unicode="O" horiz-adv-x="1376" 
d="M1290 725q0 -202 -37 -340t-147 -248q-81 -81 -189.5 -122.5t-228.5 -41.5t-228.5 41.5t-189.5 122.5q-110 110 -147 248t-37 340q0 203 37 341.5t147 248.5q81 81 189.5 122.5t228.5 41.5t228.5 -41.5t189.5 -122.5q110 -110 147 -248.5t37 -341.5zM1022 725
q0 65 -2.5 110t-11.5 107.5t-32 113t-58 87.5q-42 45 -104 70.5t-126 25.5t-125.5 -25.5t-103.5 -70.5q-35 -37 -58 -88t-32.5 -113t-12 -107.5t-2.5 -109.5t2.5 -109.5t12 -107t32.5 -112t58 -87.5q42 -45 103.5 -70.5t125.5 -25.5t126 25.5t104 70.5q35 37 58 87.5
t32 112.5t11.5 106.5t2.5 109.5z" />
    <glyph glyph-name="P" unicode="P" horiz-adv-x="1277" 
d="M1251 987q0 -214 -133.5 -340.5t-378.5 -126.5h-307v-520h-262v1452h569q246 0 379 -125.5t133 -339.5zM985 985q0 109 -64 172.5t-192 63.5h-297v-469h297q128 0 192 62.5t64 170.5z" />
    <glyph glyph-name="Q" unicode="Q" horiz-adv-x="1376" 
d="M1290 725q0 -202 -37 -339t-145 -247l127 -159l-158 -123l-135 168q-119 -52 -254 -52q-120 0 -228.5 41.5t-189.5 122.5q-110 110 -147 248t-37 340q0 203 37 341.5t147 248.5q81 81 189.5 122.5t228.5 41.5t228.5 -41.5t189.5 -122.5q110 -110 147 -248.5t37 -341.5z
M1022 725q0 65 -2.5 110t-11.5 107.5t-32 113t-58 87.5q-42 45 -104 70.5t-126 25.5t-125.5 -25.5t-103.5 -70.5q-35 -37 -58 -88t-32.5 -113t-12 -107.5t-2.5 -109.5t2.5 -109.5t12 -107t32.5 -112t58 -87.5q42 -45 103.5 -70.5t125.5 -25.5q51 0 94 14l-155 195l159 125
l160 -203q26 38 42 85.5t23 102.5t9 96t2 97z" />
    <glyph glyph-name="R" unicode="R" horiz-adv-x="1349" 
d="M1286 0h-287l-241 549h-322v-549h-266v1452h612q125 0 224 -37.5t158.5 -101t90.5 -143t31 -169.5q0 -145 -72.5 -253.5t-193.5 -153.5zM1022 1001q0 91 -65.5 155.5t-174.5 64.5h-348v-435h352q113 0 174.5 56t61.5 159z" />
    <glyph glyph-name="S" unicode="S" horiz-adv-x="1294" 
d="M1227 432q0 -182 -121 -303q-156 -156 -459 -156q-270 0 -434 150q-68 62 -110 150.5t-42 187.5h271q0 -102 76 -178q78 -78 243 -78q177 0 252 78q29 31 43.5 61t14.5 78q0 74 -49 116.5t-124 55.5q-52 9 -164 20.5t-157 18.5q-162 27 -265.5 130t-103.5 275
q0 160 127 287q73 71 186.5 112.5t239.5 41.5q119 0 226 -37t180 -105q144 -137 147 -309h-270q-3 79 -64 143q-34 35 -97 56.5t-124 21.5q-158 0 -235 -80q-49 -52 -49 -122q0 -68 39.5 -107.5t107.5 -50.5q52 -8 167 -20.5t148 -16.5q173 -25 286.5 -134t113.5 -286z" />
    <glyph glyph-name="T" unicode="T" horiz-adv-x="1148" 
d="M1137 1206h-430v-1206h-265v1206h-430v246h1125v-246z" />
    <glyph glyph-name="U" unicode="U" horiz-adv-x="1396" 
d="M1268 557q0 -175 -63.5 -305t-193 -204.5t-313.5 -74.5t-313.5 74.5t-192.5 204.5t-63 305v895h264v-891q0 -162 76 -255t229 -93t229.5 93t76.5 255v891h264v-895z" />
    <glyph glyph-name="V" unicode="V" horiz-adv-x="1249" 
d="M1249 1452l-477 -1452h-291l-481 1452h281l352 -1108l350 1108h266z" />
    <glyph glyph-name="W" unicode="W" horiz-adv-x="1785" 
d="M1751 1452l-289 -1452h-264l-303 1001l-303 -1001h-264l-293 1452h252l202 -1010l299 988h222l293 -988l206 1010h242z" />
    <glyph glyph-name="X" unicode="X" horiz-adv-x="1234" 
d="M1231 0h-291l-326 528l-325 -528h-285l457 739l-453 713h289l326 -508l315 508h287l-447 -715z" />
    <glyph glyph-name="Y" unicode="Y" horiz-adv-x="1277" 
d="M1278 1452l-508 -895v-557h-266v557l-504 895h287l358 -627l359 627h274z" />
    <glyph glyph-name="Z" unicode="Z" horiz-adv-x="1259" 
d="M1196 0h-1137v260l801 952h-788v240h1114v-260l-795 -952h805v-240z" />
    <glyph glyph-name="bracketleft" unicode="[" horiz-adv-x="743" 
d="M692 -303h-479v1900h479v-174h-286v-1552h286v-174z" />
    <glyph glyph-name="backslash" unicode="\" horiz-adv-x="796" 
d="M797 -27h-189l-628 1506h188z" />
    <glyph glyph-name="bracketright" unicode="]" horiz-adv-x="743" 
d="M530 -303h-479v174h287v1552h-287v174h479v-1900z" />
    <glyph glyph-name="asciicircum" unicode="^" horiz-adv-x="1101" 
d="M999 827h-282l-170 334l-172 -334h-273l349 652h202z" />
    <glyph glyph-name="underscore" unicode="_" horiz-adv-x="1202" 
d="M1153 -184h-1104v180h1104v-180z" />
    <glyph glyph-name="grave" unicode="`" horiz-adv-x="522" 
d="M498 1292l-82 -133l-410 230l115 186z" />
    <glyph glyph-name="a" unicode="a" horiz-adv-x="1150" 
d="M1087 12q-28 -12 -40 -16t-34.5 -8t-51.5 -4q-80 0 -127.5 42.5t-53.5 106.5q-39 -68 -126.5 -114t-196.5 -46q-181 0 -283 97.5t-102 236.5q0 147 101 235t259 99l313 23v65q0 82 -39 125t-141 43q-89 0 -139.5 -39.5t-54.5 -112.5h-248q10 172 131.5 259.5t310.5 87.5
q317 0 400 -218q30 -76 30 -215v-395q0 -37 14 -52t46 -15l32 4v-189zM745 424v49l-270 -20q-63 -5 -108 -42t-45 -98q0 -60 44.5 -96.5t106.5 -36.5q123 0 197.5 64t74.5 180z" />
    <glyph glyph-name="b" unicode="b" horiz-adv-x="1230" 
d="M1145 530q0 -308 -191 -464q-113 -91 -258 -91q-93 0 -173.5 36t-125.5 106l-16 -117h-221v1479h256v-492q38 46 112 75.5t166 29.5q153 0 260 -86q191 -156 191 -476zM885 535q0 168 -68 258q-66 84 -172 84q-58 0 -102 -21t-70 -54.5t-42.5 -80t-22 -91t-5.5 -95.5
q0 -206 93 -291q57 -54 149 -54q106 0 172 84q68 90 68 261z" />
    <glyph glyph-name="c" unicode="c" horiz-adv-x="1087" 
d="M1020 377q-6 -135 -82 -232q-60 -74 -155 -121t-210 -47t-212.5 47.5t-157.5 120.5q-117 146 -117 390q0 243 117 389q60 73 157.5 120.5t212.5 47.5t210 -47t155 -121q76 -97 82 -232h-252q-3 51 -31 99q-52 79 -164 79q-94 0 -155 -65q-72 -80 -72 -270q0 -189 72 -269
q63 -67 155 -67q111 0 164 80q28 48 31 98h252z" />
    <glyph glyph-name="d" unicode="d" horiz-adv-x="1230" 
d="M1071 0h-221l-16 117q-45 -70 -125.5 -106t-173.5 -36q-148 0 -261 91q-188 154 -188 464q0 320 190 476q107 86 261 86q96 0 169 -28.5t109 -72.5v488h256v-1479zM827 535q0 51 -5.5 95.5t-21.5 91t-42 80t-70 54.5t-102 21q-106 0 -172 -84q-68 -90 -68 -258
q0 -171 68 -261q66 -84 172 -84q58 0 102 21.5t70 55t42 81t21.5 92t5.5 95.5z" />
    <glyph glyph-name="e" unicode="e" horiz-adv-x="1140" 
d="M1061 524q-2 -48 -2 -71h-713q-3 -131 78 -209q70 -66 158 -66q104 0 155 51q38 38 51 90h246q-4 -45 -30.5 -101t-59.5 -95q-127 -150 -358 -150q-198 0 -336 131q-164 158 -164 426q0 269 154 426q133 136 340 136q122 0 223.5 -50t165.5 -147q99 -148 92 -371z
M805 639q-3 117 -66 186q-59 62 -161 62q-117 0 -179 -82q-52 -66 -55 -166h461z" />
    <glyph glyph-name="f" unicode="f" horiz-adv-x="776" 
d="M776 1276q-85 16 -168 16q-67 0 -103 -35t-36 -94v-98h285v-211h-285v-854h-256v854h-180v211h180v102q0 151 96.5 243.5t265.5 92.5q91 0 201 -22v-205z" />
    <glyph glyph-name="g" unicode="g" horiz-adv-x="1128" 
d="M1098 -141q0 -81 -31 -144.5t-81 -103t-119 -64.5t-138 -35t-145 -10q-118 0 -210 17.5t-167 70.5q-129 90 -129 234q0 70 33.5 128.5t93.5 88.5q-50 27 -78.5 77.5t-28.5 104.5q0 137 127 215q-106 106 -106 262q0 123 59.5 213.5t157 134.5t219.5 44q129 0 242 -66
q33 67 90 100t127 33q53 0 69 -4v-199q-3 0 -10 1t-10 1q-108 0 -129 -67q55 -90 55 -193q0 -118 -61 -207.5t-159 -134.5t-214 -45q-87 0 -172 29q-53 -30 -53 -76q0 -78 116 -78h177q73 0 118.5 -2.5t113.5 -19.5t114 -49q129 -88 129 -256zM743 700q0 88 -51 143.5
t-137 55.5t-137 -55.5t-51 -143.5t50.5 -142t137.5 -54t137.5 54t50.5 142zM856 -147q0 27 -9.5 48.5t-23 35t-37.5 23t-43 14t-49.5 7t-46.5 3t-45 0.5h-201q-43 -12 -69.5 -47t-26.5 -84q0 -148 268 -148q27 0 48 0.5t52 4t54.5 9.5t49 17t42 26t27 38.5t10.5 52.5z" />
    <glyph glyph-name="h" unicode="h" horiz-adv-x="1210" 
d="M1067 0h-256v657q0 98 -39.5 148.5t-136.5 50.5q-72 0 -124 -47.5t-73.5 -112.5t-21.5 -135v-561h-256v1479h256v-527q44 66 124.5 103t166.5 37q167 0 263.5 -106.5t96.5 -274.5v-711z" />
    <glyph glyph-name="i" unicode="i" horiz-adv-x="585" 
d="M430 1212h-274v265h274v-265zM424 0h-260v1065h260v-1065z" />
    <glyph glyph-name="j" unicode="j" horiz-adv-x="606" 
d="M451 1217h-275v264h275v-264zM444 -147q0 -138 -79 -217.5t-220 -79.5q-57 0 -90 4q-57 7 -116 22v217q114 -12 124 -12q59 0 91 30t32 85v1163h258v-1212z" />
    <glyph glyph-name="k" unicode="k" horiz-adv-x="1181" 
d="M1182 0h-297l-299 465l-170 -184v-281h-256v1479h256v-846l403 432h322l-381 -412z" />
    <glyph glyph-name="l" unicode="l" horiz-adv-x="618" 
d="M557 2q-71 -14 -113 -14q-137 0 -213.5 69.5t-76.5 216.5v1207h258v-1164q0 -52 20.5 -77t81.5 -25q13 0 25 1t18 1v-215z" />
    <glyph glyph-name="m" unicode="m" horiz-adv-x="1812" 
d="M1669 0h-254v662q0 105 -36 155.5t-128 50.5q-69 0 -118 -45t-70 -107.5t-21 -133.5v-582h-254v662q0 105 -35.5 155.5t-127.5 50.5q-69 0 -118.5 -45t-71 -108t-21.5 -133v-582h-254v1065h213l20 -141q46 77 123.5 122.5t179.5 45.5q220 0 305 -174q47 83 131 128.5
t191 45.5q166 0 256 -101.5t90 -271.5v-719z" />
    <glyph glyph-name="n" unicode="n" horiz-adv-x="1210" 
d="M1067 0h-256v653q0 100 -39.5 150.5t-136.5 50.5q-123 0 -184 -135q-17 -39 -25.5 -96.5t-9 -88.5t-0.5 -100v-434h-256v1065h215l18 -137q45 81 130.5 122.5t183.5 41.5q167 0 263.5 -106t96.5 -275v-711z" />
    <glyph glyph-name="o" unicode="o" 
d="M1081 532q0 -130 -31 -222t-94 -171q-59 -72 -157.5 -119t-214.5 -47t-215 47t-158 119q-63 79 -94 171t-31 222t31 222.5t94 171.5q59 72 158 119t215 47t214.5 -47t157.5 -119q63 -79 94 -171.5t31 -222.5zM821 532q0 184 -76 269q-63 67 -161 67q-99 0 -162 -67
q-76 -85 -76 -269q0 -183 76 -268q63 -67 162 -67q98 0 161 67q76 85 76 268z" />
    <glyph glyph-name="p" unicode="p" horiz-adv-x="1230" 
d="M1145 535q0 -320 -191 -476q-107 -86 -260 -86q-92 0 -166 29.5t-112 75.5v-486h-256v1473h221l16 -117q45 70 125.5 106t173.5 36q145 0 258 -91q191 -156 191 -464zM885 530q0 171 -68 261q-65 83 -172 83q-72 0 -122 -31t-75 -84.5t-35 -108.5t-10 -120
q0 -51 5.5 -95.5t22 -91t42.5 -80t70 -54.5t102 -21q106 0 172 84q68 90 68 258z" />
    <glyph glyph-name="q" unicode="q" horiz-adv-x="1230" 
d="M1071 -408h-256v484q-38 -46 -112 -74.5t-166 -28.5q-154 0 -261 86q-190 156 -190 476q0 308 190 464q113 91 259 91q93 0 173.5 -36t125.5 -106l16 117h221v-1473zM827 530q0 51 -5.5 95.5t-21.5 91.5t-42 80.5t-70 55t-102 21.5q-107 0 -172 -83q-68 -90 -68 -261
q0 -168 68 -258q66 -84 172 -84q58 0 102 21t70 54.5t42 80t21.5 91t5.5 95.5z" />
    <glyph glyph-name="r" unicode="r" horiz-adv-x="808" 
d="M780 827q-53 11 -88 11q-131 0 -202.5 -83.5t-71.5 -217.5v-537h-258v1065h217l22 -160q35 87 117.5 130.5t183.5 43.5q40 0 80 -6v-246z" />
    <glyph glyph-name="s" unicode="s" horiz-adv-x="1067" 
d="M987 330q0 -142 -92 -234q-123 -123 -365 -123q-215 0 -344 123q-49 48 -80.5 112.5t-31.5 135.5h239q0 -35 16.5 -69.5t41.5 -55.5q58 -47 161 -47q38 0 71.5 5t69 18t56.5 42t21 70q0 46 -28.5 75.5t-78.5 37.5q-22 3 -131 16t-164 25q-108 23 -176 102.5t-68 181.5
q0 145 109 240q123 107 324 107q99 0 187.5 -32t145.5 -93q95 -102 95 -219h-244q0 54 -43 100q-49 49 -139 49q-72 0 -111 -16q-36 -14 -59 -44t-23 -69q0 -89 123 -106q136 -17 227 -31q131 -21 211 -100t80 -201z" />
    <glyph glyph-name="t" unicode="t" horiz-adv-x="819" 
d="M762 14q-112 -28 -219 -28q-159 0 -240.5 85.5t-81.5 241.5v541h-194v211h194v270l256 64v-334h268v-211h-268v-518q0 -61 28.5 -89t90.5 -28q78 0 166 10v-215z" />
    <glyph glyph-name="u" unicode="u" horiz-adv-x="1208" 
d="M1049 0h-213l-19 139q-38 -77 -120.5 -121.5t-184.5 -44.5q-169 0 -269 104.5t-100 276.5v711h256v-653q0 -203 185 -203q78 0 131 53q78 73 78 240v563h256v-1065z" />
    <glyph glyph-name="v" unicode="v" horiz-adv-x="1052" 
d="M1053 1065l-385 -1065h-273l-395 1065h270l267 -750l251 750h265z" />
    <glyph glyph-name="w" unicode="w" horiz-adv-x="1579" 
d="M1532 1065l-260 -1065h-238l-241 719l-238 -719h-238l-270 1065h248l170 -698l223 688h211l225 -686l164 696h244z" />
    <glyph glyph-name="x" unicode="x" horiz-adv-x="1056" 
d="M1051 1065l-367 -524l365 -541h-289l-238 356l-233 -356h-281l373 543l-375 522h295l238 -344l231 344h281z" />
    <glyph glyph-name="y" unicode="y" horiz-adv-x="1085" 
d="M1085 1065l-469 -1247q-22 -57 -48 -101t-64.5 -83.5t-93 -61t-121.5 -21.5q-91 0 -197 27v213q102 -18 144 -18q88 0 122 80l62 149l-420 1063h281l278 -770l266 770h260z" />
    <glyph glyph-name="z" unicode="z" horiz-adv-x="1038" 
d="M958 0h-868v225l563 629h-559v211h860v-231l-557 -623h561v-211z" />
    <glyph glyph-name="braceleft" unicode="{" horiz-adv-x="776" 
d="M776 -303h-108q-86 0 -152 28t-105 77t-59 110t-20 131q0 31 1 127t1 127q0 131 -58 189t-184 67v190q125 11 183.5 65.5t58.5 188.5q0 31 -1 127t-1 127q0 70 20 131t59 110t105 77t152 28h108v-174h-69q-97 0 -139 -47t-42 -139v-315q-2 -95 -59.5 -171t-161.5 -98v-6
q103 -22 161 -100.5t60 -173.5v-316q0 -92 42 -139t139 -47h69v-174z" />
    <glyph glyph-name="bar" unicode="|" horiz-adv-x="548" 
d="M375 -303h-201v1900h201v-1900z" />
    <glyph glyph-name="braceright" unicode="}" horiz-adv-x="776" 
d="M684 553q-126 -9 -184 -67t-58 -189q0 -31 1 -127t1 -127q0 -70 -19.5 -131t-59 -110t-105 -77t-151.5 -28h-109v174h70q97 0 138.5 47t41.5 139v316q2 95 60 173.5t161 100.5v6q-104 22 -161.5 98t-59.5 171v315q0 92 -41.5 139t-138.5 47h-70v174h109q86 0 151.5 -28
t105 -77t59 -110t19.5 -131q0 -31 -1 -127t-1 -127q0 -134 58.5 -188.5t183.5 -65.5v-190z" />
    <glyph glyph-name="asciitilde" unicode="~" horiz-adv-x="1398" 
d="M1276 627q-60 -63 -110 -103.5t-121.5 -71t-147.5 -30.5q-68 0 -145 32t-144 63.5t-112 31.5q-97 0 -211 -123l-162 195q92 99 179 153.5t196 54.5q66 0 141.5 -30.5t143 -61t114.5 -30.5q105 0 215 114z" />
    <glyph glyph-name="uni00A0" unicode="&#xa0;" horiz-adv-x="428" 
 />
    <glyph glyph-name="exclamdown" unicode="&#xa1;" horiz-adv-x="679" 
d="M440 758h-270v276h270v-276zM438 -418h-268v455l57 563h154l57 -563v-455z" />
    <glyph glyph-name="cent" unicode="&#xa2;" 
d="M1044 565q-6 -133 -81 -229q-50 -66 -129 -111t-175 -55v-174h-127v178q-94 13 -172.5 57.5t-126.5 104.5q-110 135 -110 389t110 389q49 61 127 106t172 58v180h127v-178q96 -10 175 -55t129 -111q75 -96 81 -229h-247q-2 48 -31 96q-37 59 -107 76v-664q70 17 107 76
q29 48 31 96h247zM532 397v656q-48 -16 -86 -58q-41 -46 -55 -112.5t-14 -157.5t14 -157.5t55 -112.5q38 -42 86 -58z" />
    <glyph glyph-name="sterling" unicode="&#xa3;" 
d="M1106 393q0 -192 -101.5 -292.5t-293.5 -100.5h-652v225q156 0 156 152v266h-154v211h154v186q0 192 113.5 303t306.5 111q177 0 293 -106.5t116 -282.5h-256q0 73 -40 120.5t-113 47.5q-80 0 -121 -49t-41 -131v-199h293v-211h-293v-268q0 -22 -3.5 -43t-11.5 -42.5
t-23.5 -36.5t-37.5 -20v-4h310q83 0 119 39.5t36 124.5h244z" />
    <glyph glyph-name="currency" unicode="&#xa4;" 
d="M1153 131l-176 -172l-143 156q-119 -68 -248 -68q-130 0 -252 68l-141 -156l-179 172l162 137q-74 130 -74 252t74 252l-162 129l181 178l137 -153q116 65 254 65q132 0 248 -65l141 153l178 -178l-160 -129q74 -130 74 -252q0 -125 -74 -252zM838 520q0 111 -68.5 184.5
t-183.5 73.5q-125 0 -190.5 -70t-65.5 -188q0 -108 69.5 -184t186.5 -76q120 0 186 72t66 188z" />
    <glyph glyph-name="yen" unicode="&#xa5;" 
d="M1165 1423l-338 -608h234v-149h-348v-185h348v-149h-348v-332h-262v332h-326v149h326v185h-326v149h213l-338 608h285l305 -555l295 555h280z" />
    <glyph glyph-name="brokenbar" unicode="&#xa6;" horiz-adv-x="591" 
d="M422 901h-252v653h252v-653zM422 -102h-252v653h252v-653z" />
    <glyph glyph-name="section" unicode="&#xa7;" horiz-adv-x="1124" 
d="M1032 354q0 -160 -176 -282q82 -97 82 -226q0 -139 -94 -233q-52 -54 -128.5 -83.5t-162.5 -29.5q-166 0 -277.5 100t-111.5 269h223q0 -73 44 -120.5t120 -47.5q71 0 114.5 38t43.5 103q0 70 -72 135l-399 342q-136 117 -136 281q0 157 179 281q-84 100 -84 227
q0 135 96 231q53 54 129 84.5t162 30.5q165 0 277 -100.5t112 -270.5h-225q0 73 -43 121.5t-119 48.5q-71 0 -114.5 -38t-43.5 -103q0 -72 70 -135l399 -342q135 -116 135 -281zM807 338q0 78 -57 129l-328 285q-92 -65 -92 -136q0 -80 55 -129l330 -284q92 65 92 135z" />
    <glyph glyph-name="dieresis" unicode="&#xa8;" horiz-adv-x="661" 
d="M662 1231h-240v248h240v-248zM240 1231h-240v248h240v-248z" />
    <glyph glyph-name="copyright" unicode="&#xa9;" horiz-adv-x="1716" 
d="M1616 725q0 -163 -57 -303.5t-157 -239t-241 -155t-303 -56.5q-163 0 -304 56.5t-240.5 155.5t-156.5 239t-57 303q0 215 98.5 387.5t272 269.5t387.5 97t387.5 -97.5t272 -270t98.5 -386.5zM1425 725q0 251 -158.5 414.5t-408.5 163.5t-407.5 -163.5t-157.5 -414.5
q0 -253 157 -415.5t408 -162.5q164 0 294 75.5t201.5 207t71.5 295.5zM1223 616q-15 -133 -112.5 -218t-242.5 -85q-118 0 -207 56.5t-133.5 148t-44.5 203.5q0 172 104 288.5t281 116.5q145 0 242.5 -85t112.5 -218h-209q-8 48 -47.5 82.5t-98.5 34.5q-85 0 -129.5 -64
t-44.5 -155q0 -99 45 -160t129 -61q59 0 98.5 34t47.5 82h209z" />
    <glyph glyph-name="ordfeminine" unicode="&#xaa;" horiz-adv-x="972" 
d="M870 633q-2 -1 -11.5 -5t-11 -4.5t-9.5 -3.5t-11 -4t-10.5 -2.5t-13 -2t-13 -1t-16.5 -0.5q-60 0 -96 33t-41 82q-29 -52 -96 -86.5t-150 -34.5q-138 0 -213.5 74.5t-75.5 181.5q0 111 75 176t196 74l237 18v50q0 63 -28.5 95t-106.5 32q-67 0 -104.5 -29.5t-40.5 -85.5
h-189q9 131 100.5 197.5t233.5 66.5q239 0 301 -166q23 -59 23 -164v-303q0 -27 11 -38t36 -11l24 4v-143zM610 946v37l-202 -16q-48 -3 -81.5 -30.5t-33.5 -74.5q0 -45 33 -73.5t80 -28.5q94 0 149 49t55 137z" />
    <glyph glyph-name="guillemotleft" unicode="&#xab;" horiz-adv-x="1202" 
d="M1090 215l-150 -104l-354 499l354 506l150 -106l-234 -398zM596 215l-150 -104l-354 499l354 506l150 -106l-234 -398z" />
    <glyph glyph-name="logicalnot" unicode="&#xac;" horiz-adv-x="1361" 
d="M1198 172h-250v342h-835v231h1083z" />
    <glyph glyph-name="uni00AD" unicode="&#xad;" horiz-adv-x="948" 
d="M825 516h-702v229h702v-229z" />
    <glyph glyph-name="registered" unicode="&#xae;" horiz-adv-x="1716" 
d="M1616 725q0 -163 -57 -303.5t-157 -239t-241 -155t-303 -56.5q-163 0 -304 56.5t-240.5 155.5t-156.5 239t-57 303q0 215 98.5 387.5t272 269.5t387.5 97t387.5 -97.5t272 -270t98.5 -386.5zM1423 725q0 251 -157.5 414.5t-407.5 163.5t-407.5 -163.5t-157.5 -414.5
q0 -253 157 -415.5t408 -162.5q164 0 293.5 75.5t200.5 207t71 295.5zM1169 365h-198l-101 245h-96v-245h-190v747h297q124 0 203 -66t79 -188q0 -69 -28.5 -125.5t-87.5 -85.5zM971 864q0 38 -25.5 58t-64.5 20h-109v-162h109q41 0 65.5 22t24.5 62z" />
    <glyph glyph-name="macron" unicode="&#xaf;" horiz-adv-x="624" 
d="M645 1251h-655v205h655v-205z" />
    <glyph glyph-name="degree" unicode="&#xb0;" horiz-adv-x="913" 
d="M811 1137q0 -153 -104 -249.5t-254 -96.5q-147 0 -249 99t-102 247q0 146 95.5 244t255.5 98q157 0 257.5 -97.5t100.5 -244.5zM610 1137q0 66 -45.5 110.5t-111.5 44.5q-65 0 -109.5 -44.5t-44.5 -110.5q0 -67 44.5 -113.5t109.5 -46.5t111 46.5t46 113.5z" />
    <glyph glyph-name="plusminus" unicode="&#xb1;" horiz-adv-x="1245" 
d="M1143 659h-406v-327h-231v327h-404v215h404v328h231v-328h406v-215zM1143 0h-1041v217h1041v-217z" />
    <glyph glyph-name="twosuperior" unicode="&#xb2;" horiz-adv-x="829" 
d="M717 698h-590v150l313 268q2 2 9.5 8.5t9.5 8.5t8.5 8t8.5 8.5t7 8.5t6.5 10t5 10t4.5 11.5t2 12.5t1 15q0 37 -25 60t-63 23q-100 0 -107 -112h-194q10 136 88 207t215 71q120 0 202 -67.5t82 -184.5q0 -69 -37 -122t-102 -107l-131 -108h287v-179z" />
    <glyph glyph-name="threesuperior" unicode="&#xb3;" horiz-adv-x="843" 
d="M731 922q0 -74 -43 -131q-77 -105 -272 -105q-69 0 -131 23.5t-103 66.5q-60 60 -69 166h180q4 -49 40 -73.5t87 -24.5q49 0 86 20t37 66q0 80 -109 80h-55v149h55q92 0 92 74q0 40 -31 60t-73 20q-114 0 -125 -103h-178q9 116 80 181q84 75 223 75q78 0 146 -27t108 -79
q41 -54 41 -117q0 -51 -30 -94.5t-77 -58.5q54 -17 87.5 -64.5t33.5 -103.5z" />
    <glyph glyph-name="acute" unicode="&#xb4;" horiz-adv-x="522" 
d="M506 1389l-410 -230l-82 133l377 283z" />
    <glyph glyph-name="mu" unicode="&#xb5;" horiz-adv-x="1224" 
d="M1065 0h-213l-21 143q-38 -78 -120 -124t-183 -46q-69 0 -114 23v-410h-254v1479h254v-657q0 -203 186 -203q78 0 131 53q78 73 78 240v567h256v-1065z" />
    <glyph glyph-name="paragraph" unicode="&#xb6;" horiz-adv-x="1378" 
d="M1255 1253h-139v-1509h-205v1509h-198v-1509h-203v893q-169 0 -288.5 119t-119.5 288t119.5 288.5t288.5 119.5h745v-199z" />
    <glyph glyph-name="periodcentered" unicode="&#xb7;" horiz-adv-x="645" 
d="M459 440h-312v320h312v-320z" />
    <glyph glyph-name="cedilla" unicode="&#xb8;" horiz-adv-x="405" 
d="M387 -90l-156 -408l-213 101l170 307h199z" />
    <glyph glyph-name="onesuperior" unicode="&#xb9;" horiz-adv-x="638" 
d="M465 705h-191v524l-194 -137v211l215 149h170v-747z" />
    <glyph glyph-name="ordmasculine" unicode="&#xba;" horiz-adv-x="972" 
d="M858 1026q0 -185 -88 -295q-44 -55 -120 -92t-163 -37t-163.5 37t-120.5 92q-88 110 -88 295q0 189 90 301q44 54 119 89.5t163 35.5t162.5 -35.5t118.5 -89.5q90 -112 90 -301zM662 1026q0 148 -54 207q-47 51 -121 51q-75 0 -122 -51q-52 -56 -52 -207q0 -149 52 -205
q47 -51 122 -51q74 0 121 51q54 59 54 205z" />
    <glyph glyph-name="guillemotright" unicode="&#xbb;" horiz-adv-x="1202" 
d="M1110 610l-354 -499l-150 104l234 397l-234 398l150 106zM616 610l-354 -499l-149 104l233 397l-233 398l149 106z" />
    <glyph glyph-name="onequarter" unicode="&#xbc;" horiz-adv-x="1808" 
d="M1696 145h-99v-145h-184v145h-366v195l237 426h197l-252 -455h184v168h184v-168h99v-166zM1470 1372l-1038 -1413l-151 115l1034 1407zM537 705h-191v524l-194 -137v211l215 149h170v-747z" />
    <glyph glyph-name="onehalf" unicode="&#xbd;" horiz-adv-x="1875" 
d="M1667 0h-590v150l314 268q2 2 9.5 8.5t9.5 8.5t8.5 8t8.5 8.5t7 8t6.5 9.5t4.5 10t4 11.5t2 12.5t1 15q0 37 -25 60.5t-63 23.5q-100 0 -107 -113h-194q10 136 88 207.5t215 71.5q120 0 202.5 -67.5t82.5 -184.5q0 -69 -37 -122t-103 -107l-131 -109h287v-178zM1440 1372
l-1039 -1413l-151 115l1034 1407zM526 705h-190v524l-195 -137v211l215 149h170v-747z" />
    <glyph glyph-name="threequarters" unicode="&#xbe;" horiz-adv-x="1884" 
d="M1772 145h-99v-145h-184v145h-367v195l238 426h196l-251 -455h184v168h184v-168h99v-166zM1575 1372l-1038 -1413l-152 115l1034 1407zM743 922q0 -74 -43 -131q-77 -105 -272 -105q-146 0 -233 90q-61 61 -70 166h180q4 -49 40 -73.5t87 -24.5q49 0 86 20t37 66
q0 80 -109 80h-55v149h55q93 0 93 74q0 40 -31.5 60t-73.5 20q-114 0 -125 -103h-178q9 116 80 181q84 75 223 75q78 0 146 -27t108 -79q41 -54 41 -117q0 -52 -29.5 -95t-76.5 -58q53 -17 86.5 -64.5t33.5 -103.5z" />
    <glyph glyph-name="questiondown" unicode="&#xbf;" horiz-adv-x="1069" 
d="M1004 -16q0 -139 -67 -239.5t-176.5 -149t-248.5 -48.5q-199 0 -327 115.5t-128 286.5q0 187 162 325q16 14 50 41t48.5 40t37.5 38t33 46t18 53t8 69v57h254q0 -144 -11 -198q-11 -51 -31 -93t-49 -74t-53.5 -54t-62 -52t-58.5 -49q-79 -71 -79 -147q0 -72 53 -122
t145 -50q99 0 158 53.5t59 151.5h265zM684 745h-285v287h285v-287z" />
    <glyph glyph-name="Agrave" unicode="&#xc0;" horiz-adv-x="1308" 
d="M791 1565l-410 229l115 186l376 -282zM1309 0h-277l-94 279h-578l-94 -279h-266l510 1452h289zM856 516l-207 612l-207 -612h414z" />
    <glyph glyph-name="Aacute" unicode="&#xc1;" horiz-adv-x="1308" 
d="M1309 0h-277l-94 279h-578l-94 -279h-266l510 1452h289zM856 516l-207 612l-207 -612h414zM877 1794l-410 -229l-82 133l377 282z" />
    <glyph glyph-name="Acircumflex" unicode="&#xc2;" horiz-adv-x="1308" 
d="M313 1706l250 238h158l246 -238l-121 -119l-203 197l-207 -203zM1309 0h-277l-94 279h-578l-94 -279h-266l510 1452h289zM856 516l-207 612l-207 -612h414z" />
    <glyph glyph-name="Atilde" unicode="&#xc3;" horiz-adv-x="1308" 
d="M983 1696q-119 -115 -229 -115q-47 0 -93 19.5t-84 39t-65 19.5q-67 0 -127 -64l-100 125q119 115 229 115q45 0 90 -20.5t83.5 -41t68.5 -20.5q29 0 64 21t61 47zM1309 0h-277l-94 279h-578l-94 -279h-266l510 1452h289zM856 516l-207 612l-207 -612h414z" />
    <glyph glyph-name="Adieresis" unicode="&#xc4;" horiz-adv-x="1308" 
d="M1309 0h-277l-94 279h-578l-94 -279h-266l510 1452h289zM856 516l-207 612l-207 -612h414zM981 1620h-240v248h240v-248zM559 1620h-240v248h240v-248z" />
    <glyph glyph-name="Aring" unicode="&#xc5;" horiz-adv-x="1308" 
d="M1309 0h-277l-94 279h-578l-94 -279h-266l481 1370q-90 77 -90 197q0 109 76.5 184.5t185.5 75.5t185.5 -75.5t76.5 -184.5q0 -122 -88 -197zM768 1567q0 47 -33.5 79.5t-81.5 32.5q-47 0 -78.5 -32.5t-31.5 -79.5q0 -48 31.5 -81.5t78.5 -33.5t81 34t34 81zM856 516
l-207 612l-207 -612h414z" />
    <glyph glyph-name="AE" unicode="&#xc6;" horiz-adv-x="1959" 
d="M1878 0h-946v367h-486l-157 -367h-289l662 1452h1216v-246h-682v-327h584v-246h-584v-387h682v-246zM932 610v596h-113l-262 -596h375z" />
    <glyph glyph-name="Ccedilla" unicode="&#xc7;" horiz-adv-x="1286" 
d="M1229 463q-21 -197 -139 -318q-81 -83 -189.5 -127.5t-226.5 -44.5q-250 0 -412 162q-109 109 -144.5 246.5t-35.5 343.5t35.5 343.5t144.5 246.5q164 164 412 164q119 0 227 -43t189 -125q119 -122 139 -316h-271q-8 85 -65 154q-72 90 -219 90q-133 0 -223 -96
q-35 -37 -57.5 -87t-31 -114.5t-10.5 -106.5t-2 -110t2 -110t10.5 -106.5t31 -114.5t57.5 -87q90 -96 223 -96q68 0 126 24t93 68q56 68 65 160h271zM815 -86l-156 -408l-213 101l170 307h199z" />
    <glyph glyph-name="Egrave" unicode="&#xc8;" horiz-adv-x="1286" 
d="M1204 0h-1034v1452h1034v-240h-770v-338h678v-237h-678v-397h770v-240zM911 1700l-82 -133l-409 229l115 186z" />
    <glyph glyph-name="Eacute" unicode="&#xc9;" horiz-adv-x="1286" 
d="M1204 0h-1034v1452h1034v-240h-770v-338h678v-237h-678v-397h770v-240zM924 1794l-410 -229l-82 133l377 282z" />
    <glyph glyph-name="Ecircumflex" unicode="&#xca;" horiz-adv-x="1286" 
d="M1204 0h-1034v1452h1034v-240h-770v-338h678v-237h-678v-397h770v-240zM354 1706l250 238h158l246 -238l-121 -119l-203 197l-207 -203z" />
    <glyph glyph-name="Edieresis" unicode="&#xcb;" horiz-adv-x="1286" 
d="M1204 0h-1034v1452h1034v-240h-770v-338h678v-237h-678v-397h770v-240zM1042 1620h-239v248h239v-248zM621 1620h-240v248h240v-248z" />
    <glyph glyph-name="Igrave" unicode="&#xcc;" horiz-adv-x="608" 
d="M438 0h-268v1452h268v-1452zM543 1700l-82 -133l-410 229l115 186z" />
    <glyph glyph-name="Iacute" unicode="&#xcd;" horiz-adv-x="608" 
d="M438 0h-268v1452h268v-1452zM551 1796l-410 -229l-82 133l377 282z" />
    <glyph glyph-name="Icircumflex" unicode="&#xce;" horiz-adv-x="608" 
d="M438 0h-268v1452h268v-1452zM-16 1706l249 238h158l246 -238l-121 -119l-203 197l-207 -203z" />
    <glyph glyph-name="Idieresis" unicode="&#xcf;" horiz-adv-x="608" 
d="M438 0h-268v1452h268v-1452zM637 1620h-240v248h240v-248zM215 1620h-240v248h240v-248z" />
    <glyph glyph-name="Eth" unicode="&#xd0;" horiz-adv-x="1400" 
d="M1313 727q0 -118 -10 -206t-49.5 -190.5t-110.5 -174.5q-72 -75 -178 -115.5t-230 -40.5h-565v668h-129v172h129v612h565q124 0 230 -40.5t178 -115.5q71 -72 110.5 -174t49.5 -189.5t10 -205.5zM1044 727q0 66 -2.5 108t-11 103.5t-31.5 110t-59 84.5q-81 81 -205 81
h-301v-374h268v-172h-268v-430h301q124 0 205 81q36 36 59 85t31.5 110.5t11 104t2.5 108.5z" />
    <glyph glyph-name="Ntilde" unicode="&#xd1;" horiz-adv-x="1501" 
d="M1331 0h-272l-629 997v-997h-260v1452h281l620 -983v983h260v-1452zM1100 1745q-119 -123 -236 -123q-47 0 -94.5 21t-86.5 42t-67 21q-69 0 -129 -68l-104 131q123 123 235 123q47 0 93 -21.5t85 -43t70 -21.5q59 0 129 70z" />
    <glyph glyph-name="Ograve" unicode="&#xd2;" horiz-adv-x="1376" 
d="M1290 725q0 -202 -37 -340t-147 -248q-81 -81 -189.5 -122.5t-228.5 -41.5t-228.5 41.5t-189.5 122.5q-110 110 -147 248t-37 340q0 203 37 341.5t147 248.5q81 81 189.5 122.5t228.5 41.5t228.5 -41.5t189.5 -122.5q110 -110 147 -248.5t37 -341.5zM1022 725
q0 65 -2.5 110t-11.5 107.5t-32 113t-58 87.5q-42 45 -104 70.5t-126 25.5t-125.5 -25.5t-103.5 -70.5q-35 -37 -58 -88t-32.5 -113t-12 -107.5t-2.5 -109.5t2.5 -109.5t12 -107t32.5 -112t58 -87.5q42 -45 103.5 -70.5t125.5 -25.5t126 25.5t104 70.5q35 37 58 87.5
t32 112.5t11.5 106.5t2.5 109.5zM924 1700l-82 -133l-410 229l115 186z" />
    <glyph glyph-name="Oacute" unicode="&#xd3;" horiz-adv-x="1376" 
d="M1290 725q0 -202 -37 -340t-147 -248q-81 -81 -189.5 -122.5t-228.5 -41.5t-228.5 41.5t-189.5 122.5q-110 110 -147 248t-37 340q0 203 37 341.5t147 248.5q81 81 189.5 122.5t228.5 41.5t228.5 -41.5t189.5 -122.5q110 -110 147 -248.5t37 -341.5zM1022 725
q0 65 -2.5 110t-11.5 107.5t-32 113t-58 87.5q-42 45 -104 70.5t-126 25.5t-125.5 -25.5t-103.5 -70.5q-35 -37 -58 -88t-32.5 -113t-12 -107.5t-2.5 -109.5t2.5 -109.5t12 -107t32.5 -112t58 -87.5q42 -45 103.5 -70.5t125.5 -25.5t126 25.5t104 70.5q35 37 58 87.5
t32 112.5t11.5 106.5t2.5 109.5zM911 1794l-409 -229l-82 133l377 282z" />
    <glyph glyph-name="Ocircumflex" unicode="&#xd4;" horiz-adv-x="1376" 
d="M1290 725q0 -202 -37 -340t-147 -248q-81 -81 -189.5 -122.5t-228.5 -41.5t-228.5 41.5t-189.5 122.5q-110 110 -147 248t-37 340q0 203 37 341.5t147 248.5q81 81 189.5 122.5t228.5 41.5t228.5 -41.5t189.5 -122.5q110 -110 147 -248.5t37 -341.5zM1022 725
q0 65 -2.5 110t-11.5 107.5t-32 113t-58 87.5q-42 45 -104 70.5t-126 25.5t-125.5 -25.5t-103.5 -70.5q-35 -37 -58 -88t-32.5 -113t-12 -107.5t-2.5 -109.5t2.5 -109.5t12 -107t32.5 -112t58 -87.5q42 -45 103.5 -70.5t125.5 -25.5t126 25.5t104 70.5q35 37 58 87.5
t32 112.5t11.5 106.5t2.5 109.5zM371 1706l250 238h157l246 -238l-121 -119l-203 197l-206 -203z" />
    <glyph glyph-name="Otilde" unicode="&#xd5;" horiz-adv-x="1376" 
d="M1290 725q0 -202 -37 -340t-147 -248q-81 -81 -189.5 -122.5t-228.5 -41.5t-228.5 41.5t-189.5 122.5q-110 110 -147 248t-37 340q0 203 37 341.5t147 248.5q81 81 189.5 122.5t228.5 41.5t228.5 -41.5t189.5 -122.5q110 -110 147 -248.5t37 -341.5zM1022 725
q0 65 -2.5 110t-11.5 107.5t-32 113t-58 87.5q-42 45 -104 70.5t-126 25.5t-125.5 -25.5t-103.5 -70.5q-35 -37 -58 -88t-32.5 -113t-12 -107.5t-2.5 -109.5t2.5 -109.5t12 -107t32.5 -112t58 -87.5q42 -45 103.5 -70.5t125.5 -25.5t126 25.5t104 70.5q35 37 58 87.5
t32 112.5t11.5 106.5t2.5 109.5zM1038 1708q-115 -115 -229 -115q-47 0 -93 19.5t-84 39t-65 19.5q-66 0 -125 -63l-102 125q118 114 229 114q45 0 90 -20t83.5 -40t68.5 -20q56 0 127 66z" />
    <glyph glyph-name="Odieresis" unicode="&#xd6;" horiz-adv-x="1376" 
d="M1290 725q0 -202 -37 -340t-147 -248q-81 -81 -189.5 -122.5t-228.5 -41.5t-228.5 41.5t-189.5 122.5q-110 110 -147 248t-37 340q0 203 37 341.5t147 248.5q81 81 189.5 122.5t228.5 41.5t228.5 -41.5t189.5 -122.5q110 -110 147 -248.5t37 -341.5zM1022 725
q0 65 -2.5 110t-11.5 107.5t-32 113t-58 87.5q-42 45 -104 70.5t-126 25.5t-125.5 -25.5t-103.5 -70.5q-35 -37 -58 -88t-32.5 -113t-12 -107.5t-2.5 -109.5t2.5 -109.5t12 -107t32.5 -112t58 -87.5q42 -45 103.5 -70.5t125.5 -25.5t126 25.5t104 70.5q35 37 58 87.5
t32 112.5t11.5 106.5t2.5 109.5zM1020 1624h-240v248h240v-248zM598 1624h-240v248h240v-248z" />
    <glyph glyph-name="multiply" unicode="&#xd7;" horiz-adv-x="1406" 
d="M1128 35l-426 426l-426 -426l-147 147l426 426l-426 426l147 148l426 -424l426 424l150 -148l-426 -426l426 -426z" />
    <glyph glyph-name="Oslash" unicode="&#xd8;" horiz-adv-x="1376" 
d="M1290 725q0 -202 -37 -340t-147 -248q-81 -81 -189.5 -122.5t-228.5 -41.5q-135 0 -254 52l-82 -172l-137 61l88 192l-33 31q-110 110 -147 248t-37 340q0 203 37 341.5t147 248.5q81 81 189.5 122.5t228.5 41.5q129 0 236 -45l67 143l137 -61l-71 -156l49 -45
q110 -110 147 -248.5t37 -341.5zM1022 725q0 82 -3 135t-22 129t-55 125l-403 -864q70 -37 149 -37q64 0 126 25.5t104 70.5q35 37 58 87.5t32 112.5t11.5 106.5t2.5 109.5zM819 1210q-66 29 -131 29q-64 0 -125.5 -25.5t-103.5 -70.5q-35 -37 -58 -88t-32.5 -113
t-12 -107.5t-2.5 -109.5q0 -253 68 -367z" />
    <glyph glyph-name="Ugrave" unicode="&#xd9;" horiz-adv-x="1396" 
d="M1268 557q0 -175 -63.5 -305t-193 -204.5t-313.5 -74.5t-313.5 74.5t-192.5 204.5t-63 305v895h264v-891q0 -162 76 -255t229 -93t229.5 93t76.5 255v891h264v-895zM918 1700l-82 -133l-410 229l115 186z" />
    <glyph glyph-name="Uacute" unicode="&#xda;" horiz-adv-x="1396" 
d="M1268 557q0 -175 -63.5 -305t-193 -204.5t-313.5 -74.5t-313.5 74.5t-192.5 204.5t-63 305v895h264v-891q0 -162 76 -255t229 -93t229.5 93t76.5 255v891h264v-895zM965 1796l-410 -229l-82 133l377 282z" />
    <glyph glyph-name="Ucircumflex" unicode="&#xdb;" horiz-adv-x="1396" 
d="M1268 557q0 -175 -63.5 -305t-193 -204.5t-313.5 -74.5t-313.5 74.5t-192.5 204.5t-63 305v895h264v-891q0 -162 76 -255t229 -93t229.5 93t76.5 255v891h264v-895zM377 1706l250 238h157l246 -238l-121 -119l-202 197l-207 -203z" />
    <glyph glyph-name="Udieresis" unicode="&#xdc;" horiz-adv-x="1396" 
d="M1268 557q0 -175 -63.5 -305t-193 -204.5t-313.5 -74.5t-313.5 74.5t-192.5 204.5t-63 305v895h264v-891q0 -162 76 -255t229 -93t229.5 93t76.5 255v891h264v-895zM1028 1622h-240v248h240v-248zM606 1622h-239v248h239v-248z" />
    <glyph glyph-name="Yacute" unicode="&#xdd;" horiz-adv-x="1277" 
d="M1278 1452l-508 -895v-557h-266v557l-504 895h287l358 -627l359 627h274zM887 1794l-410 -229l-82 133l377 282z" />
    <glyph glyph-name="Thorn" unicode="&#xde;" horiz-adv-x="1216" 
d="M1190 745q0 -224 -128.5 -349.5t-373.5 -125.5h-256v-270h-262v1452h262v-244h256q245 0 373.5 -124t128.5 -339zM924 743q0 110 -59.5 172t-186.5 62h-246v-477h246q131 0 188.5 61t57.5 182z" />
    <glyph glyph-name="germandbls" unicode="&#xdf;" horiz-adv-x="1247" 
d="M1196 432q0 -199 -121.5 -325.5t-320.5 -126.5q-109 0 -193 20v223q65 -12 137 -12q112 0 176 68.5t64 179.5q0 129 -74.5 190.5t-204.5 61.5h-43v213h43q83 0 131 46t48 126q0 83 -50 132.5t-133 49.5q-202 0 -202 -246v-1032h-252v854h-170v211h174q3 202 129 318
t325 116q189 0 313 -105t124 -276q0 -97 -53 -180.5t-142 -110.5q139 -31 217 -140.5t78 -254.5z" />
    <glyph glyph-name="agrave" unicode="&#xe0;" horiz-adv-x="1150" 
d="M1087 12q-28 -12 -40 -16t-34.5 -8t-51.5 -4q-80 0 -127.5 42.5t-53.5 106.5q-39 -68 -126.5 -114t-196.5 -46q-181 0 -283 97.5t-102 236.5q0 147 101 235t259 99l313 23v65q0 82 -39 125t-141 43q-89 0 -139.5 -39.5t-54.5 -112.5h-248q10 172 131.5 259.5t310.5 87.5
q317 0 400 -218q30 -76 30 -215v-395q0 -37 14 -52t46 -15l32 4v-189zM745 424v49l-270 -20q-63 -5 -108 -42t-45 -98q0 -60 44.5 -96.5t106.5 -36.5q123 0 197.5 64t74.5 180zM731 1159l-409 230l114 186l377 -283z" />
    <glyph glyph-name="aacute" unicode="&#xe1;" horiz-adv-x="1150" 
d="M1087 12q-28 -12 -40 -16t-34.5 -8t-51.5 -4q-80 0 -127.5 42.5t-53.5 106.5q-39 -68 -126.5 -114t-196.5 -46q-181 0 -283 97.5t-102 236.5q0 147 101 235t259 99l313 23v65q0 82 -39 125t-141 43q-89 0 -139.5 -39.5t-54.5 -112.5h-248q10 172 131.5 259.5t310.5 87.5
q317 0 400 -218q30 -76 30 -215v-395q0 -37 14 -52t46 -15l32 4v-189zM745 424v49l-270 -20q-63 -5 -108 -42t-45 -98q0 -60 44.5 -96.5t106.5 -36.5q123 0 197.5 64t74.5 180zM782 1389l-409 -230l-82 133l377 283z" />
    <glyph glyph-name="acircumflex" unicode="&#xe2;" horiz-adv-x="1150" 
d="M1087 12q-28 -12 -40 -16t-34.5 -8t-51.5 -4q-80 0 -127.5 42.5t-53.5 106.5q-39 -68 -126.5 -114t-196.5 -46q-181 0 -283 97.5t-102 236.5q0 147 101 235t259 99l313 23v65q0 82 -39 125t-141 43q-89 0 -139.5 -39.5t-54.5 -112.5h-248q10 172 131.5 259.5t310.5 87.5
q317 0 400 -218q30 -76 30 -215v-395q0 -37 14 -52t46 -15l32 4v-189zM745 424v49l-270 -20q-63 -5 -108 -42t-45 -98q0 -60 44.5 -96.5t106.5 -36.5q123 0 197.5 64t74.5 180zM250 1296l250 238h157l246 -238l-121 -118l-202 196l-207 -203z" />
    <glyph glyph-name="atilde" unicode="&#xe3;" horiz-adv-x="1150" 
d="M1087 12q-28 -12 -40 -16t-34.5 -8t-51.5 -4q-80 0 -127.5 42.5t-53.5 106.5q-39 -68 -126.5 -114t-196.5 -46q-181 0 -283 97.5t-102 236.5q0 147 101 235t259 99l313 23v65q0 82 -39 125t-141 43q-89 0 -139.5 -39.5t-54.5 -112.5h-248q10 172 131.5 259.5t310.5 87.5
q317 0 400 -218q30 -76 30 -215v-395q0 -37 14 -52t46 -15l32 4v-189zM745 424v49l-270 -20q-63 -5 -108 -42t-45 -98q0 -60 44.5 -96.5t106.5 -36.5q123 0 197.5 64t74.5 180zM907 1376q-121 -121 -231 -121q-47 0 -93 20.5t-84 41t-65 20.5q-69 0 -127 -65l-102 129
q121 121 231 121q45 0 90 -21t83.5 -42t68.5 -21q31 0 66.5 20.5t60.5 46.5z" />
    <glyph glyph-name="adieresis" unicode="&#xe4;" horiz-adv-x="1150" 
d="M1087 12q-28 -12 -40 -16t-34.5 -8t-51.5 -4q-80 0 -127.5 42.5t-53.5 106.5q-39 -68 -126.5 -114t-196.5 -46q-181 0 -283 97.5t-102 236.5q0 147 101 235t259 99l313 23v65q0 82 -39 125t-141 43q-89 0 -139.5 -39.5t-54.5 -112.5h-248q10 172 131.5 259.5t310.5 87.5
q317 0 400 -218q30 -76 30 -215v-395q0 -37 14 -52t46 -15l32 4v-189zM745 424v49l-270 -20q-63 -5 -108 -42t-45 -98q0 -60 44.5 -96.5t106.5 -36.5q123 0 197.5 64t74.5 180zM905 1231h-239v248h239v-248zM483 1231h-239v248h239v-248z" />
    <glyph glyph-name="aring" unicode="&#xe5;" horiz-adv-x="1150" 
d="M1087 12q-28 -12 -40 -16t-34.5 -8t-51.5 -4q-80 0 -127.5 42.5t-53.5 106.5q-39 -68 -126.5 -114t-196.5 -46q-181 0 -283 97.5t-102 236.5q0 147 101 235t259 99l313 23v65q0 82 -39 125t-141 43q-89 0 -139.5 -39.5t-54.5 -112.5h-248q10 172 131.5 259.5t310.5 87.5
q317 0 400 -218q30 -76 30 -215v-395q0 -37 14 -52t46 -15l32 4v-189zM745 424v49l-270 -20q-63 -5 -108 -42t-45 -98q0 -60 44.5 -96.5t106.5 -36.5q123 0 197.5 64t74.5 180zM811 1454q0 -104 -73 -177t-177 -73t-177 73t-73 177t73 176t177 72t177 -72t73 -176zM670 1454
q0 44 -32.5 75.5t-76.5 31.5t-75 -31.5t-31 -75.5t31 -76t75 -32t76.5 32t32.5 76z" />
    <glyph glyph-name="ae" unicode="&#xe6;" horiz-adv-x="1761" 
d="M1681 449h-704q2 -58 15.5 -106t39.5 -87.5t71 -61.5t105 -22q156 0 207 143h248q-6 -47 -30.5 -99t-57.5 -91q-63 -76 -157.5 -114t-200.5 -38q-140 0 -245.5 58t-146.5 149q-108 -207 -372 -207q-72 0 -139 21t-121.5 61t-87.5 104.5t-33 145.5q0 77 28.5 137.5
t78.5 100t114 62t139 28.5q43 4 114.5 5t121.5 0l51 -1v92q0 86 -39.5 124t-126.5 38q-176 0 -188 -146h-248q7 116 66.5 195.5t153.5 115.5t216 36q208 0 324 -125q112 125 327 125q253 0 385 -195q92 -136 92 -391v-57zM1423 637q-2 114 -55.5 183t-165.5 69
q-110 0 -167 -70.5t-60 -181.5h448zM719 449q-180 0 -248 -5q-67 -5 -108 -37.5t-41 -93.5q0 -60 43.5 -94.5t105.5 -34.5q120 0 184 75t64 190z" />
    <glyph glyph-name="ccedilla" unicode="&#xe7;" horiz-adv-x="1087" 
d="M1020 377q-6 -135 -82 -232q-60 -74 -155 -121t-210 -47t-212.5 47.5t-157.5 120.5q-117 146 -117 390q0 243 117 389q60 73 157.5 120.5t212.5 47.5t210 -47t155 -121q76 -97 82 -232h-252q-3 51 -31 99q-52 79 -164 79q-94 0 -155 -65q-72 -80 -72 -270q0 -189 72 -269
q63 -67 155 -67q111 0 164 80q28 48 31 98h252zM717 -90l-156 -408l-213 101l170 307h199z" />
    <glyph glyph-name="egrave" unicode="&#xe8;" horiz-adv-x="1140" 
d="M1061 524q-2 -48 -2 -71h-713q-3 -131 78 -209q70 -66 158 -66q104 0 155 51q38 38 51 90h246q-4 -45 -30.5 -101t-59.5 -95q-127 -150 -358 -150q-198 0 -336 131q-164 158 -164 426q0 269 154 426q133 136 340 136q122 0 223.5 -50t165.5 -147q99 -148 92 -371z
M805 639q-3 117 -66 186q-59 62 -161 62q-117 0 -179 -82q-52 -66 -55 -166h461zM745 1161l-409 230l115 186l376 -283z" />
    <glyph glyph-name="eacute" unicode="&#xe9;" horiz-adv-x="1140" 
d="M1061 524q-2 -48 -2 -71h-713q-3 -131 78 -209q70 -66 158 -66q104 0 155 51q38 38 51 90h246q-4 -45 -30.5 -101t-59.5 -95q-127 -150 -358 -150q-198 0 -336 131q-164 158 -164 426q0 269 154 426q133 136 340 136q122 0 223.5 -50t165.5 -147q99 -148 92 -371z
M805 639q-3 117 -66 186q-59 62 -161 62q-117 0 -179 -82q-52 -66 -55 -166h461zM838 1389l-410 -230l-82 133l377 283z" />
    <glyph glyph-name="ecircumflex" unicode="&#xea;" horiz-adv-x="1140" 
d="M1061 524q-2 -48 -2 -71h-713q-3 -131 78 -209q70 -66 158 -66q104 0 155 51q38 38 51 90h246q-4 -45 -30.5 -101t-59.5 -95q-127 -150 -358 -150q-198 0 -336 131q-164 158 -164 426q0 269 154 426q133 136 340 136q122 0 223.5 -50t165.5 -147q99 -148 92 -371z
M805 639q-3 117 -66 186q-59 62 -161 62q-117 0 -179 -82q-52 -66 -55 -166h461zM240 1296l249 238h158l246 -238l-121 -118l-203 196l-207 -203z" />
    <glyph glyph-name="edieresis" unicode="&#xeb;" horiz-adv-x="1140" 
d="M1061 524q-2 -48 -2 -71h-713q-3 -131 78 -209q70 -66 158 -66q104 0 155 51q38 38 51 90h246q-4 -45 -30.5 -101t-59.5 -95q-127 -150 -358 -150q-198 0 -336 131q-164 158 -164 426q0 269 154 426q133 136 340 136q122 0 223.5 -50t165.5 -147q99 -148 92 -371z
M805 639q-3 117 -66 186q-59 62 -161 62q-117 0 -179 -82q-52 -66 -55 -166h461zM928 1231h-240v248h240v-248zM506 1231h-240v248h240v-248z" />
    <glyph glyph-name="igrave" unicode="&#xec;" horiz-adv-x="585" 
d="M424 0h-260v1065h260v-1065zM430 1161l-364 211l102 172l336 -260z" />
    <glyph glyph-name="iacute" unicode="&#xed;" horiz-adv-x="585" 
d="M424 0h-260v1065h260v-1065zM487 1374l-364 -211l-74 123l336 260z" />
    <glyph glyph-name="icircumflex" unicode="&#xee;" horiz-adv-x="585" 
d="M424 0h-260v1065h260v-1065zM-31 1296l250 238h158l246 -238l-121 -118l-203 196l-207 -203z" />
    <glyph glyph-name="idieresis" unicode="&#xef;" horiz-adv-x="585" 
d="M424 0h-260v1065h260v-1065zM588 1245h-213v219h213v-219zM211 1245h-213v219h213v-219z" />
    <glyph glyph-name="eth" unicode="&#xf0;" horiz-adv-x="1150" 
d="M1065 530q0 -243 -117 -389q-60 -72 -159 -120t-214 -48t-213.5 47.5t-158.5 120.5q-117 146 -117 389q0 247 119 396q59 72 157 119t213 47h13l-62 102h-225v137h145l-84 148h256l87 -148h196v-137h-115l187 -305q92 -152 92 -359zM805 530q0 195 -70 273
q-63 67 -160 67q-96 0 -159 -67q-70 -78 -70 -273q0 -192 70 -270q63 -67 159 -67q97 0 160 67q70 78 70 270z" />
    <glyph glyph-name="ntilde" unicode="&#xf1;" horiz-adv-x="1210" 
d="M1067 0h-256v653q0 100 -39.5 150.5t-136.5 50.5q-123 0 -184 -135q-17 -39 -25.5 -96.5t-9 -88.5t-0.5 -100v-434h-256v1065h215l18 -137q45 81 130.5 122.5t183.5 41.5q167 0 263.5 -106t96.5 -275v-711zM975 1376q-121 -121 -230 -121q-47 0 -93 20.5t-84.5 41
t-65.5 20.5q-66 0 -127 -65l-103 129q121 121 232 121q46 0 91 -21t83.5 -42t69.5 -21q30 0 64.5 20.5t59.5 46.5z" />
    <glyph glyph-name="ograve" unicode="&#xf2;" 
d="M1081 532q0 -130 -31 -222t-94 -171q-59 -72 -157.5 -119t-214.5 -47t-215 47t-158 119q-63 79 -94 171t-31 222t31 222.5t94 171.5q59 72 158 119t215 47t214.5 -47t157.5 -119q63 -79 94 -171.5t31 -222.5zM821 532q0 184 -76 269q-63 67 -161 67q-99 0 -162 -67
q-76 -85 -76 -269q0 -183 76 -268q63 -67 162 -67q98 0 161 67q76 85 76 268zM752 1161l-410 230l115 186l377 -283z" />
    <glyph glyph-name="oacute" unicode="&#xf3;" 
d="M1081 532q0 -130 -31 -222t-94 -171q-59 -72 -157.5 -119t-214.5 -47t-215 47t-158 119q-63 79 -94 171t-31 222t31 222.5t94 171.5q59 72 158 119t215 47t214.5 -47t157.5 -119q63 -79 94 -171.5t31 -222.5zM821 532q0 184 -76 269q-63 67 -161 67q-99 0 -162 -67
q-76 -85 -76 -269q0 -183 76 -268q63 -67 162 -67q98 0 161 67q76 85 76 268zM840 1389l-410 -230l-82 133l377 283z" />
    <glyph glyph-name="ocircumflex" unicode="&#xf4;" 
d="M1081 532q0 -130 -31 -222t-94 -171q-59 -72 -157.5 -119t-214.5 -47t-215 47t-158 119q-63 79 -94 171t-31 222t31 222.5t94 171.5q59 72 158 119t215 47t214.5 -47t157.5 -119q63 -79 94 -171.5t31 -222.5zM821 532q0 184 -76 269q-63 67 -161 67q-99 0 -162 -67
q-76 -85 -76 -269q0 -183 76 -268q63 -67 162 -67q98 0 161 67q76 85 76 268zM248 1296l250 238h157l246 -238l-121 -118l-202 196l-207 -203z" />
    <glyph glyph-name="otilde" unicode="&#xf5;" 
d="M1081 532q0 -130 -31 -222t-94 -171q-59 -72 -157.5 -119t-214.5 -47t-215 47t-158 119q-63 79 -94 171t-31 222t31 222.5t94 171.5q59 72 158 119t215 47t214.5 -47t157.5 -119q63 -79 94 -171.5t31 -222.5zM821 532q0 184 -76 269q-63 67 -161 67q-99 0 -162 -67
q-76 -85 -76 -269q0 -183 76 -268q63 -67 162 -67q98 0 161 67q76 85 76 268zM909 1389q-115 -119 -229 -119q-47 0 -93.5 20.5t-85 41t-65.5 20.5q-63 0 -127 -68l-102 129q117 121 231 121q46 0 91 -21t83.5 -42t69.5 -21q30 0 65 21t60 47z" />
    <glyph glyph-name="odieresis" unicode="&#xf6;" 
d="M1081 532q0 -130 -31 -222t-94 -171q-59 -72 -157.5 -119t-214.5 -47t-215 47t-158 119q-63 79 -94 171t-31 222t31 222.5t94 171.5q59 72 158 119t215 47t214.5 -47t157.5 -119q63 -79 94 -171.5t31 -222.5zM821 532q0 184 -76 269q-63 67 -161 67q-99 0 -162 -67
q-76 -85 -76 -269q0 -183 76 -268q63 -67 162 -67q98 0 161 67q76 85 76 268zM924 1231h-240v248h240v-248zM502 1231h-240v248h240v-248z" />
    <glyph glyph-name="divide" unicode="&#xf7;" horiz-adv-x="1327" 
d="M807 893h-281v285h281v-285zM1204 498h-1081v233h1081v-233zM807 61h-281v285h281v-285z" />
    <glyph glyph-name="oslash" unicode="&#xf8;" 
d="M1081 532q0 -130 -31 -222t-94 -171q-59 -72 -157.5 -119t-214.5 -47q-96 0 -178 31l-72 -158l-129 58l76 168q-47 35 -70 67q-63 79 -94 171t-31 222t31 222.5t94 171.5q59 72 158 119t215 47q74 0 151 -23l60 127l129 -57l-60 -131q57 -38 92 -82q63 -79 94 -171.5
t31 -222.5zM821 532q0 167 -59 250l-260 -571q35 -14 82 -14q98 0 161 67q76 85 76 268zM641 862q-27 6 -57 6q-99 0 -162 -67q-76 -85 -76 -269q0 -146 43 -223z" />
    <glyph glyph-name="ugrave" unicode="&#xf9;" horiz-adv-x="1208" 
d="M1049 0h-213l-19 139q-38 -77 -120.5 -121.5t-184.5 -44.5q-169 0 -269 104.5t-100 276.5v711h256v-653q0 -203 185 -203q78 0 131 53q78 73 78 240v563h256v-1065zM739 1159l-409 230l114 186l377 -283z" />
    <glyph glyph-name="uacute" unicode="&#xfa;" horiz-adv-x="1208" 
d="M1049 0h-213l-19 139q-38 -77 -120.5 -121.5t-184.5 -44.5q-169 0 -269 104.5t-100 276.5v711h256v-653q0 -203 185 -203q78 0 131 53q78 73 78 240v563h256v-1065zM864 1389l-409 -230l-82 133l377 283z" />
    <glyph glyph-name="ucircumflex" unicode="&#xfb;" horiz-adv-x="1208" 
d="M1049 0h-213l-19 139q-38 -77 -120.5 -121.5t-184.5 -44.5q-169 0 -269 104.5t-100 276.5v711h256v-653q0 -203 185 -203q78 0 131 53q78 73 78 240v563h256v-1065zM262 1296l250 238h158l245 -238l-120 -118l-203 196l-207 -203z" />
    <glyph glyph-name="udieresis" unicode="&#xfc;" horiz-adv-x="1208" 
d="M1049 0h-213l-19 139q-38 -77 -120.5 -121.5t-184.5 -44.5q-169 0 -269 104.5t-100 276.5v711h256v-653q0 -203 185 -203q78 0 131 53q78 73 78 240v563h256v-1065zM936 1231h-240v248h240v-248zM514 1231h-240v248h240v-248z" />
    <glyph glyph-name="yacute" unicode="&#xfd;" horiz-adv-x="1085" 
d="M1085 1065l-469 -1247q-22 -57 -48 -101t-64.5 -83.5t-93 -61t-121.5 -21.5q-91 0 -197 27v213q102 -18 144 -18q88 0 122 80l62 149l-420 1063h281l278 -770l266 770h260zM846 1382l-410 -229l-82 133l377 283z" />
    <glyph glyph-name="thorn" unicode="&#xfe;" horiz-adv-x="1212" 
d="M1126 532q0 -131 -37.5 -246t-113.5 -194q-114 -117 -281 -117q-86 0 -164 31.5t-116 91.5v-506h-254v1887h254v-510q38 60 116 91.5t164 31.5q167 0 281 -117q75 -79 113 -195.5t38 -247.5zM868 532q0 185 -71 275q-60 74 -160 74q-236 0 -236 -349q0 -346 236 -346
q100 0 160 74q71 90 71 272z" />
    <glyph glyph-name="ydieresis" unicode="&#xff;" horiz-adv-x="1085" 
d="M1085 1065l-469 -1247q-22 -57 -48 -101t-64.5 -83.5t-93 -61t-121.5 -21.5q-91 0 -197 27v213q102 -18 144 -18q88 0 122 80l62 149l-420 1063h281l278 -770l266 770h260zM889 1231h-240v248h240v-248zM467 1231h-240v248h240v-248z" />
    <glyph glyph-name="Amacron" unicode="&#x100;" horiz-adv-x="1308" 
d="M1309 0h-277l-94 279h-578l-94 -279h-266l510 1452h289zM856 516l-207 612l-207 -612h414zM961 1565h-615v204h615v-204z" />
    <glyph glyph-name="amacron" unicode="&#x101;" horiz-adv-x="1150" 
d="M1087 12q-28 -12 -40 -16t-34.5 -8t-51.5 -4q-80 0 -127.5 42.5t-53.5 106.5q-39 -68 -126.5 -114t-196.5 -46q-181 0 -283 97.5t-102 236.5q0 147 101 235t259 99l313 23v65q0 82 -39 125t-141 43q-89 0 -139.5 -39.5t-54.5 -112.5h-248q10 172 131.5 259.5t310.5 87.5
q317 0 400 -218q30 -76 30 -215v-395q0 -37 14 -52t46 -15l32 4v-189zM745 424v49l-270 -20q-63 -5 -108 -42t-45 -98q0 -60 44.5 -96.5t106.5 -36.5q123 0 197.5 64t74.5 180zM903 1251h-655v205h655v-205z" />
    <glyph glyph-name="Abreve" unicode="&#x102;" horiz-adv-x="1308" 
d="M1309 0h-277l-94 279h-578l-94 -279h-266l510 1452h289zM856 516l-207 612l-207 -612h414zM999 1923q-13 -165 -100 -261.5t-246 -96.5t-245 96.5t-99 261.5h193q10 -91 46 -131.5t105 -40.5t106.5 41t47.5 131h192z" />
    <glyph glyph-name="abreve" unicode="&#x103;" horiz-adv-x="1150" 
d="M1087 12q-28 -12 -40 -16t-34.5 -8t-51.5 -4q-80 0 -127.5 42.5t-53.5 106.5q-39 -68 -126.5 -114t-196.5 -46q-181 0 -283 97.5t-102 236.5q0 147 101 235t259 99l313 23v65q0 82 -39 125t-141 43q-89 0 -139.5 -39.5t-54.5 -112.5h-248q10 172 131.5 259.5t310.5 87.5
q317 0 400 -218q30 -76 30 -215v-395q0 -37 14 -52t46 -15l32 4v-189zM745 424v49l-270 -20q-63 -5 -108 -42t-45 -98q0 -60 44.5 -96.5t106.5 -36.5q123 0 197.5 64t74.5 180zM920 1530q-13 -165 -100.5 -262t-246.5 -97q-158 0 -244.5 97t-99.5 262h193q10 -91 46 -131.5
t105 -40.5t106.5 41t47.5 131h193z" />
    <glyph glyph-name="Aogonek" unicode="&#x104;" horiz-adv-x="1308" 
d="M956 -186q0 110 97 186h-21l-94 279h-578l-94 -279h-266l510 1452h289l510 -1452q-61 -23 -108.5 -68t-47.5 -86q0 -31 19.5 -50t52.5 -19h20l64 6v-168q-58 -14 -107 -14h-16q-97 0 -163.5 63t-66.5 150zM856 516l-207 612l-207 -612h414z" />
    <glyph glyph-name="aogonek" unicode="&#x105;" horiz-adv-x="1150" 
d="M1087 0q-61 -23 -108 -68t-47 -86q0 -31 19.5 -50t52.5 -19h20l63 6v-168q-57 -14 -106 -14h-16q-97 0 -163.5 63t-66.5 150q0 125 117 198q-66 44 -72 121q-39 -68 -126.5 -114t-196.5 -46q-181 0 -283 97.5t-102 236.5q0 147 101 235t259 99l313 23v65q0 82 -39 125
t-141 43q-89 0 -139.5 -39.5t-54.5 -112.5h-248q10 172 131.5 259.5t310.5 87.5q317 0 400 -218q30 -76 30 -215v-395q0 -37 14 -52t46 -15l32 4v-201zM745 424v49l-270 -20q-63 -5 -108 -42t-45 -98q0 -60 44.5 -96.5t106.5 -36.5q123 0 197.5 64t74.5 180z" />
    <glyph glyph-name="Cacute" unicode="&#x106;" horiz-adv-x="1286" 
d="M1229 463q-21 -197 -139 -318q-81 -83 -189.5 -127.5t-226.5 -44.5q-250 0 -412 162q-109 109 -144.5 246.5t-35.5 343.5t35.5 343.5t144.5 246.5q164 164 412 164q119 0 227 -43t189 -125q119 -122 139 -316h-271q-8 85 -65 154q-72 90 -219 90q-133 0 -223 -96
q-35 -37 -57.5 -87t-31 -114.5t-10.5 -106.5t-2 -110t2 -110t10.5 -106.5t31 -114.5t57.5 -87q90 -96 223 -96q68 0 126 24t93 68q56 68 65 160h271zM991 1794l-409 -229l-82 133l377 282z" />
    <glyph glyph-name="cacute" unicode="&#x107;" horiz-adv-x="1087" 
d="M1020 377q-6 -135 -82 -232q-60 -74 -155 -121t-210 -47t-212.5 47.5t-157.5 120.5q-117 146 -117 390q0 243 117 389q60 73 157.5 120.5t212.5 47.5t210 -47t155 -121q76 -97 82 -232h-252q-3 51 -31 99q-52 79 -164 79q-94 0 -155 -65q-72 -80 -72 -270q0 -189 72 -269
q63 -67 155 -67q111 0 164 80q28 48 31 98h252zM938 1389l-410 -230l-82 133l377 283z" />
    <glyph glyph-name="Ccircumflex" unicode="&#x108;" horiz-adv-x="1286" 
d="M1229 463q-21 -197 -139 -318q-81 -83 -189.5 -127.5t-226.5 -44.5q-250 0 -412 162q-109 109 -144.5 246.5t-35.5 343.5t35.5 343.5t144.5 246.5q164 164 412 164q119 0 227 -43t189 -125q119 -122 139 -316h-271q-8 85 -65 154q-72 90 -219 90q-133 0 -223 -96
q-35 -37 -57.5 -87t-31 -114.5t-10.5 -106.5t-2 -110t2 -110t10.5 -106.5t31 -114.5t57.5 -87q90 -96 223 -96q68 0 126 24t93 68q56 68 65 160h271zM336 1706l250 238h157l246 -238l-121 -119l-202 197l-207 -203z" />
    <glyph glyph-name="ccircumflex" unicode="&#x109;" horiz-adv-x="1087" 
d="M1020 377q-6 -135 -82 -232q-60 -74 -155 -121t-210 -47t-212.5 47.5t-157.5 120.5q-117 146 -117 390q0 243 117 389q60 73 157.5 120.5t212.5 47.5t210 -47t155 -121q76 -97 82 -232h-252q-3 51 -31 99q-52 79 -164 79q-94 0 -155 -65q-72 -80 -72 -270q0 -189 72 -269
q63 -67 155 -67q111 0 164 80q28 48 31 98h252zM233 1296l250 238h158l246 -238l-121 -118l-203 196l-207 -203z" />
    <glyph glyph-name="Cdotaccent" unicode="&#x10a;" horiz-adv-x="1286" 
d="M1229 463q-21 -197 -139 -318q-81 -83 -189.5 -127.5t-226.5 -44.5q-250 0 -412 162q-109 109 -144.5 246.5t-35.5 343.5t35.5 343.5t144.5 246.5q164 164 412 164q119 0 227 -43t189 -125q119 -122 139 -316h-271q-8 85 -65 154q-72 90 -219 90q-133 0 -223 -96
q-35 -37 -57.5 -87t-31 -114.5t-10.5 -106.5t-2 -110t2 -110t10.5 -106.5t31 -114.5t57.5 -87q90 -96 223 -96q68 0 126 24t93 68q56 68 65 160h271zM803 1620h-240v248h240v-248z" />
    <glyph glyph-name="cdotaccent" unicode="&#x10b;" horiz-adv-x="1087" 
d="M1020 377q-6 -135 -82 -232q-60 -74 -155 -121t-210 -47t-212.5 47.5t-157.5 120.5q-117 146 -117 390q0 243 117 389q60 73 157.5 120.5t212.5 47.5t210 -47t155 -121q76 -97 82 -232h-252q-3 51 -31 99q-52 79 -164 79q-94 0 -155 -65q-72 -80 -72 -270q0 -189 72 -269
q63 -67 155 -67q111 0 164 80q28 48 31 98h252zM684 1231h-240v248h240v-248z" />
    <glyph glyph-name="Ccaron" unicode="&#x10c;" horiz-adv-x="1286" 
d="M1229 463q-21 -197 -139 -318q-81 -83 -189.5 -127.5t-226.5 -44.5q-250 0 -412 162q-109 109 -144.5 246.5t-35.5 343.5t35.5 343.5t144.5 246.5q164 164 412 164q119 0 227 -43t189 -125q119 -122 139 -316h-271q-8 85 -65 154q-72 90 -219 90q-133 0 -223 -96
q-35 -37 -57.5 -87t-31 -114.5t-10.5 -106.5t-2 -110t2 -110t10.5 -106.5t31 -114.5t57.5 -87q90 -96 223 -96q68 0 126 24t93 68q56 68 65 160h271zM590 1581l-250 207l109 129l219 -178l215 176l110 -127l-245 -207h-158z" />
    <glyph glyph-name="ccaron" unicode="&#x10d;" horiz-adv-x="1087" 
d="M1020 377q-6 -135 -82 -232q-60 -74 -155 -121t-210 -47t-212.5 47.5t-157.5 120.5q-117 146 -117 390q0 243 117 389q60 73 157.5 120.5t212.5 47.5t210 -47t155 -121q76 -97 82 -232h-252q-3 51 -31 99q-52 79 -164 79q-94 0 -155 -65q-72 -80 -72 -270q0 -189 72 -269
q63 -67 155 -67q111 0 164 80q28 48 31 98h252zM465 1171l-250 238l123 125l207 -203l203 197l120 -119l-245 -238h-158z" />
    <glyph glyph-name="Dcaron" unicode="&#x10e;" horiz-adv-x="1400" 
d="M1313 727q0 -118 -10 -206t-49.5 -190.5t-110.5 -174.5q-72 -75 -178 -115.5t-230 -40.5h-565v1452h565q124 0 230 -40.5t178 -115.5q71 -72 110.5 -174t49.5 -189.5t10 -205.5zM1044 727q0 66 -2.5 108t-11 103.5t-31.5 110t-59 84.5q-81 81 -205 81h-301v-976h301
q124 0 205 81q36 36 59 85t31.5 110.5t11 104t2.5 108.5zM569 1581l-250 207l109 129l219 -178l215 176l111 -127l-246 -207h-158z" />
    <glyph glyph-name="dcaron" unicode="&#x10f;" horiz-adv-x="1271" 
d="M1071 0h-221l-16 117q-45 -70 -125.5 -106t-173.5 -36q-148 0 -261 91q-188 154 -188 464q0 320 190 476q107 86 261 86q96 0 169 -28.5t109 -72.5v488h256v-1479zM827 535q0 51 -5.5 95.5t-21.5 91t-42 80t-70 54.5t-102 21q-106 0 -172 -84q-68 -90 -68 -258
q0 -171 68 -261q66 -84 172 -84q58 0 102 21.5t70 55t42 81t21.5 92t5.5 95.5zM1348 1274q0 -103 -33 -161.5t-123 -100.5l-49 96q58 31 75 58t17 89h-102v224h215v-205z" />
    <glyph glyph-name="Dcroat" unicode="&#x110;" horiz-adv-x="1400" 
d="M1313 727q0 -118 -10 -206t-49.5 -190.5t-110.5 -174.5q-72 -75 -178 -115.5t-230 -40.5h-565v668h-129v172h129v612h565q124 0 230 -40.5t178 -115.5q71 -72 110.5 -174t49.5 -189.5t10 -205.5zM1044 727q0 66 -2.5 108t-11 103.5t-31.5 110t-59 84.5q-81 81 -205 81
h-301v-374h268v-172h-268v-430h301q124 0 205 81q36 36 59 85t31.5 110.5t11 104t2.5 108.5z" />
    <glyph glyph-name="dcroat" unicode="&#x111;" horiz-adv-x="1230" 
d="M1071 0h-221l-16 117q-45 -70 -125.5 -106t-173.5 -36q-148 0 -261 91q-188 154 -188 464q0 320 190 476q107 86 261 86q96 0 169 -28.5t109 -72.5v170h-360v172h360v146h256v-146h105v-172h-105v-1161zM827 535q0 51 -5.5 95.5t-21.5 91t-42 80t-70 54.5t-102 21
q-106 0 -172 -84q-68 -90 -68 -258q0 -171 68 -261q66 -84 172 -84q58 0 102 21.5t70 55t42 81t21.5 92t5.5 95.5z" />
    <glyph glyph-name="Emacron" unicode="&#x112;" horiz-adv-x="1286" 
d="M1204 0h-1034v1452h1034v-240h-770v-338h678v-237h-678v-397h770v-240zM975 1565h-615v204h615v-204z" />
    <glyph glyph-name="emacron" unicode="&#x113;" horiz-adv-x="1140" 
d="M1061 524q-2 -48 -2 -71h-713q-3 -131 78 -209q70 -66 158 -66q104 0 155 51q38 38 51 90h246q-4 -45 -30.5 -101t-59.5 -95q-127 -150 -358 -150q-198 0 -336 131q-164 158 -164 426q0 269 154 426q133 136 340 136q122 0 223.5 -50t165.5 -147q99 -148 92 -371z
M805 639q-3 117 -66 186q-59 62 -161 62q-117 0 -179 -82q-52 -66 -55 -166h461zM897 1251h-655v205h655v-205z" />
    <glyph glyph-name="Edotaccent" unicode="&#x116;" horiz-adv-x="1286" 
d="M1204 0h-1034v1452h1034v-240h-770v-338h678v-237h-678v-397h770v-240zM807 1620h-240v248h240v-248z" />
    <glyph glyph-name="edotaccent" unicode="&#x117;" horiz-adv-x="1140" 
d="M1061 524q-2 -48 -2 -71h-713q-3 -131 78 -209q70 -66 158 -66q104 0 155 51q38 38 51 90h246q-4 -45 -30.5 -101t-59.5 -95q-127 -150 -358 -150q-198 0 -336 131q-164 158 -164 426q0 269 154 426q133 136 340 136q122 0 223.5 -50t165.5 -147q99 -148 92 -371z
M805 639q-3 117 -66 186q-59 62 -161 62q-117 0 -179 -82q-52 -66 -55 -166h461zM690 1231h-239v248h239v-248z" />
    <glyph glyph-name="Eogonek" unicode="&#x118;" horiz-adv-x="1286" 
d="M852 -186q0 110 96 186h-778v1452h1034v-240h-770v-338h678v-237h-678v-397h770v-240q-61 -23 -108 -68t-47 -86q0 -31 19 -50t52 -19h21l63 6v-168q-57 -14 -106 -14h-17q-97 0 -163 63t-66 150z" />
    <glyph glyph-name="eogonek" unicode="&#x119;" horiz-adv-x="1140" 
d="M1059 453h-713q0 -134 78 -209q70 -66 158 -66q104 0 155 51q38 38 51 90h246q-9 -89 -90 -196q-9 -12 -35 -43t-38 -48t-29 -46t-24 -58.5t-7 -62.5q0 -88 72 -88h20l64 6v-168q-58 -14 -107 -14h-16q-97 0 -163.5 63t-66.5 150q0 98 70 168q-74 -9 -98 -9
q-198 0 -336 131q-164 158 -164 426q0 269 154 426q133 136 340 136q122 0 223.5 -50t165.5 -147q92 -135 92 -338q0 -69 -2 -104zM805 639q-3 117 -66 186q-59 62 -161 62q-117 0 -179 -82q-52 -66 -55 -166h461z" />
    <glyph glyph-name="Ecaron" unicode="&#x11a;" horiz-adv-x="1286" 
d="M1204 0h-1034v1452h1034v-240h-770v-338h678v-237h-678v-397h770v-240zM610 1581l-250 207l109 129l219 -178l215 176l111 -127l-246 -207h-158z" />
    <glyph glyph-name="ecaron" unicode="&#x11b;" horiz-adv-x="1140" 
d="M1061 524q-2 -48 -2 -71h-713q-3 -131 78 -209q70 -66 158 -66q104 0 155 51q38 38 51 90h246q-4 -45 -30.5 -101t-59.5 -95q-127 -150 -358 -150q-198 0 -336 131q-164 158 -164 426q0 269 154 426q133 136 340 136q122 0 223.5 -50t165.5 -147q99 -148 92 -371z
M805 639q-3 117 -66 186q-59 62 -161 62q-117 0 -179 -82q-52 -66 -55 -166h461zM500 1171l-250 238l123 125l207 -203l202 197l121 -119l-246 -238h-157z" />
    <glyph glyph-name="Gcircumflex" unicode="&#x11c;" horiz-adv-x="1400" 
d="M1272 0h-170l-31 160q-36 -71 -136.5 -128.5t-227.5 -58.5q-276 -3 -433 162q-107 111 -147.5 253t-40.5 337q0 199 39 336.5t149 247.5q81 81 197 125.5t236 44.5q130 0 242.5 -44.5t187.5 -121.5q122 -126 133 -293h-271q-4 63 -63 133q-76 88 -231 88
q-64 0 -130 -26.5t-108 -71.5q-113 -118 -113 -418q0 -304 115 -424q41 -44 105.5 -68t130.5 -24q136 0 217 84q55 58 74.5 124t19.5 158h-346v220h602v-795zM362 1706l250 238h158l246 -238l-121 -119l-203 197l-207 -203z" />
    <glyph glyph-name="gcircumflex" unicode="&#x11d;" horiz-adv-x="1128" 
d="M1098 -141q0 -81 -31 -144.5t-81 -103t-119 -64.5t-138 -35t-145 -10q-118 0 -210 17.5t-167 70.5q-129 90 -129 234q0 70 33.5 128.5t93.5 88.5q-50 27 -78.5 77.5t-28.5 104.5q0 137 127 215q-106 106 -106 262q0 123 59.5 213.5t157 134.5t219.5 44q129 0 242 -66
q33 67 90 100t127 33q53 0 69 -4v-199q-3 0 -10 1t-10 1q-108 0 -129 -67q55 -90 55 -193q0 -118 -61 -207.5t-159 -134.5t-214 -45q-87 0 -172 29q-53 -30 -53 -76q0 -78 116 -78h177q73 0 118.5 -2.5t113.5 -19.5t114 -49q129 -88 129 -256zM743 700q0 88 -51 143.5
t-137 55.5t-137 -55.5t-51 -143.5t50.5 -142t137.5 -54t137.5 54t50.5 142zM856 -147q0 27 -9.5 48.5t-23 35t-37.5 23t-43 14t-49.5 7t-46.5 3t-45 0.5h-201q-43 -12 -69.5 -47t-26.5 -84q0 -148 268 -148q27 0 48 0.5t52 4t54.5 9.5t49 17t42 26t27 38.5t10.5 52.5z
M240 1296l249 238h158l246 -238l-121 -118l-203 196l-207 -203z" />
    <glyph glyph-name="Gbreve" unicode="&#x11e;" horiz-adv-x="1400" 
d="M1272 0h-170l-31 160q-36 -71 -136.5 -128.5t-227.5 -58.5q-276 -3 -433 162q-107 111 -147.5 253t-40.5 337q0 199 39 336.5t149 247.5q81 81 197 125.5t236 44.5q130 0 242.5 -44.5t187.5 -121.5q122 -126 133 -293h-271q-4 63 -63 133q-76 88 -231 88
q-64 0 -130 -26.5t-108 -71.5q-113 -118 -113 -418q0 -304 115 -424q41 -44 105.5 -68t130.5 -24q136 0 217 84q55 58 74.5 124t19.5 158h-346v220h602v-795zM1044 1923q-13 -165 -100 -261.5t-246 -96.5t-245 96.5t-99 261.5h193q10 -91 46 -131.5t105 -40.5t106.5 41
t47.5 131h192z" />
    <glyph glyph-name="gbreve" unicode="&#x11f;" horiz-adv-x="1128" 
d="M1098 -141q0 -81 -31 -144.5t-81 -103t-119 -64.5t-138 -35t-145 -10q-118 0 -210 17.5t-167 70.5q-129 90 -129 234q0 70 33.5 128.5t93.5 88.5q-50 27 -78.5 77.5t-28.5 104.5q0 137 127 215q-106 106 -106 262q0 123 59.5 213.5t157 134.5t219.5 44q129 0 242 -66
q33 67 90 100t127 33q53 0 69 -4v-199q-3 0 -10 1t-10 1q-108 0 -129 -67q55 -90 55 -193q0 -118 -61 -207.5t-159 -134.5t-214 -45q-87 0 -172 29q-53 -30 -53 -76q0 -78 116 -78h177q73 0 118.5 -2.5t113.5 -19.5t114 -49q129 -88 129 -256zM743 700q0 88 -51 143.5
t-137 55.5t-137 -55.5t-51 -143.5t50.5 -142t137.5 -54t137.5 54t50.5 142zM856 -147q0 27 -9.5 48.5t-23 35t-37.5 23t-43 14t-49.5 7t-46.5 3t-45 0.5h-201q-43 -12 -69.5 -47t-26.5 -84q0 -148 268 -148q27 0 48 0.5t52 4t54.5 9.5t49 17t42 26t27 38.5t10.5 52.5z
M889 1530q-13 -165 -100 -262t-246 -97q-158 0 -244.5 97t-99.5 262h192q10 -91 46.5 -131.5t105.5 -40.5t106 41t47 131h193z" />
    <glyph glyph-name="Gdotaccent" unicode="&#x120;" horiz-adv-x="1400" 
d="M1272 0h-170l-31 160q-36 -71 -136.5 -128.5t-227.5 -58.5q-276 -3 -433 162q-107 111 -147.5 253t-40.5 337q0 199 39 336.5t149 247.5q81 81 197 125.5t236 44.5q130 0 242.5 -44.5t187.5 -121.5q122 -126 133 -293h-271q-4 63 -63 133q-76 88 -231 88
q-64 0 -130 -26.5t-108 -71.5q-113 -118 -113 -418q0 -304 115 -424q41 -44 105.5 -68t130.5 -24q136 0 217 84q55 58 74.5 124t19.5 158h-346v220h602v-795zM819 1620h-239v248h239v-248z" />
    <glyph glyph-name="gdotaccent" unicode="&#x121;" horiz-adv-x="1128" 
d="M1098 -141q0 -81 -31 -144.5t-81 -103t-119 -64.5t-138 -35t-145 -10q-118 0 -210 17.5t-167 70.5q-129 90 -129 234q0 70 33.5 128.5t93.5 88.5q-50 27 -78.5 77.5t-28.5 104.5q0 137 127 215q-106 106 -106 262q0 123 59.5 213.5t157 134.5t219.5 44q129 0 242 -66
q33 67 90 100t127 33q53 0 69 -4v-199q-3 0 -10 1t-10 1q-108 0 -129 -67q55 -90 55 -193q0 -118 -61 -207.5t-159 -134.5t-214 -45q-87 0 -172 29q-53 -30 -53 -76q0 -78 116 -78h177q73 0 118.5 -2.5t113.5 -19.5t114 -49q129 -88 129 -256zM743 700q0 88 -51 143.5
t-137 55.5t-137 -55.5t-51 -143.5t50.5 -142t137.5 -54t137.5 54t50.5 142zM856 -147q0 27 -9.5 48.5t-23 35t-37.5 23t-43 14t-49.5 7t-46.5 3t-45 0.5h-201q-43 -12 -69.5 -47t-26.5 -84q0 -148 268 -148q27 0 48 0.5t52 4t54.5 9.5t49 17t42 26t27 38.5t10.5 52.5z
M684 1231h-240v248h240v-248z" />
    <glyph glyph-name="Gcommaaccent" unicode="&#x122;" horiz-adv-x="1400" 
d="M1272 0h-170l-31 160q-36 -71 -136.5 -128.5t-227.5 -58.5q-276 -3 -433 162q-107 111 -147.5 253t-40.5 337q0 199 39 336.5t149 247.5q81 81 197 125.5t236 44.5q130 0 242.5 -44.5t187.5 -121.5q122 -126 133 -293h-271q-4 63 -63 133q-76 88 -231 88
q-64 0 -130 -26.5t-108 -71.5q-113 -118 -113 -418q0 -304 115 -424q41 -44 105.5 -68t130.5 -24q136 0 217 84q55 58 74.5 124t19.5 158h-346v220h602v-795zM809 -252q0 -44 -17.5 -81.5t-44.5 -60.5t-51.5 -37t-46.5 -20l-43 74q17 5 28.5 10.5t28.5 17.5t26 33t9 48h-106
v182h217v-166z" />
    <glyph glyph-name="gcommaaccent" unicode="&#x123;" horiz-adv-x="1128" 
d="M451 1337q0 44 17.5 81.5t44.5 60.5t51 37t46 20l43 -74q-17 -6 -28.5 -11t-28.5 -17t-26 -32.5t-9 -47.5h107v-183h-217v166zM1098 -141q0 -81 -31 -144.5t-81 -103t-119 -64.5t-138 -35t-145 -10q-118 0 -210 17.5t-167 70.5q-129 90 -129 234q0 70 33.5 128.5
t93.5 88.5q-50 27 -78.5 77.5t-28.5 104.5q0 137 127 215q-106 106 -106 262q0 123 59.5 213.5t157 134.5t219.5 44q129 0 242 -66q33 67 90 100t127 33q53 0 69 -4v-199q-3 0 -10 1t-10 1q-108 0 -129 -67q55 -90 55 -193q0 -118 -61 -207.5t-159 -134.5t-214 -45
q-87 0 -172 29q-53 -30 -53 -76q0 -78 116 -78h177q73 0 118.5 -2.5t113.5 -19.5t114 -49q129 -88 129 -256zM743 700q0 88 -51 143.5t-137 55.5t-137 -55.5t-51 -143.5t50.5 -142t137.5 -54t137.5 54t50.5 142zM856 -147q0 27 -9.5 48.5t-23 35t-37.5 23t-43 14t-49.5 7
t-46.5 3t-45 0.5h-201q-43 -12 -69.5 -47t-26.5 -84q0 -148 268 -148q27 0 48 0.5t52 4t54.5 9.5t49 17t42 26t27 38.5t10.5 52.5z" />
    <glyph glyph-name="Hcircumflex" unicode="&#x124;" horiz-adv-x="1464" 
d="M1294 0h-264v633h-596v-633h-264v1452h264v-567h596v567h264v-1452zM395 1706l250 238h158l246 -238l-121 -119l-203 197l-207 -203z" />
    <glyph glyph-name="hcircumflex" unicode="&#x125;" horiz-adv-x="1210" 
d="M1067 0h-256v657q0 98 -39.5 148.5t-136.5 50.5q-72 0 -124 -47.5t-73.5 -112.5t-21.5 -135v-561h-256v1479h256v-527q44 66 124.5 103t166.5 37q167 0 263.5 -106.5t96.5 -274.5v-711zM137 1655l250 237h158l246 -237l-121 -119l-203 197l-207 -203z" />
    <glyph glyph-name="Hbar" unicode="&#x126;" horiz-adv-x="1464" 
d="M1294 0h-264v633h-596v-633h-264v1073h-127v172h127v207h264v-207h596v207h264v-207h125v-172h-125v-1073zM434 885h596v188h-596v-188z" />
    <glyph glyph-name="hbar" unicode="&#x127;" horiz-adv-x="1210" 
d="M1067 0h-256v657q0 98 -39.5 148.5t-136.5 50.5q-72 0 -124 -47.5t-73.5 -112.5t-21.5 -135v-561h-256v1149h-103v172h103v158h256v-158h362v-172h-362v-197q44 66 124.5 103t166.5 37q167 0 263.5 -106.5t96.5 -274.5v-711z" />
    <glyph glyph-name="Imacron" unicode="&#x12a;" horiz-adv-x="608" 
d="M438 0h-268v1452h268v-1452zM610 1565h-614v204h614v-204z" />
    <glyph glyph-name="imacron" unicode="&#x12b;" horiz-adv-x="585" 
d="M424 0h-260v1065h260v-1065zM621 1251h-656v205h656v-205z" />
    <glyph glyph-name="Iogonek" unicode="&#x12e;" horiz-adv-x="608" 
d="M86 -186q0 110 96 186h-12v1452h268v-1452q-61 -23 -108 -68t-47 -86q0 -31 19 -50t52 -19h21l63 6v-168q-57 -14 -106 -14h-17q-97 0 -163 63t-66 150z" />
    <glyph glyph-name="iogonek" unicode="&#x12f;" horiz-adv-x="585" 
d="M72 -186q0 107 92 186v1065h260v-1065q-61 -23 -108.5 -68t-47.5 -86q0 -31 19.5 -50t52.5 -19h20l64 6v-168q-58 -14 -107 -14h-16q-97 0 -163 63t-66 150zM430 1212h-274v265h274v-265z" />
    <glyph glyph-name="Idotaccent" unicode="&#x130;" horiz-adv-x="608" 
d="M438 0h-268v1452h268v-1452zM422 1620h-240v248h240v-248z" />
    <glyph glyph-name="dotlessi" unicode="&#x131;" horiz-adv-x="585" 
d="M424 0h-260v1065h260v-1065z" />
    <glyph glyph-name="Jcircumflex" unicode="&#x134;" horiz-adv-x="1005" 
d="M877 424q0 -208 -117 -330.5t-324 -122.5q-193 0 -309 119q-127 130 -127 365h256q0 -137 53 -195q50 -53 127 -53q87 0 131.5 52t44.5 144v1049h265v-1028zM225 1706l250 238h158l246 -238l-121 -119l-203 197l-207 -203z" />
    <glyph glyph-name="jcircumflex" unicode="&#x135;" horiz-adv-x="606" 
d="M444 -147q0 -138 -79 -217.5t-220 -79.5q-57 0 -90 4q-57 7 -116 22v217q114 -12 124 -12q59 0 91 30t32 85v1163h258v-1212zM-20 1296l249 238h158l246 -238l-121 -118l-203 196l-207 -203z" />
    <glyph glyph-name="Kcommaaccent" unicode="&#x136;" horiz-adv-x="1388" 
d="M1389 0h-312l-393 686l-250 -293v-393h-264v1452h264v-670l580 670h321l-467 -549zM825 -252q0 -44 -17.5 -81.5t-44.5 -60.5t-51 -37t-46 -20l-43 74q17 5 28.5 10.5t28.5 17.5t26 33t9 48h-107v182h217v-166z" />
    <glyph glyph-name="kcommaaccent" unicode="&#x137;" horiz-adv-x="1181" 
d="M1182 0h-297l-299 465l-170 -184v-281h-256v1479h256v-846l403 432h322l-381 -412zM741 -252q0 -44 -17.5 -81.5t-44.5 -60.5t-51 -37t-46 -20l-43 74q17 5 28.5 10.5t28.5 17.5t26 33t9 48h-107v182h217v-166z" />
    <glyph glyph-name="Lacute" unicode="&#x139;" horiz-adv-x="1126" 
d="M1108 0h-938v1452h264v-1202h674v-250zM662 1794l-410 -229l-82 133l377 282z" />
    <glyph glyph-name="lacute" unicode="&#x13a;" horiz-adv-x="618" 
d="M557 2q-71 -14 -113 -14q-137 0 -213.5 69.5t-76.5 216.5v1207h258v-1164q0 -52 20.5 -77t81.5 -25q13 0 25 1t18 1v-215zM616 1794l-409 -229l-82 133l377 282z" />
    <glyph glyph-name="Lcommaaccent" unicode="&#x13b;" horiz-adv-x="1126" 
d="M1108 0h-938v1452h264v-1202h674v-250zM739 -252q0 -44 -17.5 -81.5t-44.5 -60.5t-51 -37t-46 -20l-43 74q17 5 28.5 10.5t28.5 17.5t26 33t9 48h-107v182h217v-166z" />
    <glyph glyph-name="lcommaaccent" unicode="&#x13c;" horiz-adv-x="618" 
d="M557 2q-71 -14 -113 -14q-137 0 -213.5 69.5t-76.5 216.5v1207h258v-1164q0 -52 20.5 -77t81.5 -25q13 0 25 1t18 1v-215zM418 -252q0 -44 -17.5 -81.5t-44.5 -60.5t-51.5 -37t-46.5 -20l-43 74q17 5 28.5 10.5t28.5 17.5t26 33t9 48h-106v182h217v-166z" />
    <glyph glyph-name="Lcaron" unicode="&#x13d;" horiz-adv-x="1126" 
d="M1108 0h-938v1452h264v-1202h674v-250zM788 1356q0 -103 -33 -162t-122 -100l-49 96q58 31 75 58t17 89h-103v224h215v-205z" />
    <glyph glyph-name="lcaron" unicode="&#x13e;" horiz-adv-x="618" 
d="M557 2q-71 -14 -113 -14q-137 0 -213.5 69.5t-76.5 216.5v1207h258v-1164q0 -52 20.5 -77t81.5 -25q13 0 25 1t18 1v-215zM688 1274q0 -103 -33 -161.5t-123 -100.5l-49 96q58 31 75 58t17 89h-102v224h215v-205z" />
    <glyph glyph-name="Lslash" unicode="&#x141;" horiz-adv-x="1159" 
d="M1141 0h-938v561l-109 -67l-88 141l197 123v694h264v-528l223 141l90 -143l-313 -195v-477h674v-250z" />
    <glyph glyph-name="lslash" unicode="&#x142;" horiz-adv-x="796" 
d="M764 950l-223 -141v-492q0 -52 20.5 -77t81.5 -25q13 0 25 1t18 1v-215q-71 -14 -113 -14q-137 0 -213.5 69.5t-76.5 216.5v371l-93 -57l-88 141l181 115v637h258v-473l133 84z" />
    <glyph glyph-name="Nacute" unicode="&#x143;" horiz-adv-x="1501" 
d="M1331 0h-272l-629 997v-997h-260v1452h281l620 -983v983h260v-1452zM1077 1794l-409 -229l-82 133l377 282z" />
    <glyph glyph-name="nacute" unicode="&#x144;" horiz-adv-x="1210" 
d="M1067 0h-256v653q0 100 -39.5 150.5t-136.5 50.5q-123 0 -184 -135q-17 -39 -25.5 -96.5t-9 -88.5t-0.5 -100v-434h-256v1065h215l18 -137q45 81 130.5 122.5t183.5 41.5q167 0 263.5 -106t96.5 -275v-711zM952 1389l-409 -230l-82 133l377 283z" />
    <glyph glyph-name="Ncommaaccent" unicode="&#x145;" horiz-adv-x="1501" 
d="M1331 0h-272l-629 997v-997h-260v1452h281l620 -983v983h260v-1452zM881 -252q0 -44 -17.5 -81.5t-44.5 -60.5t-51.5 -37t-46.5 -20l-43 74q17 5 28.5 10.5t28.5 17.5t26 33t9 48h-106v182h217v-166z" />
    <glyph glyph-name="ncommaaccent" unicode="&#x146;" horiz-adv-x="1210" 
d="M1067 0h-256v653q0 100 -39.5 150.5t-136.5 50.5q-123 0 -184 -135q-17 -39 -25.5 -96.5t-9 -88.5t-0.5 -100v-434h-256v1065h215l18 -137q45 81 130.5 122.5t183.5 41.5q167 0 263.5 -106t96.5 -275v-711zM729 -252q0 -44 -17.5 -81.5t-44.5 -60.5t-51.5 -37t-46.5 -20
l-43 74q17 5 28.5 10.5t28.5 17.5t26 33t9 48h-106v182h217v-166z" />
    <glyph glyph-name="Ncaron" unicode="&#x147;" horiz-adv-x="1501" 
d="M1331 0h-272l-629 997v-997h-260v1452h281l620 -983v983h260v-1452zM662 1581l-250 207l108 129l219 -178l215 176l111 -127l-246 -207h-157z" />
    <glyph glyph-name="ncaron" unicode="&#x148;" horiz-adv-x="1210" 
d="M1067 0h-256v653q0 100 -39.5 150.5t-136.5 50.5q-123 0 -184 -135q-17 -39 -25.5 -96.5t-9 -88.5t-0.5 -100v-434h-256v1065h215l18 -137q45 81 130.5 122.5t183.5 41.5q167 0 263.5 -106t96.5 -275v-711zM539 1171l-250 238l123 125l206 -203l203 197l121 -119
l-246 -238h-157z" />
    <glyph glyph-name="Omacron" unicode="&#x14c;" horiz-adv-x="1376" 
d="M1290 725q0 -202 -37 -340t-147 -248q-81 -81 -189.5 -122.5t-228.5 -41.5t-228.5 41.5t-189.5 122.5q-110 110 -147 248t-37 340q0 203 37 341.5t147 248.5q81 81 189.5 122.5t228.5 41.5t228.5 -41.5t189.5 -122.5q110 -110 147 -248.5t37 -341.5zM1022 725
q0 65 -2.5 110t-11.5 107.5t-32 113t-58 87.5q-42 45 -104 70.5t-126 25.5t-125.5 -25.5t-103.5 -70.5q-35 -37 -58 -88t-32.5 -113t-12 -107.5t-2.5 -109.5t2.5 -109.5t12 -107t32.5 -112t58 -87.5q42 -45 103.5 -70.5t125.5 -25.5t126 25.5t104 70.5q35 37 58 87.5
t32 112.5t11.5 106.5t2.5 109.5zM995 1565h-614v204h614v-204z" />
    <glyph glyph-name="omacron" unicode="&#x14d;" 
d="M1081 532q0 -130 -31 -222t-94 -171q-59 -72 -157.5 -119t-214.5 -47t-215 47t-158 119q-63 79 -94 171t-31 222t31 222.5t94 171.5q59 72 158 119t215 47t214.5 -47t157.5 -119q63 -79 94 -171.5t31 -222.5zM821 532q0 184 -76 269q-63 67 -161 67q-99 0 -162 -67
q-76 -85 -76 -269q0 -183 76 -268q63 -67 162 -67q98 0 161 67q76 85 76 268zM911 1251h-655v205h655v-205z" />
    <glyph glyph-name="Ohungarumlaut" unicode="&#x150;" horiz-adv-x="1376" 
d="M1290 725q0 -202 -37 -340t-147 -248q-81 -81 -189.5 -122.5t-228.5 -41.5t-228.5 41.5t-189.5 122.5q-110 110 -147 248t-37 340q0 203 37 341.5t147 248.5q81 81 189.5 122.5t228.5 41.5t228.5 -41.5t189.5 -122.5q110 -110 147 -248.5t37 -341.5zM1022 725
q0 65 -2.5 110t-11.5 107.5t-32 113t-58 87.5q-42 45 -104 70.5t-126 25.5t-125.5 -25.5t-103.5 -70.5q-35 -37 -58 -88t-32.5 -113t-12 -107.5t-2.5 -109.5t2.5 -109.5t12 -107t32.5 -112t58 -87.5q42 -45 103.5 -70.5t125.5 -25.5t126 25.5t104 70.5q35 37 58 87.5
t32 112.5t11.5 106.5t2.5 109.5zM1239 1794l-414 -240l-86 134l379 294zM799 1794l-414 -240l-86 134l379 294z" />
    <glyph glyph-name="ohungarumlaut" unicode="&#x151;" 
d="M1081 532q0 -130 -31 -222t-94 -171q-59 -72 -157.5 -119t-214.5 -47t-215 47t-158 119q-63 79 -94 171t-31 222t31 222.5t94 171.5q59 72 158 119t215 47t214.5 -47t157.5 -119q63 -79 94 -171.5t31 -222.5zM821 532q0 184 -76 269q-63 67 -161 67q-99 0 -162 -67
q-76 -85 -76 -269q0 -183 76 -268q63 -67 162 -67q98 0 161 67q76 85 76 268zM1135 1399l-414 -240l-86 133l379 295zM694 1399l-413 -240l-86 133l378 295z" />
    <glyph glyph-name="OE" unicode="&#x152;" horiz-adv-x="2109" 
d="M2028 0h-1035v74q-59 -44 -146 -72.5t-175 -28.5q-126 0 -235 43t-185 121q-55 57 -90.5 126.5t-51 152.5t-20 150t-4.5 161t4.5 161t20 149t51 151.5t90.5 126.5q76 78 185 121t235 43q88 0 178 -29t143 -72v74h1035v-240h-771v-338h678v-237h-678v-397h771v-240z
M989 727v42v47t-1 44t-3 48.5t-5.5 44t-8.5 47t-12.5 41.5t-17 43t-23 36t-29.5 35q-84 84 -217 84t-217 -84q-36 -35 -58.5 -82t-31 -109t-10 -100.5t-1.5 -109.5v-27q0 -163 9 -226q21 -135 92 -204q84 -84 217 -84t217 84q16 16 29.5 35t23 36t17 43.5t12.5 42t8.5 47.5
t5.5 44.5t3 48.5t1 44v47v42z" />
    <glyph glyph-name="oe" unicode="&#x153;" horiz-adv-x="1851" 
d="M1772 524q-3 -48 -3 -71h-704q-2 -62 19 -121.5t59 -95.5q68 -64 149 -64q103 0 158 55q37 37 51 92h246q-4 -45 -30.5 -101t-59.5 -95q-127 -150 -357 -150q-195 0 -333 131q-3 3 -8.5 8t-10 10t-8.5 9q-59 -69 -155.5 -113.5t-209.5 -44.5q-115 0 -213.5 47.5
t-158.5 120.5q-117 146 -117 389q0 247 119 396q59 72 157 119t213 47q113 0 208.5 -43.5t154.5 -112.5l18 18q135 138 338 138q121 0 221.5 -50.5t165.5 -148.5q55 -83 74.5 -171.5t16.5 -197.5zM805 530q0 195 -70 273q-63 67 -160 67q-96 0 -159 -67q-70 -78 -70 -273
q0 -192 70 -270q63 -67 159 -67q97 0 160 67q70 78 70 270zM1516 639q-3 121 -64 188q-59 62 -160 62q-114 0 -176 -82q-50 -64 -53 -168h453z" />
    <glyph glyph-name="Racute" unicode="&#x154;" horiz-adv-x="1349" 
d="M1286 0h-287l-241 549h-322v-549h-266v1452h612q125 0 224 -37.5t158.5 -101t90.5 -143t31 -169.5q0 -145 -72.5 -253.5t-193.5 -153.5zM1022 1001q0 91 -65.5 155.5t-174.5 64.5h-348v-435h352q113 0 174.5 56t61.5 159zM940 1794l-410 -229l-81 133l376 282z" />
    <glyph glyph-name="racute" unicode="&#x155;" horiz-adv-x="808" 
d="M780 827q-53 11 -88 11q-131 0 -202.5 -83.5t-71.5 -217.5v-537h-258v1065h217l22 -160q35 87 117.5 130.5t183.5 43.5q40 0 80 -6v-246zM813 1389l-410 -230l-81 133l376 283z" />
    <glyph glyph-name="Rcommaaccent" unicode="&#x156;" horiz-adv-x="1349" 
d="M1286 0h-287l-241 549h-322v-549h-266v1452h612q125 0 224 -37.5t158.5 -101t90.5 -143t31 -169.5q0 -145 -72.5 -253.5t-193.5 -153.5zM1022 1001q0 91 -65.5 155.5t-174.5 64.5h-348v-435h352q113 0 174.5 56t61.5 159zM823 -252q0 -44 -17.5 -81.5t-44.5 -60.5
t-51 -37t-46 -20l-43 74q17 5 28.5 10.5t28.5 17.5t26 33t9 48h-107v182h217v-166z" />
    <glyph glyph-name="rcommaaccent" unicode="&#x157;" horiz-adv-x="808" 
d="M780 827q-53 11 -88 11q-131 0 -202.5 -83.5t-71.5 -217.5v-537h-258v1065h217l22 -160q35 87 117.5 130.5t183.5 43.5q40 0 80 -6v-246zM401 -252q0 -44 -17.5 -81.5t-44.5 -60.5t-51 -37t-46 -20l-43 74q17 5 28.5 10.5t28.5 17.5t26 33t9 48h-107v182h217v-166z" />
    <glyph glyph-name="Rcaron" unicode="&#x158;" horiz-adv-x="1349" 
d="M1286 0h-287l-241 549h-322v-549h-266v1452h612q125 0 224 -37.5t158.5 -101t90.5 -143t31 -169.5q0 -145 -72.5 -253.5t-193.5 -153.5zM1022 1001q0 91 -65.5 155.5t-174.5 64.5h-348v-435h352q113 0 174.5 56t61.5 159zM586 1581l-250 207l108 129l220 -178l215 176
l110 -127l-246 -207h-157z" />
    <glyph glyph-name="rcaron" unicode="&#x159;" horiz-adv-x="808" 
d="M780 827q-53 11 -88 11q-131 0 -202.5 -83.5t-71.5 -217.5v-537h-258v1065h217l22 -160q35 87 117.5 130.5t183.5 43.5q40 0 80 -6v-246zM399 1171l-249 238l122 125l207 -203l203 197l121 -119l-246 -238h-158z" />
    <glyph glyph-name="Sacute" unicode="&#x15a;" horiz-adv-x="1294" 
d="M1227 432q0 -182 -121 -303q-156 -156 -459 -156q-270 0 -434 150q-68 62 -110 150.5t-42 187.5h271q0 -102 76 -178q78 -78 243 -78q177 0 252 78q29 31 43.5 61t14.5 78q0 74 -49 116.5t-124 55.5q-52 9 -164 20.5t-157 18.5q-162 27 -265.5 130t-103.5 275
q0 160 127 287q73 71 186.5 112.5t239.5 41.5q119 0 226 -37t180 -105q144 -137 147 -309h-270q-3 79 -64 143q-34 35 -97 56.5t-124 21.5q-158 0 -235 -80q-49 -52 -49 -122q0 -68 39.5 -107.5t107.5 -50.5q52 -8 167 -20.5t148 -16.5q173 -25 286.5 -134t113.5 -286z
M975 1794l-410 -229l-82 133l377 282z" />
    <glyph glyph-name="sacute" unicode="&#x15b;" horiz-adv-x="1067" 
d="M987 330q0 -142 -92 -234q-123 -123 -365 -123q-215 0 -344 123q-49 48 -80.5 112.5t-31.5 135.5h239q0 -35 16.5 -69.5t41.5 -55.5q58 -47 161 -47q38 0 71.5 5t69 18t56.5 42t21 70q0 46 -28.5 75.5t-78.5 37.5q-22 3 -131 16t-164 25q-108 23 -176 102.5t-68 181.5
q0 145 109 240q123 107 324 107q99 0 187.5 -32t145.5 -93q95 -102 95 -219h-244q0 54 -43 100q-49 49 -139 49q-72 0 -111 -16q-36 -14 -59 -44t-23 -69q0 -89 123 -106q136 -17 227 -31q131 -21 211 -100t80 -201zM860 1389l-409 -230l-82 133l376 283z" />
    <glyph glyph-name="Scircumflex" unicode="&#x15c;" horiz-adv-x="1294" 
d="M1227 432q0 -182 -121 -303q-156 -156 -459 -156q-270 0 -434 150q-68 62 -110 150.5t-42 187.5h271q0 -102 76 -178q78 -78 243 -78q177 0 252 78q29 31 43.5 61t14.5 78q0 74 -49 116.5t-124 55.5q-52 9 -164 20.5t-157 18.5q-162 27 -265.5 130t-103.5 275
q0 160 127 287q73 71 186.5 112.5t239.5 41.5q119 0 226 -37t180 -105q144 -137 147 -309h-270q-3 79 -64 143q-34 35 -97 56.5t-124 21.5q-158 0 -235 -80q-49 -52 -49 -122q0 -68 39.5 -107.5t107.5 -50.5q52 -8 167 -20.5t148 -16.5q173 -25 286.5 -134t113.5 -286z
M322 1706l249 238h158l246 -238l-121 -119l-203 197l-207 -203z" />
    <glyph glyph-name="scircumflex" unicode="&#x15d;" horiz-adv-x="1067" 
d="M987 330q0 -142 -92 -234q-123 -123 -365 -123q-215 0 -344 123q-49 48 -80.5 112.5t-31.5 135.5h239q0 -35 16.5 -69.5t41.5 -55.5q58 -47 161 -47q38 0 71.5 5t69 18t56.5 42t21 70q0 46 -28.5 75.5t-78.5 37.5q-22 3 -131 16t-164 25q-108 23 -176 102.5t-68 181.5
q0 145 109 240q123 107 324 107q99 0 187.5 -32t145.5 -93q95 -102 95 -219h-244q0 54 -43 100q-49 49 -139 49q-72 0 -111 -16q-36 -14 -59 -44t-23 -69q0 -89 123 -106q136 -17 227 -31q131 -21 211 -100t80 -201zM211 1296l250 238h157l246 -238l-121 -118l-202 196
l-207 -203z" />
    <glyph glyph-name="Scedilla" unicode="&#x15e;" horiz-adv-x="1294" 
d="M1227 432q0 -182 -121 -303q-156 -156 -459 -156q-270 0 -434 150q-68 62 -110 150.5t-42 187.5h271q0 -102 76 -178q78 -78 243 -78q177 0 252 78q29 31 43.5 61t14.5 78q0 74 -49 116.5t-124 55.5q-52 9 -164 20.5t-157 18.5q-162 27 -265.5 130t-103.5 275
q0 160 127 287q73 71 186.5 112.5t239.5 41.5q119 0 226 -37t180 -105q144 -137 147 -309h-270q-3 79 -64 143q-34 35 -97 56.5t-124 21.5q-158 0 -235 -80q-49 -52 -49 -122q0 -68 39.5 -107.5t107.5 -50.5q52 -8 167 -20.5t148 -16.5q173 -25 286.5 -134t113.5 -286z
M770 -90l-156 -408l-213 101l170 307h199z" />
    <glyph glyph-name="scedilla" unicode="&#x15f;" horiz-adv-x="1067" 
d="M987 330q0 -142 -92 -234q-123 -123 -365 -123q-215 0 -344 123q-49 48 -80.5 112.5t-31.5 135.5h239q0 -35 16.5 -69.5t41.5 -55.5q58 -47 161 -47q38 0 71.5 5t69 18t56.5 42t21 70q0 46 -28.5 75.5t-78.5 37.5q-22 3 -131 16t-164 25q-108 23 -176 102.5t-68 181.5
q0 145 109 240q123 107 324 107q99 0 187.5 -32t145.5 -93q95 -102 95 -219h-244q0 54 -43 100q-49 49 -139 49q-72 0 -111 -16q-36 -14 -59 -44t-23 -69q0 -89 123 -106q136 -17 227 -31q131 -21 211 -100t80 -201zM655 -90l-155 -408l-213 101l170 307h198z" />
    <glyph glyph-name="Scaron" unicode="&#x160;" horiz-adv-x="1294" 
d="M565 1581l-250 207l109 129l219 -178l215 176l111 -127l-246 -207h-158zM1227 432q0 -182 -121 -303q-156 -156 -459 -156q-270 0 -434 150q-68 62 -110 150.5t-42 187.5h271q0 -102 76 -178q78 -78 243 -78q177 0 252 78q29 31 43.5 61t14.5 78q0 74 -49 116.5
t-124 55.5q-52 9 -164 20.5t-157 18.5q-162 27 -265.5 130t-103.5 275q0 160 127 287q73 71 186.5 112.5t239.5 41.5q119 0 226 -37t180 -105q144 -137 147 -309h-270q-3 79 -64 143q-34 35 -97 56.5t-124 21.5q-158 0 -235 -80q-49 -52 -49 -122q0 -68 39.5 -107.5
t107.5 -50.5q52 -8 167 -20.5t148 -16.5q173 -25 286.5 -134t113.5 -286z" />
    <glyph glyph-name="scaron" unicode="&#x161;" horiz-adv-x="1067" 
d="M987 330q0 -142 -92 -234q-123 -123 -365 -123q-215 0 -344 123q-49 48 -80.5 112.5t-31.5 135.5h239q0 -35 16.5 -69.5t41.5 -55.5q58 -47 161 -47q38 0 71.5 5t69 18t56.5 42t21 70q0 46 -28.5 75.5t-78.5 37.5q-22 3 -131 16t-164 25q-108 23 -176 102.5t-68 181.5
q0 145 109 240q123 107 324 107q99 0 187.5 -32t145.5 -93q95 -102 95 -219h-244q0 54 -43 100q-49 49 -139 49q-72 0 -111 -16q-36 -14 -59 -44t-23 -69q0 -89 123 -106q136 -17 227 -31q131 -21 211 -100t80 -201zM467 1171l-250 238l123 125l207 -203l203 197l120 -119
l-245 -238h-158z" />
    <glyph glyph-name="Tcommaaccent" unicode="&#x162;" horiz-adv-x="1148" 
d="M1137 1206h-430v-1206h-265v1206h-430v246h1125v-246zM682 -252q0 -44 -17.5 -81.5t-44.5 -60.5t-51.5 -37t-46.5 -20l-43 74q17 5 28.5 10.5t28.5 17.5t26 33t9 48h-106v182h217v-166z" />
    <glyph glyph-name="tcommaaccent" unicode="&#x163;" horiz-adv-x="819" 
d="M762 14q-112 -28 -219 -28q-159 0 -240.5 85.5t-81.5 241.5v541h-194v211h194v270l256 64v-334h268v-211h-268v-518q0 -61 28.5 -89t90.5 -28q78 0 166 10v-215zM518 -252q0 -44 -17.5 -81.5t-44.5 -60.5t-51.5 -37t-46.5 -20l-43 74q17 5 28.5 10.5t28.5 18t26.5 33
t9.5 47.5h-107v182h217v-166z" />
    <glyph glyph-name="Tcaron" unicode="&#x164;" horiz-adv-x="1148" 
d="M1137 1206h-430v-1206h-265v1206h-430v246h1125v-246zM485 1581l-249 207l108 129l219 -178l215 176l111 -127l-246 -207h-158z" />
    <glyph glyph-name="tcaron" unicode="&#x165;" horiz-adv-x="819" 
d="M762 14q-112 -28 -219 -28q-159 0 -240.5 85.5t-81.5 241.5v541h-194v211h194v270l256 64v-334h268v-211h-268v-518q0 -61 28.5 -89t90.5 -28q78 0 166 10v-215zM803 1438q0 -103 -33 -161.5t-123 -100.5l-49 96q58 31 75 58t17 89h-102v223h215v-204z" />
    <glyph glyph-name="Umacron" unicode="&#x16a;" horiz-adv-x="1396" 
d="M1268 557q0 -175 -63.5 -305t-193 -204.5t-313.5 -74.5t-313.5 74.5t-192.5 204.5t-63 305v895h264v-891q0 -162 76 -255t229 -93t229.5 93t76.5 255v891h264v-895zM1006 1565h-615v204h615v-204z" />
    <glyph glyph-name="umacron" unicode="&#x16b;" horiz-adv-x="1208" 
d="M1049 0h-213l-19 139q-38 -77 -120.5 -121.5t-184.5 -44.5q-169 0 -269 104.5t-100 276.5v711h256v-653q0 -203 185 -203q78 0 131 53q78 73 78 240v563h256v-1065zM932 1251h-656v205h656v-205z" />
    <glyph glyph-name="Ubreve" unicode="&#x16c;" horiz-adv-x="1396" 
d="M1268 557q0 -175 -63.5 -305t-193 -204.5t-313.5 -74.5t-313.5 74.5t-192.5 204.5t-63 305v895h264v-891q0 -162 76 -255t229 -93t229.5 93t76.5 255v891h264v-895zM1042 1923q-13 -165 -100 -261.5t-246 -96.5t-245 96.5t-99 261.5h193q10 -91 46 -131.5t105 -40.5
t106.5 41t47.5 131h192z" />
    <glyph glyph-name="ubreve" unicode="&#x16d;" horiz-adv-x="1208" 
d="M1049 0h-213l-19 139q-38 -77 -120.5 -121.5t-184.5 -44.5q-169 0 -269 104.5t-100 276.5v711h256v-653q0 -203 185 -203q78 0 131 53q78 73 78 240v563h256v-1065zM948 1530q-13 -165 -100 -262t-246 -97q-158 0 -244.5 97t-99.5 262h193q10 -91 46 -131.5t105 -40.5
t106.5 41t47.5 131h192z" />
    <glyph glyph-name="Uring" unicode="&#x16e;" horiz-adv-x="1396" 
d="M1268 557q0 -175 -63.5 -305t-193 -204.5t-313.5 -74.5t-313.5 74.5t-192.5 204.5t-63 305v895h264v-891q0 -162 76 -255t229 -93t229.5 93t76.5 255v891h264v-895zM948 1714q0 -104 -73 -177t-177 -73t-176.5 73t-72.5 177t72.5 176t176.5 72t177 -72t73 -176zM807 1714
q0 44 -32.5 75.5t-76.5 31.5t-75 -31.5t-31 -75.5t31 -76t75 -32t76.5 32t32.5 76z" />
    <glyph glyph-name="uring" unicode="&#x16f;" horiz-adv-x="1208" 
d="M1049 0h-213l-19 139q-38 -77 -120.5 -121.5t-184.5 -44.5q-169 0 -269 104.5t-100 276.5v711h256v-653q0 -203 185 -203q78 0 131 53q78 73 78 240v563h256v-1065zM854 1454q0 -104 -73 -177t-177 -73t-177 73t-73 177t73 176t177 72t177 -72t73 -176zM713 1454
q0 44 -32.5 75.5t-76.5 31.5t-75 -31.5t-31 -75.5t31 -76t75 -32t76.5 32t32.5 76z" />
    <glyph glyph-name="Uhungarumlaut" unicode="&#x170;" horiz-adv-x="1396" 
d="M1268 557q0 -175 -63.5 -305t-193 -204.5t-313.5 -74.5t-313.5 74.5t-192.5 204.5t-63 305v895h264v-891q0 -162 76 -255t229 -93t229.5 93t76.5 255v891h264v-895zM1270 1794l-414 -240l-86 134l379 294zM829 1794l-413 -240l-86 134l379 294z" />
    <glyph glyph-name="uhungarumlaut" unicode="&#x171;" horiz-adv-x="1208" 
d="M1049 0h-213l-19 139q-38 -77 -120.5 -121.5t-184.5 -44.5q-169 0 -269 104.5t-100 276.5v711h256v-653q0 -203 185 -203q78 0 131 53q78 73 78 240v563h256v-1065zM1135 1399l-414 -240l-86 133l379 295zM694 1399l-413 -240l-86 133l378 295z" />
    <glyph glyph-name="Uogonek" unicode="&#x172;" horiz-adv-x="1396" 
d="M1268 557q0 -276 -176 -455q-59 -61 -88 -113t-29 -124q0 -88 72 -88h20l63 6v-168q-57 -14 -106 -14h-16q-97 0 -163.5 63t-66.5 150q0 104 80 176q-83 -17 -160 -17q-184 0 -313.5 74.5t-192.5 204.5t-63 305v895h264v-891q0 -162 76 -255t229 -93t229.5 93t76.5 255
v891h264v-895z" />
    <glyph glyph-name="uogonek" unicode="&#x173;" horiz-adv-x="1208" 
d="M696 -186q0 135 135 211l-14 114q-38 -77 -120.5 -121.5t-184.5 -44.5q-169 0 -269 104.5t-100 276.5v711h256v-653q0 -203 185 -203q78 0 131 53q78 73 78 240v563h256v-1065q-61 -23 -108.5 -68t-47.5 -86q0 -31 19.5 -50t52.5 -19h20l64 6v-168q-58 -14 -107 -14h-16
q-97 0 -163.5 63t-66.5 150z" />
    <glyph glyph-name="Wcircumflex" unicode="&#x174;" horiz-adv-x="1785" 
d="M1751 1452l-289 -1452h-264l-303 1001l-303 -1001h-264l-293 1452h252l202 -1010l299 988h222l293 -988l206 1010h242zM578 1706l249 238h158l246 -238l-121 -119l-203 197l-207 -203z" />
    <glyph glyph-name="wcircumflex" unicode="&#x175;" horiz-adv-x="1579" 
d="M1532 1065l-260 -1065h-238l-241 719l-238 -719h-238l-270 1065h248l170 -698l223 688h211l225 -686l164 696h244zM463 1296l250 238h157l246 -238l-121 -118l-202 196l-207 -203z" />
    <glyph glyph-name="Ycircumflex" unicode="&#x176;" horiz-adv-x="1277" 
d="M1278 1452l-508 -895v-557h-266v557l-504 895h287l358 -627l359 627h274zM311 1706l250 238h158l246 -238l-121 -119l-203 197l-207 -203z" />
    <glyph glyph-name="ycircumflex" unicode="&#x177;" horiz-adv-x="1085" 
d="M1085 1065l-469 -1247q-22 -57 -48 -101t-64.5 -83.5t-93 -61t-121.5 -21.5q-91 0 -197 27v213q102 -18 144 -18q88 0 122 80l62 149l-420 1063h281l278 -770l266 770h260zM236 1296l249 238h158l246 -238l-121 -118l-203 196l-207 -203z" />
    <glyph glyph-name="Ydieresis" unicode="&#x178;" horiz-adv-x="1277" 
d="M1278 1452l-508 -895v-557h-266v557l-504 895h287l358 -627l359 627h274zM977 1595h-240v248h240v-248zM555 1595h-240v248h240v-248z" />
    <glyph glyph-name="Zacute" unicode="&#x179;" horiz-adv-x="1259" 
d="M1196 0h-1137v260l801 952h-788v240h1114v-260l-795 -952h805v-240zM895 1794l-410 -229l-82 133l377 282z" />
    <glyph glyph-name="zacute" unicode="&#x17a;" horiz-adv-x="1038" 
d="M958 0h-868v225l563 629h-559v211h860v-231l-557 -623h561v-211zM805 1389l-410 -230l-82 133l377 283z" />
    <glyph glyph-name="Zdotaccent" unicode="&#x17b;" horiz-adv-x="1259" 
d="M1196 0h-1137v260l801 952h-788v240h1114v-260l-795 -952h805v-240zM743 1620h-239v248h239v-248z" />
    <glyph glyph-name="zdotaccent" unicode="&#x17c;" horiz-adv-x="1038" 
d="M958 0h-868v225l563 629h-559v211h860v-231l-557 -623h561v-211zM639 1231h-240v248h240v-248z" />
    <glyph glyph-name="Zcaron" unicode="&#x17d;" horiz-adv-x="1259" 
d="M1196 0h-1137v260l801 952h-788v240h1114v-260l-795 -952h805v-240zM555 1581l-250 207l109 129l219 -178l215 176l110 -127l-245 -207h-158z" />
    <glyph glyph-name="zcaron" unicode="&#x17e;" horiz-adv-x="1038" 
d="M958 0h-868v225l563 629h-559v211h860v-231l-557 -623h561v-211zM459 1171l-250 238l123 125l207 -203l202 197l121 -119l-246 -238h-157z" />
    <glyph glyph-name="florin" unicode="&#x192;" 
d="M1094 1245q-58 12 -88 12q-86 0 -129.5 -32.5t-63.5 -114.5q-16 -69 -35 -186h266v-230h-317l-127 -635q-30 -146 -121 -227.5t-237 -81.5q-84 0 -170 25v217q56 -12 112 -12q81 0 118.5 36.5t53.5 118.5l113 559h-193v230h240l49 243q28 144 126 231t243 87
q47 0 160 -17v-223z" />
    <glyph glyph-name="Scommaaccent" unicode="&#x218;" horiz-adv-x="1294" 
d="M1227 432q0 -182 -121 -303q-156 -156 -459 -156q-270 0 -434 150q-68 62 -110 150.5t-42 187.5h271q0 -102 76 -178q78 -78 243 -78q177 0 252 78q29 31 43.5 61t14.5 78q0 74 -49 116.5t-124 55.5q-52 9 -164 20.5t-157 18.5q-162 27 -265.5 130t-103.5 275
q0 160 127 287q73 71 186.5 112.5t239.5 41.5q119 0 226 -37t180 -105q144 -137 147 -309h-270q-3 79 -64 143q-34 35 -97 56.5t-124 21.5q-158 0 -235 -80q-49 -52 -49 -122q0 -68 39.5 -107.5t107.5 -50.5q52 -8 167 -20.5t148 -16.5q173 -25 286.5 -134t113.5 -286z
M768 -252q0 -44 -17.5 -81.5t-44.5 -60.5t-51.5 -37t-46.5 -20l-43 74q17 5 28.5 10.5t28.5 17.5t26 33t9 48h-106v182h217v-166z" />
    <glyph glyph-name="scommaaccent" unicode="&#x219;" horiz-adv-x="1067" 
d="M987 330q0 -142 -92 -234q-123 -123 -365 -123q-215 0 -344 123q-49 48 -80.5 112.5t-31.5 135.5h239q0 -35 16.5 -69.5t41.5 -55.5q58 -47 161 -47q38 0 71.5 5t69 18t56.5 42t21 70q0 46 -28.5 75.5t-78.5 37.5q-22 3 -131 16t-164 25q-108 23 -176 102.5t-68 181.5
q0 145 109 240q123 107 324 107q99 0 187.5 -32t145.5 -93q95 -102 95 -219h-244q0 54 -43 100q-49 49 -139 49q-72 0 -111 -16q-36 -14 -59 -44t-23 -69q0 -89 123 -106q136 -17 227 -31q131 -21 211 -100t80 -201zM641 -252q0 -44 -17.5 -81.5t-44.5 -60.5t-51.5 -37
t-46.5 -20l-43 74q17 5 28.5 10.5t28.5 17.5t26 33t9 48h-106v182h217v-166z" />
    <glyph glyph-name="uni021A" unicode="&#x21a;" horiz-adv-x="1148" 
d="M1137 1206h-430v-1206h-265v1206h-430v246h1125v-246zM682 -252q0 -44 -17.5 -81.5t-44.5 -60.5t-51.5 -37t-46.5 -20l-43 74q17 5 28.5 10.5t28.5 17.5t26 33t9 48h-106v182h217v-166z" />
    <glyph glyph-name="uni021B" unicode="&#x21b;" horiz-adv-x="819" 
d="M762 14q-112 -28 -219 -28q-159 0 -240.5 85.5t-81.5 241.5v541h-194v211h194v270l256 64v-334h268v-211h-268v-518q0 -61 28.5 -89t90.5 -28q78 0 166 10v-215zM518 -252q0 -44 -17.5 -81.5t-44.5 -60.5t-51.5 -37t-46.5 -20l-43 74q17 5 28.5 10.5t28.5 18t26.5 33
t9.5 47.5h-107v182h217v-166z" />
    <glyph glyph-name="circumflex" unicode="&#x2c6;" horiz-adv-x="747" 
d="M49 1296l250 238h158l245 -238l-120 -118l-203 196l-207 -203z" />
    <glyph glyph-name="caron" unicode="&#x2c7;" horiz-adv-x="733" 
d="M287 1171l-250 238l123 125l207 -203l202 197l121 -119l-246 -238h-157z" />
    <glyph glyph-name="uni02C9" unicode="&#x2c9;" horiz-adv-x="624" 
d="M645 1251h-655v205h655v-205z" />
    <glyph glyph-name="breve" unicode="&#x2d8;" horiz-adv-x="716" 
d="M709 1530q-13 -165 -100.5 -262t-246.5 -97q-158 0 -244.5 97t-99.5 262h193q10 -91 46 -131.5t105 -40.5t106.5 41t47.5 131h193z" />
    <glyph glyph-name="dotaccent" unicode="&#x2d9;" horiz-adv-x="542" 
d="M395 1231h-239v248h239v-248z" />
    <glyph glyph-name="ring" unicode="&#x2da;" horiz-adv-x="507" 
d="M508 1454q0 -104 -73 -177t-177 -73t-177 73t-73 177t73 176t177 72t177 -72t73 -176zM367 1454q0 44 -32.5 75.5t-76.5 31.5t-75 -31.5t-31 -75.5t31 -76t75 -32t76.5 32t32.5 76z" />
    <glyph glyph-name="ogonek" unicode="&#x2db;" horiz-adv-x="405" 
d="M68 -186q0 56 23.5 101.5t60 73t58 39.5t41.5 20h2l1 1l2 2q25 8 39 26.5t24 61.5q30 -34 44 -59t14.5 -34t9 -20t33.5 -26q-61 -23 -108.5 -68t-47.5 -86q0 -31 19.5 -50t52.5 -19h20l64 6v-168q-58 -14 -107 -14h-16q-97 0 -163 63t-66 150z" />
    <glyph glyph-name="tilde" unicode="&#x2dc;" horiz-adv-x="782" 
d="M756 1376q-119 -123 -236 -123q-47 0 -94.5 21t-86.5 42t-67 21q-70 0 -129 -67l-104 131q123 123 235 123q47 0 93 -21.5t85 -43t70 -21.5q60 0 129 69z" />
    <glyph glyph-name="hungarumlaut" unicode="&#x2dd;" horiz-adv-x="1044" 
d="M1032 1399l-414 -240l-86 133l379 295zM592 1399l-414 -240l-86 133l379 295z" />
    <glyph glyph-name="uni0394" unicode="&#x394;" horiz-adv-x="1308" 
d="M1309 0h-1309l510 1452h289zM952 238l-303 890l-301 -890h604z" />
    <glyph glyph-name="uni03A9" unicode="&#x3a9;" horiz-adv-x="1204" 
d="M1104 745q0 -83 -54 -137.5t-137 -54.5h-147q35 -47 35 -111q0 -83 -54 -136.5t-137 -53.5h-510v508q0 83 54 137.5t137 54.5q63 0 112 -34v145q0 83 54 137.5t137 54.5t136.5 -54.5t53.5 -137.5v-127h129q83 0 137 -54.5t54 -136.5zM1069 745q0 69 -43.5 112.5
t-112.5 43.5h-161v162q0 69 -44.5 113.5t-113.5 44.5t-112.5 -44.5t-43.5 -113.5v-475h475q69 0 112.5 44t43.5 113z" />
    <glyph glyph-name="uni03BC" unicode="&#x3bc;" horiz-adv-x="1224" 
d="M1065 0h-213l-21 143q-38 -78 -120 -124t-183 -46q-69 0 -114 23v-410h-254v1479h254v-657q0 -203 186 -203q78 0 131 53q78 73 78 240v567h256v-1065z" />
    <glyph glyph-name="pi" unicode="&#x3c0;" horiz-adv-x="1302" 
d="M1190 2q-98 -16 -137 -16q-293 0 -293 297v544h-248v-831h-254v831h-156v207h1065v-207h-153v-508q0 -54 21.5 -78t74.5 -24q13 0 43.5 2t36.5 2v-219z" />
    <glyph glyph-name="Wgrave" unicode="&#x1e80;" horiz-adv-x="1785" 
d="M1751 1452l-289 -1452h-264l-303 1001l-303 -1001h-264l-293 1452h252l202 -1010l299 988h222l293 -988l206 1010h242zM1178 1700l-82 -133l-410 229l115 186z" />
    <glyph glyph-name="wgrave" unicode="&#x1e81;" horiz-adv-x="1579" 
d="M1532 1065l-260 -1065h-238l-241 719l-238 -719h-238l-270 1065h248l170 -698l223 688h211l225 -686l164 696h244zM1055 1292l-82 -133l-410 230l115 186z" />
    <glyph glyph-name="endash" unicode="&#x2013;" horiz-adv-x="1349" 
d="M1227 516h-1104v229h1104v-229z" />
    <glyph glyph-name="emdash" unicode="&#x2014;" horiz-adv-x="2353" 
d="M2230 516h-2107v227h2107v-227z" />
    <glyph glyph-name="quoteleft" unicode="&#x2018;" horiz-adv-x="546" 
d="M420 848h-295v276q0 133 47 216.5t168 134.5l66 -119q-77 -37 -104.5 -83t-27.5 -126h146v-299z" />
    <glyph glyph-name="quoteright" unicode="&#x2019;" horiz-adv-x="505" 
d="M401 1174q0 -133 -47 -216.5t-168 -134.5l-67 119q77 37 105 83.5t28 125.5h-148v301h297v-278z" />
    <glyph glyph-name="quotesinglbase" unicode="&#x201a;" horiz-adv-x="587" 
d="M444 23q0 -136 -47.5 -221t-171.5 -136l-67 121q79 37 107 84t28 129h-150v307h301v-284z" />
    <glyph glyph-name="quotedblleft" unicode="&#x201c;" horiz-adv-x="989" 
d="M858 846h-295v276q0 132 47.5 215.5t169.5 135.5l66 -119q-77 -37 -105 -83.5t-28 -125.5h145v-299zM424 846h-293v276q0 133 46 216.5t167 134.5l66 -119q-77 -37 -105.5 -83.5t-28.5 -125.5h148v-299z" />
    <glyph glyph-name="quotedblright" unicode="&#x201d;" horiz-adv-x="948" 
d="M838 1176q0 -133 -46 -216.5t-167 -134.5l-66 119q77 37 105 83.5t28 125.5h-147v299h293v-276zM406 1176q0 -132 -48 -215.5t-170 -135.5l-65 119q77 37 105 83.5t28 125.5h-145v299h295v-276z" />
    <glyph glyph-name="quotedblbase" unicode="&#x201e;" horiz-adv-x="1032" 
d="M889 23q0 -136 -47.5 -221t-171.5 -136l-68 121q79 37 107 84t28 129h-149v307h301v-284zM444 23q0 -136 -47.5 -221t-171.5 -136l-67 121q79 37 107 84t28 129h-150v307h301v-284z" />
    <glyph glyph-name="dagger" unicode="&#x2020;" horiz-adv-x="1150" 
d="M1069 850h-377v-1106h-233v1106h-377v215h377v387h233v-387h377v-215z" />
    <glyph glyph-name="daggerdbl" unicode="&#x2021;" horiz-adv-x="1150" 
d="M1069 131h-377v-387h-233v387h-377v215h377v504h-377v215h377v387h233v-387h377v-215h-377v-504h377v-215z" />
    <glyph glyph-name="bullet" unicode="&#x2022;" horiz-adv-x="884" 
d="M731 598q0 -120 -84.5 -204.5t-204.5 -84.5t-204 84.5t-84 204.5t84 204.5t204 84.5t204.5 -84.5t84.5 -204.5z" />
    <glyph glyph-name="ellipsis" unicode="&#x2026;" horiz-adv-x="2045" 
d="M1858 0h-297v299h297v-299zM1171 0h-297v299h297v-299zM485 0h-297v299h297v-299z" />
    <glyph glyph-name="perthousand" unicode="&#x2030;" horiz-adv-x="2385" 
d="M2349 352q0 -145 -61 -233q-95 -142 -275 -142q-176 0 -274 142q-60 87 -60 233q0 147 60 234q99 139 274 139q180 0 275 -139q61 -88 61 -234zM1602 352q0 -143 -62 -233q-95 -142 -274 -142q-177 0 -275 142q-59 85 -59 233q0 149 59 234q99 139 275 139
q179 0 274 -139q62 -90 62 -234zM1438 1372l-1039 -1413l-151 115l1034 1407zM762 1100q0 -144 -62 -234q-97 -141 -274 -141q-174 0 -274 141q-60 87 -60 234q0 146 60 233q99 140 274 140q178 0 274 -140q62 -90 62 -233zM2157 352q0 43 -6 76.5t-20.5 64.5t-44.5 47.5
t-73 16.5t-72.5 -16.5t-43.5 -47.5t-19.5 -64t-5.5 -77q0 -45 5.5 -78t19.5 -64.5t43.5 -48t72.5 -16.5t73 16.5t44.5 47.5t20.5 65t6 78zM1409 352q0 34 -3 61.5t-12 55.5t-24.5 46.5t-41.5 30t-62 11.5q-43 0 -72.5 -16.5t-44 -47.5t-20 -64t-5.5 -77t5.5 -77.5t20 -65
t44 -48t72.5 -16.5q36 0 62 11.5t41.5 30t24.5 47t12 56t3 62.5zM569 1100q0 44 -5.5 77t-19.5 64.5t-44 48.5t-74 17q-43 0 -72.5 -17t-43.5 -48.5t-19.5 -64.5t-5.5 -77q0 -45 5.5 -78t19.5 -64.5t43.5 -48t72.5 -16.5q36 0 62 11.5t41.5 30t24.5 47t12 56t3 62.5z" />
    <glyph glyph-name="guilsinglleft" unicode="&#x2039;" horiz-adv-x="688" 
d="M586 215l-150 -104l-354 499l354 506l150 -106l-234 -398z" />
    <glyph glyph-name="guilsinglright" unicode="&#x203a;" horiz-adv-x="688" 
d="M606 610l-354 -499l-150 104l234 397l-234 398l150 106z" />
    <glyph glyph-name="fraction" unicode="&#x2044;" horiz-adv-x="1202" 
d="M1196 1372l-1038 -1413l-152 115l1034 1407z" />
    <glyph glyph-name="Euro" unicode="&#x20ac;" 
d="M1169 111q-92 -69 -188 -103.5t-221 -34.5q-258 0 -426 168q-135 135 -174 346h-160v150h143q-2 25 -2 76q0 11 1 34t1 35h-143v150h158q39 215 176 352q168 168 426 168q126 0 221.5 -34t187.5 -103l-96 -207q-79 60 -151 86.5t-162 26.5q-155 0 -252 -103
q-67 -73 -90 -186h575l-71 -150h-521v-145h480l-72 -150h-391q22 -106 90 -180q96 -102 252 -102q86 0 169.5 32t143.5 80z" />
    <glyph glyph-name="uni2117" unicode="&#x2117;" horiz-adv-x="1716" 
d="M1614 725q0 -163 -57 -303t-156.5 -238.5t-240 -154.5t-302.5 -56q-163 0 -303.5 56t-240 154.5t-156 238.5t-56.5 303q0 215 98 387.5t271 269.5t387 97t387 -97.5t271 -270t98 -386.5zM1423 725q0 251 -157.5 414.5t-407.5 163.5q-165 0 -294 -75t-199 -206.5
t-70 -296.5q0 -166 69.5 -296.5t198.5 -204.5t295 -74q164 0 293.5 74.5t200.5 205.5t71 295zM1208 836q0 -144 -82 -217.5t-227 -73.5h-104v-213h-205v790h309q135 0 222 -76.5t87 -209.5zM1010 836q0 52 -29.5 79t-81.5 27h-106v-217h106q111 0 111 111z" />
    <glyph glyph-name="trademark" unicode="&#x2122;" horiz-adv-x="1755" 
d="M1632 672h-194v524l-160 -504h-150l-159 502v-522h-195v780h277l157 -494l156 494h268v-780zM668 1278h-226v-606h-196v606h-226v174h648v-174z" />
    <glyph glyph-name="Omega" unicode="&#x2126;" horiz-adv-x="1204" 
d="M1104 745q0 -83 -54 -137.5t-137 -54.5h-147q35 -47 35 -111q0 -83 -54 -136.5t-137 -53.5h-510v508q0 83 54 137.5t137 54.5q63 0 112 -34v145q0 83 54 137.5t137 54.5t136.5 -54.5t53.5 -137.5v-127h129q83 0 137 -54.5t54 -136.5zM1069 745q0 69 -43.5 112.5
t-112.5 43.5h-161v162q0 69 -44.5 113.5t-113.5 44.5t-112.5 -44.5t-43.5 -113.5v-475h475q69 0 112.5 44t43.5 113z" />
    <glyph glyph-name="arrowleft" unicode="&#x2190;" horiz-adv-x="1632" 
d="M1540 563h-1106l418 -418l-143 -143l-658 662l658 661l143 -141l-418 -420h1106v-201z" />
    <glyph glyph-name="arrowup" unicode="&#x2191;" horiz-adv-x="1632" 
d="M715 0v1096l-418 -418l-143 143l661 658l662 -658l-142 -143l-420 418v-1096h-200z" />
    <glyph glyph-name="arrowright" unicode="&#x2192;" horiz-adv-x="1632" 
d="M1581 662l-657 -662l-144 143l418 418h-1106v201h1106l-418 420l144 141z" />
    <glyph glyph-name="arrowdown" unicode="&#x2193;" horiz-adv-x="1632" 
d="M915 1452v-1096l418 418l144 -143l-662 -658l-661 658l141 143l420 -418v1096h200z" />
    <glyph glyph-name="uni2196" unicode="&#x2196;" horiz-adv-x="1290" 
d="M1208 475l-141 -143l-782 782v-590h-203v928h936v-197h-592z" />
    <glyph glyph-name="uni2197" unicode="&#x2197;" horiz-adv-x="1290" 
d="M1208 524h-202v590l-783 -782l-141 143l782 780h-592v197h936v-928z" />
    <glyph glyph-name="uni2198" unicode="&#x2198;" horiz-adv-x="1290" 
d="M82 977l141 143l783 -782v590h202v-928h-936v197h592z" />
    <glyph glyph-name="uni2199" unicode="&#x2199;" horiz-adv-x="1290" 
d="M82 928h203v-590l782 782l141 -143l-782 -780h592v-197h-936v928z" />
    <glyph glyph-name="partialdiff" unicode="&#x2202;" horiz-adv-x="1150" 
d="M1065 530q0 -243 -117 -389q-60 -72 -159 -120t-214 -48t-213.5 47.5t-158.5 120.5q-117 146 -117 389q0 247 119 396q59 72 157 119t213 47h13l-226 387h256l355 -590q92 -152 92 -359zM805 530q0 195 -70 273q-63 67 -160 67q-96 0 -159 -67q-70 -78 -70 -273
q0 -192 70 -270q63 -67 159 -67q97 0 160 67q70 78 70 270z" />
    <glyph glyph-name="Delta" unicode="&#x2206;" horiz-adv-x="1308" 
d="M1309 0h-1309l510 1452h289zM952 238l-303 890l-301 -890h604z" />
    <glyph glyph-name="product" unicode="&#x220f;" horiz-adv-x="1464" 
d="M1294 0h-264v1200h-596v-1200h-264v1452h1124v-1452z" />
    <glyph glyph-name="summation" unicode="&#x2211;" horiz-adv-x="1204" 
d="M1104 745q0 -83 -54 -137.5t-137 -54.5h-147q35 -47 35 -111q0 -83 -54 -136.5t-137 -53.5h-510v508q0 83 54 137.5t137 54.5q63 0 112 -34v145q0 83 54 137.5t137 54.5t136.5 -54.5t53.5 -137.5v-127h129q83 0 137 -54.5t54 -136.5zM1069 745q0 69 -43.5 112.5
t-112.5 43.5h-161v162q0 69 -44.5 113.5t-113.5 44.5t-112.5 -44.5t-43.5 -113.5v-475h475q69 0 112.5 44t43.5 113z" />
    <glyph glyph-name="minus" unicode="&#x2212;" horiz-adv-x="1349" 
d="M1227 516h-1104v229h1104v-229z" />
    <glyph glyph-name="uni2215" unicode="&#x2215;" horiz-adv-x="1202" 
d="M1196 1372l-1038 -1413l-152 115l1034 1407z" />
    <glyph glyph-name="uni2219" unicode="&#x2219;" horiz-adv-x="645" 
d="M459 440h-312v320h312v-320z" />
    <glyph glyph-name="radical" unicode="&#x221a;" horiz-adv-x="1427" 
d="M1448 1491h-231l-521 -1507h-217l-387 1081h273l223 -657l432 1296h428v-213z" />
    <glyph glyph-name="infinity" unicode="&#x221e;" horiz-adv-x="1204" 
d="M1104 745q0 -83 -54 -137.5t-137 -54.5h-147q35 -47 35 -111q0 -83 -54 -136.5t-137 -53.5h-510v508q0 83 54 137.5t137 54.5q63 0 112 -34v145q0 83 54 137.5t137 54.5t136.5 -54.5t53.5 -137.5v-127h129q83 0 137 -54.5t54 -136.5zM1069 745q0 69 -43.5 112.5
t-112.5 43.5h-161v162q0 69 -44.5 113.5t-113.5 44.5t-112.5 -44.5t-43.5 -113.5v-475h475q69 0 112.5 44t43.5 113z" />
    <glyph glyph-name="integral" unicode="&#x222b;" horiz-adv-x="739" 
d="M135 -408h-33v211q67 0 103.5 35t36.5 94v1235q0 151 96.5 243.5t265.5 92.5h33v-211q-67 0 -103 -35t-36 -94v-1235q0 -150 -97 -243t-266 -93z" />
    <glyph glyph-name="approxequal" unicode="&#x2248;" horiz-adv-x="1310" 
d="M1188 772q-45 -48 -75 -76t-74 -60.5t-91 -47.5t-100 -15q-87 0 -213 62l-92 41q-48 20 -82 20q-37 0 -75.5 -20t-61 -40t-56.5 -56l-145 172q45 47 75 75.5t74 60.5t91 47t100 15q81 0 209 -59l92 -39q52 -18 84 -18q37 0 74.5 18.5t59.5 38t56 55.5zM1188 322
q-44 -47 -74.5 -75.5t-74.5 -60t-91 -46.5t-100 -15q-93 0 -213 59l-92 43q-46 19 -82 19q-37 0 -75.5 -20t-61 -40t-56.5 -55l-145 172q44 47 74.5 75.5t74.5 60t91 46.5t100 15q83 0 209 -58q11 -5 43 -20t49 -21q52 -18 84 -18q37 0 74.5 19t59 38.5t56.5 55.5z" />
    <glyph glyph-name="notequal" unicode="&#x2260;" horiz-adv-x="1413" 
d="M1229 264h-694l-207 -268l-119 90l137 178h-162v203h318l157 205h-475v200h631l199 258l116 -92l-126 -166h225v-200h-381l-158 -205h539v-203z" />
    <glyph glyph-name="lessequal" unicode="&#x2264;" horiz-adv-x="1204" 
d="M1104 745q0 -83 -54 -137.5t-137 -54.5h-147q35 -47 35 -111q0 -83 -54 -136.5t-137 -53.5h-510v508q0 83 54 137.5t137 54.5q63 0 112 -34v145q0 83 54 137.5t137 54.5t136.5 -54.5t53.5 -137.5v-127h129q83 0 137 -54.5t54 -136.5zM1069 745q0 69 -43.5 112.5
t-112.5 43.5h-161v162q0 69 -44.5 113.5t-113.5 44.5t-112.5 -44.5t-43.5 -113.5v-475h475q69 0 112.5 44t43.5 113z" />
    <glyph glyph-name="greaterequal" unicode="&#x2265;" horiz-adv-x="1204" 
d="M1104 745q0 -83 -54 -137.5t-137 -54.5h-147q35 -47 35 -111q0 -83 -54 -136.5t-137 -53.5h-510v508q0 83 54 137.5t137 54.5q63 0 112 -34v145q0 83 54 137.5t137 54.5t136.5 -54.5t53.5 -137.5v-127h129q83 0 137 -54.5t54 -136.5zM1069 745q0 69 -43.5 112.5
t-112.5 43.5h-161v162q0 69 -44.5 113.5t-113.5 44.5t-112.5 -44.5t-43.5 -113.5v-475h475q69 0 112.5 44t43.5 113z" />
    <glyph glyph-name="uni2423" unicode="&#x2423;" horiz-adv-x="1951" 
d="M1833 -203h-1714v508h172v-332h1372v332h170v-508z" />
    <glyph glyph-name="shade" unicode="&#x2592;" horiz-adv-x="1908" 
d="M352 1939l-219 -219v58l162 161h57zM762 1939l-629 -628v55l574 573h55zM1583 1939l-1450 -1450v56l1395 1394h55zM1171 1939l-1038 -1040v57l983 983h55zM1776 1720l-1643 -1640v55l1643 1643v-58zM1776 1311l-1643 -1643v58l1643 1640v-55zM1776 -332l-168 -166h-56
l224 224v-58zM1776 899l-1399 -1397h-55l1454 1454v-57zM1776 80l-578 -578h-55l633 633v-55zM1776 489l-988 -987h-57l1045 1043v-56z" />
    <glyph glyph-name="lozenge" unicode="&#x25ca;" horiz-adv-x="974" 
d="M344 0l-242 729l238 723h291l241 -731l-237 -721h-291zM367 750l129 -406l112 356l-129 408z" />
    <glyph glyph-name="i.latn_TRK" horiz-adv-x="585" 
d="M430 1212h-274v265h274v-265zM424 0h-260v1065h260v-1065z" />
    <glyph glyph-name="grave.case" horiz-adv-x="522" 
d="M502 1700l-82 -133l-410 229l115 186z" />
    <glyph glyph-name="macron.case" horiz-adv-x="428" 
d="M522 1565h-614v204h614v-204z" />
    <glyph glyph-name="acute.case" horiz-adv-x="428" 
d="M461 1794l-410 -229l-82 133l377 282z" />
    <glyph glyph-name="circumflex.case" horiz-adv-x="747" 
d="M37 1706l250 238h157l246 -238l-121 -119l-202 197l-207 -203z" />
    <glyph glyph-name="caron.case" horiz-adv-x="428" 
d="M125 1581l-250 207l109 129l219 -178l215 176l110 -127l-245 -207h-158z" />
    <glyph glyph-name="breve.case" horiz-adv-x="428" 
d="M559 1923q-13 -165 -100 -261.5t-246 -96.5t-245 96.5t-99 261.5h192q10 -91 46.5 -131.5t105.5 -40.5t106.5 41t47.5 131h192z" />
    <glyph glyph-name="dotaccent.case" horiz-adv-x="428" 
d="M336 1620h-240v248h240v-248z" />
    <glyph glyph-name="ring.case" horiz-adv-x="428" 
d="M465 1673q0 -104 -73 -177t-177 -73t-177 73t-73 177t73 176t177 72t177 -72t73 -176zM324 1673q0 44 -32.5 75.5t-76.5 31.5t-75 -31.5t-31 -75.5t31 -76t75 -32t76.5 32t32.5 76z" />
    <glyph glyph-name="hungarumlaut.case" horiz-adv-x="428" 
d="M725 1794l-414 -240l-86 134l379 294zM285 1794l-414 -240l-86 134l379 294z" />
    <glyph glyph-name="zero.zero" 
d="M1085 713q0 -98 -6.5 -176.5t-23 -162.5t-52 -153.5t-88.5 -120.5q-131 -127 -331 -127q-201 0 -332 127q-53 51 -88.5 120.5t-52 153.5t-23 162.5t-6.5 176.5t6.5 176t23 162t52 153.5t88.5 120.5q128 125 332 125q203 0 331 -125q53 -51 88.5 -120.5t52 -153.5t23 -162
t6.5 -176zM788 1098q-61 129 -204 129q-52 0 -93 -16.5t-66.5 -45t-44.5 -67t-26.5 -81.5t-13 -89.5t-4.5 -91t0 -84.5v-39v-140zM831 713v151l-454 -532q60 -133 207 -133q52 0 93 16.5t66.5 45t44 66.5t26 81t13 89t4.5 90.5t0 85.5v40z" />
    <glyph glyph-name="commaaccent.ss01" horiz-adv-x="428" 
d="M106 -272q0 44 17.5 81t44.5 60t51.5 37t46.5 20l43 -73q-17 -5 -28.5 -10.5t-28.5 -17.5t-26 -33t-9 -48h107v-182h-218v166z" />
    <glyph glyph-name="ampersand.ss01" horiz-adv-x="1472" 
d="M1358 0h-717q-98 0 -182 25t-149 74t-102.5 128t-37.5 181q0 101 60.5 200.5t150.5 136.5q-87 51 -135.5 134t-48.5 182q0 78 24.5 143t67.5 110.5t102 77.5t126.5 47t141.5 15q121 0 203 -20v-222q-107 21 -186 21q-94 0 -159.5 -46.5t-65.5 -137.5q0 -95 60.5 -144
t158.5 -49h237v213h240v-213h211v-217h-211v-422h211v-217zM907 217v422h-248q-105 0 -171 -57.5t-66 -159.5q0 -101 62 -153t165 -52h258z" />
    <glyph glyph-name="one.ss01" 
d="M489 223v897l-313 -227v278l350 252h219v-1200h285v-223h-825v223h284z" />
    <glyph glyph-name="caron.ss01" horiz-adv-x="428" 
d="M293 1274q0 -103 -33 -161.5t-123 -100.5l-49 96q58 31 75 58t17 89h-102v224h215v-205z" />
    <glyph glyph-name="commaaccent" horiz-adv-x="428" 
d="M324 -252q0 -44 -17.5 -81.5t-44.5 -60.5t-51.5 -37t-46.5 -20l-43 74q17 5 28.5 10.5t28.5 17.5t26 33t9 48h-107v182h218v-166z" />
    <glyph glyph-name="parenleft.case" horiz-adv-x="671" 
d="M651 -160l-145 -108q-187 215 -280 459t-93 534t93 534t280 459l145 -108q-109 -147 -173 -273t-98 -276.5t-34 -335.5t34 -335.5t98 -276.5t173 -273z" />
    <glyph glyph-name="parenright.case" horiz-adv-x="671" 
d="M539 725q0 -290 -93 -534t-280 -459l-146 108q164 220 235 417t71 468t-71 468t-235 417l146 108q187 -215 280 -459t93 -534z" />
    <glyph glyph-name="bracketleft.case" horiz-adv-x="743" 
d="M692 -225h-479v1900h479v-174h-286v-1552h286v-174z" />
    <glyph glyph-name="bracketright.case" horiz-adv-x="743" 
d="M530 -225h-479v174h287v1552h-287v174h479v-1900z" />
    <glyph glyph-name="braceleft.case" horiz-adv-x="776" 
d="M776 -225h-108q-86 0 -152 28t-105 77t-59 110t-20 131q0 31 1 127t1 127q0 131 -58 189t-184 67v190q125 11 183.5 65.5t58.5 188.5q0 31 -1 127t-1 127q0 70 20 131t59 110t105 77t152 28h108v-174h-69q-97 0 -139 -47t-42 -139v-316q-2 -95 -59.5 -170.5t-161.5 -97.5
v-6q103 -22 161 -100.5t60 -173.5v-316q0 -92 42 -139t139 -47h69v-174z" />
    <glyph glyph-name="braceright.case" horiz-adv-x="776" 
d="M684 631q-126 -9 -184 -67t-58 -189q0 -31 1 -127t1 -127q0 -70 -19.5 -131t-59 -110t-105 -77t-151.5 -28h-109v174h70q97 0 138.5 47t41.5 139v316q2 95 60 173.5t161 100.5v6q-104 22 -161.5 97.5t-59.5 170.5v316q0 92 -41.5 139t-138.5 47h-70v174h109
q86 0 151.5 -28t105 -77t59 -110t19.5 -131q0 -31 -1 -127t-1 -127q0 -134 58.5 -188.5t183.5 -65.5v-190z" />
    <glyph glyph-name="guilsinglleft.case" horiz-adv-x="688" 
d="M586 326l-150 -105l-354 500l354 506l150 -107l-234 -397z" />
    <glyph glyph-name="guilsinglright.case" horiz-adv-x="688" 
d="M606 721l-354 -500l-150 105l234 397l-234 397l150 107z" />
    <glyph glyph-name="guillemotleft.case" horiz-adv-x="1202" 
d="M1090 326l-150 -105l-354 500l354 506l150 -107l-234 -397zM596 326l-150 -105l-354 500l354 506l150 -107l-234 -397z" />
    <glyph glyph-name="guillemotright.case" horiz-adv-x="1202" 
d="M1110 721l-354 -500l-150 105l234 397l-234 397l150 107zM616 721l-354 -500l-149 105l233 397l-233 397l149 107z" />
    <glyph glyph-name="hyphen.case" horiz-adv-x="948" 
d="M825 610h-702v230h702v-230z" />
    <glyph glyph-name="endash.case" horiz-adv-x="1349" 
d="M1227 610h-1104v230h1104v-230z" />
    <glyph glyph-name="emdash.case" horiz-adv-x="2353" 
d="M2230 610h-2107v228h2107v-228z" />
    <glyph glyph-name="uni00AD.case" horiz-adv-x="948" 
d="M825 610h-702v230h702v-230z" />
    </font>
</defs>
</svg>
