<?xml version="1.0" standalone="no"?>
<!DOCTYPE svg PUBLIC "-//W3C//DTD SVG 1.1//EN" "http://www.w3.org/Graphics/SVG/1.1/DTD/svg11.dtd" >
<svg xmlns="http://www.w3.org/2000/svg" xmlns:xlink="http://www.w3.org/1999/xlink" version="1.1">
<metadata>
Created by FontForge 20170731 at Fri Feb 20 19:49:00 2015
 By Aleksey,,,
(URW)++,Copyright 2014 by (URW)++ Design &#38; Development
</metadata>
<defs>
<font id="NimbusSanConD-Bol" horiz-adv-x="1024" >
  <font-face 
    font-family="NimbusSanConD"
    font-weight="700"
    font-stretch="normal"
    units-per-em="2048"
    panose-1="0 0 0 0 0 0 0 0 0 0"
    ascent="1795"
    descent="-253"
    x-height="1031"
    cap-height="1365"
    bbox="-300 -549 1524 1782"
    underline-thickness="168"
    underline-position="-458"
    unicode-range="U+0020-FB04"
  />
<missing-glyph horiz-adv-x="478" 
d="M48 0v1365h382v-1365h-382zM382 48v1269h-286v-1269h286z" />
    <glyph glyph-name="ff" unicode="ff" horiz-adv-x="727" 
d="M283 860v-860h-191v860h-69v171h69v185q0 94 37 129.5t134 35.5q34 0 88 -4v-161q-10 1 -16 1q-33 0 -42.5 -18.5t-9.5 -83.5v-84h149v185q0 94 37 129.5t134 35.5q34 0 87 -4v-161q-10 1 -15 1q-33 0 -42.5 -18.5t-9.5 -83.5v-84h67v-171h-67v-860h-191v860h-149z" />
    <glyph glyph-name="fi" unicode="fi" horiz-adv-x="709" 
d="M283 860v-860h-191v860h-69v171h69v185q0 94 37 129.5t134 35.5q34 0 88 -4v-161q-10 1 -16 1q-33 0 -42.5 -18.5t-9.5 -83.5v-84h68v-171h-68zM623 1031v-1031h-191v1031h191zM623 1365v-224h-191v224h191z" />
    <glyph glyph-name="fl" unicode="fl" horiz-adv-x="709" 
d="M283 860v-860h-191v860h-69v171h69v185q0 94 37 129.5t134 35.5q34 0 88 -4v-161q-10 1 -16 1q-33 0 -42.5 -18.5t-9.5 -83.5v-84h68v-171h-68zM623 1365v-1365h-191v1365h191z" />
    <glyph glyph-name="ffi" unicode="ffi" horiz-adv-x="1048" 
d="M283 860v-860h-191v860h-69v171h69v185q0 94 37 129.5t134 35.5q34 0 88 -4v-161q-10 1 -16 1q-33 0 -42.5 -18.5t-9.5 -83.5v-84h149v185q0 94 37 129.5t134 35.5q34 0 87 -4v-161q-10 1 -15 1q-33 0 -42.5 -18.5t-9.5 -83.5v-84h67v-171h-67v-860h-191v860h-149z
M962 1031v-1031h-191v1031h191zM962 1365v-224h-191v224h191z" />
    <glyph glyph-name=".notdef" horiz-adv-x="478" 
d="M48 0v1365h382v-1365h-382zM382 48v1269h-286v-1269h286z" />
    <glyph glyph-name="glyph1" horiz-adv-x="0" 
 />
    <glyph glyph-name="glyph2" horiz-adv-x="478" 
 />
    <glyph glyph-name="space" unicode=" " horiz-adv-x="478" 
 />
    <glyph glyph-name="exclam" unicode="!" horiz-adv-x="436" 
d="M113 236h210v-236h-210v236zM272 281h-107l-52 318v766h210v-766z" />
    <glyph glyph-name="quotedbl" unicode="&#x22;" horiz-adv-x="725" 
d="M273 818h-139l-32 547h203zM592 818h-140l-31 547h203z" />
    <glyph glyph-name="numbersign" unicode="#" horiz-adv-x="977" 
d="M845 564l-22 -145h-127l-64 -419h-167l64 419h-169l-64 -419h-161l64 419h-131l22 145h131l41 263h-131l22 145h131l61 393h161l-61 -393h170l60 393h167l-61 -393h127l-22 -145h-127l-41 -263h127zM592 827h-169l-41 -263h170z" />
    <glyph glyph-name="dollar" unicode="$" horiz-adv-x="833" 
d="M79 493h210v-115q0 -99 27 -139.5t93 -40.5q63 0 98.5 36.5t35.5 100.5q0 68 -41.5 130t-150.5 155q-156 135 -207 214.5t-51 189.5q0 85 30.5 156.5t83.5 111.5q54 41 154 54v160h96v-160q169 -17 228 -120q37 -65 37 -204v-105h-209v51q0 86 -10 123q-21 86 -98 86
q-46 0 -74 -34t-28 -92q0 -59 31.5 -107t118.5 -122q145 -123 219 -217q81 -103 81 -253q0 -148 -75.5 -230.5t-220.5 -93.5v-157h-96v157q-113 11 -179 61q-103 80 -103 258v146z" />
    <glyph glyph-name="percent" unicode="%" horiz-adv-x="1146" 
d="M882 693q111 0 152 -75q17 -30 21.5 -80.5t4.5 -197.5q0 -160 -6 -211.5t-29 -82.5q-44 -61 -145 -61q-113 0 -153 75q-17 31 -22 80.5t-5 191.5q0 165 6 216.5t29 83.5q44 61 147 61zM880 599q-34 0 -46 -28q-7 -19 -9 -56.5t-2 -173.5q0 -140 2 -177.5t9 -56.5
q12 -28 46 -28t46 28q7 19 9 56.5t2 175.5q0 137 -2 175t-9 57q-12 28 -46 28zM299 -1l418 1364h126l-419 -1364h-125zM268 1380q111 0 152 -74q17 -31 21.5 -81.5t4.5 -197.5q0 -160 -6 -211.5t-29 -82.5q-44 -61 -145 -61q-113 0 -153 75q-17 31 -22 80.5t-5 191.5
q0 165 6 216.5t29 83.5q44 61 147 61zM266 1286q-34 0 -46 -28q-7 -19 -9 -56.5t-2 -173.5q0 -140 2 -178t9 -56q12 -28 46 -28t46 28q7 19 9 56.5t2 175.5q0 137 -2 175t-9 57q-12 28 -46 28z" />
    <glyph glyph-name="ampersand" unicode="&#x26;" horiz-adv-x="979" 
d="M539 785l150 -299q29 151 29 293h204q-6 -284 -116 -528l130 -251h-236l-31 66q-91 -87 -236 -87q-161 0 -253 105q-105 120 -105 293q0 242 225 451q-82 185 -82 299q0 118 68 187q72 72 192 72q114 0 189 -68q78 -72 78 -181q0 -94 -43 -167.5t-163 -184.5zM462 941
q104 92 104 174q0 40 -24 66.5t-61 26.5q-34 0 -55 -24t-21 -64q0 -78 57 -179zM385 654q-55 -64 -78 -124t-23 -141q0 -103 44.5 -168t115.5 -65q81 0 135 95z" />
    <glyph glyph-name="quotesingle" unicode="'" horiz-adv-x="406" 
d="M272 818h-139l-32 547h203z" />
    <glyph glyph-name="parenleft" unicode="(" horiz-adv-x="443" 
d="M354 -15v-163q-124 28 -193 118q-40 51 -56 129.5t-16 223.5v615q0 158 19.5 239t70.5 135q67 72 175 97v-163q-36 -13 -51 -59.5t-15 -143.5v-825q0 -97 15 -143.5t51 -59.5z" />
    <glyph glyph-name="parenright" unicode=")" horiz-adv-x="443" 
d="M89 -178v163q66 27 66 203v825q0 176 -66 203v163q125 -28 193 -118q40 -51 56 -129.5t16 -223.5v-615q0 -158 -19.5 -239t-69.5 -135q-67 -72 -176 -97z" />
    <glyph glyph-name="asterisk" unicode="*" horiz-adv-x="699" 
d="M461 1065l103 -134l-118 -87l-96 141l-97 -142l-118 86l104 135l-164 48l45 140l161 -58l-5 171h147l-5 -171l161 58l45 -140z" />
    <glyph glyph-name="plus" unicode="+" horiz-adv-x="833" 
d="M502 611v-275h-171v275h-248v171h248v275h171v-275h247v-171h-247z" />
    <glyph glyph-name="comma" unicode="," horiz-adv-x="370" 
d="M69 204h197v-253l-198 -242v141l83 101h-82v253z" />
    <glyph glyph-name="hyphen" unicode="-" horiz-adv-x="316" 
d="M0 671h316v-180h-316v180z" />
    <glyph glyph-name="period" unicode="." horiz-adv-x="370" 
d="M86 249h198v-249h-198v249z" />
    <glyph glyph-name="slash" unicode="/" horiz-adv-x="597" 
d="M409 1365h157l-391 -1529h-157z" />
    <glyph glyph-name="zero" unicode="0" horiz-adv-x="833" 
d="M422 1385q232 0 293 -203q29 -97 29 -499q0 -258 -8.5 -366.5t-32.5 -168.5q-70 -168 -286 -168q-238 0 -299 203q-29 96 -29 507q0 250 8.5 359.5t32.5 167.5q69 168 292 168zM417 1208q-94 0 -110 -114q-8 -55 -8 -407q0 -381 11 -435q20 -95 107 -95q93 0 109 114
q8 55 8 412q0 377 -11 431q-20 94 -106 94z" />
    <glyph glyph-name="one" unicode="1" horiz-adv-x="833" 
d="M555 1365v-1365h-210v1117h-128v159q121 8 143 89h195z" />
    <glyph glyph-name="two" unicode="2" horiz-adv-x="833" 
d="M710 184v-184h-609q0 225 61.5 390.5t207.5 339.5q121 145 145 201q27 62 27 129q0 69 -29 108.5t-79 39.5q-59 0 -84.5 -52.5t-25.5 -172.5v-31h-209q-1 34 -1 49q0 214 81 298q83 86 251 86q152 0 228 -84q78 -86 78 -238q0 -139 -66 -261q-32 -61 -169 -226
q-103 -123 -146 -210t-48 -182h387z" />
    <glyph glyph-name="three" unicode="3" horiz-adv-x="833" 
d="M92 461h210v-129q0 -94 26 -134.5t86 -40.5q80 0 106 63q15 37 15 128q0 113 -5 158.5t-20 70.5q-38 62 -157 62q-15 0 -51 -2v174q98 2 140 18q39 16 55.5 56t16.5 121q0 119 -24 158q-27 44 -85 44q-79 0 -94 -88q-4 -22 -9 -154h-210q1 30 2 45q4 115 15 166.5
t40 95.5q75 112 254 112q161 0 241 -93t80 -281q0 -157 -65 -231q-22 -25 -64 -47q87 -32 118.5 -94.5t31.5 -201.5q0 -189 -24 -274q-26 -90 -113 -138q-84 -46 -194 -46q-180 0 -262 96q-36 42 -48 93.5t-12 162.5v130z" />
    <glyph glyph-name="four" unicode="4" horiz-adv-x="833" 
d="M649 1365v-867h104v-184h-104v-314h-210v314h-352v170l330 881h232zM439 498v545l-184 -545h184z" />
    <glyph glyph-name="five" unicode="5" horiz-adv-x="833" 
d="M120 655v710h570v-184h-385v-274q88 49 165 49q104 0 177 -66q57 -52 80 -147t23 -279q0 -129 -10.5 -204t-36.5 -131q-70 -149 -291 -149q-218 0 -288 159q-17 39 -22 87t-5 177v77h210v-134q0 -118 25 -152q26 -37 84 -37q82 0 110 73q14 38 14 216q0 213 -23 267
q-29 65 -100 65q-91 0 -110 -123h-187z" />
    <glyph glyph-name="six" unicode="6" horiz-adv-x="833" 
d="M731 1064h-210q0 68 -10 94q-19 50 -85 50q-95 0 -110 -119q-12 -95 -11 -205q87 61 175 61q98 0 166 -61q97 -87 97 -364q0 -301 -65 -413q-40 -69 -134 -104q-63 -23 -133 -23q-135 0 -217 72q-83 74 -94 253q-4 66 -4 218q0 410 21 590q32 272 315 272q202 0 266 -133
q33 -66 33 -188zM424 767q-35 0 -62.5 -19.5t-38.5 -51.5q-17 -50 -17 -221q0 -130 3.5 -176.5t16.5 -80.5q24 -60 97 -60q64 0 90 52q20 42 20 257q0 181 -16 233q-22 67 -93 67z" />
    <glyph glyph-name="seven" unicode="7" horiz-adv-x="833" 
d="M710 1365v-211q-216 -567 -241 -1154h-229q4 234 75 543t197 638h-404v184h602z" />
    <glyph glyph-name="eight" unicode="8" horiz-adv-x="833" 
d="M578 734q99 -32 132 -100.5t33 -238.5q0 -120 -14 -186t-51 -118q-78 -111 -261 -111t-261 111q-37 52 -51 118t-14 187q0 113 11 170t41 95q37 49 113 73q-63 34 -88 68q-59 81 -59 242q0 171 74 256q75 85 234 85t234 -85q74 -85 74 -257q0 -160 -59 -241
q-25 -34 -88 -68zM419 638q-69 0 -93.5 -47.5t-24.5 -182.5q0 -151 20 -197q22 -54 96 -54t96 54q20 46 20 193q0 125 -16 171q-23 63 -98 63zM417 1208q-55 0 -76.5 -40.5t-21.5 -145.5q0 -114 20.5 -155t76.5 -41q58 0 78.5 40.5t20.5 154.5q0 115 -22 148q-25 39 -76 39z
" />
    <glyph glyph-name="nine" unicode="9" horiz-adv-x="833" 
d="M101 302h210q0 -68 10 -94q19 -50 85 -50q93 0 110 119q11 76 12 205q-93 -61 -175 -61q-99 0 -167 61q-53 48 -75 135.5t-22 249.5q0 151 15 242.5t50 148.5q42 71 132 104q63 23 134 23q136 0 218 -72q83 -73 94 -253q4 -65 4 -217q0 -410 -21 -590q-32 -273 -314 -273
q-203 0 -267 133q-33 67 -33 189zM421 1208q-78 0 -102 -64q-20 -54 -20 -240q0 -180 17 -238q20 -68 93 -68q68 0 97 58q20 40 20 256q0 176 -9 216q-17 80 -96 80z" />
    <glyph glyph-name="colon" unicode=":" horiz-adv-x="370" 
d="M86 249h198v-249h-198v249zM86 969h198v-249h-198v249z" />
    <glyph glyph-name="semicolon" unicode=";" horiz-adv-x="370" 
d="M86 253h198v-253l-198 -242v140l82 102h-82v253zM86 969h198v-253h-198v253z" />
    <glyph glyph-name="less" unicode="&#x3c;" 
d="M955 1197v-183l-691 -323l691 -322v-183l-887 427v158z" />
    <glyph glyph-name="equal" unicode="=" horiz-adv-x="833" 
d="M749 945v-171h-666v171h666zM749 618v-171h-666v171h666z" />
    <glyph glyph-name="greater" unicode="&#x3e;" 
d="M69 186v183l691 322l-691 323v183l887 -427v-158z" />
    <glyph glyph-name="question" unicode="?" horiz-adv-x="770" 
d="M204 243h210v-243h-210v243zM414 296h-210q1 133 42.5 235t162.5 268q57 78 79.5 132.5t22.5 112.5q0 75 -32.5 119.5t-87.5 44.5q-63 0 -93 -59q-19 -40 -21 -188h-210q-1 202 57 294q81 131 273 131q163 0 246 -92q77 -86 77 -234q0 -140 -71 -276q-21 -40 -124 -188
q-62 -89 -85.5 -152t-25.5 -148z" />
    <glyph glyph-name="at" unicode="@" horiz-adv-x="1226" 
d="M918 1027l-94 -442q-14 -66 -14 -100q0 -49 22 -77t60 -28q58 0 101 78q73 136 73 318q0 235 -125 375q-118 134 -295 134q-200 0 -334 -168q-143 -180 -143 -436q0 -247 130 -424q129 -176 356 -176q92 0 167 25.5t167 87.5l29 -91q-95 -69 -179 -98.5t-187 -29.5
q-267 0 -428 200q-169 210 -169 507q0 201 86 374q84 169 233 258q128 76 269 76q216 0 366 -158q163 -172 163 -450q0 -236 -117 -394q-63 -86 -165 -86q-59 0 -103 21.5t-93 75.5q-57 -52 -100.5 -72t-97.5 -20q-159 0 -159 177q0 68 24.5 190t57.5 216q25 75 75 116.5
t114 41.5q55 0 86 -24t48 -78l17 81h159zM648 904q-59 0 -89 -99q-22 -75 -40.5 -168.5t-18.5 -129.5q0 -76 55 -76q51 0 82 72q20 49 44 164t24 166q0 71 -57 71z" />
    <glyph glyph-name="A" unicode="A" horiz-adv-x="784" 
d="M498 358h-211l-51 -358h-218l224 1365h301l224 -1365h-219zM473 542l-81 569l-79 -569h160z" />
    <glyph glyph-name="B" unicode="B" horiz-adv-x="806" 
d="M102 0v1365h244q117 0 161 -9q129 -25 177 -136q38 -87 38 -220q0 -125 -37 -192t-123 -96q66 -22 99 -46t53 -66q33 -69 33 -214q0 -170 -48 -253q-61 -106 -187 -126q-47 -7 -199 -7h-211zM312 795h54q93 0 120.5 37t27.5 161q0 112 -28 150t-113 38h-61v-386zM312 184
h56q113 0 147 64q22 40 22 149q0 135 -34.5 181.5t-134.5 46.5h-56v-441z" />
    <glyph glyph-name="C" unicode="C" horiz-adv-x="783" 
d="M730 922h-210q0 176 -15 225q-20 61 -96 61q-91 0 -107 -107q-7 -45 -7 -289q0 -406 4 -517q2 -66 30.5 -101.5t79.5 -35.5q45 0 73 28t35 79q2 21 4 220h210q-4 -166 -7.5 -213t-18.5 -101q-31 -115 -146 -162q-69 -29 -150 -29q-96 0 -172 39q-114 59 -137 211
q-14 93 -14 481q0 302 12.5 405t54.5 160q82 109 256 109q131 0 213 -65q76 -60 96 -184q9 -56 12 -214z" />
    <glyph glyph-name="D" unicode="D" horiz-adv-x="835" 
d="M102 1365h243q139 0 204 -20q82 -25 125.5 -86.5t59.5 -174.5q15 -106 15 -401q0 -332 -21 -438q-19 -93 -60 -146.5t-112 -76.5q-69 -22 -211 -22h-243v1365zM312 1181v-997h43q102 0 138 35q29 27 37.5 112t8.5 340q0 273 -7 359.5t-32 114.5q-31 36 -132 36h-56z" />
    <glyph glyph-name="E" unicode="E" horiz-adv-x="735" 
d="M669 1365v-184h-357v-379h329v-184h-329v-434h357v-184h-567v1365h567z" />
    <glyph glyph-name="F" unicode="F" horiz-adv-x="689" 
d="M669 1365v-184h-357v-379h329v-184h-329v-618h-210v1365h567z" />
    <glyph glyph-name="G" unicode="G" horiz-adv-x="824" 
d="M731 922h-210q-1 163 -8 194q-18 92 -105 92q-63 0 -93 -56q-20 -38 -19 -191q0 -89 -1 -278q-1 -108 -1 -157q0 -220 12 -276q20 -93 101 -93q75 0 102 79q12 36 12 166v144h-131v184h341v-730h-210v68q-45 -49 -85.5 -68.5t-99.5 -19.5q-213 0 -238 282
q-13 152 -13 527q0 238 11 317q15 116 64 177q81 102 246 102q135 0 217 -65q76 -60 96 -184q8 -55 12 -214z" />
    <glyph glyph-name="H" unicode="H" horiz-adv-x="845" 
d="M312 1365v-555h220v555h210v-1365h-210v626h-220v-626h-210v1365h210z" />
    <glyph glyph-name="I" unicode="I" horiz-adv-x="414" 
d="M312 1365v-1365h-210v1365h210z" />
    <glyph glyph-name="J" unicode="J" horiz-adv-x="769" 
d="M464 1365h210v-910q-1 -174 -5 -219q-12 -129 -113 -199q-82 -57 -207 -57q-210 0 -290 148q-23 44 -28.5 94.5t-5.5 232.5v23h209v-27q0 -177 9 -208q24 -85 106 -85q89 0 109 97q6 28 6 196v914z" />
    <glyph glyph-name="K" unicode="K" horiz-adv-x="823" 
d="M312 1365v-596l257 596h229l-268 -576l289 -789h-226l-189 557l-92 -205v-352h-210v1365h210z" />
    <glyph glyph-name="L" unicode="L" horiz-adv-x="694" 
d="M312 1365v-1181h357v-184h-567v1365h210z" />
    <glyph glyph-name="M" unicode="M" horiz-adv-x="1146" 
d="M102 0v1365h361l113 -737l102 737h365v-1365h-210v1158l-193 -1158h-123l-205 1158v-1158h-210z" />
    <glyph glyph-name="N" unicode="N" horiz-adv-x="894" 
d="M102 0v1365h229l250 -900v900h210v-1365h-237l-242 825v-825h-210z" />
    <glyph glyph-name="O" unicode="O" horiz-adv-x="818" 
d="M413 1385q200 0 275 -148q27 -55 35.5 -159t8.5 -395q0 -321 -11 -423.5t-51 -162.5q-81 -117 -261 -117q-204 0 -278 148q-28 55 -36.5 160.5t-8.5 405.5q0 311 11 413t51 161q81 117 265 117zM409 1208q-93 0 -106 -107q-7 -52 -7 -422q0 -380 9 -430q16 -92 102 -92
q95 0 108 107q7 50 7 383q0 421 -9 469q-16 92 -104 92z" />
    <glyph glyph-name="P" unicode="P" horiz-adv-x="773" 
d="M312 0h-210v1365h276q95 0 138 -8q218 -39 218 -363q0 -203 -78 -293t-254 -90h-90v-611zM312 793h65q93 0 120 36.5t27 160.5q0 120 -26.5 155.5t-115.5 35.5h-70v-388z" />
    <glyph glyph-name="Q" unicode="Q" horiz-adv-x="818" 
d="M620 -72v-171h-176q-79 0 -105 30t-26 121v82q-129 32 -182 138q-28 54 -36.5 158.5t-8.5 395.5q0 321 11 423.5t51 161.5q81 118 261 118q204 0 279 -148q27 -55 35.5 -159t8.5 -395q0 -322 -11 -424t-52 -162q-56 -82 -168 -108v-29q0 -21 9.5 -26.5t44.5 -5.5h65z
M409 1208q-93 0 -106 -107q-7 -52 -7 -422q0 -380 9 -430q16 -92 102 -92q95 0 108 107q7 50 7 383q0 421 -9 469q-16 92 -104 92z" />
    <glyph glyph-name="R" unicode="R" horiz-adv-x="808" 
d="M102 0v1365h270q157 0 224 -33q79 -38 109 -126q23 -68 23 -188q0 -146 -48 -220q-26 -40 -79 -67q69 -32 98 -76.5t29 -119.5v-406q0 -84 26 -129h-224q-12 60 -12 108v285q0 91 -7.5 131t-29.5 64q-34 37 -118 37h-51v-625h-210zM312 795h50q93 0 124.5 39.5
t31.5 156.5q0 119 -31 154.5t-135 35.5h-40v-386z" />
    <glyph glyph-name="S" unicode="S" horiz-adv-x="760" 
d="M58 473h210q0 -168 9 -213q21 -103 106 -103q51 0 82 39.5t31 104.5q0 76 -38.5 141.5t-147.5 172.5q-142 141 -182 204q-63 102 -63 233q0 144 75 232q86 102 250 102q122 0 197 -53.5t95 -154.5q12 -64 12 -191q0 -17 -1 -61h-209q0 181 -13 216q-23 67 -91 67
q-49 0 -80 -38.5t-31 -100.5q0 -67 37 -125.5t151 -172.5q144 -143 194 -229q59 -102 59 -226q0 -146 -71 -237q-79 -101 -252 -101q-248 0 -306 201q-24 82 -23 293z" />
    <glyph glyph-name="T" unicode="T" horiz-adv-x="723" 
d="M467 1181v-1181h-210v1181h-232v184h674v-184h-232z" />
    <glyph glyph-name="U" unicode="U" horiz-adv-x="840" 
d="M535 1365h210v-910q0 -194 -7.5 -249t-38.5 -100q-89 -126 -279 -126q-123 0 -207 57q-100 68 -112 188q-5 53 -5 230v910h210v-914q0 -178 8 -209q22 -85 106 -85q91 0 109 97q6 28 6 197v914z" />
    <glyph glyph-name="V" unicode="V" horiz-adv-x="692" 
d="M207 0l-189 1365h218l112 -1043l108 1043h218l-182 -1365h-285z" />
    <glyph glyph-name="W" unicode="W" horiz-adv-x="1086" 
d="M25 1365h225l85 -955l135 955h150l134 -955l84 955h224l-185 -1365h-225l-107 674l-113 -674h-219z" />
    <glyph glyph-name="X" unicode="X" horiz-adv-x="731" 
d="M362 963l112 402h225l-223 -638l258 -727h-225l-145 490l-142 -490h-225l254 727l-227 638h225z" />
    <glyph glyph-name="Y" unicode="Y" horiz-adv-x="684" 
d="M247 0v544l-243 821h229l116 -502l107 502h225l-224 -821v-544h-210z" />
    <glyph glyph-name="Z" unicode="Z" horiz-adv-x="722" 
d="M664 1365v-209l-397 -972h397v-184h-605v209l398 972h-377v184h584z" />
    <glyph glyph-name="bracketleft" unicode="[" horiz-adv-x="478" 
d="M299 1179v-1157h100v-186h-299v1529h299v-186h-100z" />
    <glyph glyph-name="backslash" unicode="\" horiz-adv-x="597" 
d="M202 1365l391 -1529h-157l-391 1529h157z" />
    <glyph glyph-name="bracketright" unicode="]" horiz-adv-x="478" 
d="M179 22v1158h-100v185h299v-1529h-299v186h100z" />
    <glyph glyph-name="asciicircum" unicode="^" 
d="M235 729h-196l352 642h242l352 -642h-197l-277 495z" />
    <glyph glyph-name="underscore" unicode="_" 
d="M0 -122h1024v-168h-1024v168z" />
    <glyph glyph-name="grave" unicode="`" 
d="M509 1388l93 -242h-136l-189 242h232z" />
    <glyph glyph-name="a" unicode="a" horiz-adv-x="681" 
d="M595 0h-191v75q-43 -50 -79.5 -69.5t-88.5 -19.5q-72 0 -114 46q-34 37 -43 82q-12 61 -12 152q0 175 39 235q22 33 56.5 58t126.5 76q68 38 91.5 68t23.5 81q0 97 -75 97q-42 0 -59.5 -31.5t-17.5 -104.5v-49h-185q1 106 11 159t36 93q62 97 218 97q182 0 236 -108
q27 -53 27 -196v-741zM404 518q-84 -37 -115 -85.5t-31 -142.5q0 -81 12.5 -111t45.5 -30q54 0 78 66q10 28 10 108v195z" />
    <glyph glyph-name="b" unicode="b" horiz-adv-x="691" 
d="M86 0v1365h191v-409q46 52 79 70.5t80 18.5q112 0 156 -104q16 -40 19.5 -101t3.5 -307q0 -279 -3.5 -340.5t-20.5 -101.5q-20 -49 -64 -77t-99 -28q-47 0 -79.5 19t-71.5 70v-75h-191zM277 665v-272q0 -110 9 -153q20 -90 81 -90q48 0 54 78q3 40 3 267q0 300 -8 333
q-13 53 -56 53q-37 0 -61 -45q-22 -40 -22 -171z" />
    <glyph glyph-name="c" unicode="c" horiz-adv-x="661" 
d="M605 669h-191v92q0 68 -13 89q-18 31 -61 31t-58.5 -25t-15.5 -95v-491q0 -68 13 -89q18 -31 61 -31t58.5 25t15.5 95v167h191q0 -172 -10 -241q-17 -113 -97 -167q-65 -43 -160 -43q-183 0 -237 147q-16 44 -21 109.5t-5 224.5q0 252 5.5 326.5t26.5 121.5
q59 130 230 130q148 0 214 -94q30 -44 42 -106.5t12 -175.5z" />
    <glyph glyph-name="d" unicode="d" horiz-adv-x="691" 
d="M605 1365v-1365h-191v75q-47 -53 -79 -71t-79 -18q-60 0 -105.5 35t-58.5 91q-12 49 -14 109.5t-3 376.5v77q0 201 22 259q19 51 63.5 81t100.5 30q47 0 81 -19.5t72 -69.5v409h191zM414 366v272q0 120 -7 157q-18 86 -76 86q-56 0 -62 -72q-3 -36 -3 -317
q0 -247 14 -296q12 -46 50 -46t62 45q22 40 22 171z" />
    <glyph glyph-name="e" unicode="e" horiz-adv-x="680" 
d="M605 478h-339v-209q0 -67 13 -88q18 -31 61 -31t58.5 25t15.5 94v113h191q-1 -190 -30 -258q-59 -138 -237 -138q-177 0 -233 138q-19 46 -24.5 117t-5.5 260q0 223 5 290.5t25 115.5q57 138 233 138q180 0 237 -139q24 -59 29 -170q1 -18 1 -229v-29zM414 628v133
q0 69 -13 89q-18 31 -61 31t-58.5 -25.5t-15.5 -94.5v-133h148z" />
    <glyph glyph-name="f" unicode="f" horiz-adv-x="388" 
d="M283 860v-860h-191v860h-69v171h69v185q0 94 37 129.5t134 35.5q34 0 88 -4v-161q-10 1 -16 1q-33 0 -42.5 -18.5t-9.5 -83.5v-84h68v-171h-68z" />
    <glyph glyph-name="g" unicode="g" horiz-adv-x="691" 
d="M605 1031v-1004q0 -132 -29 -182q-57 -98 -232 -98q-109 0 -173 33q-96 50 -96 167q0 17 1 32h191q0 -37 16.5 -52.5t55.5 -15.5q49 0 62 18t13 85v95q-45 -45 -77 -60.5t-79 -15.5q-118 0 -161 110q-15 37 -18 97t-3 312q0 231 4 293t22 100q21 46 65 73t96 27
q47 0 80.5 -19.5t70.5 -69.5v75h191zM414 412v226q0 121 -8 161q-18 82 -73 82q-47 0 -59 -54q-5 -19 -6 -154q-1 -158 -1 -203q0 -173 11 -223.5t49 -50.5q40 0 67 42q20 32 20 174z" />
    <glyph glyph-name="h" unicode="h" horiz-adv-x="699" 
d="M277 0h-191v1365h191v-409q75 89 172 89q117 0 152 -105q15 -45 15 -181v-759h-191v670q0 124 -5 151q-11 60 -58 60q-54 0 -75 -78q-10 -36 -10 -144v-659z" />
    <glyph glyph-name="i" unicode="i" horiz-adv-x="363" 
d="M277 1031v-1031h-191v1031h191zM277 1365v-224h-191v224h191z" />
    <glyph glyph-name="j" unicode="j" horiz-adv-x="363" 
d="M277 1031v-1119q0 -94 -36.5 -129.5t-134.5 -35.5q-33 0 -76 5v160q36 1 46 19t10 83v1017h191zM277 1365v-226h-191v226h191z" />
    <glyph glyph-name="k" unicode="k" horiz-adv-x="679" 
d="M277 1365v-767l175 433h205l-205 -462l205 -569h-205l-175 533v-533h-191v1365h191z" />
    <glyph glyph-name="l" unicode="l" horiz-adv-x="363" 
d="M277 1365v-1365h-191v1365h191z" />
    <glyph glyph-name="m" unicode="m" horiz-adv-x="1038" 
d="M277 0h-191v1031h191v-82q45 54 84.5 75t97.5 21q114 0 149 -96q45 54 84.5 75t98.5 21q121 0 151 -94q14 -41 14 -144v-807h-191v689v33v59q0 100 -60 100q-46 0 -67 -50q-22 -51 -22 -203v-628h-191v689v33v59q0 100 -60 100q-45 0 -66 -50q-22 -51 -22 -203v-628z" />
    <glyph glyph-name="n" unicode="n" horiz-adv-x="699" 
d="M277 0h-191v1031h191v-75q41 49 80 69t92 20q116 0 152 -104q15 -45 15 -182v-759h-191v670q0 125 -5 151q-12 60 -57 60q-57 0 -77 -78q-9 -37 -9 -144v-659z" />
    <glyph glyph-name="o" unicode="o" horiz-adv-x="681" 
d="M340 1045q183 0 239 -148q18 -50 22 -105.5t4 -275.5q0 -230 -5 -279q-15 -133 -80 -192q-64 -59 -181 -59q-182 0 -238 148q-18 50 -22 105.5t-4 276.5q0 228 6 278q14 133 79 192q64 59 180 59zM266 761v-491q0 -66 12 -87q18 -33 62 -33q43 0 58.5 25t15.5 95v491
q0 66 -12 87q-18 33 -62 33q-43 0 -58.5 -25t-15.5 -95z" />
    <glyph glyph-name="p" unicode="p" horiz-adv-x="691" 
d="M86 -253v1284h191v-75q48 54 79.5 71.5t78.5 17.5q117 0 159 -110q16 -40 18.5 -90t3.5 -311v-165q0 -215 -22 -272q-19 -51 -64 -81t-102 -30q-47 0 -79.5 19t-71.5 70v-328h-191zM277 665v-272q0 -110 9 -153q19 -90 82 -90q48 0 53 72q4 54 4 280q0 245 -11.5 312.5
t-52.5 67.5q-38 0 -63 -45q-21 -41 -21 -172z" />
    <glyph glyph-name="q" unicode="q" horiz-adv-x="691" 
d="M605 1031v-1284h-191v328q-48 -53 -79.5 -71t-78.5 -18q-117 0 -159 110q-16 40 -18.5 90t-3.5 311v165q0 215 22 272q19 52 63.5 81.5t102.5 29.5q47 0 79.5 -19.5t71.5 -69.5v75h191zM414 366v272q0 110 -9 153q-20 90 -82 90q-48 0 -53 -72q-4 -54 -4 -280
q0 -245 11.5 -312.5t52.5 -67.5q38 0 62 45q22 41 22 172z" />
    <glyph glyph-name="r" unicode="r" horiz-adv-x="548" 
d="M86 1031h191v-123q44 80 88.5 108.5t124.5 28.5h33v-208q-101 0 -136 -5.5t-59 -27.5q-31 -27 -41 -71.5t-10 -152.5v-580h-191v1031z" />
    <glyph glyph-name="s" unicode="s" horiz-adv-x="621" 
d="M570 701h-191q0 91 -9 122q-16 58 -68 58q-30 0 -48.5 -21t-18.5 -55q0 -39 26.5 -75.5t117.5 -121.5q119 -111 162.5 -185.5t43.5 -166.5q0 -130 -74 -202q-72 -68 -203 -68q-181 0 -238 141q-23 58 -24 210v46h191q0 -127 4 -153q13 -80 77 -80q34 0 55 27t21 69
q0 51 -29.5 93.5t-139.5 152.5q-113 111 -147 169.5t-34 140.5q0 125 86 192q67 51 182 51q146 0 211 -82q50 -65 50 -193q0 -19 -3 -69z" />
    <glyph glyph-name="t" unicode="t" horiz-adv-x="392" 
d="M281 1303v-272h69v-171h-69v-577q0 -78 10.5 -95t58.5 -17v-171h-150q-63 0 -86.5 31t-23.5 115v714h-69v171h69v272h191z" />
    <glyph glyph-name="u" unicode="u" horiz-adv-x="699" 
d="M425 1031h191v-1031h-191v75q-42 -49 -80.5 -69t-91.5 -20q-117 0 -152 105q-15 45 -15 181v759h191v-670q0 -124 5 -151q11 -60 58 -60q55 0 75 78q10 36 10 144v659z" />
    <glyph glyph-name="v" unicode="v" horiz-adv-x="603" 
d="M189 0l-174 1031h206l87 -788l72 788h208l-161 -1031h-238z" />
    <glyph glyph-name="w" unicode="w" horiz-adv-x="899" 
d="M511 1031l109 -749l63 749h200l-154 -1031h-218l-62 530l-62 -530h-218l-154 1031h201l62 -749l109 749h124z" />
    <glyph glyph-name="x" unicode="x" horiz-adv-x="646" 
d="M337 738l85 293h219l-215 -474l226 -557h-218l-105 382l-116 -382h-218l226 557l-215 474h219z" />
    <glyph glyph-name="y" unicode="y" horiz-adv-x="620" 
d="M100 -251v172h52q62 0 62 40q0 3 -7 39l-192 1031h215l81 -687l79 687h215l-215 -1136q-16 -86 -40 -112q-32 -34 -120 -34h-130z" />
    <glyph glyph-name="z" unicode="z" horiz-adv-x="599" 
d="M555 1031v-192l-334 -668h346v-171h-536v190l334 670h-314v171h504z" />
    <glyph glyph-name="braceleft" unicode="{" horiz-adv-x="519" 
d="M170 599q70 -35 97 -84t27 -138v-243q0 -55 5.5 -80t22.5 -44q27 -30 87 -30h28v-144h-48q-150 0 -220.5 65t-70.5 203v265q0 78 -22.5 116t-76.5 52v136q53 14 76 50t23 106v280q0 137 69 196.5t228 59.5h42v-145h-35q-65 -1 -86.5 -31t-21.5 -119v-251
q0 -89 -26.5 -136t-97.5 -84z" />
    <glyph glyph-name="bar" unicode="|" 
d="M420 1365h184v-1706h-184v1706z" />
    <glyph glyph-name="braceright" unicode="}" horiz-adv-x="519" 
d="M348 602q-70 35 -97 84t-27 138v243q0 55 -5.5 80t-22.5 44q-27 30 -87 30h-28v144h48q150 0 220.5 -65t70.5 -203v-265q0 -78 22.5 -116t76.5 -52v-136q-53 -14 -76 -50t-23 -106v-280q0 -137 -69 -196.5t-228 -59.5h-42v145h35q65 1 86.5 31t21.5 119v251
q0 89 26.5 136t97.5 84z" />
    <glyph glyph-name="asciitilde" unicode="~" horiz-adv-x="1365" 
d="M295 1179l-106 68q47 98 75 136q83 115 214 115q75 0 225 -66q90 -39 123 -49.5t69 -10.5q56 0 93 27.5t81 102.5l108 -64q-62 -127 -124 -177q-82 -66 -182 -66q-40 0 -95 18.5t-194 77.5q-71 30 -118 30q-51 0 -89.5 -32.5t-79.5 -109.5z" />
    <glyph glyph-name="nonbreakingspace" unicode="&#xa0;" horiz-adv-x="478" 
 />
    <glyph glyph-name="exclamdown" unicode="&#xa1;" horiz-adv-x="436" 
d="M323 965h-210v236h210v-236zM164 921h107l52 -318v-767h-210v767z" />
    <glyph glyph-name="cent" unicode="&#xa2;" horiz-adv-x="833" 
d="M369 1198v176h96v-176q125 -15 175 -86t50 -235q0 -11 -1 -45h-190q1 37 1 50q0 89 -16.5 122t-60.5 33q-34 0 -50 -20t-23 -71q-8 -61 -8 -301q0 -222 6 -268q9 -70 72 -70q52 0 67 46q11 31 12 169v47h190q3 -79 3 -111q0 -112 -22 -171q-45 -121 -205 -141v-171h-96
v171q-113 12 -164 84q-42 59 -52 145t-10 398q0 133 3.5 176t16.5 86q44 138 206 163z" />
    <glyph glyph-name="sterling" unicode="&#xa3;" horiz-adv-x="833" 
d="M67 179q89 42 131 79q72 64 72 179q0 94 -51 218h-131v118h81q-73 153 -73 284q0 163 99 251q86 77 237 77q167 0 251 -90q70 -76 70 -251v-104h-210v59q0 105 -17 149q-23 60 -100 60q-56 0 -88 -34.5t-32 -94.5q0 -84 40 -185q37 -91 49 -121h197v-118h-149
q37 -112 37 -186q0 -76 -29 -132.5t-106 -128.5q37 9 62 9q30 0 62 -18q43 -23 60 -23q38 0 95 92l142 -116q-104 -172 -228 -172q-49 0 -111 32q-56 28 -77.5 35.5t-49.5 7.5q-65 0 -159 -55z" />
    <glyph glyph-name="currency" unicode="&#xa4;" horiz-adv-x="1365" 
d="M92 206l197 199q-99 135 -99 289q0 148 100 286l-202 200l103 103l200 -200q142 101 293 101q150 0 288 -99l200 197l102 -102l-198 -197q101 -145 101 -291t-99 -286l200 -199l-101 -103l-200 199q-137 -100 -291 -100q-145 0 -294 100l-199 -198zM688 1018
q-138 0 -234 -96q-94 -94 -94 -229q0 -134 95 -229t228 -95q134 0 230 95q94 95 94 229q0 137 -94 230q-98 95 -225 95z" />
    <glyph glyph-name="yen" unicode="&#xa5;" horiz-adv-x="887" 
d="M351 477h-188v112h163l-30 133h-133v112h109l-119 531h181l116 -654l107 654h176l-107 -531h98v-112h-121l-27 -133h148v-112h-170l-3 -15v-462h-196v462z" />
    <glyph glyph-name="brokenbar" unicode="&#xa6;" 
d="M420 1365h184v-690h-184v690zM420 314h184v-655h-184v655z" />
    <glyph glyph-name="section" unicode="&#xa7;" horiz-adv-x="932" 
d="M779 992h-207v43q0 91 -25.5 130.5t-84.5 39.5q-91 0 -91 -95q0 -54 48 -96q20 -19 182 -126q97 -64 118 -80.5t52 -49.5q66 -70 66 -165q0 -122 -131 -267q50 -61 68 -107t18 -110q0 -120 -72 -198q-88 -95 -254 -95q-159 0 -235 81.5t-76 252.5v58h209v-53
q0 -89 17 -117q28 -45 89 -45q53 0 82.5 29.5t29.5 82.5q0 56 -30.5 87.5t-167.5 118.5q-141 89 -198 135q-104 84 -104 197q0 134 153 285q-74 99 -74 180q0 119 85 191.5t225 72.5q177 0 253 -103q55 -74 55 -269v-8zM359 823q-81 -76 -81 -144q0 -39 37 -79.5t126 -98.5
l125 -81q79 66 79 134q0 42 -34.5 82.5t-119.5 97.5z" />
    <glyph glyph-name="dieresis" unicode="&#xa8;" 
d="M288 1379h183v-224h-183v224zM553 1379h183v-224h-183v224z" />
    <glyph glyph-name="copyright" unicode="&#xa9;" horiz-adv-x="1225" 
d="M669 816q0 105 -9.5 133t-46.5 28q-46 0 -54 -54q-4 -25 -4 -165q0 -221 2 -287q3 -70 56 -70q47 0 54 54q2 11 3 130h133q-3 -140 -15 -185q-14 -52 -61 -82t-114 -30q-115 0 -162 79q-18 31 -23.5 93t-5.5 242q0 173 7.5 232t32.5 92q48 64 151 64q67 0 114 -30t61 -82
q12 -44 15 -162h-134zM612 1392q194 0 328 -91q129 -88 177 -256q39 -139 39 -351q0 -364 -114 -530q-131 -191 -439 -191q-189 0 -320 90q-130 90 -179 279q-36 140 -36 347q0 354 114 513q71 98 186 144q116 46 244 46zM612 1282q-241 0 -329 -154q-85 -146 -85 -457
q0 -273 80 -423q93 -175 326 -175q250 0 343 175q80 150 80 427q0 308 -85 453q-89 154 -330 154z" />
    <glyph glyph-name="ordfeminine" unicode="&#xaa;" horiz-adv-x="477" 
d="M397 546h-128v33q-43 -41 -94 -41q-57 0 -82.5 40.5t-25.5 132.5q0 102 21.5 137t115.5 86q39 21 52 37t13 44q0 51 -38 51q-40 0 -40 -73v-36h-124q0 116 29 159q40 60 137 60q113 0 147 -67q17 -32 17 -118v-445zM269 848q-46 -25 -60 -49t-14 -76q0 -43 6 -59t22 -16
q46 0 46 95v105z" />
    <glyph glyph-name="guillemotleft" unicode="&#xab;" horiz-adv-x="757" 
d="M235 909h155l-169 -329l169 -331h-155l-169 331zM519 909h150l-164 -329l164 -331h-150l-167 331z" />
    <glyph glyph-name="logicalnot" unicode="&#xac;" 
d="M771 0v374h-703v172h887v-546h-184z" />
    <glyph glyph-name="uni00AD" unicode="&#xad;" horiz-adv-x="316" 
d="M0 671h316v-180h-316v180z" />
    <glyph glyph-name="registered" unicode="&#xae;" horiz-adv-x="1225" 
d="M418 300v779h160q92 0 131 -19q79 -39 79 -181q0 -67 -13 -99.5t-51 -62.5q64 -35 64 -110v-228q0 -47 19 -79h-144q-8 38 -8 67v160q0 77 -15.5 100t-66.5 23h-22v-350h-133zM551 760h22q50 0 66 20t16 83q0 64 -15.5 81.5t-72.5 17.5h-16v-202zM612 1392q194 0 328 -91
q129 -88 177 -256q39 -139 39 -351q0 -364 -114 -530q-131 -191 -439 -191q-189 0 -320 90q-130 90 -179 279q-36 140 -36 347q0 354 114 513q71 98 186 144q116 46 244 46zM612 1282q-241 0 -329 -154q-85 -146 -85 -457q0 -273 80 -423q93 -175 326 -175q250 0 343 175
q80 150 80 427q0 308 -85 453q-89 154 -330 154z" />
    <glyph glyph-name="macron" unicode="&#xaf;" 
d="M303 1330h418v-132h-418v132z" />
    <glyph glyph-name="degree" unicode="&#xb0;" horiz-adv-x="847" 
d="M423 1379q120 0 203 -84q84 -85 84 -206q0 -114 -84 -200q-83 -84 -202 -84t-203 84q-84 85 -84 203q0 121 84 203q86 84 202 84zM423 1263q-70 0 -120 -50t-50 -121t50 -121t121 -50t120 50q50 51 50 119q0 73 -49.5 123t-121.5 50z" />
    <glyph glyph-name="plusminus" unicode="&#xb1;" horiz-adv-x="833" 
d="M502 747v-274h-171v274h-248v171h248v275h171v-275h247v-171h-247zM749 359v-171h-666v171h666z" />
    <glyph glyph-name="twosuperior" unicode="&#xb2;" horiz-adv-x="541" 
d="M457 669v-122h-385q-1 137 37 237.5t129 204.5q66 75 85 109.5t19 80.5q0 80 -59 80q-36 0 -48.5 -31t-12.5 -120h-142v35q0 130 51 181q53 53 158 53q94 0 144 -51t50 -146q0 -76 -27.5 -130.5t-117.5 -160.5q-110 -127 -117 -220h236z" />
    <glyph glyph-name="threesuperior" unicode="&#xb3;" horiz-adv-x="541" 
d="M65 832h141v-83q0 -52 14 -74t48 -22q38 0 52 22.5t14 83.5q0 108 -14 131q-21 33 -90 33q-13 0 -37 -1v116q83 1 106 20t23 89q0 63 -13 87.5t-47 24.5q-43 0 -51 -47q-2 -11 -5 -96h-141q1 22 2 34q2 68 9 99.5t26 58.5q47 69 158 69q203 0 203 -227q0 -66 -14.5 -101
t-54.5 -63q46 -19 64 -57.5t18 -116.5q0 -113 -16 -165q-15 -52 -67 -82.5t-126 -30.5q-112 0 -163 59q-23 26 -31 57.5t-8 98.5v83z" />
    <glyph glyph-name="acute" unicode="&#xb4;" 
d="M514 1388h232l-188 -242h-137z" />
    <glyph glyph-name="mu" unicode="&#xb5;" horiz-adv-x="833" 
d="M342 -164h-191v1195h191v-670q0 -124 5 -151q11 -60 58 -60q55 0 75 78q10 36 10 144v659h191v-1031h-191v61q-62 -61 -111 -61q-20 0 -37 14v-178z" />
    <glyph glyph-name="paragraph" unicode="&#xb6;" horiz-adv-x="833" 
d="M296 -164v818q-10 -1 -15 -1q-39 0 -78.5 22t-64.5 58q-69 99 -69 269q0 363 269 363h364v-1529h-151v1350h-104v-1350h-151z" />
    <glyph glyph-name="glyph121" unicode="&#xb7;" horiz-adv-x="370" 
d="M86 657h198v-249h-198v249z" />
    <glyph glyph-name="cedilla" unicode="&#xb8;" 
d="M493 0h80l-64 -104q31 7 48 7q58 0 96.5 -35t38.5 -88q0 -66 -53.5 -107.5t-138.5 -41.5q-67 0 -147 31l23 60q55 -22 106 -22q84 0 84 72q0 27 -21 45.5t-54 18.5q-32 0 -59 -12l-26 29z" />
    <glyph glyph-name="onesuperior" unicode="&#xb9;" horiz-adv-x="541" 
d="M361 1365v-819h-141v659h-78v107q76 5 89 53h130z" />
    <glyph glyph-name="ordmasculine" unicode="&#xba;" horiz-adv-x="477" 
d="M238 1176q115 0 150 -92q11 -30 13.5 -63t2.5 -164q0 -136 -3 -172t-19 -67q-38 -80 -144 -80q-115 0 -150 92q-11 30 -13.5 63.5t-2.5 163.5q0 135 3.5 172t17.5 67q38 80 145 80zM200 1002v-290q0 -38 7.5 -51t30.5 -13t30.5 13t7.5 51v290q0 38 -7.5 51t-30.5 13
t-30.5 -12.5t-7.5 -51.5z" />
    <glyph glyph-name="guillemotright" unicode="&#xbb;" horiz-adv-x="757" 
d="M523 909l169 -329l-169 -331h-155l170 331l-170 329h155zM239 909l167 -329l-167 -331h-150l164 331l-164 329h150z" />
    <glyph glyph-name="onequarter" unicode="&#xbc;" horiz-adv-x="1307" 
d="M361 1365v-819h-141v659h-78v107q76 5 89 53h130zM1053 1365l-690 -1365h-123l690 1365h123zM1186 819v-512h63v-122h-63v-185h-142v185h-215v108l204 526h153zM1044 307v275l-96 -275h96z" />
    <glyph glyph-name="onehalf" unicode="&#xbd;" horiz-adv-x="1307" 
d="M361 1365v-819h-141v659h-78v107q76 5 89 53h130zM1053 1365l-690 -1365h-123l690 1365h123zM1223 122v-122h-385q0 138 37.5 238t128.5 205q67 76 85.5 110.5t18.5 79.5q0 81 -59 81q-36 0 -48.5 -31t-12.5 -121h-142v35q0 131 51 182q53 53 158 53q94 0 144 -51
t50 -146q0 -77 -27 -131.5t-118 -160.5q-110 -128 -117 -221h236z" />
    <glyph glyph-name="threequarters" unicode="&#xbe;" horiz-adv-x="1307" 
d="M65 832h141v-83q0 -52 14 -74t48 -22q38 0 52 22.5t14 83.5q0 108 -14 131q-21 33 -90 33q-13 0 -37 -1v116q83 1 106 20t23 89q0 63 -13 87.5t-47 24.5q-43 0 -51 -47q-2 -11 -5 -96h-141q1 22 2 34q2 68 9 99.5t26 58.5q47 69 158 69q203 0 203 -227q0 -66 -14.5 -101
t-54.5 -63q46 -19 64 -57.5t18 -116.5q0 -113 -16 -165q-15 -52 -67 -82.5t-126 -30.5q-112 0 -163 59q-23 26 -31 57.5t-8 98.5v83zM1052 1365l-689 -1365h-123l690 1365h122zM1185 819v-512h63v-122h-63v-185h-142v185h-215v108l204 526h153zM1043 307v275l-96 -275h96z
" />
    <glyph glyph-name="questiondown" unicode="&#xbf;" horiz-adv-x="770" 
d="M568 958h-210v243h210v-243zM358 905h210q-1 -133 -42.5 -234.5t-163.5 -268.5q-56 -78 -78.5 -132.5t-22.5 -112.5q0 -75 32.5 -119.5t87.5 -44.5q63 0 92 59q20 40 22 188h210q1 -201 -57 -294q-81 -131 -274 -131q-163 0 -245 92q-77 86 -77 234q0 140 71 275
q21 41 124 189q62 89 85.5 152t25.5 148z" />
    <glyph glyph-name="Agrave" unicode="&#xc0;" horiz-adv-x="784" 
d="M498 358h-211l-51 -358h-218l224 1365h301l224 -1365h-219zM473 542l-81 569l-79 -569h160zM401 1739l90 -235h-144l-189 235h243z" />
    <glyph glyph-name="Aacute" unicode="&#xc1;" horiz-adv-x="784" 
d="M498 358h-211l-51 -358h-218l224 1365h301l224 -1365h-219zM473 542l-81 569l-79 -569h160zM384 1739h243l-190 -235h-143z" />
    <glyph glyph-name="Acircumflex" unicode="&#xc2;" horiz-adv-x="784" 
d="M498 358h-211l-51 -358h-218l224 1365h301l224 -1365h-219zM473 542l-81 569l-79 -569h160zM307 1739h171l145 -235h-168l-63 122l-63 -122h-167z" />
    <glyph glyph-name="Atilde" unicode="&#xc3;" horiz-adv-x="784" 
d="M498 358h-211l-51 -358h-218l224 1365h301l224 -1365h-219zM473 542l-81 569l-79 -569h160zM267 1521h-137q6 68 22 105q19 42 56.5 67.5t81.5 25.5q31 0 48 -5.5t88 -40.5q19 -9 38 -9q36 0 54 60h137q-7 -91 -49.5 -145.5t-104.5 -54.5q-32 0 -52 6t-97 40
q-25 11 -42 11q-36 0 -43 -60z" />
    <glyph glyph-name="Adieresis" unicode="&#xc4;" horiz-adv-x="784" 
d="M498 358h-211l-51 -358h-218l224 1365h301l224 -1365h-219zM473 542l-81 569l-79 -569h160zM162 1734h183v-224h-183v224zM440 1734h183v-224h-183v224z" />
    <glyph glyph-name="Aring" unicode="&#xc5;" horiz-adv-x="784" 
d="M498 358h-211l-51 -358h-218l224 1365h301l224 -1365h-219zM473 542l-81 569l-79 -569h160zM395 1782q68 0 116.5 -49.5t48.5 -118.5t-49 -118t-119 -49q-69 0 -118 49t-49 118q0 70 49.5 119t120.5 49zM393 1680q-27 0 -46.5 -19t-19.5 -47q0 -27 19 -46t46 -19t46.5 19
t19.5 47q0 26 -19 45.5t-46 19.5z" />
    <glyph glyph-name="AE" unicode="&#xc6;" horiz-adv-x="1174" 
d="M543 360h-257l-87 -360h-209l348 1365h770v-184h-355v-379h329v-184h-329v-434h355v-184h-565v360zM543 544v637h-63l-150 -637h213z" />
    <glyph glyph-name="Ccedilla" unicode="&#xc7;" horiz-adv-x="783" 
d="M424 -19l-56 -90q32 7 51 7q61 0 101.5 -37t40.5 -92q0 -70 -56 -113.5t-146 -43.5q-70 0 -154 32l23 64q59 -23 111 -23q95 0 95 75q0 29 -24 48.5t-61 19.5q-32 0 -62 -13l-27 30l83 138q-86 22 -132.5 51t-75.5 80q-31 54 -40 165.5t-9 431.5q0 302 12.5 405t54.5 160
q82 109 256 109q131 0 213 -65q76 -60 96 -184q9 -56 12 -214h-210q0 176 -15 225q-20 61 -96 61q-91 0 -107 -107q-7 -45 -7 -289q0 -407 4 -518q2 -66 30.5 -101.5t79.5 -35.5q45 0 73 28t35 79q2 21 4 221h210q-4 -179 -9 -226q-22 -267 -298 -278z" />
    <glyph glyph-name="Egrave" unicode="&#xc8;" horiz-adv-x="735" 
d="M669 1365v-184h-357v-379h329v-184h-329v-434h357v-184h-567v1365h567zM394 1739l90 -235h-143l-190 235h243z" />
    <glyph glyph-name="Eacute" unicode="&#xc9;" horiz-adv-x="735" 
d="M669 1365v-184h-357v-379h329v-184h-329v-434h357v-184h-567v1365h567zM377 1739h244l-190 -235h-144z" />
    <glyph glyph-name="Ecircumflex" unicode="&#xca;" horiz-adv-x="735" 
d="M669 1365v-184h-357v-379h329v-184h-329v-434h357v-184h-567v1365h567zM300 1739h171l145 -235h-167l-63 122l-63 -122h-168z" />
    <glyph glyph-name="Edieresis" unicode="&#xcb;" horiz-adv-x="735" 
d="M669 1365v-184h-357v-379h329v-184h-329v-434h357v-184h-567v1365h567zM155 1734h183v-224h-183v224zM433 1734h183v-224h-183v224z" />
    <glyph glyph-name="Igrave" unicode="&#xcc;" horiz-adv-x="415" 
d="M312 1365v-1365h-210v1365h210zM215 1739l90 -235h-143l-190 235h243z" />
    <glyph glyph-name="Iacute" unicode="&#xcd;" horiz-adv-x="415" 
d="M313 1365v-1365h-210v1365h210zM199 1739h244l-190 -235h-144z" />
    <glyph glyph-name="Icircumflex" unicode="&#xce;" horiz-adv-x="414" 
d="M313 1365v-1365h-210v1365h210zM122 1739h171l145 -235h-168l-63 122l-63 -122h-167z" />
    <glyph glyph-name="Idieresis" unicode="&#xcf;" horiz-adv-x="415" 
d="M312 1365v-1365h-210v1365h210zM17 1734h149v-224h-149v224zM248 1734h149v-224h-149v224z" />
    <glyph glyph-name="Eth" unicode="&#xd0;" horiz-adv-x="835" 
d="M103 642h-89v150h89v573h242q115 0 165.5 -8.5t96.5 -36.5q114 -68 131 -271q11 -132 11 -366q0 -250 -11 -360.5t-42 -179.5q-44 -97 -164 -130q-50 -13 -187 -13h-242v642zM313 642v-458q95 1 126.5 7t53.5 28q34 32 41 175q5 97 5 289q0 267 -9.5 355t-41.5 113
q-23 19 -53 24t-122 6v-389h115v-150h-115z" />
    <glyph glyph-name="Ntilde" unicode="&#xd1;" horiz-adv-x="894" 
d="M335 1521h-138q7 68 23 105q19 42 56.5 67.5t81.5 25.5q31 0 48 -5.5t88 -40.5q19 -9 38 -9q36 0 54 60h137q-8 -91 -50 -145.5t-104 -54.5q-33 0 -52.5 6t-96.5 40q-25 11 -42 11q-37 0 -43 -60zM102 0v1365h229l250 -900v900h210v-1365h-237l-242 825v-825h-210z" />
    <glyph glyph-name="Ograve" unicode="&#xd2;" horiz-adv-x="818" 
d="M413 1385q200 0 275 -148q27 -55 35.5 -159t8.5 -395q0 -321 -11 -423.5t-51 -162.5q-81 -117 -261 -117q-204 0 -278 148q-28 55 -36.5 160.5t-8.5 405.5q0 311 11 413t51 161q81 117 265 117zM409 1208q-93 0 -106 -107q-7 -52 -7 -422q0 -380 9 -430q16 -92 102 -92
q95 0 108 107q7 50 7 383q0 421 -9 469q-16 92 -104 92zM418 1739l89 -235h-143l-190 235h244z" />
    <glyph glyph-name="Oacute" unicode="&#xd3;" horiz-adv-x="818" 
d="M413 1385q200 0 275 -148q27 -55 35.5 -159t8.5 -395q0 -321 -11 -423.5t-51 -162.5q-81 -117 -261 -117q-204 0 -278 148q-28 55 -36.5 160.5t-8.5 405.5q0 311 11 413t51 161q81 117 265 117zM409 1208q-93 0 -106 -107q-7 -52 -7 -422q0 -380 9 -430q16 -92 102 -92
q95 0 108 107q7 50 7 383q0 421 -9 469q-16 92 -104 92zM401 1739h243l-190 -235h-143z" />
    <glyph glyph-name="Ocircumflex" unicode="&#xd4;" horiz-adv-x="818" 
d="M413 1385q200 0 275 -148q27 -55 35.5 -159t8.5 -395q0 -321 -11 -423.5t-51 -162.5q-81 -117 -261 -117q-204 0 -278 148q-28 55 -36.5 160.5t-8.5 405.5q0 311 11 413t51 161q81 117 265 117zM409 1208q-93 0 -106 -107q-7 -52 -7 -422q0 -380 9 -430q16 -92 102 -92
q95 0 108 107q7 50 7 383q0 421 -9 469q-16 92 -104 92zM324 1739h171l145 -235h-168l-63 122l-63 -122h-167z" />
    <glyph glyph-name="Otilde" unicode="&#xd5;" horiz-adv-x="818" 
d="M413 1385q200 0 275 -148q27 -55 35.5 -159t8.5 -395q0 -321 -11 -423.5t-51 -162.5q-81 -117 -261 -117q-204 0 -278 148q-28 55 -36.5 160.5t-8.5 405.5q0 311 11 413t51 161q81 117 265 117zM409 1208q-93 0 -106 -107q-7 -52 -7 -422q0 -380 9 -430q16 -92 102 -92
q95 0 108 107q7 50 7 383q0 421 -9 469q-16 92 -104 92zM297 1521h-137q7 68 23 105q18 42 55.5 67.5t81.5 25.5q32 0 49 -5.5t87 -40.5q19 -9 39 -9q36 0 53 60h138q-8 -91 -50 -145.5t-105 -54.5q-32 0 -52 6t-97 40q-24 11 -41 11q-37 0 -44 -60z" />
    <glyph glyph-name="Odieresis" unicode="&#xd6;" horiz-adv-x="818" 
d="M413 1385q200 0 275 -148q27 -55 35.5 -159t8.5 -395q0 -321 -11 -423.5t-51 -162.5q-81 -117 -261 -117q-204 0 -278 148q-28 55 -36.5 160.5t-8.5 405.5q0 311 11 413t51 161q81 117 265 117zM409 1208q-93 0 -106 -107q-7 -52 -7 -422q0 -380 9 -430q16 -92 102 -92
q95 0 108 107q7 50 7 383q0 421 -9 469q-16 92 -104 92zM178 1734h183v-224h-183v224zM457 1734h183v-224h-183v224z" />
    <glyph glyph-name="multiply" unicode="&#xd7;" horiz-adv-x="833" 
d="M416 817l223 224l121 -121l-223 -224l223 -223l-121 -121l-223 224l-223 -224l-121 121l223 223l-223 224l121 121z" />
    <glyph glyph-name="Oslash" unicode="&#xd8;" horiz-adv-x="818" 
d="M716 1431l87 -42l-96 -200q15 -59 20 -155.5t5 -322.5q0 -343 -10.5 -448t-51.5 -165q-80 -118 -261 -118q-152 0 -241 92l-66 -138l-87 42l96 200q-15 58 -20 156.5t-5 319.5q0 346 10.5 450.5t51.5 164.5q81 118 261 118q152 0 241 -92zM520 1055q-1 13 -2 19
q-5 73 -27 98q-29 36 -83 36q-93 0 -106 -107q-7 -53 -7 -334v-148l1 -91zM298 310q1 -11 1 -16q8 -76 27 -100q30 -37 84 -37q93 0 106 107q7 53 7 333q0 44 -1 147v93z" />
    <glyph glyph-name="Ugrave" unicode="&#xd9;" horiz-adv-x="840" 
d="M535 1365h210v-910q0 -194 -7.5 -249t-38.5 -100q-89 -126 -279 -126q-123 0 -207 57q-100 68 -112 188q-5 53 -5 230v910h210v-914q0 -178 8 -209q22 -85 106 -85q91 0 109 97q6 28 6 197v914zM429 1739l90 -235h-143l-190 235h243z" />
    <glyph glyph-name="Uacute" unicode="&#xda;" horiz-adv-x="840" 
d="M535 1365h210v-910q0 -194 -7.5 -249t-38.5 -100q-89 -126 -279 -126q-123 0 -207 57q-100 68 -112 188q-5 53 -5 230v910h210v-914q0 -178 8 -209q22 -85 106 -85q91 0 109 97q6 28 6 197v914zM412 1739h243l-190 -235h-143z" />
    <glyph glyph-name="Ucircumflex" unicode="&#xdb;" horiz-adv-x="840" 
d="M535 1365h210v-910q0 -194 -7.5 -249t-38.5 -100q-89 -126 -279 -126q-123 0 -207 57q-100 68 -112 188q-5 53 -5 230v910h210v-914q0 -178 8 -209q22 -85 106 -85q91 0 109 97q6 28 6 197v914zM335 1739h171l145 -235h-168l-63 122l-63 -122h-167z" />
    <glyph glyph-name="Udieresis" unicode="&#xdc;" horiz-adv-x="840" 
d="M535 1365h210v-910q0 -194 -7.5 -249t-38.5 -100q-89 -126 -279 -126q-123 0 -207 57q-100 68 -112 188q-5 53 -5 230v910h210v-914q0 -178 8 -209q22 -85 106 -85q91 0 109 97q6 28 6 197v914zM190 1734h183v-224h-183v224zM468 1734h183v-224h-183v224z" />
    <glyph glyph-name="Yacute" unicode="&#xdd;" horiz-adv-x="684" 
d="M247 0v544l-243 821h229l116 -502l107 502h225l-224 -821v-544h-210zM340 1739h243l-190 -235h-143z" />
    <glyph glyph-name="Thorn" unicode="&#xde;" horiz-adv-x="773" 
d="M312 0h-210v1365h210v-218h60q88 0 136 -8q226 -36 226 -363q0 -224 -97 -314q-43 -41 -102 -55t-181 -14h-42v-393zM312 575h65q91 0 119 36.5t28 154.5q0 124 -26.5 160.5t-115.5 36.5h-70v-388z" />
    <glyph glyph-name="germandbls" unicode="&#xdf;" horiz-adv-x="688" 
d="M277 0h-191v1045q0 118 4.5 157.5t23.5 72.5q57 104 231 104q271 0 271 -298q0 -80 -19.5 -123.5t-66.5 -66.5q59 -36 72.5 -101.5t13.5 -323.5q0 -278 -36 -362q-24 -56 -77 -80t-152 -24h-27v164q52 3 69 26q21 27 26.5 78.5t5.5 231.5q0 184 -19.5 244t-81.5 68v156
q53 1 76.5 30t23.5 93q0 124 -80 124q-40 0 -53.5 -22.5t-13.5 -92.5v-1100z" />
    <glyph glyph-name="agrave" unicode="&#xe0;" horiz-adv-x="681" 
d="M595 0h-191v75q-43 -50 -79.5 -69.5t-88.5 -19.5q-72 0 -114 46q-34 37 -43 82q-12 61 -12 152q0 175 39 235q22 33 56.5 58t126.5 76q68 38 91.5 68t23.5 81q0 97 -75 97q-42 0 -59.5 -31.5t-17.5 -104.5v-49h-185q1 106 11 159t36 93q62 97 218 97q182 0 236 -108
q27 -53 27 -196v-741zM404 518q-84 -37 -115 -85.5t-31 -142.5q0 -81 12.5 -111t45.5 -30q54 0 78 66q10 28 10 108v195zM332 1388l93 -242h-136l-189 242h232z" />
    <glyph glyph-name="aacute" unicode="&#xe1;" horiz-adv-x="681" 
d="M595 0h-191v75q-43 -50 -79.5 -69.5t-88.5 -19.5q-72 0 -114 46q-34 37 -43 82q-12 61 -12 152q0 175 39 235q22 33 56.5 58t126.5 76q68 38 91.5 68t23.5 81q0 97 -75 97q-42 0 -59.5 -31.5t-17.5 -104.5v-49h-185q1 106 11 159t36 93q62 97 218 97q182 0 236 -108
q27 -53 27 -196v-741zM404 518q-84 -37 -115 -85.5t-31 -142.5q0 -81 12.5 -111t45.5 -30q54 0 78 66q10 28 10 108v195zM343 1388h232l-189 -242h-136z" />
    <glyph glyph-name="acircumflex" unicode="&#xe2;" horiz-adv-x="681" 
d="M595 0h-191v75q-43 -50 -79.5 -69.5t-88.5 -19.5q-72 0 -114 46q-34 37 -43 82q-12 61 -12 152q0 175 39 235q22 33 56.5 58t126.5 76q68 38 91.5 68t23.5 81q0 97 -75 97q-42 0 -59.5 -31.5t-17.5 -104.5v-49h-185q1 106 11 159t36 93q62 97 218 97q182 0 236 -108
q27 -53 27 -196v-741zM404 518q-84 -37 -115 -85.5t-31 -142.5q0 -81 12.5 -111t45.5 -30q54 0 78 66q10 28 10 108v195zM258 1388h166l142 -242h-161l-64 129l-64 -129h-161z" />
    <glyph glyph-name="atilde" unicode="&#xe3;" horiz-adv-x="681" 
d="M595 0h-191v75q-43 -50 -79.5 -69.5t-88.5 -19.5q-72 0 -114 46q-34 37 -43 82q-12 61 -12 152q0 175 39 235q22 33 56.5 58t126.5 76q68 38 91.5 68t23.5 81q0 97 -75 97q-42 0 -59.5 -31.5t-17.5 -104.5v-49h-185q1 106 11 159t36 93q62 97 218 97q182 0 236 -108
q27 -53 27 -196v-741zM404 518q-84 -37 -115 -85.5t-31 -142.5q0 -81 12.5 -111t45.5 -30q54 0 78 66q10 28 10 108v195zM224 1167h-132q4 60 24 101q47 93 129 93q26 0 42.5 -6t86.5 -41q19 -9 35 -9q34 0 50 60h131q-4 -91 -56 -149q-43 -47 -92 -47q-42 0 -142 47
q-22 11 -38 11q-30 0 -38 -60z" />
    <glyph glyph-name="adieresis" unicode="&#xe4;" horiz-adv-x="681" 
d="M595 0h-191v75q-43 -50 -79.5 -69.5t-88.5 -19.5q-72 0 -114 46q-34 37 -43 82q-12 61 -12 152q0 175 39 235q22 33 56.5 58t126.5 76q68 38 91.5 68t23.5 81q0 97 -75 97q-42 0 -59.5 -31.5t-17.5 -104.5v-49h-185q1 106 11 159t36 93q62 97 218 97q182 0 236 -108
q27 -53 27 -196v-741zM404 518q-84 -37 -115 -85.5t-31 -142.5q0 -81 12.5 -111t45.5 -30q54 0 78 66q10 28 10 108v195zM117 1379h183v-224h-183v224zM381 1379h183v-224h-183v224z" />
    <glyph glyph-name="aring" unicode="&#xe5;" horiz-adv-x="681" 
d="M595 0h-191v75q-43 -50 -79.5 -69.5t-88.5 -19.5q-72 0 -114 46q-34 37 -43 82q-12 61 -12 152q0 175 39 235q22 33 56.5 58t126.5 76q68 38 91.5 68t23.5 81q0 97 -75 97q-42 0 -59.5 -31.5t-17.5 -104.5v-49h-185q1 106 11 159t36 93q62 97 218 97q182 0 236 -108
q27 -53 27 -196v-741zM404 518q-84 -37 -115 -85.5t-31 -142.5q0 -81 12.5 -111t45.5 -30q54 0 78 66q10 28 10 108v195zM343 1454q68 0 116.5 -49.5t48.5 -118.5t-49 -118t-119 -49q-69 0 -117.5 49t-48.5 118q0 70 49 119t120 49zM342 1352q-28 0 -47 -19t-19 -47
q0 -27 18.5 -46t45.5 -19q28 0 47 19t19 47q0 26 -19 45.5t-45 19.5z" />
    <glyph glyph-name="ae" unicode="&#xe6;" horiz-adv-x="1008" 
d="M933 478h-338v-209q0 -67 13 -88q18 -31 60 -31q43 0 58.5 25t15.5 94v113h191q0 -188 -30 -258q-59 -138 -236 -138q-121 0 -191 73q-106 -73 -226 -73q-119 0 -160 91q-24 54 -24 219q0 147 36 202t187 138q69 38 92 67.5t23 80.5q0 97 -76 97t-76 -122v-63h-185
q2 117 10.5 165.5t34.5 86.5q66 97 218 97q109 0 179 -43q67 43 159 43q191 0 244 -162q15 -48 18 -98t3 -278v-29zM404 519q-81 -36 -113 -85t-32 -137t12 -118t47 -30q52 0 76 66q10 28 10 108v196zM742 628v133q0 68 -13 89q-18 31 -61 31q-42 0 -57.5 -25t-15.5 -95
v-133h147z" />
    <glyph glyph-name="ccedilla" unicode="&#xe7;" horiz-adv-x="661" 
d="M363 -13l-57 -91q32 7 49 7q58 0 96.5 -35t38.5 -88q0 -66 -53.5 -107.5t-139.5 -41.5q-66 0 -146 31l22 60q54 -22 107 -22q84 0 84 72q0 27 -21.5 45.5t-53.5 18.5q-31 0 -60 -12l-25 29l79 137q-70 19 -100.5 36.5t-54.5 54.5q-34 50 -43.5 120.5t-9.5 266.5
q0 251 5.5 325.5t26.5 121.5q59 130 230 130q148 0 214 -94q30 -44 42 -106.5t12 -175.5h-191v92q0 68 -13 89q-18 31 -61 31t-58.5 -25t-15.5 -95v-491q0 -68 13 -89q18 -31 61 -31t58.5 25t15.5 95v167h191q0 -148 -5.5 -208.5t-24.5 -104.5q-52 -121 -212 -137z" />
    <glyph glyph-name="egrave" unicode="&#xe8;" horiz-adv-x="680" 
d="M605 478h-339v-209q0 -67 13 -88q18 -31 61 -31t58.5 25t15.5 94v113h191q-1 -190 -30 -258q-59 -138 -237 -138q-177 0 -233 138q-19 46 -24.5 117t-5.5 260q0 223 5 290.5t25 115.5q57 138 233 138q180 0 237 -139q24 -59 29 -170q1 -18 1 -229v-29zM414 628v133
q0 69 -13 89q-18 31 -61 31t-58.5 -25.5t-15.5 -94.5v-133h148zM341 1388l93 -242h-136l-189 242h232z" />
    <glyph glyph-name="eacute" unicode="&#xe9;" horiz-adv-x="680" 
d="M605 478h-339v-209q0 -67 13 -88q18 -31 61 -31t58.5 25t15.5 94v113h191q-1 -190 -30 -258q-59 -138 -237 -138q-177 0 -233 138q-19 46 -24.5 117t-5.5 260q0 223 5 290.5t25 115.5q57 138 233 138q180 0 237 -139q24 -59 29 -170q1 -18 1 -229v-29zM414 628v133
q0 69 -13 89q-18 31 -61 31t-58.5 -25.5t-15.5 -94.5v-133h148zM339 1388h232l-189 -242h-136z" />
    <glyph glyph-name="ecircumflex" unicode="&#xea;" horiz-adv-x="680" 
d="M605 478h-339v-209q0 -67 13 -88q18 -31 61 -31t58.5 25t15.5 94v113h191q-1 -190 -30 -258q-59 -138 -237 -138q-177 0 -233 138q-19 46 -24.5 117t-5.5 260q0 223 5 290.5t25 115.5q57 138 233 138q180 0 237 -139q24 -59 29 -170q1 -18 1 -229v-29zM414 628v133
q0 69 -13 89q-18 31 -61 31t-58.5 -25.5t-15.5 -94.5v-133h148zM263 1388h167l142 -242h-161l-64 129l-65 -129h-160z" />
    <glyph glyph-name="edieresis" unicode="&#xeb;" horiz-adv-x="680" 
d="M605 478h-339v-209q0 -67 13 -88q18 -31 61 -31t58.5 25t15.5 94v113h191q-1 -190 -30 -258q-59 -138 -237 -138q-177 0 -233 138q-19 46 -24.5 117t-5.5 260q0 223 5 290.5t25 115.5q57 138 233 138q180 0 237 -139q24 -59 29 -170q1 -18 1 -229v-29zM414 628v133
q0 69 -13 89q-18 31 -61 31t-58.5 -25.5t-15.5 -94.5v-133h148zM123 1379h183v-224h-183v224zM388 1379h183v-224h-183v224z" />
    <glyph glyph-name="igrave" unicode="&#xec;" horiz-adv-x="363" 
d="M277 1031v-1031h-191v1031h191zM185 1388l80 -242h-137l-168 242h225z" />
    <glyph glyph-name="iacute" unicode="&#xed;" horiz-adv-x="363" 
d="M277 1031v-1031h-191v1031h191zM178 1388h225l-168 -242h-137z" />
    <glyph glyph-name="icircumflex" unicode="&#xee;" horiz-adv-x="363" 
d="M277 1031v-1031h-191v1031h191zM98 1388h167l142 -242h-161l-64 129l-65 -129h-160z" />
    <glyph glyph-name="idieresis" unicode="&#xef;" horiz-adv-x="363" 
d="M277 1031v-1031h-191v1031h191zM-4 1368h147v-213h-147v213zM220 1368h147v-213h-147v213z" />
    <glyph glyph-name="eth" unicode="&#xf0;" horiz-adv-x="681" 
d="M161 1144l-51 86l120 73q-23 48 -38 79l100 65l50 -76l136 81l52 -86l-134 -81q100 -171 151 -299q37 -94 47.5 -180t10.5 -291v-184q0 -172 -56 -253q-64 -92 -209 -92q-183 0 -239 148q-18 50 -22 105.5t-4 275.5q0 203 1.5 242t13.5 98q36 186 252 189q-20 62 -68 168
zM266 761v-491q0 -66 12 -87q18 -33 62 -33q43 0 58.5 25t15.5 95v491q0 66 -12 87q-18 33 -62 33q-43 0 -58.5 -25t-15.5 -95z" />
    <glyph glyph-name="ntilde" unicode="&#xf1;" horiz-adv-x="699" 
d="M277 0h-191v1031h191v-75q41 49 80 69t92 20q116 0 152 -104q15 -45 15 -182v-759h-191v670q0 125 -5 151q-12 60 -57 60q-57 0 -77 -78q-9 -37 -9 -144v-659zM227 1167h-132q4 60 24 101q47 93 129 93q26 0 42.5 -6t87.5 -41q18 -9 34 -9q34 0 50 60h132
q-5 -91 -57 -149q-43 -47 -92 -47q-42 0 -141 47q-23 11 -38 11q-31 0 -39 -60z" />
    <glyph glyph-name="ograve" unicode="&#xf2;" horiz-adv-x="681" 
d="M340 1045q183 0 239 -148q18 -50 22 -105.5t4 -275.5q0 -230 -5 -279q-15 -133 -80 -192q-64 -59 -181 -59q-182 0 -238 148q-18 50 -22 105.5t-4 276.5q0 228 6 278q14 133 79 192q64 59 180 59zM266 761v-491q0 -66 12 -87q18 -33 62 -33q43 0 58.5 25t15.5 95v491
q0 66 -12 87q-18 33 -62 33q-43 0 -58.5 -25t-15.5 -95zM342 1388l93 -242h-137l-189 242h233z" />
    <glyph glyph-name="oacute" unicode="&#xf3;" horiz-adv-x="681" 
d="M340 1045q183 0 239 -148q18 -50 22 -105.5t4 -275.5q0 -230 -5 -279q-15 -133 -80 -192q-64 -59 -181 -59q-182 0 -238 148q-18 50 -22 105.5t-4 276.5q0 228 6 278q14 133 79 192q64 59 180 59zM266 761v-491q0 -66 12 -87q18 -33 62 -33q43 0 58.5 25t15.5 95v491
q0 66 -12 87q-18 33 -62 33q-43 0 -58.5 -25t-15.5 -95zM339 1388h232l-189 -242h-136z" />
    <glyph glyph-name="ocircumflex" unicode="&#xf4;" horiz-adv-x="681" 
d="M340 1045q183 0 239 -148q18 -50 22 -105.5t4 -275.5q0 -230 -5 -279q-15 -133 -80 -192q-64 -59 -181 -59q-182 0 -238 148q-18 50 -22 105.5t-4 276.5q0 228 6 278q14 133 79 192q64 59 180 59zM266 761v-491q0 -66 12 -87q18 -33 62 -33q43 0 58.5 25t15.5 95v491
q0 66 -12 87q-18 33 -62 33q-43 0 -58.5 -25t-15.5 -95zM257 1388h166l142 -242h-161l-64 129l-64 -129h-161z" />
    <glyph glyph-name="otilde" unicode="&#xf5;" horiz-adv-x="681" 
d="M340 1045q183 0 239 -148q18 -50 22 -105.5t4 -275.5q0 -230 -5 -279q-15 -133 -80 -192q-64 -59 -181 -59q-182 0 -238 148q-18 50 -22 105.5t-4 276.5q0 228 6 278q14 133 79 192q64 59 180 59zM266 761v-491q0 -66 12 -87q18 -33 62 -33q43 0 58.5 25t15.5 95v491
q0 66 -12 87q-18 33 -62 33q-43 0 -58.5 -25t-15.5 -95zM230 1167h-132q3 60 24 101q47 93 129 93q26 0 42.5 -6t86.5 -41q19 -9 35 -9q34 0 49 60h132q-4 -91 -56 -149q-43 -47 -93 -47q-41 0 -141 47q-22 11 -38 11q-30 0 -38 -60z" />
    <glyph glyph-name="odieresis" unicode="&#xf6;" horiz-adv-x="681" 
d="M340 1045q183 0 239 -148q18 -50 22 -105.5t4 -275.5q0 -230 -5 -279q-15 -133 -80 -192q-64 -59 -181 -59q-182 0 -238 148q-18 50 -22 105.5t-4 276.5q0 228 6 278q14 133 79 192q64 59 180 59zM266 761v-491q0 -66 12 -87q18 -33 62 -33q43 0 58.5 25t15.5 95v491
q0 66 -12 87q-18 33 -62 33q-43 0 -58.5 -25t-15.5 -95zM116 1379h183v-224h-183v224zM381 1379h183v-224h-183v224z" />
    <glyph glyph-name="divide" unicode="&#xf7;" horiz-adv-x="833" 
d="M749 782v-171h-666v171h666zM417 1086q42 0 72 -30t30 -72q0 -43 -30 -73t-74 -30q-41 0 -71 30.5t-30 71.5q0 43 30 73t73 30zM417 512q42 0 72 -30t30 -72q0 -43 -30 -73t-74 -30q-41 0 -71 30.5t-30 71.5q0 43 30 73t73 30z" />
    <glyph glyph-name="oslash" unicode="&#xf8;" horiz-adv-x="681" 
d="M105 -91l-80 37l82 175q-24 70 -28 117t-4 278q0 228 5 278q15 133 80 192q64 59 178 59q108 0 176 -53l55 119l86 -40l-79 -167q22 -67 25.5 -114t3.5 -275t-5 -278q-15 -133 -80 -192t-178 -59q-106 0 -175 53zM266 218q2 -32 21.5 -50t52.5 -18q43 0 58.5 25t15.5 95
v323zM414 810q-14 71 -74 71q-43 0 -58.5 -25t-15.5 -95v-331z" />
    <glyph glyph-name="ugrave" unicode="&#xf9;" horiz-adv-x="699" 
d="M425 1031h191v-1031h-191v75q-42 -49 -80.5 -69t-91.5 -20q-117 0 -152 105q-15 45 -15 181v759h191v-670q0 -124 5 -151q11 -60 58 -60q55 0 75 78q10 36 10 144v659zM353 1388l93 -242h-137l-189 242h233z" />
    <glyph glyph-name="uacute" unicode="&#xfa;" horiz-adv-x="699" 
d="M425 1031h191v-1031h-191v75q-42 -49 -80.5 -69t-91.5 -20q-117 0 -152 105q-15 45 -15 181v759h191v-670q0 -124 5 -151q11 -60 58 -60q55 0 75 78q10 36 10 144v659zM350 1388h232l-189 -242h-136z" />
    <glyph glyph-name="ucircumflex" unicode="&#xfb;" horiz-adv-x="699" 
d="M425 1031h191v-1031h-191v75q-42 -49 -80.5 -69t-91.5 -20q-117 0 -152 105q-15 45 -15 181v759h191v-670q0 -124 5 -151q11 -60 58 -60q55 0 75 78q10 36 10 144v659zM268 1388h166l142 -242h-161l-64 129l-64 -129h-161z" />
    <glyph glyph-name="udieresis" unicode="&#xfc;" horiz-adv-x="699" 
d="M425 1031h191v-1031h-191v75q-42 -49 -80.5 -69t-91.5 -20q-117 0 -152 105q-15 45 -15 181v759h191v-670q0 -124 5 -151q11 -60 58 -60q55 0 75 78q10 36 10 144v659zM126 1379h183v-224h-183v224zM390 1379h183v-224h-183v224z" />
    <glyph glyph-name="yacute" unicode="&#xfd;" horiz-adv-x="620" 
d="M312 1388h232l-188 -242h-137zM100 -79h52q62 0 62 40q0 3 -7 39l-192 1031h215l81 -687l79 687h215l-215 -1136q-16 -86 -40 -112q-32 -34 -120 -34h-130v172z" />
    <glyph glyph-name="thorn" unicode="&#xfe;" horiz-adv-x="691" 
d="M86 -253v1618h191v-409q48 54 79.5 71.5t78.5 17.5q117 0 159 -110q16 -40 18.5 -90t3.5 -311v-165q0 -215 -22 -272q-19 -51 -64 -81t-102 -30q-47 0 -79.5 19t-71.5 70v-328h-191zM277 665v-272q0 -110 9 -153q19 -90 82 -90q48 0 53 72q4 54 4 280q0 245 -11.5 312.5
t-52.5 67.5q-38 0 -63 -45q-21 -41 -21 -172z" />
    <glyph glyph-name="ydieresis" unicode="&#xff;" horiz-adv-x="620" 
d="M86 1379h183v-224h-183v224zM351 1379h183v-224h-183v224zM100 -79h52q62 0 62 40q0 3 -7 39l-192 1031h215l81 -687l79 687h215l-215 -1136q-16 -86 -40 -112q-32 -34 -120 -34h-130v172z" />
    <glyph glyph-name="Amacron" unicode="&#x100;" horiz-adv-x="784" 
d="M498 358h-211l-51 -358h-218l224 1365h301l224 -1365h-219zM473 542l-81 569l-79 -569h160zM166 1689h452v-135h-452v135z" />
    <glyph glyph-name="amacron" unicode="&#x101;" horiz-adv-x="681" 
d="M595 0h-191v75q-43 -50 -79.5 -69.5t-88.5 -19.5q-72 0 -114 46q-34 37 -43 82q-12 61 -12 152q0 175 39 235q22 33 56.5 58t126.5 76q68 38 91.5 68t23.5 81q0 97 -75 97q-42 0 -59.5 -31.5t-17.5 -104.5v-49h-185q1 106 11 159t36 93q62 97 218 97q182 0 236 -108
q27 -53 27 -196v-741zM404 518q-84 -37 -115 -85.5t-31 -142.5q0 -81 12.5 -111t45.5 -30q54 0 78 66q10 28 10 108v195zM132 1330h418v-132h-418v132z" />
    <glyph glyph-name="Abreve" unicode="&#x102;" horiz-adv-x="784" 
d="M498 358h-211l-51 -358h-218l224 1365h301l224 -1365h-219zM473 542l-81 569l-79 -569h160zM511 1737h128q-10 -67 -43 -118q-73 -113 -202 -113q-102 0 -173 66t-75 165h128q28 -94 118 -94t119 94z" />
    <glyph glyph-name="abreve" unicode="&#x103;" horiz-adv-x="681" 
d="M595 0h-191v75q-43 -50 -79.5 -69.5t-88.5 -19.5q-72 0 -114 46q-34 37 -43 82q-12 61 -12 152q0 175 39 235q22 33 56.5 58t126.5 76q68 38 91.5 68t23.5 81q0 97 -75 97q-42 0 -59.5 -31.5t-17.5 -104.5v-49h-185q1 106 11 159t36 93q62 97 218 97q182 0 236 -108
q27 -53 27 -196v-741zM404 518q-84 -37 -115 -85.5t-31 -142.5q0 -81 12.5 -111t45.5 -30q54 0 78 66q10 28 10 108v195zM452 1383h128q-8 -77 -32 -119q-28 -52 -84 -82.5t-122 -30.5t-122.5 30.5t-86.5 82.5q-27 45 -31 119h128q17 -55 41.5 -77t69.5 -22q89 0 111 99z
" />
    <glyph glyph-name="Aogonek" unicode="&#x104;" horiz-adv-x="784" 
d="M548 0l-50 358h-211l-51 -358h-218l224 1365h301l224 -1365q-101 -84 -101 -155q0 -76 98 -76q31 0 63 12l-16 -117q-40 -15 -80 -15q-86 0 -136.5 41t-50.5 110q0 98 117 200h-113zM473 542l-81 569l-79 -569h160z" />
    <glyph glyph-name="aogonek" unicode="&#x105;" horiz-adv-x="681" 
d="M628 -219l-16 -117q-37 -14 -72 -14q-76 0 -125 42t-49 106q0 105 124 202h-86v75q-43 -50 -79.5 -69.5t-88.5 -19.5q-71 0 -114 46q-34 37 -43 82q-12 61 -12 152q0 175 39 235q22 33 56.5 58t126.5 76q68 38 91.5 68t23.5 81q0 97 -75 97q-42 0 -59.5 -31.5
t-17.5 -104.5v-49h-185q1 106 11 159t36 93q62 97 218 97q182 0 236 -108q27 -53 27 -196v-741q-51 -33 -79 -74t-28 -81q0 -33 24 -54.5t62 -21.5q21 0 54 12zM404 518q-84 -37 -115 -85.5t-31 -142.5q0 -81 12.5 -111t45.5 -30q54 0 78 66q10 28 10 108v195z" />
    <glyph glyph-name="Cacute" unicode="&#x106;" horiz-adv-x="783" 
d="M730 922h-210q0 176 -15 225q-20 61 -96 61q-91 0 -107 -107q-7 -45 -7 -289q0 -406 4 -517q2 -66 30.5 -101.5t79.5 -35.5q45 0 73 28t35 79q2 21 4 220h210q-4 -166 -7.5 -213t-18.5 -101q-31 -115 -146 -162q-69 -29 -150 -29q-96 0 -172 39q-114 59 -137 211
q-14 93 -14 481q0 302 12.5 405t54.5 160q82 109 256 109q131 0 213 -65q76 -60 96 -184q9 -56 12 -214zM403 1739h244l-190 -235h-143z" />
    <glyph glyph-name="cacute" unicode="&#x107;" horiz-adv-x="661" 
d="M605 669h-191v92q0 68 -13 89q-18 31 -61 31t-58.5 -25t-15.5 -95v-491q0 -68 13 -89q18 -31 61 -31t58.5 25t15.5 95v167h191q0 -172 -10 -241q-17 -113 -97 -167q-65 -43 -160 -43q-183 0 -237 147q-16 44 -21 109.5t-5 224.5q0 252 5.5 326.5t26.5 121.5
q59 130 230 130q148 0 214 -94q30 -44 42 -106.5t12 -175.5zM339 1388h232l-189 -242h-136z" />
    <glyph glyph-name="Ccircumflex" unicode="&#x108;" horiz-adv-x="783" 
d="M730 922h-210q0 176 -15 225q-20 61 -96 61q-91 0 -107 -107q-7 -45 -7 -289q0 -406 4 -517q2 -66 30.5 -101.5t79.5 -35.5q45 0 73 28t35 79q2 21 4 220h210q-4 -166 -7.5 -213t-18.5 -101q-31 -115 -146 -162q-69 -29 -150 -29q-96 0 -172 39q-114 59 -137 211
q-14 93 -14 481q0 302 12.5 405t54.5 160q82 109 256 109q131 0 213 -65q76 -60 96 -184q9 -56 12 -214zM306 1739h171l145 -235h-168l-63 122l-63 -122h-167z" />
    <glyph glyph-name="ccircumflex" unicode="&#x109;" horiz-adv-x="661" 
d="M605 669h-191v92q0 68 -13 89q-18 31 -61 31t-58.5 -25t-15.5 -95v-491q0 -68 13 -89q18 -31 61 -31t58.5 25t15.5 95v167h191q0 -172 -10 -241q-17 -113 -97 -167q-65 -43 -160 -43q-183 0 -237 147q-16 44 -21 109.5t-5 224.5q0 252 5.5 326.5t26.5 121.5
q59 130 230 130q148 0 214 -94q30 -44 42 -106.5t12 -175.5zM247 1388h167l141 -242h-160l-65 129l-64 -129h-160z" />
    <glyph glyph-name="Cdotaccent" unicode="&#x10a;" horiz-adv-x="783" 
d="M520 922q0 176 -15 225q-20 61 -96 61q-91 0 -107 -107q-7 -45 -7 -289q0 -406 4 -517q2 -66 30.5 -101.5t79.5 -35.5q45 0 73 28t35 79q2 21 4 220h210q-4 -166 -7.5 -213t-18.5 -101q-31 -115 -146 -162q-69 -29 -150 -29q-96 0 -172 39q-114 59 -137 211
q-14 93 -14 481q0 302 12.5 405t54.5 160q82 109 256 109q131 0 213 -65q76 -60 96 -184q9 -56 12 -214h-210zM297 1734h190v-224h-190v224z" />
    <glyph glyph-name="cdotaccent" unicode="&#x10b;" horiz-adv-x="661" 
d="M605 669h-191v92q0 68 -13 89q-18 31 -61 31t-58.5 -25t-15.5 -95v-491q0 -68 13 -89q18 -31 61 -31t58.5 25t15.5 95v167h191q0 -172 -10 -241q-17 -113 -97 -167q-65 -43 -160 -43q-183 0 -237 147q-16 44 -21 109.5t-5 224.5q0 252 5.5 326.5t26.5 121.5
q59 130 230 130q148 0 214 -94q30 -44 42 -106.5t12 -175.5zM246 1379h183v-224h-183v224z" />
    <glyph glyph-name="Ccaron" unicode="&#x10c;" horiz-adv-x="783" 
d="M730 922h-210q0 176 -15 225q-20 61 -96 61q-91 0 -107 -107q-7 -45 -7 -289q0 -406 4 -517q2 -66 30.5 -101.5t79.5 -35.5q45 0 73 28t35 79q2 21 4 220h210q-4 -166 -7.5 -213t-18.5 -101q-31 -115 -146 -162q-69 -29 -150 -29q-96 0 -172 39q-114 59 -137 211
q-14 93 -14 481q0 302 12.5 405t54.5 160q82 109 256 109q131 0 213 -65q76 -60 96 -184q9 -56 12 -214zM330 1504l-145 235h167l63 -122l63 122h168l-145 -235h-171z" />
    <glyph glyph-name="ccaron" unicode="&#x10d;" horiz-adv-x="661" 
d="M605 669h-191v92q0 68 -13 89q-18 31 -61 31t-58.5 -25t-15.5 -95v-491q0 -68 13 -89q18 -31 61 -31t58.5 25t15.5 95v167h191q0 -172 -10 -241q-17 -113 -97 -167q-65 -43 -160 -43q-183 0 -237 147q-16 44 -21 109.5t-5 224.5q0 252 5.5 326.5t26.5 121.5
q59 130 230 130q148 0 214 -94q30 -44 42 -106.5t12 -175.5zM257 1146l-142 242h161l64 -129l64 129h161l-142 -242h-166z" />
    <glyph glyph-name="Dcaron" unicode="&#x10e;" horiz-adv-x="835" 
d="M102 1365h243q139 0 204 -20q82 -25 125.5 -86.5t59.5 -174.5q15 -106 15 -401q0 -332 -21 -438q-19 -93 -60 -146.5t-112 -76.5q-69 -22 -211 -22h-243v1365zM312 1181v-997h43q102 0 138 35q29 27 37.5 112t8.5 340q0 273 -7 359.5t-32 114.5q-31 36 -132 36h-56z
M308 1504l-145 235h167l63 -122l63 122h167l-145 -235h-170z" />
    <glyph glyph-name="dcaron" unicode="&#x10f;" horiz-adv-x="953" 
d="M604 1365v-1365h-191v75q-47 -53 -79 -71t-79 -18q-60 0 -105.5 35t-58.5 91q-12 49 -14 109.5t-3 376.5v77q0 201 22 259q19 51 63.5 81t100.5 30q47 0 81 -19.5t72 -69.5v409h191zM413 366v272q0 120 -7 157q-18 86 -76 86q-56 0 -62 -72q-3 -36 -3 -317
q0 -247 14 -296q12 -46 50 -46t62 45q22 40 22 171zM763 1365h191l-175 -323h-82z" />
    <glyph glyph-name="Dcroat" unicode="&#x110;" horiz-adv-x="835" 
d="M103 642h-89v150h89v573h242q115 0 165.5 -8.5t96.5 -36.5q114 -68 131 -271q11 -132 11 -366q0 -250 -11 -360.5t-42 -179.5q-44 -97 -164 -130q-50 -13 -187 -13h-242v642zM313 642v-458q95 1 126.5 7t53.5 28q34 32 41 175q5 97 5 289q0 267 -9.5 355t-41.5 113
q-23 19 -53 24t-122 6v-389h115v-150h-115z" />
    <glyph glyph-name="dcroat" unicode="&#x111;" horiz-adv-x="693" 
d="M605 1365v-123h82v-123h-82v-1119h-191v75q-47 -53 -79 -71t-79 -18q-60 0 -105.5 35t-58.5 91q-12 48 -14 109t-3 377v77q0 201 22 259q19 51 63.5 81t99.5 30q48 0 82 -19.5t72 -69.5v163h-135v123h135v123h191zM414 366v272q0 120 -7 157q-18 86 -76 86q-56 0 -62 -72
q-3 -36 -3 -317q0 -247 14 -296q12 -46 50 -46t62 45q22 40 22 171z" />
    <glyph glyph-name="Emacron" unicode="&#x112;" horiz-adv-x="735" 
d="M669 1365v-184h-357v-379h329v-184h-329v-434h357v-184h-567v1365h567zM141 1689h452v-135h-452v135z" />
    <glyph glyph-name="emacron" unicode="&#x113;" horiz-adv-x="680" 
d="M605 478h-339v-209q0 -67 13 -88q18 -31 61 -31t58.5 25t15.5 94v113h191q-1 -190 -30 -258q-59 -138 -237 -138q-177 0 -233 138q-19 46 -24.5 117t-5.5 260q0 223 5 290.5t25 115.5q57 138 233 138q180 0 237 -139q24 -59 29 -170q1 -18 1 -229v-29zM414 628v133
q0 69 -13 89q-18 31 -61 31t-58.5 -25.5t-15.5 -94.5v-133h148zM138 1330h418v-132h-418v132z" />
    <glyph glyph-name="Ebreve" unicode="&#x114;" horiz-adv-x="735" 
d="M669 1365v-184h-357v-379h329v-184h-329v-434h357v-184h-567v1365h567zM486 1737h128q-10 -67 -43 -118q-73 -113 -202 -113q-103 0 -173.5 66t-74.5 165h128q28 -94 118 -94t119 94z" />
    <glyph glyph-name="ebreve" unicode="&#x115;" horiz-adv-x="680" 
d="M605 478h-339v-209q0 -67 13 -88q18 -31 61 -31t58.5 25t15.5 94v113h191q-1 -190 -30 -258q-59 -138 -237 -138q-177 0 -233 138q-19 46 -24.5 117t-5.5 260q0 223 5 290.5t25 115.5q57 138 233 138q180 0 237 -139q24 -59 29 -170q1 -18 1 -229v-29zM414 628v133
q0 69 -13 89q-18 31 -61 31t-58.5 -25.5t-15.5 -94.5v-133h148zM457 1383h129q-9 -77 -32 -119q-29 -52 -84.5 -82.5t-121.5 -30.5t-122.5 30.5t-87.5 82.5q-27 45 -31 119h129q17 -55 41 -77t69 -22q89 0 111 99z" />
    <glyph glyph-name="Edotaccent" unicode="&#x116;" horiz-adv-x="735" 
d="M669 1365v-184h-357v-379h329v-184h-329v-434h357v-184h-567v1365h567zM291 1734h190v-224h-190v224z" />
    <glyph glyph-name="edotaccent" unicode="&#x117;" horiz-adv-x="680" 
d="M605 478h-339v-209q0 -67 13 -88q18 -31 61 -31t58.5 25t15.5 94v113h191q-1 -190 -30 -258q-59 -138 -237 -138q-177 0 -233 138q-19 46 -24.5 117t-5.5 260q0 223 5 290.5t25 115.5q57 138 233 138q180 0 237 -139q24 -59 29 -170q1 -18 1 -229v-29zM414 628v133
q0 69 -13 89q-18 31 -61 31t-58.5 -25.5t-15.5 -94.5v-133h148zM255 1379h183v-224h-183v224z" />
    <glyph glyph-name="Eogonek" unicode="&#x118;" horiz-adv-x="735" 
d="M730 -219l-16 -117q-40 -15 -81 -15q-85 0 -135.5 41t-50.5 110q0 99 117 200h-462v1365h567v-184h-357v-379h329v-184h-329v-434h357v-184q-100 -84 -100 -155q0 -76 98 -76q31 0 63 12z" />
    <glyph glyph-name="eogonek" unicode="&#x119;" horiz-adv-x="680" 
d="M567 -198l-16 -117q-37 -14 -73 -14q-77 0 -125.5 42t-48.5 110q0 49 24 87t87 85q-60 -9 -93 -9q-74 0 -133.5 38t-83.5 100q-19 47 -24.5 118t-5.5 258q0 224 5 291.5t25 115.5q57 138 233 138q180 0 237 -139q24 -59 29 -170q1 -18 1 -229v-29h-339v-209q0 -67 13 -88
q18 -31 61 -31t58.5 25t15.5 94v113h191q0 -160 -20.5 -230t-88.5 -149q-70 -80 -70 -139q0 -31 24.5 -52.5t61.5 -21.5q21 0 55 12zM414 628v133q0 69 -13 89q-18 31 -61 31t-58.5 -25.5t-15.5 -94.5v-133h148z" />
    <glyph glyph-name="Ecaron" unicode="&#x11a;" horiz-adv-x="735" 
d="M669 1365v-184h-357v-379h329v-184h-329v-434h357v-184h-567v1365h567zM300 1504l-145 235h168l63 -122l63 122h167l-145 -235h-171z" />
    <glyph glyph-name="ecaron" unicode="&#x11b;" horiz-adv-x="680" 
d="M605 478h-339v-209q0 -67 13 -88q18 -31 61 -31t58.5 25t15.5 94v113h191q-1 -190 -30 -258q-59 -138 -237 -138q-177 0 -233 138q-19 46 -24.5 117t-5.5 260q0 223 5 290.5t25 115.5q57 138 233 138q180 0 237 -139q24 -59 29 -170q1 -18 1 -229v-29zM414 628v133
q0 69 -13 89q-18 31 -61 31t-58.5 -25.5t-15.5 -94.5v-133h148zM263 1146l-141 242h160l65 -129l64 129h161l-142 -242h-167z" />
    <glyph glyph-name="Gcircumflex" unicode="&#x11c;" horiz-adv-x="824" 
d="M731 922h-210q-1 163 -8 194q-18 92 -105 92q-63 0 -93 -56q-20 -38 -19 -191q0 -89 -1 -278q-1 -108 -1 -157q0 -220 12 -276q20 -93 101 -93q75 0 102 79q12 36 12 166v144h-131v184h341v-730h-210v68q-45 -49 -85.5 -68.5t-99.5 -19.5q-213 0 -238 282
q-13 152 -13 527q0 238 11 317q15 116 64 177q81 102 246 102q135 0 217 -65q76 -60 96 -184q8 -55 12 -214zM327 1739h170l145 -235h-167l-63 122l-63 -122h-167z" />
    <glyph glyph-name="gcircumflex" unicode="&#x11d;" horiz-adv-x="691" 
d="M605 1031v-1004q0 -132 -29 -182q-57 -98 -232 -98q-109 0 -173 33q-96 50 -96 167q0 17 1 32h191q0 -37 16.5 -52.5t55.5 -15.5q49 0 62 18t13 85v95q-45 -45 -77 -60.5t-79 -15.5q-118 0 -161 110q-15 37 -18 97t-3 312q0 231 4 293t22 100q21 46 65 73t96 27
q47 0 80.5 -19.5t70.5 -69.5v75h191zM414 412v226q0 121 -8 161q-18 82 -73 82q-47 0 -59 -54q-5 -19 -6 -154q-1 -158 -1 -203q0 -173 11 -223.5t49 -50.5q40 0 67 42q20 32 20 174zM262 1388h167l141 -242h-160l-65 129l-64 -129h-160z" />
    <glyph glyph-name="Gbreve" unicode="&#x11e;" horiz-adv-x="824" 
d="M731 922h-210q-1 163 -8 194q-18 92 -105 92q-63 0 -93 -56q-20 -38 -19 -191q0 -89 -1 -278q-1 -108 -1 -157q0 -220 12 -276q20 -93 101 -93q75 0 102 79q12 36 12 166v144h-131v184h341v-730h-210v68q-45 -49 -85.5 -68.5t-99.5 -19.5q-213 0 -238 282
q-13 152 -13 527q0 238 11 317q15 116 64 177q81 102 246 102q135 0 217 -65q76 -60 96 -184q8 -55 12 -214zM530 1737h129q-10 -67 -43 -118q-74 -113 -203 -113q-102 0 -172.5 66t-75.5 165h129q28 -94 118 -94t118 94z" />
    <glyph glyph-name="gbreve" unicode="&#x11f;" horiz-adv-x="691" 
d="M605 1031v-1004q0 -132 -29 -182q-57 -98 -232 -98q-109 0 -173 33q-96 50 -96 167q0 17 1 32h191q0 -37 16.5 -52.5t55.5 -15.5q49 0 62 18t13 85v95q-45 -45 -77 -60.5t-79 -15.5q-118 0 -161 110q-15 37 -18 97t-3 312q0 231 4 293t22 100q21 46 65 73t96 27
q47 0 80.5 -19.5t70.5 -69.5v75h191zM414 412v226q0 121 -8 161q-18 82 -73 82q-47 0 -59 -54q-5 -19 -6 -154q-1 -158 -1 -203q0 -173 11 -223.5t49 -50.5q40 0 67 42q20 32 20 174zM464 1383h129q-9 -77 -32 -119q-29 -52 -84.5 -82.5t-121.5 -30.5t-122.5 30.5
t-87.5 82.5q-27 45 -31 119h129q17 -55 41 -77t69 -22q89 0 111 99z" />
    <glyph glyph-name="Gdotaccent" unicode="&#x120;" horiz-adv-x="824" 
d="M731 922h-210q-1 163 -8 194q-18 92 -105 92q-63 0 -93 -56q-20 -38 -19 -191q0 -89 -1 -278q-1 -108 -1 -157q0 -220 12 -276q20 -93 101 -93q75 0 102 79q12 36 12 166v144h-131v184h341v-730h-210v68q-45 -49 -85.5 -68.5t-99.5 -19.5q-213 0 -238 282
q-13 152 -13 527q0 238 11 317q15 116 64 177q81 102 246 102q135 0 217 -65q76 -60 96 -184q8 -55 12 -214zM317 1734h190v-224h-190v224z" />
    <glyph glyph-name="gdotaccent" unicode="&#x121;" horiz-adv-x="691" 
d="M605 1031v-1004q0 -132 -29 -182q-57 -98 -232 -98q-109 0 -173 33q-96 50 -96 167q0 17 1 32h191q0 -37 16.5 -52.5t55.5 -15.5q49 0 62 18t13 85v95q-45 -45 -77 -60.5t-79 -15.5q-118 0 -161 110q-15 37 -18 97t-3 312q0 231 4 293t22 100q21 46 65 73t96 27
q47 0 80.5 -19.5t70.5 -69.5v75h191zM414 412v226q0 121 -8 161q-18 82 -73 82q-47 0 -59 -54q-5 -19 -6 -154q-1 -158 -1 -203q0 -173 11 -223.5t49 -50.5q40 0 67 42q20 32 20 174zM254 1379h183v-224h-183v224z" />
    <glyph glyph-name="Gcommaaccent" unicode="&#x122;" horiz-adv-x="824" 
d="M731 922h-210q-1 163 -8 194q-18 92 -105 92q-63 0 -93 -56q-20 -38 -19 -191q0 -89 -1 -278q-1 -108 -1 -157q0 -220 12 -276q20 -93 101 -93q75 0 102 79q12 36 12 166v144h-131v184h341v-730h-210v68q-45 -49 -85.5 -68.5t-99.5 -19.5q-213 0 -238 282
q-13 152 -13 527q0 238 11 317q15 116 64 177q81 102 246 102q135 0 217 -65q76 -60 96 -184q8 -55 12 -214zM335 -137h216l-190 -289h-116z" />
    <glyph glyph-name="gcommaaccent" unicode="&#x123;" horiz-adv-x="691" 
d="M605 1031v-1004q0 -132 -29 -182q-57 -98 -232 -98q-109 0 -173 33q-96 50 -96 167q0 17 1 32h191q0 -37 16.5 -52.5t55.5 -15.5q49 0 62 18t13 85v95q-45 -45 -77 -60.5t-79 -15.5q-118 0 -161 110q-15 37 -18 97t-3 312q0 231 4 293t22 100q21 46 65 73t96 27
q47 0 80.5 -19.5t70.5 -69.5v75h191zM414 412v226q0 121 -8 161q-18 82 -73 82q-47 0 -59 -54q-5 -19 -6 -154q-1 -158 -1 -203q0 -173 11 -223.5t49 -50.5q40 0 67 42q20 32 20 174zM415 1146h-232l189 242h136z" />
    <glyph glyph-name="Hcircumflex" unicode="&#x124;" horiz-adv-x="845" 
d="M312 1365v-555h220v555h210v-1365h-210v626h-220v-626h-210v1365h210zM337 1739h170l145 -235h-167l-63 122l-63 -122h-167z" />
    <glyph glyph-name="Hbar" unicode="&#x126;" horiz-adv-x="845" 
d="M313 1121h220v244h210v-244h111v-135h-111v-986h-210v626h-220v-626h-210v986h-111v135h111v244h210v-244zM313 986v-176h220v176h-220z" />
    <glyph glyph-name="hbar" unicode="&#x127;" horiz-adv-x="699" 
d="M86 1146h-93v132h93v87h191v-87h186v-132h-186v-190q76 89 173 89q117 0 152 -105q15 -45 15 -181v-759h-191v670q0 124 -5 151q-11 60 -58 60q-55 0 -76 -78q-10 -36 -10 -144v-659h-191v1146z" />
    <glyph glyph-name="Itilde" unicode="&#x128;" horiz-adv-x="414" 
d="M312 1365v-1365h-210v1365h210zM81 1521h-137q7 68 23 105q18 42 55.5 67.5t81.5 25.5q32 0 49 -5.5t87 -40.5q19 -9 39 -9q36 0 53 60h138q-8 -91 -50 -145.5t-105 -54.5q-32 0 -52 6t-97 40q-24 11 -41 11q-37 0 -44 -60z" />
    <glyph glyph-name="itilde" unicode="&#x129;" horiz-adv-x="363" 
d="M277 1031v-1031h-191v1031h191zM64 1167h-132q4 60 24 101q47 93 129 93q26 0 42.5 -6t86.5 -41q19 -9 35 -9q34 0 50 60h131q-4 -91 -56 -149q-43 -47 -92 -47q-42 0 -142 47q-22 11 -38 11q-30 0 -38 -60z" />
    <glyph glyph-name="Imacron" unicode="&#x12a;" horiz-adv-x="414" 
d="M312 1365v-1365h-210v1365h210zM8 1689h398v-135h-398v135z" />
    <glyph glyph-name="imacron" unicode="&#x12b;" horiz-adv-x="363" 
d="M277 1031v-1031h-191v1031h191zM-14 1330h391v-132h-391v132z" />
    <glyph glyph-name="ibreve" unicode="&#x12d;" horiz-adv-x="363" 
d="M277 1031v-1031h-191v1031h191zM306 1369h120q-11 -69 -44 -119q-74 -113 -204 -113q-93 0 -159 63.5t-82 168.5h119q25 -54 52.5 -74.5t72.5 -20.5q46 0 73 20.5t52 74.5z" />
    <glyph glyph-name="Iogonek" unicode="&#x12e;" horiz-adv-x="414" 
d="M373 -219l-17 -117q-39 -15 -80 -15q-85 0 -136 41t-51 109q0 72 47 129q15 18 70 72h-104v1365h210v-1365q-101 -84 -101 -155q0 -76 99 -76q30 0 63 12z" />
    <glyph glyph-name="iogonek" unicode="&#x12f;" horiz-adv-x="363" 
d="M313 -219l-16 -117q-37 -14 -73 -14q-76 0 -125 42t-49 107q0 104 124 201h-88v1031h191l3 -1031q-51 -33 -79.5 -74t-28.5 -81q0 -33 24.5 -54.5t61.5 -21.5q21 0 55 12zM277 1365v-224h-191v224h191z" />
    <glyph glyph-name="Idotaccent" unicode="&#x130;" horiz-adv-x="414" 
d="M312 1365v-1365h-210v1365h210zM112 1734h190v-224h-190v224z" />
    <glyph glyph-name="dotlessi" unicode="&#x131;" horiz-adv-x="363" 
d="M277 1031v-1031h-191v1031h191z" />
    <glyph glyph-name="IJ" unicode="&#x132;" horiz-adv-x="1006" 
d="M312 1365v-1365h-210v1365h210zM700 1365h210v-910q-1 -174 -4 -219q-10 -129 -93 -198q-70 -58 -173 -58q-175 0 -242 149q-18 41 -23 98.5t-5 227.5v23h182v-27q0 -191 11 -230q17 -63 63 -63q47 0 64 63q10 40 10 230v914z" />
    <glyph glyph-name="ij" unicode="&#x133;" horiz-adv-x="699" 
d="M277 1031v-1031h-191v1031h191zM277 1365v-224h-191v224h191zM613 1031v-1119q0 -94 -36.5 -129.5t-134.5 -35.5q-33 0 -76 5v160q36 1 46 19t10 83v1017h191zM613 1365v-226h-191v226h191z" />
    <glyph glyph-name="Kcommaaccent" unicode="&#x136;" horiz-adv-x="823" 
d="M312 1365v-596l257 596h229l-268 -576l289 -789h-226l-189 557l-92 -205v-352h-210v1365h210zM334 -137h216l-190 -289h-115z" />
    <glyph glyph-name="kcommaaccent" unicode="&#x137;" horiz-adv-x="679" 
d="M277 1365v-767l175 433h205l-205 -462l205 -569h-205l-175 533v-533h-191v1365h191zM256 -109h192l-175 -296h-110z" />
    <glyph glyph-name="Lacute" unicode="&#x139;" horiz-adv-x="694" 
d="M312 1365v-1181h357v-184h-567v1365h210zM207 1739h243l-190 -235h-143z" />
    <glyph glyph-name="lacute" unicode="&#x13a;" horiz-adv-x="363" 
d="M277 1365v-1365h-191v1365h191zM166 1712h237l-170 -235h-143z" />
    <glyph glyph-name="Lcommaaccent" unicode="&#x13b;" horiz-adv-x="694" 
d="M312 1365v-1181h357v-184h-567v1365h210zM270 -137h216l-190 -289h-116z" />
    <glyph glyph-name="lcommaaccent" unicode="&#x13c;" horiz-adv-x="363" 
d="M277 1365v-1365h-191v1365h191zM98 -109h191l-175 -296h-109z" />
    <glyph glyph-name="Lcaron" unicode="&#x13d;" horiz-adv-x="694" 
d="M312 1365v-1181h357v-184h-567v1365h210zM489 1365h202l-176 -317h-103z" />
    <glyph glyph-name="lcaron" unicode="&#x13e;" horiz-adv-x="625" 
d="M277 1365v-1365h-191v1365h191zM436 1365h191l-175 -323h-82z" />
    <glyph glyph-name="Ldot" unicode="&#x13f;" horiz-adv-x="694" 
d="M312 1365v-1181h357v-184h-567v1365h210zM437 831h238v-299h-238v299z" />
    <glyph glyph-name="ldot" unicode="&#x140;" horiz-adv-x="624" 
d="M277 1365v-1365h-191v1365h191zM395 725h198v-249h-198v249z" />
    <glyph glyph-name="Lslash" unicode="&#x141;" horiz-adv-x="694" 
d="M313 774l204 205v-188l-204 -206v-401h357v-184h-567v426l-89 -88v189l89 88v750h210v-591z" />
    <glyph glyph-name="lslash" unicode="&#x142;" horiz-adv-x="443" 
d="M317 857l105 105v-171l-105 -105v-686h-191v543l-106 -104v170l106 105v651h191v-508z" />
    <glyph glyph-name="Nacute" unicode="&#x143;" horiz-adv-x="894" 
d="M102 0v1365h229l250 -900v900h210v-1365h-237l-242 825v-825h-210zM445 1739h243l-190 -235h-143z" />
    <glyph glyph-name="nacute" unicode="&#x144;" horiz-adv-x="699" 
d="M277 0h-191v1031h191v-75q41 49 80 69t92 20q116 0 152 -104q15 -45 15 -182v-759h-191v670q0 125 -5 151q-12 60 -57 60q-57 0 -77 -78q-9 -37 -9 -144v-659zM345 1388h232l-188 -242h-137z" />
    <glyph glyph-name="Ncommaaccent" unicode="&#x145;" horiz-adv-x="894" 
d="M102 0v1365h229l250 -900v900h210v-1365h-237l-242 825v-825h-210zM370 -137h216l-190 -289h-116z" />
    <glyph glyph-name="ncommaaccent" unicode="&#x146;" horiz-adv-x="699" 
d="M277 0h-191v1031h191v-75q41 49 80 69t92 20q116 0 152 -104q15 -45 15 -182v-759h-191v670q0 125 -5 151q-12 60 -57 60q-57 0 -77 -78q-9 -37 -9 -144v-659zM266 -109h192l-176 -296h-109z" />
    <glyph glyph-name="Ncaron" unicode="&#x147;" horiz-adv-x="894" 
d="M102 0v1365h229l250 -900v900h210v-1365h-237l-242 825v-825h-210zM361 1504l-145 235h168l63 -122l63 122h167l-145 -235h-171z" />
    <glyph glyph-name="ncaron" unicode="&#x148;" horiz-adv-x="699" 
d="M277 0h-191v1031h191v-75q41 49 80 69t92 20q116 0 152 -104q15 -45 15 -182v-759h-191v670q0 125 -5 151q-12 60 -57 60q-57 0 -77 -78q-9 -37 -9 -144v-659zM261 1146l-141 242h160l64 -129l65 129h160l-142 -242h-166z" />
    <glyph glyph-name="napostrophe" unicode="&#x149;" horiz-adv-x="914" 
d="M86 1365h180v-215l-180 -229v132l86 97h-86v215zM492 0h-191v1031h191v-75q75 89 172 89q116 0 152 -104q15 -45 15 -182v-759h-191v670q0 125 -5 151q-12 60 -57 60q-57 0 -77 -78q-9 -37 -9 -144v-659z" />
    <glyph glyph-name="Omacron" unicode="&#x14c;" horiz-adv-x="818" 
d="M413 1385q200 0 275 -148q27 -55 35.5 -159t8.5 -395q0 -321 -11 -423.5t-51 -162.5q-81 -117 -261 -117q-204 0 -278 148q-28 55 -36.5 160.5t-8.5 405.5q0 311 11 413t51 161q81 117 265 117zM409 1208q-93 0 -106 -107q-7 -52 -7 -422q0 -380 9 -430q16 -92 102 -92
q95 0 108 107q7 50 7 383q0 421 -9 469q-16 92 -104 92zM183 1689h452v-135h-452v135z" />
    <glyph glyph-name="omacron" unicode="&#x14d;" horiz-adv-x="681" 
d="M340 1045q183 0 239 -148q18 -50 22 -105.5t4 -275.5q0 -230 -5 -279q-15 -133 -80 -192q-64 -59 -181 -59q-182 0 -238 148q-18 50 -22 105.5t-4 276.5q0 228 6 278q14 133 79 192q64 59 180 59zM266 761v-491q0 -66 12 -87q18 -33 62 -33q43 0 58.5 25t15.5 95v491
q0 66 -12 87q-18 33 -62 33q-43 0 -58.5 -25t-15.5 -95zM131 1330h418v-132h-418v132z" />
    <glyph glyph-name="Obreve" unicode="&#x14e;" horiz-adv-x="818" 
d="M413 1385q200 0 275 -148q27 -55 35.5 -159t8.5 -395q0 -321 -11 -423.5t-51 -162.5q-81 -117 -261 -117q-204 0 -278 148q-28 55 -36.5 160.5t-8.5 405.5q0 311 11 413t51 161q81 117 265 117zM409 1208q-93 0 -106 -107q-7 -52 -7 -422q0 -380 9 -430q16 -92 102 -92
q95 0 108 107q7 50 7 383q0 421 -9 469q-16 92 -104 92zM527 1737h129q-10 -67 -43 -118q-73 -113 -202 -113q-103 0 -173.5 66t-75.5 165h129q28 -94 118 -94t118 94z" />
    <glyph glyph-name="obreve" unicode="&#x14f;" horiz-adv-x="681" 
d="M340 1045q183 0 239 -148q18 -50 22 -105.5t4 -275.5q0 -230 -5 -279q-15 -133 -80 -192q-64 -59 -181 -59q-182 0 -238 148q-18 50 -22 105.5t-4 276.5q0 228 6 278q14 133 79 192q64 59 180 59zM266 761v-491q0 -66 12 -87q18 -33 62 -33q43 0 58.5 25t15.5 95v491
q0 66 -12 87q-18 33 -62 33q-43 0 -58.5 -25t-15.5 -95zM450 1383h129q-9 -77 -32 -119q-29 -52 -84.5 -82.5t-121.5 -30.5t-122.5 30.5t-87.5 82.5q-27 45 -31 119h129q17 -55 41 -77t69 -22q89 0 111 99z" />
    <glyph glyph-name="Ohungarumlaut" unicode="&#x150;" horiz-adv-x="819" 
d="M413 1385q200 0 275 -148q27 -55 35.5 -159t8.5 -395q0 -321 -11 -423.5t-51 -162.5q-81 -117 -261 -117q-204 0 -278 148q-28 55 -36.5 160.5t-8.5 405.5q0 311 11 413t51 161q81 117 265 117zM409 1208q-93 0 -106 -107q-7 -52 -7 -422q0 -380 9 -430q16 -92 102 -92
q95 0 108 107q7 50 7 383q0 421 -9 469q-16 92 -104 92zM257 1739h203l-163 -235h-116zM551 1739h209l-169 -235h-116z" />
    <glyph glyph-name="ohungarumlaut" unicode="&#x151;" horiz-adv-x="681" 
d="M340 1045q183 0 239 -148q18 -50 22 -105.5t4 -275.5q0 -230 -5 -279q-15 -133 -80 -192q-64 -59 -181 -59q-182 0 -238 148q-18 50 -22 105.5t-4 276.5q0 228 6 278q14 133 79 192q64 59 180 59zM266 761v-491q0 -66 12 -87q18 -33 62 -33q43 0 58.5 25t15.5 95v491
q0 66 -12 87q-18 33 -62 33q-43 0 -58.5 -25t-15.5 -95zM240 1388h198l-174 -242h-103zM506 1388h197l-173 -242h-103z" />
    <glyph glyph-name="OE" unicode="&#x152;" horiz-adv-x="1153" 
d="M1087 1365v-184h-355v-379h327v-184h-327v-434h355v-184h-635q-173 0 -256 63q-73 57 -91.5 160t-18.5 460q0 240 5.5 339.5t21.5 157.5q38 134 193 172q52 13 147 13h634zM409 1188q-94 0 -107 -102q-6 -42 -6 -405q0 -375 8 -416t36 -64.5t67 -23.5q97 0 110 102
q6 42 6 382q0 399 -8 439q-8 41 -36 64.5t-70 23.5z" />
    <glyph glyph-name="oe" unicode="&#x153;" horiz-adv-x="1019" 
d="M944 478h-339v-209q0 -67 13 -88q19 -31 61 -31q43 0 58.5 25t15.5 94v113h191q0 -188 -30 -258q-59 -138 -235 -138q-105 0 -171 52q-70 -52 -174 -52q-188 0 -238 161q-13 44 -17 110t-4 259q0 209 5 276.5t25 114.5q56 138 229 138q99 0 174 -50q71 50 171 50
q191 0 244 -161q15 -48 18 -98.5t3 -278.5v-29zM753 628v133q0 68 -13 89q-18 31 -61 31t-58.5 -25t-15.5 -95v-133h148zM266 761v-492q0 -65 11 -86q18 -33 63 -33q43 0 58.5 25t15.5 94v492q0 66 -12 87q-18 33 -62 33q-43 0 -58.5 -25t-15.5 -95z" />
    <glyph glyph-name="Racute" unicode="&#x154;" horiz-adv-x="808" 
d="M102 0v1365h270q157 0 224 -33q79 -38 109 -126q23 -68 23 -188q0 -146 -48 -220q-26 -40 -79 -67q69 -32 98 -76.5t29 -119.5v-406q0 -84 26 -129h-224q-12 60 -12 108v285q0 91 -7.5 131t-29.5 64q-34 37 -118 37h-51v-625h-210zM312 795h50q93 0 124.5 39.5
t31.5 156.5q0 119 -31 154.5t-135 35.5h-40v-386zM385 1739h243l-190 -235h-143z" />
    <glyph glyph-name="racute" unicode="&#x155;" horiz-adv-x="548" 
d="M86 1031h191v-123q44 80 88.5 108.5t124.5 28.5h33v-208q-101 0 -136 -5.5t-59 -27.5q-31 -27 -41 -71.5t-10 -152.5v-580h-191v1031zM290 1388h232l-188 -242h-137z" />
    <glyph glyph-name="Rcommaaccent" unicode="&#x156;" horiz-adv-x="808" 
d="M102 0v1365h270q157 0 224 -33q79 -38 109 -126q23 -68 23 -188q0 -146 -48 -220q-26 -40 -79 -67q69 -32 98 -76.5t29 -119.5v-406q0 -84 26 -129h-224q-12 60 -12 108v285q0 91 -7.5 131t-29.5 64q-34 37 -118 37h-51v-625h-210zM312 795h50q93 0 124.5 39.5
t31.5 156.5q0 119 -31 154.5t-135 35.5h-40v-386zM327 -137h216l-190 -289h-116z" />
    <glyph glyph-name="rcommaaccent" unicode="&#x157;" horiz-adv-x="548" 
d="M86 1031h191v-123q44 80 88.5 108.5t124.5 28.5h33v-208q-102 0 -136.5 -5.5t-58.5 -27.5q-31 -27 -41 -71.5t-10 -152.5v-580h-191v1031zM122 -109h191l-175 -296h-109z" />
    <glyph glyph-name="Rcaron" unicode="&#x158;" horiz-adv-x="808" 
d="M102 0v1365h270q157 0 224 -33q79 -38 109 -126q23 -68 23 -188q0 -146 -48 -220q-26 -40 -79 -67q69 -32 98 -76.5t29 -119.5v-406q0 -84 26 -129h-224q-12 60 -12 108v285q0 91 -7.5 131t-29.5 64q-34 37 -118 37h-51v-625h-210zM312 795h50q93 0 124.5 39.5
t31.5 156.5q0 119 -31 154.5t-135 35.5h-40v-386zM308 1504l-145 235h168l62 -122l64 122h167l-145 -235h-171z" />
    <glyph glyph-name="rcaron" unicode="&#x159;" horiz-adv-x="548" 
d="M86 1031h191v-123q44 80 88.5 108.5t124.5 28.5h33v-208q-102 0 -136.5 -5.5t-58.5 -27.5q-31 -27 -41 -71.5t-10 -152.5v-580h-191v1031zM216 1146l-141 242h160l65 -129l64 129h161l-142 -242h-167z" />
    <glyph glyph-name="Sacute" unicode="&#x15a;" horiz-adv-x="760" 
d="M58 473h210q0 -168 9 -213q21 -103 106 -103q51 0 82 39.5t31 104.5q0 76 -38.5 141.5t-147.5 172.5q-142 141 -182 204q-63 102 -63 233q0 144 75 232q86 102 250 102q122 0 197 -53.5t95 -154.5q12 -64 12 -191q0 -17 -1 -61h-209q0 181 -13 216q-23 67 -91 67
q-49 0 -80 -38.5t-31 -100.5q0 -67 37 -125.5t151 -172.5q144 -143 194 -229q59 -102 59 -226q0 -146 -71 -237q-79 -101 -252 -101q-248 0 -306 201q-24 82 -23 293zM389 1739h243l-190 -235h-143z" />
    <glyph glyph-name="sacute" unicode="&#x15b;" horiz-adv-x="621" 
d="M570 701h-191q0 91 -9 122q-16 58 -68 58q-30 0 -48.5 -21t-18.5 -55q0 -39 26.5 -75.5t117.5 -121.5q119 -111 162.5 -185.5t43.5 -166.5q0 -130 -74 -202q-72 -68 -203 -68q-181 0 -238 141q-23 58 -24 210v46h191q0 -127 4 -153q13 -80 77 -80q34 0 55 27t21 69
q0 51 -29.5 93.5t-139.5 152.5q-113 111 -147 169.5t-34 140.5q0 125 86 192q67 51 182 51q146 0 211 -82q50 -65 50 -193q0 -19 -3 -69zM313 1388h232l-188 -242h-137z" />
    <glyph glyph-name="Scircumflex" unicode="&#x15c;" horiz-adv-x="760" 
d="M58 473h210q0 -168 9 -213q21 -103 106 -103q51 0 82 39.5t31 104.5q0 76 -38.5 141.5t-147.5 172.5q-142 141 -182 204q-63 102 -63 233q0 144 75 232q86 102 250 102q122 0 197 -53.5t95 -154.5q12 -64 12 -191q0 -17 -1 -61h-209q0 181 -13 216q-23 67 -91 67
q-49 0 -80 -38.5t-31 -100.5q0 -67 37 -125.5t151 -172.5q144 -143 194 -229q59 -102 59 -226q0 -146 -71 -237q-79 -101 -252 -101q-248 0 -306 201q-24 82 -23 293zM296 1739h170l145 -235h-167l-63 122l-63 -122h-167z" />
    <glyph glyph-name="scircumflex" unicode="&#x15d;" horiz-adv-x="621" 
d="M570 701h-191q0 91 -9 122q-16 58 -68 58q-30 0 -48.5 -21t-18.5 -55q0 -39 26.5 -75.5t117.5 -121.5q119 -111 162.5 -185.5t43.5 -166.5q0 -130 -74 -202q-72 -68 -203 -68q-181 0 -238 141q-23 58 -24 210v46h191q0 -127 4 -153q13 -80 77 -80q34 0 55 27t21 69
q0 51 -29.5 93.5t-139.5 152.5q-113 111 -147 169.5t-34 140.5q0 125 86 192q67 51 182 51q146 0 211 -82q50 -65 50 -193q0 -19 -3 -69zM231 1388h167l141 -242h-160l-65 129l-64 -129h-160z" />
    <glyph glyph-name="Scedilla" unicode="&#x15e;" horiz-adv-x="760" 
d="M400 -22l-56 -88q32 7 51 7q61 0 101.5 -37t40.5 -92q0 -70 -56 -113.5t-146 -43.5q-71 0 -154 33l23 63q60 -23 111 -23q95 0 95 75q0 30 -24 49.5t-61 19.5q-32 0 -62 -14l-27 31l83 138q-74 18 -101 29q-92 38 -126.5 136.5t-33.5 324.5h210q0 -168 9 -213
q21 -103 106 -103q51 0 82 39.5t31 104.5q0 76 -38.5 141.5t-147.5 172.5q-142 141 -182 204q-63 102 -63 233q0 144 75 232q86 102 250 102q122 0 197 -53.5t95 -154.5q12 -64 12 -191q0 -17 -1 -61h-209q0 181 -13 216q-23 67 -91 67q-49 0 -80 -38.5t-31 -100.5
q0 -67 37 -125.5t151 -171.5q145 -144 194 -230q59 -102 59 -226q0 -201 -125 -286q-64 -44 -185 -53z" />
    <glyph glyph-name="scedilla" unicode="&#x15f;" horiz-adv-x="621" 
d="M335 -13l-55 -91q31 7 49 7q57 0 95.5 -35t38.5 -88q0 -66 -53 -107.5t-139 -41.5q-65 0 -146 31l22 60q55 -22 107 -22q83 0 83 72q0 27 -21 45.5t-53 18.5t-60 -12l-26 29l80 135q-69 15 -100 32t-58 55q-31 44 -42 96.5t-11 165.5v46h191q0 -127 4 -153q13 -80 77 -80
q34 0 55 27t21 69q0 51 -29.5 93.5t-139.5 152.5q-113 111 -147 169.5t-34 140.5q0 125 86 192q67 51 182 51q146 0 211 -82q50 -65 50 -193q0 -19 -3 -69h-191q0 91 -9 122q-16 58 -68 58q-30 0 -48.5 -21t-18.5 -55q0 -39 26.5 -75.5t117.5 -121.5q119 -111 162.5 -185.5
t43.5 -166.5q0 -249 -250 -269z" />
    <glyph glyph-name="Scaron" unicode="&#x160;" horiz-adv-x="760" 
d="M58 473h210q0 -168 9 -213q21 -103 106 -103q51 0 82 39.5t31 104.5q0 76 -38.5 141.5t-147.5 172.5q-142 141 -182 204q-63 102 -63 233q0 144 75 232q86 102 250 102q122 0 197 -53.5t95 -154.5q12 -64 12 -191q0 -17 -1 -61h-209q0 181 -13 216q-23 67 -91 67
q-49 0 -80 -38.5t-31 -100.5q0 -67 37 -125.5t151 -172.5q144 -143 194 -229q59 -102 59 -226q0 -146 -71 -237q-79 -101 -252 -101q-248 0 -306 201q-24 82 -23 293zM305 1504l-145 235h168l63 -122l63 122h167l-145 -235h-171z" />
    <glyph glyph-name="scaron" unicode="&#x161;" horiz-adv-x="621" 
d="M570 701h-191q0 91 -9 122q-16 58 -68 58q-30 0 -48.5 -21t-18.5 -55q0 -39 26.5 -75.5t117.5 -121.5q119 -111 162.5 -185.5t43.5 -166.5q0 -130 -74 -202q-72 -68 -203 -68q-181 0 -238 141q-23 58 -24 210v46h191q0 -127 4 -153q13 -80 77 -80q34 0 55 27t21 69
q0 51 -29.5 93.5t-139.5 152.5q-113 111 -147 169.5t-34 140.5q0 125 86 192q67 51 182 51q146 0 211 -82q50 -65 50 -193q0 -19 -3 -69zM231 1146l-141 242h160l64 -129l65 129h160l-141 -242h-167z" />
    <glyph glyph-name="Tcommaaccent" unicode="&#x162;" horiz-adv-x="723" 
d="M467 1181v-1181h-210v1181h-232v184h674v-184h-232zM244 -137h216l-190 -289h-116z" />
    <glyph glyph-name="tcommaaccent" unicode="&#x163;" horiz-adv-x="392" 
d="M281 1303v-272h69v-171h-69v-577q0 -78 10.5 -95t58.5 -17v-171h-150q-63 0 -86.5 31t-23.5 115v714h-69v171h69v272h191zM140 -109h191l-175 -296h-109z" />
    <glyph glyph-name="Tcaron" unicode="&#x164;" horiz-adv-x="723" 
d="M467 1181v-1181h-210v1181h-232v184h674v-184h-232zM277 1504l-145 235h167l63 -122l63 122h167l-145 -235h-170z" />
    <glyph glyph-name="tcaron" unicode="&#x165;" horiz-adv-x="595" 
d="M281 1303v-272h69v-171h-69v-577q0 -78 10.5 -95t58.5 -17v-171h-150q-63 0 -86.5 31t-23.5 115v714h-69v171h69v272h191zM441 1447h191l-175 -323h-82z" />
    <glyph glyph-name="Utilde" unicode="&#x168;" horiz-adv-x="840" 
d="M535 1365h210v-910q0 -194 -7.5 -249t-38.5 -100q-89 -126 -279 -126q-123 0 -207 57q-100 68 -112 188q-5 53 -5 230v910h210v-914q0 -178 8 -209q22 -85 106 -85q91 0 109 97q6 28 6 197v914zM295 1521h-137q6 68 23 105q18 42 55.5 67.5t81.5 25.5q31 0 48 -5.5
t88 -40.5q19 -9 38 -9q36 0 54 60h138q-8 -91 -50 -145.5t-105 -54.5q-32 0 -52 6t-97 40q-25 11 -41 11q-37 0 -44 -60z" />
    <glyph glyph-name="utilde" unicode="&#x169;" horiz-adv-x="699" 
d="M425 1031h191v-1031h-191v75q-42 -49 -80.5 -69t-91.5 -20q-117 0 -152 105q-15 45 -15 181v759h191v-670q0 -124 5 -151q11 -60 58 -60q55 0 75 78q10 36 10 144v659zM232 1167h-132q4 60 25 101q47 93 129 93q25 0 41.5 -6t87.5 -41q19 -9 34 -9q35 0 50 60h132
q-4 -91 -56 -149q-43 -47 -93 -47q-42 0 -141 47q-23 11 -38 11q-31 0 -39 -60z" />
    <glyph glyph-name="Umacron" unicode="&#x16a;" horiz-adv-x="840" 
d="M535 1365h210v-910q0 -194 -7.5 -249t-38.5 -100q-89 -126 -279 -126q-123 0 -207 57q-100 68 -112 188q-5 53 -5 230v910h210v-914q0 -178 8 -209q22 -85 106 -85q91 0 109 97q6 28 6 197v914zM194 1689h452v-135h-452v135z" />
    <glyph glyph-name="umacron" unicode="&#x16b;" horiz-adv-x="699" 
d="M425 1031h191v-1031h-191v75q-42 -49 -80.5 -69t-91.5 -20q-117 0 -152 105q-15 45 -15 181v759h191v-670q0 -124 5 -151q11 -60 58 -60q55 0 75 78q10 36 10 144v659zM142 1330h418v-132h-418v132z" />
    <glyph glyph-name="Ubreve" unicode="&#x16c;" horiz-adv-x="840" 
d="M535 1365h210v-910q0 -194 -7.5 -249t-38.5 -100q-89 -126 -279 -126q-123 0 -207 57q-100 68 -112 188q-5 53 -5 230v910h210v-914q0 -178 8 -209q22 -85 106 -85q91 0 109 97q6 28 6 197v914zM539 1737h128q-10 -67 -43 -118q-73 -113 -202 -113q-102 0 -173 66
t-75 165h128q29 -94 119 -94t118 94z" />
    <glyph glyph-name="ubreve" unicode="&#x16d;" horiz-adv-x="699" 
d="M425 1031h191v-1031h-191v75q-42 -49 -80.5 -69t-91.5 -20q-117 0 -152 105q-15 45 -15 181v759h191v-670q0 -124 5 -151q11 -60 58 -60q55 0 75 78q10 36 10 144v659zM460 1383h128q-8 -77 -32 -119q-29 -52 -84.5 -82.5t-121.5 -30.5t-122.5 30.5t-87.5 82.5
q-26 45 -30 119h128q17 -55 41.5 -77t69.5 -22q88 0 111 99z" />
    <glyph glyph-name="Uring" unicode="&#x16e;" horiz-adv-x="840" 
d="M535 1365h210v-910q0 -194 -7.5 -249t-38.5 -100q-89 -126 -279 -126q-123 0 -207 57q-100 68 -112 188q-5 53 -5 230v910h210v-914q0 -178 8 -209q22 -85 106 -85q91 0 109 97q6 28 6 197v914zM423 1782q68 0 116.5 -49.5t48.5 -118.5t-49 -118t-119 -49q-69 0 -118 49
t-49 118q0 70 49.5 119t120.5 49zM421 1680q-27 0 -46.5 -19t-19.5 -47q0 -27 19 -46t46 -19t46.5 19t19.5 47q0 26 -19 45.5t-46 19.5z" />
    <glyph glyph-name="uring" unicode="&#x16f;" horiz-adv-x="699" 
d="M425 1031h191v-1031h-191v75q-42 -49 -80.5 -69t-91.5 -20q-117 0 -152 105q-15 45 -15 181v759h191v-670q0 -124 5 -151q11 -60 58 -60q55 0 75 78q10 36 10 144v659zM354 1454q68 0 116.5 -49.5t48.5 -118.5t-49 -118t-119 -49q-69 0 -118 49t-49 118q0 70 49.5 119
t120.5 49zM353 1352q-29 0 -48 -19t-19 -47q0 -27 19 -46t46 -19q28 0 47 19t19 47q0 26 -19 45.5t-45 19.5z" />
    <glyph glyph-name="Uhungarumlaut" unicode="&#x170;" horiz-adv-x="840" 
d="M535 1365h210v-910q0 -194 -7.5 -249t-38.5 -100q-89 -126 -279 -126q-123 0 -207 57q-100 68 -112 188q-5 53 -5 230v910h210v-914q0 -178 8 -209q22 -85 106 -85q91 0 109 97q6 28 6 197v914zM269 1739h202l-162 -235h-116zM562 1739h210l-170 -235h-116z" />
    <glyph glyph-name="uhungarumlaut" unicode="&#x171;" horiz-adv-x="699" 
d="M425 1031h191v-1031h-191v75q-42 -49 -80.5 -69t-91.5 -20q-117 0 -152 105q-15 45 -15 181v759h191v-670q0 -124 5 -151q11 -60 58 -60q55 0 75 78q10 36 10 144v659zM250 1388h198l-174 -242h-103zM516 1388h198l-174 -242h-103z" />
    <glyph glyph-name="Uogonek" unicode="&#x172;" horiz-adv-x="840" 
d="M96 1365h210v-914q0 -178 8 -210q22 -85 106 -85q91 0 109 97q6 29 6 198v914h210v-910q0 -216 -10 -266.5t-67 -121.5q-56 -70 -73.5 -107t-17.5 -87q0 -90 99 -90q31 0 64 12l-16 -117q-40 -15 -81 -15q-86 0 -136.5 41t-50.5 111q0 42 19 80t73 104q-64 -20 -128 -20
q-122 0 -207 57q-100 68 -112 189q-5 52 -5 230v910z" />
    <glyph glyph-name="uogonek" unicode="&#x173;" horiz-adv-x="699" 
d="M649 -219l-16 -117q-37 -14 -72 -14q-76 0 -125 41.5t-49 106.5q0 105 124 202h-86v75q-42 -49 -80.5 -69t-91.5 -20q-117 0 -152 105q-15 45 -15 181v759h191v-670q0 -124 5 -151q11 -60 58 -60q55 0 75 78q10 36 10 144v659h191v-1031q-50 -33 -78.5 -74t-28.5 -81
q0 -33 24 -54.5t62 -21.5q21 0 54 12z" />
    <glyph glyph-name="Wcircumflex" unicode="&#x174;" horiz-adv-x="1086" 
d="M25 1365h225l85 -955l135 955h150l134 -955l84 955h224l-185 -1365h-225l-107 674l-113 -674h-219zM458 1739h170l145 -235h-167l-63 122l-63 -122h-167z" />
    <glyph glyph-name="wcircumflex" unicode="&#x175;" horiz-adv-x="899" 
d="M511 1031l109 -749l63 749h200l-154 -1031h-218l-62 530l-62 -530h-218l-154 1031h201l62 -749l109 749h124zM366 1388h166l142 -242h-160l-65 129l-64 -129h-160z" />
    <glyph glyph-name="Ycircumflex" unicode="&#x176;" horiz-adv-x="684" 
d="M247 0v544l-243 821h229l116 -502l107 502h225l-224 -821v-544h-210zM256 1739h171l145 -235h-167l-63 122l-63 -122h-168z" />
    <glyph glyph-name="ycircumflex" unicode="&#x177;" horiz-adv-x="620" 
d="M100 -79h52q62 0 62 40q0 3 -7 39l-192 1031h215l81 -687l79 687h215l-215 -1136q-16 -86 -40 -112q-32 -34 -120 -34h-130v172zM226 1388h167l142 -242h-161l-64 129l-65 -129h-160z" />
    <glyph glyph-name="Ydieresis" unicode="&#x178;" horiz-adv-x="684" 
d="M111 1734h183v-224h-183v224zM390 1734h183v-224h-183v224zM247 0v544l-243 821h229l116 -502l107 502h225l-224 -821v-544h-210z" />
    <glyph glyph-name="Zacute" unicode="&#x179;" horiz-adv-x="722" 
d="M664 1365v-209l-397 -972h397v-184h-605v209l398 972h-377v184h584zM360 1739h243l-190 -235h-143z" />
    <glyph glyph-name="zacute" unicode="&#x17a;" horiz-adv-x="599" 
d="M555 1031v-192l-334 -668h346v-171h-536v190l334 670h-314v171h504zM305 1388h232l-189 -242h-137z" />
    <glyph glyph-name="Zdotaccent" unicode="&#x17b;" horiz-adv-x="722" 
d="M664 1365v-209l-397 -972h397v-184h-605v209l398 972h-377v184h584zM280 1734h190v-224h-190v224z" />
    <glyph glyph-name="zdotaccent" unicode="&#x17c;" horiz-adv-x="599" 
d="M555 1031v-192l-334 -668h346v-171h-536v190l334 670h-314v171h504zM214 1379h183v-224h-183v224z" />
    <glyph glyph-name="Zcaron" unicode="&#x17d;" horiz-adv-x="722" 
d="M664 1365v-209l-397 -972h397v-184h-605v209l398 972h-377v184h584zM276 1504l-145 235h167l63 -122l63 122h168l-145 -235h-171z" />
    <glyph glyph-name="zcaron" unicode="&#x17e;" horiz-adv-x="599" 
d="M555 1031v-192l-334 -668h346v-171h-536v190l334 670h-314v171h504zM222 1146l-141 242h160l65 -129l64 129h161l-142 -242h-167z" />
    <glyph glyph-name="florin" unicode="&#x192;" horiz-adv-x="833" 
d="M-115 -291l27 143q255 31 298 315l155 814h-173l21 109h174l13 75q17 98 49.5 160t91.5 108q61 46 123 64.5t159 18.5l-25 -136q-179 -16 -213 -215l-13 -75h170l-21 -109h-170l-159 -834q-21 -110 -42.5 -163.5t-65.5 -107.5q-49 -61 -128.5 -104.5t-165.5 -57.5
q-34 -5 -105 -5z" />
    <glyph glyph-name="uni01C4" unicode="&#x1c4;" horiz-adv-x="770" 
d="M568 1122h-210v243h210v-243zM358 1069h210q-1 -133 -42.5 -234.5t-163.5 -268.5q-56 -78 -78.5 -132.5t-22.5 -112.5q0 -75 32.5 -119.5t87.5 -44.5q63 0 92 59q20 40 22 188h210q1 -202 -57 -294q-82 -131 -274 -131q-163 0 -245 92q-77 86 -77 234q0 140 71 276
q21 40 124 188q62 89 85.5 152t25.5 148z" />
    <glyph glyph-name="uni01C5" unicode="&#x1c5;" horiz-adv-x="597" 
d="M395 1365h157l-347 -1365h-157z" />
    <glyph glyph-name="uni01C6" unicode="&#x1c6;" horiz-adv-x="443" 
d="M354 135v-162q-124 28 -193 117q-40 52 -56 130t-16 224v477q0 158 19.5 239.5t70.5 135.5q67 72 175 96v-162q-36 -13 -51 -59.5t-15 -143.5v-689q0 -97 15 -143.5t51 -59.5z" />
    <glyph glyph-name="uni01C7" unicode="&#x1c7;" horiz-adv-x="443" 
d="M89 1230v162q124 -28 193 -117q40 -51 56 -129.5t16 -224.5v-477q0 -158 -19.5 -239.5t-69.5 -135.5q-68 -72 -176 -96v162q36 14 51 60t15 143v689q0 97 -15 143t-51 60z" />
    <glyph glyph-name="uni01C8" unicode="&#x1c8;" horiz-adv-x="478" 
d="M299 1179v-993h100v-186h-299v1365h299v-186h-100z" />
    <glyph glyph-name="uni01C9" unicode="&#x1c9;" horiz-adv-x="478" 
d="M179 186v994h-100v185h299v-1365h-299v186h100z" />
    <glyph glyph-name="uni01CA" unicode="&#x1ca;" horiz-adv-x="851" 
d="M711 1046h-189v39q0 83 -23 119t-77 36q-84 0 -84 -87q0 -48 44 -87q17 -16 166 -115q89 -59 108.5 -74t47.5 -45q60 -64 60 -150q0 -111 -120 -243q45 -57 61.5 -98.5t16.5 -99.5q0 -110 -66 -181q-79 -87 -232 -87q-144 0 -213.5 74.5t-69.5 230.5v53h192v-49
q0 -80 15 -106q25 -41 81 -41q102 0 102 102q0 52 -27 80.5t-154 107.5q-126 80 -180 123q-95 77 -95 180q0 122 140 260q-68 88 -68 164q0 108 77.5 174t204.5 66q163 0 232 -93q50 -68 50 -246v-7zM327 892q-74 -68 -74 -132q0 -35 33.5 -71.5t115.5 -89.5l114 -75
q73 60 73 123q0 38 -31.5 75t-109.5 89z" />
    <glyph glyph-name="uni01CD" unicode="&#x1cd;" horiz-adv-x="784" 
d="M498 358h-211l-51 -358h-218l224 1365h301l224 -1365h-219zM473 542l-81 569l-79 -569h160zM307 1504l-145 235h167l63 -122l63 122h168l-145 -235h-171z" />
    <glyph glyph-name="uni01CE" unicode="&#x1ce;" horiz-adv-x="681" 
d="M595 0h-191v75q-43 -50 -79.5 -69.5t-88.5 -19.5q-72 0 -114 46q-34 37 -43 82q-12 61 -12 152q0 175 39 235q22 33 56.5 58t126.5 76q68 38 91.5 68t23.5 81q0 97 -75 97q-42 0 -59.5 -31.5t-17.5 -104.5v-49h-185q1 106 11 159t36 93q62 97 218 97q182 0 236 -108
q27 -53 27 -196v-741zM404 518q-84 -37 -115 -85.5t-31 -142.5q0 -81 12.5 -111t45.5 -30q54 0 78 66q10 28 10 108v195zM257 1146l-141 242h160l64 -129l65 129h160l-141 -242h-167z" />
    <glyph glyph-name="uni01D1" unicode="&#x1d1;" horiz-adv-x="436" 
d="M323 1129h-210v236h210v-236zM164 1085h107l52 -318v-767h-210v767z" />
    <glyph glyph-name="uni01D2" unicode="&#x1d2;" horiz-adv-x="681" 
d="M340 1045q183 0 239 -148q18 -50 22 -105.5t4 -275.5q0 -230 -5 -279q-15 -133 -80 -192q-64 -59 -181 -59q-182 0 -238 148q-18 50 -22 105.5t-4 276.5q0 228 6 278q14 133 79 192q64 59 180 59zM266 761v-491q0 -66 12 -87q18 -33 62 -33q43 0 58.5 25t15.5 95v491
q0 66 -12 87q-18 33 -62 33q-43 0 -58.5 -25t-15.5 -95zM257 1146l-141 242h160l64 -129l65 129h160l-142 -242h-166z" />
    <glyph glyph-name="uni01D3" unicode="&#x1d3;" horiz-adv-x="840" 
d="M535 1365h210v-910q0 -194 -7.5 -249t-38.5 -100q-89 -126 -279 -126q-123 0 -207 57q-100 68 -112 188q-5 53 -5 230v910h210v-914q0 -178 8 -209q22 -85 106 -85q91 0 109 97q6 28 6 197v914zM335 1504l-145 235h167l63 -122l63 122h168l-145 -235h-171z" />
    <glyph glyph-name="uni01D4" unicode="&#x1d4;" horiz-adv-x="699" 
d="M425 1031h191v-1031h-191v75q-42 -49 -80.5 -69t-91.5 -20q-117 0 -152 105q-15 45 -15 181v759h191v-670q0 -124 5 -151q11 -60 58 -60q55 0 75 78q10 36 10 144v659zM268 1146l-142 242h161l64 -129l64 129h161l-142 -242h-166z" />
    <glyph glyph-name="Gcaron" unicode="&#x1e6;" horiz-adv-x="824" 
d="M731 922h-210q-1 163 -8 194q-18 92 -105 92q-63 0 -93 -56q-20 -38 -19 -191q0 -89 -1 -278q-1 -108 -1 -157q0 -220 12 -276q20 -93 101 -93q75 0 102 79q12 36 12 166v144h-131v184h341v-730h-210v68q-45 -49 -85.5 -68.5t-99.5 -19.5q-213 0 -238 282
q-13 152 -13 527q0 238 11 317q15 116 64 177q81 102 246 102q135 0 217 -65q76 -60 96 -184q8 -55 12 -214zM327 1504l-145 235h167l63 -122l63 122h167l-145 -235h-170z" />
    <glyph glyph-name="gcaron" unicode="&#x1e7;" horiz-adv-x="691" 
d="M605 1031v-1004q0 -132 -29 -182q-57 -98 -232 -98q-109 0 -173 33q-96 50 -96 167q0 17 1 32h191q0 -37 16.5 -52.5t55.5 -15.5q49 0 62 18t13 85v95q-45 -45 -77 -60.5t-79 -15.5q-118 0 -161 110q-15 37 -18 97t-3 312q0 231 4 293t22 100q21 46 65 73t96 27
q47 0 80.5 -19.5t70.5 -69.5v75h191zM414 412v226q0 121 -8 161q-18 82 -73 82q-47 0 -59 -54q-5 -19 -6 -154q-1 -158 -1 -203q0 -173 11 -223.5t49 -50.5q40 0 67 42q20 32 20 174zM262 1146l-141 242h160l64 -129l65 129h160l-141 -242h-167z" />
    <glyph glyph-name="uni01F4" unicode="&#x1f4;" horiz-adv-x="824" 
d="M731 922h-210q-1 163 -8 194q-18 92 -105 92q-63 0 -93 -56q-20 -38 -19 -191q0 -89 -1 -278q-1 -108 -1 -157q0 -220 12 -276q20 -93 101 -93q75 0 102 79q12 36 12 166v144h-131v184h341v-730h-210v68q-45 -49 -85.5 -68.5t-99.5 -19.5q-213 0 -238 282
q-13 152 -13 527q0 238 11 317q15 116 64 177q81 102 246 102q135 0 217 -65q76 -60 96 -184q8 -55 12 -214zM410 1739h257l-190 -235h-157z" />
    <glyph glyph-name="uni01F5" unicode="&#x1f5;" horiz-adv-x="691" 
d="M605 1031v-1004q0 -132 -29 -182q-57 -98 -232 -98q-109 0 -173 33q-96 50 -96 167q0 17 1 32h191q0 -37 16.5 -52.5t55.5 -15.5q49 0 62 18t13 85v95q-45 -45 -77 -60.5t-79 -15.5q-118 0 -161 110q-15 37 -18 97t-3 312q0 231 4 293t22 100q21 46 65 73t96 27
q47 0 80.5 -19.5t70.5 -69.5v75h191zM414 412v226q0 121 -8 161q-18 82 -73 82q-47 0 -59 -54q-5 -19 -6 -154q-1 -158 -1 -203q0 -173 11 -223.5t49 -50.5q40 0 67 42q20 32 20 174zM321 1388h232l-189 -242h-136z" />
    <glyph glyph-name="uni0200" unicode="&#x200;" horiz-adv-x="723" 
d="M424 963l5 -184h-136l5 184l-157 -97l-68 119l162 87l-162 88l68 118l157 -97l-3 184h136l-5 -184l157 96l68 -118l-163 -87l163 -88l-69 -118z" />
    <glyph glyph-name="Scommaaccent" unicode="&#x218;" horiz-adv-x="760" 
d="M58 473h210q0 -168 9 -213q21 -103 106 -103q51 0 82 39.5t31 104.5q0 76 -38.5 141.5t-147.5 172.5q-142 141 -182 204q-63 102 -63 233q0 144 75 232q86 102 250 102q122 0 197 -53.5t95 -154.5q12 -64 12 -191q0 -17 -1 -61h-209q0 181 -13 216q-23 67 -91 67
q-49 0 -80 -38.5t-31 -100.5q0 -67 37 -125.5t151 -172.5q144 -143 194 -229q59 -102 59 -226q0 -146 -71 -237q-79 -101 -252 -101q-248 0 -306 201q-24 82 -23 293zM304 -137h216l-189 -289h-116z" />
    <glyph glyph-name="scommaaccent" unicode="&#x219;" horiz-adv-x="621" 
d="M570 701h-191q0 91 -9 122q-16 58 -68 58q-30 0 -48.5 -21t-18.5 -55q0 -39 26.5 -75.5t117.5 -121.5q119 -111 162.5 -185.5t43.5 -166.5q0 -130 -74 -202q-72 -68 -203 -68q-181 0 -238 141q-23 58 -24 210v46h191q0 -127 4 -153q13 -80 77 -80q34 0 55 27t21 69
q0 51 -29.5 93.5t-139.5 152.5q-113 111 -147 169.5t-34 140.5q0 125 86 192q67 51 182 51q146 0 211 -82q50 -65 50 -193q0 -19 -3 -69zM228 -109h191l-175 -296h-109z" />
    <glyph glyph-name="uni021A" unicode="&#x21a;" horiz-adv-x="723" 
d="M467 1181v-1181h-210v1181h-232v184h674v-184h-232zM244 -137h216l-190 -289h-116z" />
    <glyph glyph-name="uni021B" unicode="&#x21b;" horiz-adv-x="392" 
d="M281 1303v-272h69v-171h-69v-577q0 -78 10.5 -95t58.5 -17v-171h-150q-63 0 -86.5 31t-23.5 115v714h-69v171h69v272h191zM140 -109h191l-175 -296h-109z" />
    <glyph glyph-name="uni0226" unicode="&#x226;" horiz-adv-x="784" 
d="M498 358h-211l-51 -358h-218l224 1365h301l224 -1365h-219zM473 542l-81 569l-79 -569h160zM297 1734h190v-224h-190v224z" />
    <glyph glyph-name="uni0227" unicode="&#x227;" horiz-adv-x="681" 
d="M595 0h-191v75q-43 -50 -79.5 -69.5t-88.5 -19.5q-72 0 -114 46q-34 37 -43 82q-12 61 -12 152q0 175 39 235q22 33 56.5 58t126.5 76q68 38 91.5 68t23.5 81q0 97 -75 97q-42 0 -59.5 -31.5t-17.5 -104.5v-49h-185q1 106 11 159t36 93q62 97 218 97q182 0 236 -108
q27 -53 27 -196v-741zM404 518q-84 -37 -115 -85.5t-31 -142.5q0 -81 12.5 -111t45.5 -30q54 0 78 66q10 28 10 108v195zM249 1379h183v-224h-183v224z" />
    <glyph glyph-name="uni0237" unicode="&#x237;" horiz-adv-x="363" 
d="M277 1031v-1119q0 -94 -36.5 -129.5t-134.5 -35.5q-33 0 -76 5v160q36 1 46 19t10 83v1017h191z" />
    <glyph glyph-name="afii57929" unicode="&#x2bc;" horiz-adv-x="352" 
d="M86 1365h180v-215l-180 -229v132l86 97h-86v215z" />
    <glyph glyph-name="circumflex" unicode="&#x2c6;" 
d="M428 1388h167l142 -242h-161l-64 129l-65 -129h-160z" />
    <glyph glyph-name="caron" unicode="&#x2c7;" 
d="M428 1146l-141 242h160l65 -129l64 129h161l-142 -242h-167z" />
    <glyph glyph-name="uni02C9" unicode="&#x2c9;" 
d="M303 1330h418v-132h-418v132z" />
    <glyph glyph-name="breve" unicode="&#x2d8;" 
d="M622 1383h128q-8 -77 -32 -119q-28 -52 -84 -82.5t-122 -30.5t-122.5 30.5t-86.5 82.5q-27 45 -31 119h128q17 -55 41.5 -77t69.5 -22q89 0 111 99z" />
    <glyph glyph-name="dotaccent" unicode="&#x2d9;" 
d="M421 1379h183v-224h-183v224z" />
    <glyph glyph-name="ring" unicode="&#x2da;" 
d="M515 1454q68 0 116.5 -49.5t48.5 -118.5t-49 -118t-119 -49q-69 0 -118 49t-49 118q0 70 49.5 119t120.5 49zM513 1352q-28 0 -47 -19t-19 -47q0 -27 19 -46t46 -19q28 0 47 19t19 47q0 26 -19 45.5t-46 19.5z" />
    <glyph glyph-name="ogonek" unicode="&#x2db;" 
d="M651 0h106q-51 -33 -79.5 -74t-28.5 -81q0 -33 24.5 -54.5t61.5 -21.5q21 0 55 12l-16 -117q-38 -14 -73 -14q-76 0 -125 42t-49 106q0 105 124 202z" />
    <glyph glyph-name="tilde" unicode="&#x2dc;" 
d="M395 1167h-132q4 60 24 101q47 93 129 93q26 0 42.5 -6t86.5 -41q19 -9 35 -9q34 0 50 60h131q-4 -91 -56 -149q-43 -47 -92 -47q-42 0 -142 47q-22 11 -38 11q-30 0 -38 -60z" />
    <glyph glyph-name="hungarumlaut" unicode="&#x2dd;" 
d="M401 1388h198l-174 -242h-103zM667 1388h198l-174 -242h-103z" />
    <glyph glyph-name="uni1E1E" unicode="&#x1e1e;" horiz-adv-x="689" 
d="M669 1365v-184h-357v-379h329v-184h-329v-618h-210v1365h567zM249 1734h190v-224h-190v224z" />
    <glyph glyph-name="Wacute" unicode="&#x1e82;" horiz-adv-x="466" 
d="M75 671h316v-180h-316v180z" />
    <glyph glyph-name="Wdieresis" unicode="&#x1e84;" horiz-adv-x="1086" 
d="M285 1734h190v-224h-190v224zM611 1734h190v-224h-190v224zM25 1365h225l85 -955l135 955h150l134 -955l84 955h224l-185 -1365h-225l-107 674l-113 -674h-219z" />
    <glyph glyph-name="wdieresis" unicode="&#x1e85;" horiz-adv-x="899" 
d="M511 1031l109 -749l63 749h200l-154 -1031h-218l-62 530l-62 -530h-218l-154 1031h201l62 -749l109 749h124zM198 1379h183v-224h-183v224zM518 1379h183v-224h-183v224z" />
    <glyph glyph-name="uni2011" unicode="&#x2011;" horiz-adv-x="316" 
d="M0 671h316v-180h-316v180z" />
    <glyph glyph-name="figuredash" unicode="&#x2012;" horiz-adv-x="706" 
d="M86 671h534v-180h-534v180z" />
    <glyph glyph-name="endash" unicode="&#x2013;" horiz-adv-x="706" 
d="M86 671h534v-180h-534v180z" />
    <glyph glyph-name="emdash" unicode="&#x2014;" horiz-adv-x="848" 
d="M0 671h848v-180h-848v180z" />
    <glyph glyph-name="afii00208" unicode="&#x2015;" horiz-adv-x="848" 
d="M0 671h848v-180h-848v180z" />
    <glyph glyph-name="underscoredbl" unicode="&#x2017;" 
d="M0 -395h1024v-154h-1024v154zM0 -122h1024v-154h-1024v154z" />
    <glyph glyph-name="quoteleft" unicode="&#x2018;" horiz-adv-x="352" 
d="M266 922h-180v215l180 228v-131l-86 -97h86v-215z" />
    <glyph glyph-name="quoteright" unicode="&#x2019;" horiz-adv-x="352" 
d="M88 1365h176v-211l-176 -224v129l84 95h-84v211z" />
    <glyph glyph-name="quotesinglbase" unicode="&#x201a;" horiz-adv-x="352" 
d="M88 211h176v-211l-176 -225v130l84 95h-84v211z" />
    <glyph glyph-name="quotedblleft" unicode="&#x201c;" horiz-adv-x="606" 
d="M266 922h-180v215l180 228v-131l-86 -97h86v-215zM520 922h-179v215l179 228v-131l-85 -97h85v-215z" />
    <glyph glyph-name="quotedblright" unicode="&#x201d;" horiz-adv-x="606" 
d="M341 1365h179v-215l-179 -229v132l86 97h-86v215zM86 1365h180v-215l-180 -229v132l86 97h-86v215z" />
    <glyph glyph-name="quotedblbase" unicode="&#x201e;" horiz-adv-x="606" 
d="M341 253h179v-215l-179 -229v132l86 97h-86v215zM86 253h180v-215l-180 -229v132l86 97h-86v215z" />
    <glyph glyph-name="dagger" unicode="&#x2020;" horiz-adv-x="988" 
d="M599 820v-984h-210v984h-300v184h300v361h210v-361h300v-184h-300z" />
    <glyph glyph-name="daggerdbl" unicode="&#x2021;" horiz-adv-x="988" 
d="M599 820v-419h300v-184h-300v-381h-210v381h-300v184h300v419h-300v184h300v361h210v-361h300v-184h-300z" />
    <glyph glyph-name="bullet" unicode="&#x2022;" horiz-adv-x="1365" 
d="M687 982q112 0 194 -83q83 -84 83 -203q0 -118 -82 -202q-83 -84 -199 -84t-198 83q-84 84 -84 203q0 121 84 203q84 83 202 83z" />
    <glyph glyph-name="ellipsis" unicode="&#x2026;" horiz-adv-x="1110" 
d="M86 249h198v-249h-198v249zM456 249h198v-249h-198v249zM826 249h198v-249h-198v249z" />
    <glyph glyph-name="perthousand" unicode="&#x2030;" horiz-adv-x="1604" 
d="M1346 693q111 0 152 -75q16 -30 21 -80.5t5 -197.5q0 -160 -6 -211.5t-29 -82.5q-43 -61 -145 -61q-113 0 -153 75q-17 31 -22 80t-5 192q0 167 6 217.5t29 82.5q44 61 147 61zM1344 599q-34 0 -46 -28q-7 -19 -9 -56.5t-2 -173.5q0 -140 2 -177.5t9 -56.5q12 -28 46 -28
t46 28q7 19 9 56.5t2 175.5q0 137 -2 175t-9 57q-12 28 -46 28zM882 693q111 0 152 -75q17 -30 21.5 -80.5t4.5 -197.5q0 -160 -6 -211.5t-29 -82.5q-44 -61 -145 -61q-113 0 -153 75q-17 31 -22 80.5t-5 191.5q0 165 6 216.5t29 83.5q44 61 147 61zM880 599q-34 0 -46 -28
q-7 -19 -9 -56.5t-2 -173.5q0 -140 2 -177.5t9 -56.5q12 -28 46 -28t46 28q7 19 9 56.5t2 175.5q0 137 -2 175t-9 57q-12 28 -46 28zM299 -1l418 1364h126l-419 -1364h-125zM268 1380q111 0 152 -74q17 -31 21.5 -81.5t4.5 -197.5q0 -160 -6 -211.5t-29 -82.5
q-44 -61 -145 -61q-113 0 -153 75q-17 31 -22 80.5t-5 191.5q0 165 6 216.5t29 83.5q44 61 147 61zM266 1286q-34 0 -46 -28q-7 -19 -9 -56.5t-2 -173.5q0 -140 2 -178t9 -56q12 -28 46 -28t46 28q7 19 9 56.5t2 175.5q0 137 -2 175t-9 57q-12 28 -46 28z" />
    <glyph glyph-name="guilsinglleft" unicode="&#x2039;" horiz-adv-x="472" 
d="M234 909h149l-164 -329l164 -331h-149l-168 331z" />
    <glyph glyph-name="guilsinglright" unicode="&#x203a;" horiz-adv-x="472" 
d="M239 909l167 -329l-167 -331h-150l164 331l-164 329h150z" />
    <glyph glyph-name="uni203E" unicode="&#x203e;" 
d="M0 1655h1024v-168h-1024v168z" />
    <glyph glyph-name="glyph372" unicode="&#x2044;" horiz-adv-x="225" 
d="M513 1365l-690 -1365h-123l690 1365h123z" />
    <glyph glyph-name="franc" unicode="&#x20a3;" horiz-adv-x="1237" 
d="M669 1365v-184h-357v-379h329v-184h-329v-618h-210v1365h567zM775 1031h191v-123q44 80 88.5 108.5t124.5 28.5h33v-208q-102 0 -136.5 -5.5t-58.5 -27.5q-31 -27 -41 -71.5t-10 -152.5v-580h-191v1031z" />
    <glyph glyph-name="peseta" unicode="&#x20a7;" horiz-adv-x="1367" 
d="M312 0h-210v1365h276q95 0 138 -8q218 -39 218 -363q0 -203 -78 -293t-254 -90h-90v-611zM312 793h65q93 0 120 36.5t27 160.5q0 120 -26.5 155.5t-115.5 35.5h-70v-388zM879 782v-160h45v-115h-45v-333q0 -44 5 -52t31 -8h9v-114h-106q-45 0 -62.5 20t-17.5 72v415h-45
v115h45v160h141zM1308 413h-128q0 66 -8 86.5t-32 20.5q-33 0 -33 -38q0 -21 15.5 -41.5t68.5 -69.5q73 -67 99.5 -112t26.5 -101q0 -79 -45.5 -122.5t-127.5 -43.5q-113 0 -149 88q-16 37 -15 160h128q0 -79 3 -96q6 -42 39 -42q39 0 39 50q0 28 -17.5 52.5t-81.5 87.5
q-69 67 -90 102.5t-21 85.5q0 70 44.5 110t122.5 40q164 0 164 -170q0 -13 -2 -47z" />
    <glyph glyph-name="Euro" unicode="&#x20ac;" horiz-adv-x="723" 
d="M333 858h221l-49 -135h-173v-20v-20l1 -27v-27h136l-48 -135h-87v-44q1 -170 7 -200q19 -92 108 -92q68 0 185 90v-220q-63 -28 -102.5 -38t-90.5 -10q-127 0 -207 64q-78 61 -97 185q-8 46 -11 265h-126l49 135h75q-1 47 -1 54v33v7h-123l49 135h75q3 178 7.5 231.5
t18.5 106.5q24 88 101 139t187 51q151 0 272 -107l-74 -198q-61 72 -102 99.5t-88 27.5q-103 0 -110 -137q-3 -59 -3 -213z" />
    <glyph glyph-name="uni2101" unicode="&#x2101;" horiz-adv-x="1314" 
d="M324 775h-127l-33 -215h-133l140 805h183l134 -805h-134zM307 880l-47 354l-47 -354h94zM1087 1365l-689 -1365h-123l690 1365h122zM847 279h127q-1 -28 -1 -41q0 -80 15.5 -112.5t53.5 -32.5q32 0 51.5 23.5t19.5 62.5q0 44 -23.5 81.5t-90.5 100.5q-90 84 -120 136
t-30 121q0 86 45 139q52 60 154 60q121 0 162 -79q22 -44 22 -152v-40h-128q2 35 2 48q0 118 -63 118q-29 0 -47.5 -23.5t-18.5 -59.5q0 -39 21 -71.5t92 -102.5q90 -89 117 -135q35 -61 35 -132q0 -95 -53 -147.5t-150 -52.5q-82 0 -130 40q-37 30 -48.5 76.5t-13.5 174.5z
" />
    <glyph glyph-name="afii61248" unicode="&#x2105;" horiz-adv-x="416" 
d="M208 812q48 0 82 -33.5t34 -81.5q0 -49 -34 -83t-83 -34q-47 0 -81 34.5t-34 81.5q0 48 34 82t82 34z" />
    <glyph glyph-name="uni2117" unicode="&#x2117;" horiz-adv-x="286" 
d="M207 1168v-622h-128v622h128zM207 1365v-146h-128v146h128z" />
    <glyph glyph-name="trademark" unicode="&#x2122;" horiz-adv-x="1065" 
d="M272 1248v-661h-133v661h-132v117h398v-117h-133zM464 587v778h218l59 -376l52 376h220v-778h-133v574l-97 -574h-82l-104 579v-579h-133z" />
    <glyph glyph-name="Omega" unicode="&#x2126;" horiz-adv-x="1365" 
d="M58 0v166h341q-141 84 -218 186q-123 162 -123 395q0 291 203 484q176 167 422 167t422 -167q202 -192 202 -485q0 -194 -82 -334.5t-257 -245.5h339v-166h-539v149q134 76 207 162q143 171 143 414q0 218 -135 367q-127 140 -298 140q-161 0 -285 -117
q-153 -145 -153 -393q0 -378 352 -573v-149h-541z" />
    <glyph glyph-name="partialdiff" unicode="&#x2202;" 
d="M160 1207l24 162q177 -23 303 -74q176 -70 299 -224q184 -228 184 -555q0 -205 -87 -338q-65 -98 -167 -150q-94 -49 -204 -49q-148 0 -269 89q-71 52 -117 125q-73 115 -73 250q0 132 70 246q62 103 167 155q89 45 189 45q91 0 155.5 -30t130.5 -104q-62 141 -111 202
q-83 100 -211.5 165t-282.5 85zM518 752q-112 0 -191 -84q-87 -93 -87 -234q0 -143 92 -237q77 -78 180 -78q108 0 186 87q84 95 84 239q0 156 -96 242q-74 65 -168 65z" />
    <glyph glyph-name="emptyset" unicode="&#x2205;" horiz-adv-x="1266" 
d="M899 1365l98 -51l-98 -181q231 -161 231 -416q0 -141 -75 -262q-65 -105 -170 -167q-119 -69 -263 -69q-94 0 -162 33l-128 -251l-100 51l126 249q-221 162 -221 414q0 228 171 376q140 121 328 121q82 0 166 -29zM514 353q66 -18 119 -18q168 0 283 123q100 108 100 257
q0 97 -44.5 181t-119.5 131zM749 1079q-57 17 -110 17q-184 0 -299 -138q-89 -107 -89 -242q0 -183 159 -310z" />
    <glyph glyph-name="Delta" unicode="&#x2206;" horiz-adv-x="1365" 
d="M49 0l531 1365h199l536 -1365h-1266zM313 172h735l-368 969z" />
    <glyph glyph-name="product" unicode="&#x220f;" horiz-adv-x="1453" 
d="M77 1536h1298v-172h-166v-1704h166v-172h-516v172h166v1704h-599v-1704h166v-172h-515v172h165v1704h-165v172z" />
    <glyph glyph-name="summation" unicode="&#x2211;" horiz-adv-x="1365" 
d="M1239 1536v-482h-167l-18 309h-794l515 -812l-515 -891h814l10 307h174v-479h-1205v192l506 871l-506 795v190h1186z" />
    <glyph glyph-name="minus" unicode="&#x2212;" horiz-adv-x="833" 
d="M749 782v-171h-666v171h666z" />
    <glyph glyph-name="fraction" unicode="&#x2215;" horiz-adv-x="225" 
d="M513 1365l-690 -1365h-123l690 1365h123z" />
    <glyph glyph-name="periodcentered" unicode="&#x2219;" horiz-adv-x="370" 
d="M86 657h198v-249h-198v249z" />
    <glyph glyph-name="radical" unicode="&#x221a;" horiz-adv-x="1365" 
d="M1365 1699v-172h-391l-410 -1527h-235l-152 595h-177v172h328l121 -450l367 1382h549z" />
    <glyph glyph-name="infinity" unicode="&#x221e;" horiz-adv-x="1365" 
d="M687 575q-146 -198 -332 -198q-157 0 -247 109q-71 86 -71 213q0 147 97 234q92 84 222 84q183 0 323 -197q140 197 333 197q163 0 253 -118q64 -83 64 -203q0 -152 -100 -241q-89 -79 -215 -79q-188 0 -327 199zM775 697q105 -164 216 -164q67 0 111.5 46.5t44.5 117.5
q0 82 -59 128q-44 35 -99 35q-59 0 -107 -36.5t-107 -126.5zM591 696q-103 164 -215 164q-68 0 -112.5 -46.5t-44.5 -117.5q0 -82 59 -128q44 -35 100 -35q58 0 106.5 37t106.5 126z" />
    <glyph glyph-name="integral" unicode="&#x222b;" 
d="M166 -490l38 164q56 -21 98 -21q99 0 113 99q4 32 4 156l1 1173q0 217 19 283q22 80 93 126t173 46q62 0 153 -22l-38 -164q-57 20 -98 20q-100 0 -114 -99q-3 -25 -4 -243v-1086q0 -177 -9 -238.5t-42 -108.5q-73 -105 -248 -105q-78 0 -139 20z" />
    <glyph glyph-name="approxequal" unicode="&#x2248;" 
d="M124 712l-106 69q37 82 75 135q82 115 215 115q74 0 224 -65q90 -39 123 -49.5t69 -10.5q56 0 93 27.5t81 101.5l108 -63q-62 -127 -124 -177q-82 -66 -182 -66q-40 0 -95.5 18t-193.5 77q-70 30 -119 30q-51 0 -89 -32.5t-79 -109.5zM124 348l-106 69q37 81 75 135
q83 115 215 115q74 0 224 -65q89 -39 123 -49.5t69 -10.5q55 0 92 27.5t82 101.5l108 -64q-61 -126 -124 -176q-82 -66 -182 -66q-40 0 -95.5 18.5t-193.5 76.5q-70 30 -118 30q-51 0 -90 -32.5t-79 -109.5z" />
    <glyph glyph-name="notequal" unicode="&#x2260;" 
d="M551 943l111 228l123 -56l-84 -172h255v-165h-331l-84 -173h415v-165h-491l-108 -223l-123 55l81 168h-247v165h322l85 173h-407v165h483z" />
    <glyph glyph-name="lessequal" unicode="&#x2264;" 
d="M955 1285v-175l-691 -310l691 -309v-176l-887 404v157zM955 256v-172h-887v172h887z" />
    <glyph glyph-name="greaterequal" unicode="&#x2265;" 
d="M68 315v176l691 310l-691 309v175l887 -409v-158zM68 84v172h887v-172h-887z" />
    <glyph glyph-name="lozenge" unicode="&#x25ca;" horiz-adv-x="1365" 
d="M683 1419l531 -736l-531 -736l-532 736zM683 1238l-404 -555l404 -554l403 554z" />
    <glyph glyph-name="ffl" unicode="&#xfb04;" horiz-adv-x="1048" 
d="M283 860v-860h-191v860h-69v171h69v185q0 94 37 129.5t134 35.5q34 0 88 -4v-161q-10 1 -16 1q-33 0 -42.5 -18.5t-9.5 -83.5v-84h149v185q0 94 37 129.5t134 35.5q34 0 87 -4v-161q-10 1 -15 1q-33 0 -42.5 -18.5t-9.5 -83.5v-84h67v-171h-67v-860h-191v860h-149z
M962 1365v-1365h-191v1365h191z" />
    <glyph glyph-name="glyph155" horiz-adv-x="478" 
 />
    <glyph glyph-name="glyph172" horiz-adv-x="833" 
 />
    <glyph glyph-name="glyph210" horiz-adv-x="478" 
 />
    </font>
</defs>
</svg>
