<svg width="157" height="157" viewBox="0 0 157 157" fill="none" xmlns="http://www.w3.org/2000/svg">
<circle cx="78.5" cy="78.5" r="78.5" fill="#F5ECD6"/>
<path d="M38.3738 103.672L39.2153 102.659C39.7465 103.147 40.4359 103.427 41.1569 103.448C41.7399 103.448 42.0949 103.216 42.0949 102.839V102.817C42.0949 102.458 41.8714 102.269 40.78 101.993C39.4651 101.66 38.628 101.296 38.628 100.008C38.628 98.8287 39.5747 98.0485 40.8984 98.0485C41.7735 98.0268 42.6289 98.3104 43.3177 98.8506L42.577 99.9288C42.0914 99.5511 41.5035 99.3282 40.8896 99.2889C40.3417 99.2889 40.0524 99.5387 40.0524 99.8543C40.0524 100.293 40.3286 100.42 41.455 100.709C42.7699 101.051 43.515 101.524 43.515 102.655V102.677C43.515 103.965 42.5288 104.689 41.1307 104.689C40.1181 104.699 39.1369 104.337 38.3738 103.672Z" fill="#654334"/>
<path d="M47.946 101.839V98.127H49.3749V101.8C49.3749 102.861 49.9052 103.408 50.7774 103.408C51.6496 103.408 52.1756 102.878 52.1756 101.848V98.127H53.6044V101.791C53.6044 103.759 52.5043 104.723 50.7555 104.723C49.0067 104.723 47.946 103.75 47.946 101.839Z" fill="#654334"/>
<path d="M58.04 98.127H60.6917C62.2433 98.127 63.1812 99.0474 63.1812 100.371C63.1812 101.874 62.011 102.65 60.5515 102.65H59.4689V104.601H58.04V98.127ZM60.5997 101.401C60.7399 101.419 60.8824 101.407 61.0177 101.366C61.153 101.325 61.2781 101.256 61.3849 101.163C61.4917 101.071 61.5776 100.956 61.6372 100.828C61.6967 100.7 61.7285 100.561 61.7305 100.419C61.7305 99.7793 61.2922 99.4331 60.5734 99.4331H59.4689V101.419L60.5997 101.401Z" fill="#654334"/>
<path d="M67.8752 98.127H70.5269C72.0785 98.127 73.012 99.0474 73.012 100.371C73.012 101.874 71.8462 102.65 70.3823 102.65H69.2997V104.601H67.8708L67.8752 98.127ZM70.4349 101.401C70.5751 101.419 70.7176 101.407 70.8529 101.366C70.9882 101.325 71.1133 101.256 71.2201 101.163C71.3269 101.071 71.4128 100.956 71.4724 100.828C71.5319 100.7 71.5637 100.561 71.5657 100.419C71.5657 99.7793 71.1274 99.4331 70.4042 99.4331H69.3041V101.419L70.4349 101.401Z" fill="#654334"/>
<path d="M77.9431 98.127H79.372V103.325H82.6109V104.64H77.9431V98.127Z" fill="#654334"/>
<path d="M89.3958 102.062L86.9019 98.1177H88.5718L90.1189 100.726L91.6968 98.1177H93.3229L90.8246 102.023V104.613H89.3958V102.062Z" fill="#654334"/>
<path d="M104.127 101.393C104.119 100.947 104.201 100.504 104.369 100.091C104.537 99.6784 104.787 99.3038 105.104 98.9901C105.42 98.6764 105.797 98.43 106.211 98.2659C106.626 98.1018 107.069 98.0233 107.515 98.0352C107.989 98.0115 108.462 98.0883 108.904 98.2605C109.346 98.4327 109.746 98.6965 110.079 99.0345L109.167 100.082C108.729 99.6317 108.134 99.3692 107.506 99.3501C107.248 99.3556 106.994 99.4128 106.759 99.5183C106.523 99.6238 106.312 99.7755 106.136 99.9643C105.96 100.153 105.824 100.375 105.736 100.618C105.647 100.86 105.608 101.117 105.621 101.375C105.607 101.634 105.644 101.893 105.732 102.137C105.819 102.381 105.955 102.605 106.131 102.796C106.306 102.986 106.519 103.14 106.755 103.246C106.991 103.353 107.247 103.411 107.506 103.417C107.828 103.414 108.146 103.345 108.44 103.213C108.734 103.082 108.998 102.892 109.215 102.655L110.123 103.575C109.796 103.957 109.387 104.26 108.926 104.46C108.465 104.661 107.964 104.754 107.462 104.732C107.022 104.74 106.584 104.659 106.176 104.494C105.767 104.329 105.396 104.083 105.085 103.771C104.774 103.459 104.528 103.088 104.364 102.679C104.199 102.271 104.118 101.833 104.127 101.393Z" fill="#654334"/>
<path d="M113.559 99.9939C113.583 99.4703 113.808 98.9762 114.187 98.6142C114.567 98.2523 115.071 98.0503 115.595 98.0503C116.119 98.0503 116.623 98.2523 117.002 98.6142C117.381 98.9762 117.606 99.4703 117.631 99.9939C117.606 100.517 117.381 101.012 117.002 101.374C116.623 101.735 116.119 101.937 115.595 101.937C115.071 101.937 114.567 101.735 114.187 101.374C113.808 101.012 113.583 100.517 113.559 99.9939ZM116.561 99.9939C116.566 99.8625 116.544 99.7316 116.498 99.6088C116.451 99.4859 116.38 99.3736 116.29 99.2785C116.199 99.1833 116.09 99.1073 115.97 99.0548C115.849 99.0022 115.72 98.9743 115.588 98.9727C115.458 98.9737 115.33 99.001 115.21 99.053C115.091 99.1049 114.984 99.1805 114.894 99.2751C114.805 99.3696 114.736 99.4813 114.691 99.6033C114.646 99.7254 114.626 99.8552 114.633 99.9851C114.627 100.116 114.648 100.246 114.694 100.369C114.74 100.491 114.81 100.604 114.9 100.699C114.99 100.794 115.098 100.87 115.217 100.923C115.337 100.976 115.466 101.004 115.597 101.006C115.728 101.007 115.857 100.98 115.977 100.929C116.098 100.877 116.206 100.802 116.296 100.707C116.387 100.612 116.457 100.5 116.502 100.378C116.548 100.255 116.568 100.124 116.561 99.9939Z" fill="#654334"/>
<path d="M117.49 103.68H113.682V104.623H117.49V103.68Z" fill="#654334"/>
<path d="M21.609 57.1775L21.311 56.6121C21.7312 56.4268 22.0651 56.0882 22.2445 55.6654C22.4067 55.2753 22.3234 54.951 22.0517 54.8414C21.7931 54.7362 21.6134 54.8414 21.1751 55.4287C20.6754 56.1212 20.2722 56.4631 19.6104 56.187C18.9924 55.9372 18.7776 55.2447 19.0713 54.5302C19.2555 54.0505 19.6053 53.6525 20.0574 53.4082L20.3993 53.9429C20.0591 54.128 19.7883 54.4187 19.6279 54.7713C19.4745 55.1395 19.5753 55.4375 19.812 55.5339C20.0881 55.6479 20.281 55.5339 20.728 54.9028C21.1751 54.2716 21.6616 53.9385 22.2577 54.184C22.937 54.4601 23.1343 55.157 22.8099 55.9109C22.5826 56.4687 22.154 56.9209 21.609 57.1775Z" fill="#654334"/>
<path d="M22.0166 48.3366L22.7792 47.0217C23.2175 46.2284 23.967 45.9918 24.6464 46.3862C25.4046 46.8245 25.4484 47.6529 25.0233 48.398L24.6464 49.0554L25.7377 49.6822L25.3959 50.2739L22.0166 48.3366ZM24.5105 48.0605C24.5744 47.9796 24.6205 47.8861 24.646 47.7862C24.6714 47.6863 24.6756 47.5821 24.6583 47.4805C24.6409 47.3788 24.6024 47.2819 24.5453 47.1961C24.4881 47.1103 24.4135 47.0375 24.3264 46.9823C23.9276 46.7544 23.5594 46.9209 23.3008 47.368L22.8932 48.0517L24.1116 48.753L24.5105 48.0605Z" fill="#654334"/>
<path d="M26.3733 41.4331L26.7809 40.8765L29.9059 43.1863L29.5027 43.7385L26.3733 41.4331Z" fill="#654334"/>
<path d="M30.1777 36.634L31.3611 35.3497C31.6246 35.032 32.0024 34.8305 32.413 34.7887C32.5677 34.7862 32.7213 34.8143 32.8649 34.8715C33.0086 34.9287 33.1396 35.0138 33.2502 35.1218C33.462 35.3001 33.6034 35.548 33.6492 35.821C33.6949 36.094 33.6421 36.3744 33.5 36.612L35.3058 36.84L34.7535 37.4404L33.0968 37.2213L32.5358 37.8568L33.5395 38.7772L33.0749 39.2856L30.1777 36.634ZM32.7505 36.7041C32.8278 36.6439 32.8914 36.568 32.9372 36.4814C32.983 36.3948 33.0099 36.2994 33.0161 36.2017C33.0223 36.1039 33.0077 36.006 32.9733 35.9143C32.9388 35.8226 32.8853 35.7392 32.8163 35.6697C32.5051 35.3848 32.1325 35.4506 31.7907 35.8275L31.1113 36.5594L32.0755 37.436L32.7505 36.7041Z" fill="#654334"/>
<path d="M36.2349 30.6514L36.7521 30.2131L39.2942 33.1672L38.777 33.6055L36.2349 30.6514Z" fill="#654334"/>
<path d="M42.1299 26.8556L41.1043 27.5569L40.7449 27.0309L43.3746 25.2383L43.734 25.7642L42.7128 26.4655L44.5624 29.1654L43.9882 29.5555L42.1299 26.8556Z" fill="#654334"/>
<path d="M49.0857 25.7065L49.2303 25.0798C49.6668 25.2095 50.1362 25.1704 50.5452 24.9702C50.9221 24.7773 51.0668 24.4749 50.9353 24.2163C50.8082 23.9665 50.6022 23.9051 49.879 24.0848C49.0462 24.2864 48.5159 24.2821 48.1915 23.6465C47.8891 23.0505 48.1915 22.3842 48.8665 22.0336C49.3216 21.7908 49.8477 21.7163 50.3523 21.8232L50.2603 22.4544C49.8816 22.3695 49.4854 22.4126 49.1339 22.5771C48.7745 22.7612 48.6605 23.0505 48.7789 23.2784C48.9147 23.5457 49.1339 23.5852 49.8877 23.4011C50.7117 23.2039 51.2026 23.274 51.5226 23.8394C51.8557 24.4881 51.5226 25.1543 50.8125 25.5093C50.281 25.7859 49.6659 25.8561 49.0857 25.7065Z" fill="#654334"/>
<path d="M60.8057 19.2517L61.5201 19.05L61.7305 19.7864L61.016 19.9924L60.8057 19.2517Z" fill="#654334"/>
<path d="M71.75 15.3199L72.4337 15.2585L72.8019 19.1506L72.1182 19.212L71.75 15.3199Z" fill="#654334"/>
<path d="M77.9387 15H78.5742L80.6035 17.7656L80.6693 15.0657H81.3443L81.2478 18.9709H80.6737L78.5874 16.1352L78.5173 18.9183H77.8423L77.9387 15Z" fill="#654334"/>
<path d="M86.3232 17.5202C86.3608 17.2564 86.4512 17.003 86.589 16.775C86.7268 16.547 86.9092 16.3491 87.1252 16.1932C87.3413 16.0373 87.5865 15.9266 87.8464 15.8677C88.1062 15.8087 88.3752 15.8028 88.6374 15.8503C89.1827 15.9123 89.6817 16.1862 90.0268 16.6129L89.514 17.0512C89.3937 16.8897 89.2428 16.7535 89.0698 16.6505C88.8968 16.5474 88.7052 16.4796 88.5059 16.4508C88.3337 16.4293 88.159 16.4422 87.9918 16.4887C87.8246 16.5351 87.6682 16.6142 87.5317 16.7214C87.3952 16.8285 87.2813 16.9616 87.1965 17.113C87.1117 17.2644 87.0577 17.4311 87.0376 17.6035C86.9976 17.7795 86.9943 17.9619 87.0278 18.1393C87.0614 18.3167 87.1312 18.4853 87.2327 18.6345C87.3343 18.7838 87.4655 18.9105 87.6182 19.0069C87.7709 19.1032 87.9418 19.1671 88.1202 19.1945C88.4429 19.2549 88.7763 19.2151 89.0757 19.0805L89.194 18.3617L88.2254 18.2039L88.3218 17.6166L89.961 17.8884L89.6937 19.5013C89.1844 19.8149 88.5786 19.9333 87.9887 19.8344C87.7224 19.8029 87.4655 19.7164 87.2345 19.5803C87.0034 19.4443 86.8032 19.2616 86.6465 19.0439C86.4899 18.8263 86.3802 18.5784 86.3246 18.3161C86.2689 18.0537 86.2684 17.7827 86.3232 17.5202Z" fill="#654334"/>
<path d="M95.5712 17.459L97.2367 17.9762C97.6367 18.0765 97.9814 18.3299 98.1965 18.6818C98.333 18.9637 98.3534 19.2879 98.2535 19.5847C98.184 19.854 98.0212 20.0899 97.7941 20.2505C97.5669 20.411 97.2902 20.4857 97.0131 20.4613L97.5829 22.1882L96.8071 21.9471L96.2943 20.3605L95.4703 20.1063L95.0671 21.4212L94.4097 21.2152L95.5712 17.459ZM96.6099 19.8082C97.0833 19.9529 97.4558 19.8082 97.5742 19.4225C97.6969 19.0237 97.4777 18.7169 96.9912 18.546L96.0357 18.2479L95.65 19.519L96.6099 19.8082Z" fill="#654334"/>
<path d="M103.579 20.3552L106.209 21.5781L105.95 22.1347L103.947 21.2011L103.509 22.1216L105.284 22.9499L105.025 23.5066L103.25 22.6782L102.812 23.6293L104.837 24.576L104.578 25.1326L101.927 23.901L103.579 20.3552Z" fill="#654334"/>
<path d="M110.903 24.1477L112.13 24.9366C112.363 25.0654 112.568 25.2408 112.731 25.4519C112.894 25.663 113.011 25.9053 113.077 26.1638C113.142 26.4223 113.154 26.6915 113.111 26.9546C113.068 27.2178 112.971 27.4693 112.827 27.6935C112.682 27.9183 112.493 28.1112 112.271 28.2602C112.05 28.4093 111.8 28.5114 111.537 28.5602C111.274 28.6091 111.004 28.6037 110.744 28.5443C110.483 28.485 110.237 28.3729 110.022 28.2151L108.794 27.4261L110.903 24.1477ZM111.144 25.0243L109.706 27.2596L110.355 27.6979C110.498 27.8036 110.662 27.8781 110.836 27.9165C111.011 27.9549 111.191 27.9564 111.365 27.9209C111.54 27.8854 111.705 27.8137 111.851 27.7103C111.996 27.607 112.118 27.4743 112.209 27.321C112.311 27.1735 112.38 27.0063 112.413 26.8302C112.446 26.6541 112.442 26.473 112.401 26.2987C112.36 26.1243 112.282 25.9606 112.174 25.8181C112.065 25.6756 111.928 25.5574 111.77 25.4714L111.144 25.0243Z" fill="#654334"/>
<path d="M118.113 29.2495L118.643 29.6878L116.167 32.7033L115.636 32.265L118.113 29.2495Z" fill="#654334"/>
<path d="M122.724 33.3691L124.735 35.4423L124.297 35.8806L122.759 34.2983L122.031 35.004L123.394 36.4065L122.956 36.8448L121.593 35.4423L120.843 36.1698L122.386 37.7521L121.948 38.1904L119.914 36.0997L122.724 33.3691Z" fill="#654334"/>
<path d="M128.229 39.5317L128.605 40.0445L127.672 43.3317L129.863 41.7276L130.267 42.2711L127.12 44.5897L126.782 44.1251L127.738 40.7414L125.502 42.3938L125.099 41.8503L128.229 39.5317Z" fill="#654334"/>
<path d="M133.059 48.0083L132.467 46.9125L133.024 46.6057L134.558 49.3757L134.001 49.6825L133.4 48.6L130.534 50.1997L130.201 49.5949L133.059 48.0083Z" fill="#654334"/>
<path d="M133.532 55.02L134.137 55.2172C133.975 55.6406 133.975 56.1087 134.137 56.5321C134.294 56.9266 134.575 57.1019 134.847 56.9923C135.105 56.8915 135.184 56.6899 135.075 55.9536C134.952 55.112 135.004 54.5861 135.675 54.3187C136.297 54.0689 136.933 54.4151 137.218 55.1383C137.419 55.6122 137.444 56.1423 137.288 56.6329L136.67 56.4839C136.794 56.1156 136.794 55.717 136.67 55.3487C136.521 54.9762 136.232 54.8359 136.004 54.9323C135.723 55.0419 135.666 55.2567 135.776 56.0237C135.899 56.8608 135.776 57.3649 135.18 57.6059C134.5 57.8733 133.865 57.5051 133.58 56.7293C133.355 56.1847 133.338 55.5765 133.532 55.02Z" fill="#654334"/>
<path d="M32.9434 117.258L34.1136 118.546C34.4067 118.836 34.5737 119.23 34.5782 119.642C34.5668 119.796 34.5248 119.946 34.4549 120.084C34.3849 120.222 34.2883 120.344 34.1706 120.444C33.9736 120.634 33.7162 120.749 33.4431 120.769C33.17 120.789 32.8986 120.713 32.676 120.554L32.2903 122.307L31.7424 121.706L32.1062 120.08L31.5189 119.449L30.5152 120.361L30.0769 119.852L32.9434 117.258ZM32.6453 119.808C32.6983 119.891 32.7681 119.96 32.8502 120.013C32.9323 120.066 33.0247 120.101 33.1213 120.116C33.2179 120.13 33.3165 120.124 33.4105 120.098C33.5045 120.071 33.5918 120.025 33.6665 119.962C33.9777 119.681 33.9427 119.309 33.6052 118.932L32.9346 118.191L31.9616 119.068L32.6453 119.808Z" fill="#654334"/>
<path d="M38.5097 122.904L40.7012 124.78L40.3067 125.244L38.6324 123.833L37.9793 124.604L39.4652 125.871L39.0707 126.336L37.5805 125.073L36.9187 125.854L38.6236 127.3L38.2073 127.778L35.9851 125.889L38.5097 122.904Z" fill="#654334"/>
<path d="M43.2258 129.092C43.3656 128.865 43.5499 128.669 43.7676 128.516C43.9852 128.362 44.2318 128.254 44.4923 128.198C44.7528 128.143 45.0218 128.14 45.2833 128.191C45.5447 128.243 45.7931 128.346 46.0134 128.496C46.2562 128.641 46.4661 128.836 46.6298 129.067C46.7936 129.297 46.9075 129.56 46.9645 129.837L46.3158 130.026C46.2803 129.823 46.2047 129.63 46.0932 129.458C45.9818 129.286 45.8369 129.137 45.6671 129.022C45.5187 128.928 45.353 128.865 45.1798 128.836C45.0066 128.807 44.8294 128.814 44.6586 128.855C44.4879 128.895 44.327 128.97 44.1856 129.074C44.0441 129.178 43.9249 129.309 43.8351 129.46C43.7311 129.603 43.6569 129.765 43.6169 129.937C43.5769 130.108 43.5719 130.287 43.6022 130.46C43.6324 130.634 43.6974 130.8 43.7931 130.948C43.8888 131.096 44.0134 131.224 44.1594 131.323C44.338 131.436 44.5379 131.511 44.7468 131.544C44.9557 131.576 45.169 131.565 45.3735 131.511L45.4962 132.125C45.2097 132.207 44.9084 132.225 44.6143 132.177C44.3201 132.128 44.0405 132.015 43.7956 131.844C43.5745 131.704 43.3838 131.52 43.235 131.304C43.0861 131.089 42.982 130.845 42.9289 130.589C42.8757 130.332 42.8746 130.067 42.9256 129.81C42.9767 129.553 43.0787 129.309 43.2258 129.092Z" fill="#654334"/>
<path d="M51.3472 131.612L51.9608 131.919L50.2296 135.425L49.616 135.123L51.3472 131.612Z" fill="#654334"/>
<path d="M56.4799 133.914L57.9306 134.44C58.8072 134.751 59.1447 135.435 58.8773 136.193C58.5793 137.017 57.7597 137.205 56.9532 136.912L56.2257 136.644L55.7874 137.828L55.1431 137.591L56.4799 133.914ZM57.1811 136.329C57.2719 136.378 57.372 136.407 57.4748 136.415C57.5776 136.422 57.6809 136.409 57.778 136.374C57.8751 136.339 57.9638 136.284 58.0385 136.213C58.1131 136.142 58.1719 136.056 58.2111 135.961C58.3689 135.522 58.141 135.194 57.6589 135.018L56.9094 134.742L56.4273 136.057L57.1811 136.329Z" fill="#654334"/>
<path d="M63.7466 136.211L66.5736 136.834L66.4421 137.434L64.2857 136.956L64.0665 137.947L65.9775 138.385L65.846 138.981L63.9307 138.543L63.7071 139.569L65.8986 140.051L65.7671 140.647L62.9138 140.02L63.7466 136.211Z" fill="#654334"/>
<path d="M70.6936 140.848L71.1319 140.409C71.4329 140.759 71.8564 140.98 72.3153 141.027C72.7536 141.062 73.0209 140.887 73.0472 140.589C73.0735 140.309 72.9289 140.151 72.2233 139.914C71.4124 139.638 70.9697 139.353 71.0311 138.634C71.0925 137.968 71.6885 137.556 72.4643 137.626C72.9787 137.661 73.4636 137.879 73.8318 138.24L73.4198 138.722C73.1502 138.448 72.7999 138.269 72.4205 138.209C72.0173 138.17 71.7674 138.358 71.7455 138.612C71.7192 138.915 71.8858 139.051 72.6221 139.309C73.4242 139.585 73.823 139.914 73.7617 140.563C73.6959 141.29 73.0867 141.672 72.2671 141.597C71.6671 141.554 71.1055 141.286 70.6936 140.848Z" fill="#654334"/>
<path d="M84.0354 139.44L84.7717 139.366L84.8506 140.12L84.1143 140.199L84.0354 139.44Z" fill="#654334"/>
<path d="M95.5186 135.952L94.3352 136.32L94.1423 135.711L97.1709 134.773L97.3594 135.378L96.176 135.746L97.149 138.871L96.4872 139.077L95.5186 135.952Z" fill="#654334"/>
<path d="M101.979 135.048C101.864 134.806 101.798 134.542 101.786 134.274C101.774 134.006 101.816 133.738 101.91 133.486C102.004 133.234 102.147 133.004 102.331 132.808C102.515 132.613 102.737 132.456 102.983 132.348C103.222 132.229 103.482 132.159 103.749 132.143C104.016 132.127 104.283 132.165 104.535 132.255C104.786 132.344 105.017 132.484 105.214 132.665C105.41 132.846 105.568 133.065 105.678 133.308C105.794 133.551 105.859 133.814 105.871 134.082C105.883 134.351 105.841 134.619 105.747 134.87C105.654 135.122 105.51 135.352 105.326 135.548C105.142 135.743 104.92 135.9 104.675 136.008C104.435 136.127 104.175 136.197 103.908 136.213C103.641 136.229 103.374 136.191 103.123 136.102C102.871 136.012 102.64 135.872 102.443 135.691C102.247 135.51 102.089 135.292 101.979 135.048ZM105.047 133.624C104.978 133.458 104.876 133.308 104.747 133.183C104.618 133.058 104.466 132.96 104.299 132.895C104.131 132.83 103.953 132.799 103.773 132.805C103.594 132.81 103.417 132.852 103.254 132.927C103.093 133.002 102.948 133.109 102.829 133.242C102.71 133.375 102.619 133.53 102.562 133.699C102.505 133.868 102.483 134.047 102.498 134.224C102.512 134.402 102.562 134.575 102.645 134.733C102.713 134.899 102.813 135.05 102.941 135.176C103.069 135.302 103.222 135.401 103.389 135.466C103.557 135.531 103.736 135.561 103.916 135.554C104.095 135.547 104.271 135.503 104.433 135.425C104.593 135.349 104.736 135.241 104.853 135.108C104.971 134.975 105.06 134.82 105.115 134.651C105.171 134.483 105.192 134.305 105.177 134.129C105.163 133.952 105.112 133.78 105.03 133.624H105.047Z" fill="#654334"/>
<path d="M109.851 131.004C109.577 130.551 109.489 130.01 109.605 129.494C109.721 128.978 110.033 128.527 110.475 128.236C110.916 127.944 111.453 127.835 111.974 127.931C112.494 128.027 112.957 128.321 113.265 128.751C113.563 129.204 113.669 129.757 113.56 130.288C113.451 130.819 113.135 131.284 112.682 131.583C112.229 131.881 111.677 131.987 111.146 131.878C110.615 131.768 110.149 131.452 109.851 131V131.004ZM112.669 129.159C112.577 129.004 112.455 128.87 112.31 128.764C112.165 128.657 111.999 128.582 111.824 128.541C111.649 128.5 111.468 128.495 111.29 128.525C111.113 128.556 110.944 128.623 110.793 128.721C110.644 128.818 110.515 128.945 110.416 129.093C110.317 129.242 110.249 129.409 110.217 129.584C110.185 129.76 110.188 129.94 110.228 130.114C110.267 130.288 110.342 130.452 110.447 130.596C110.537 130.753 110.658 130.889 110.802 130.997C110.947 131.104 111.112 131.181 111.287 131.222C111.463 131.263 111.645 131.268 111.822 131.236C112 131.203 112.169 131.135 112.318 131.035C112.468 130.938 112.597 130.811 112.696 130.663C112.796 130.515 112.864 130.348 112.897 130.172C112.93 129.997 112.926 129.816 112.887 129.642C112.848 129.468 112.774 129.303 112.669 129.159Z" fill="#654334"/>
<path d="M115.926 124.236L116.447 123.798L118.595 126.283L120.146 124.938L120.554 125.407L118.485 127.204L115.926 124.236Z" fill="#654334"/>
<path d="M123.635 121.576L123.543 120.941C124.003 120.91 124.433 120.702 124.744 120.362C125.029 120.047 125.055 119.714 124.84 119.521C124.634 119.337 124.402 119.354 123.81 119.779C123.105 120.266 122.61 120.45 122.057 119.972C121.558 119.534 121.588 118.802 122.105 118.219C122.442 117.826 122.909 117.567 123.42 117.491L123.561 118.114C123.176 118.171 122.821 118.355 122.553 118.635C122.285 118.933 122.285 119.245 122.474 119.416C122.697 119.613 122.912 119.573 123.552 119.131C124.192 118.688 124.753 118.53 125.235 118.964C125.778 119.455 125.721 120.169 125.174 120.783C124.776 121.228 124.228 121.511 123.635 121.576Z" fill="#654334"/>
<path d="M80.3843 53.1003C80.3201 53.0337 80.2432 52.9808 80.1581 52.9447C80.073 52.9085 79.9815 52.8899 79.889 52.8899C79.7966 52.8899 79.7051 52.9085 79.62 52.9447C79.5349 52.9808 79.458 53.0337 79.3938 53.1003L78.4383 54.0514C78.3716 54.116 78.3186 54.1933 78.2824 54.2787C78.2462 54.3642 78.2275 54.456 78.2275 54.5489C78.2275 54.6417 78.2462 54.7335 78.2824 54.819C78.3186 54.9044 78.3716 54.9818 78.4383 55.0463L79.3938 56.0018C79.5224 56.1228 79.6906 56.1929 79.8671 56.199C79.9559 56.2001 80.0441 56.1832 80.1262 56.1493C80.2083 56.1154 80.2827 56.0653 80.3449 56.0018L81.3003 55.0463C81.367 54.9818 81.42 54.9044 81.4562 54.819C81.4924 54.7335 81.5111 54.6417 81.5111 54.5489C81.5111 54.456 81.4924 54.3642 81.4562 54.2787C81.42 54.1933 81.367 54.116 81.3003 54.0514L80.3843 53.1003ZM79.9109 55.3663L79.0738 54.5291L79.9109 53.6964L80.7437 54.5291L79.9109 55.3663Z" fill="#654334"/>
<path d="M76.6851 52.0665C76.6205 51.9998 76.5432 51.9468 76.4578 51.9106C76.3723 51.8744 76.2804 51.8557 76.1876 51.8557C76.0948 51.8557 76.003 51.8744 75.9175 51.9106C75.832 51.9468 75.7547 51.9998 75.6902 52.0665L74.7391 53.0176C74.6724 53.0821 74.6194 53.1594 74.5832 53.2449C74.547 53.3303 74.5283 53.4222 74.5283 53.515C74.5283 53.6078 74.547 53.6997 74.5832 53.7851C74.6194 53.8706 74.6724 53.9479 74.7391 54.0125L75.6902 54.968C75.821 55.0883 75.9903 55.1582 76.1679 55.1652C76.2567 55.1663 76.3449 55.1494 76.427 55.1155C76.5091 55.0816 76.5835 55.0314 76.6456 54.968L77.6011 54.0125C77.6678 53.9479 77.7208 53.8706 77.757 53.7851C77.7932 53.6997 77.8119 53.6078 77.8119 53.515C77.8119 53.4222 77.7932 53.3303 77.757 53.2449C77.7208 53.1594 77.6678 53.0821 77.6011 53.0176L76.6851 52.0665ZM76.2073 54.3719L75.3746 53.5347L76.2073 52.702L77.0445 53.5347L76.2073 54.3719Z" fill="#654334"/>
<path d="M75.2562 50.9884C75.4338 50.9814 75.6031 50.9115 75.7339 50.7912L76.685 49.8357C76.7517 49.7712 76.8047 49.6938 76.8409 49.6084C76.8771 49.5229 76.8958 49.4311 76.8958 49.3383C76.8958 49.2455 76.8771 49.1536 76.8409 49.0681C76.8047 48.9827 76.7517 48.9054 76.685 48.8408L75.7339 47.8897C75.6693 47.823 75.592 47.77 75.5066 47.7338C75.4211 47.6976 75.3293 47.679 75.2364 47.679C75.1436 47.679 75.0518 47.6976 74.9663 47.7338C74.8809 47.77 74.8035 47.823 74.739 47.8897L73.7835 48.8408C73.7168 48.9054 73.6638 48.9827 73.6276 49.0681C73.5914 49.1536 73.5728 49.2455 73.5728 49.3383C73.5728 49.4311 73.5914 49.5229 73.6276 49.6084C73.6638 49.6938 73.7168 49.7712 73.7835 49.8357L74.739 50.7912C74.8838 50.914 75.0663 50.9836 75.2562 50.9884ZM75.2562 48.4858L76.0889 49.3185L75.2562 50.1557L74.419 49.3229L75.2562 48.4858Z" fill="#654334"/>
<path d="M81.4625 49.875C81.3107 49.9919 81.2102 50.1632 81.182 50.3527L80.9847 51.707C80.9597 51.8911 81.0082 52.0776 81.1198 52.2261C81.2314 52.3747 81.397 52.4732 81.5808 52.5003L82.9308 52.702H83.0535C83.1272 52.706 83.2008 52.6936 83.2691 52.6655C83.3373 52.6374 83.3984 52.5945 83.4479 52.5398C83.5235 52.4832 83.5872 52.4122 83.6353 52.331C83.6834 52.2498 83.7151 52.1599 83.7285 52.0664L83.9257 50.7515C83.9479 50.5706 83.906 50.3876 83.8073 50.2344C83.6886 50.0846 83.5182 49.9846 83.3296 49.9538L81.9797 49.7566C81.7987 49.7337 81.6155 49.7756 81.4625 49.875ZM82.9395 51.8648L81.7868 51.707L81.9446 50.5543L83.1017 50.7121L82.9395 51.8648Z" fill="#654334"/>
<path d="M77.6801 51.5484L78.9556 52.0656C79.0431 52.1009 79.1378 52.1144 79.2317 52.105C79.3269 52.1114 79.4224 52.0979 79.5122 52.0656C79.6775 51.9874 79.8161 51.8625 79.911 51.7062L80.4282 50.4308C80.4947 50.2615 80.4946 50.0734 80.428 49.9042C80.3613 49.735 80.2329 49.5974 80.0688 49.5191L78.7934 49.0019C78.6248 48.934 78.4366 48.9329 78.2673 48.9989C78.0979 49.0649 77.96 49.1929 77.8817 49.3569L77.3646 50.6368C77.3191 50.7161 77.2911 50.8042 77.2826 50.8952C77.274 50.9862 77.2851 51.078 77.315 51.1644C77.3449 51.2507 77.3929 51.3297 77.4559 51.3959C77.5189 51.4622 77.5954 51.5142 77.6801 51.5484ZM78.5173 49.7558L79.5911 50.1941L79.1528 51.2679L78.079 50.8296L78.5173 49.7558Z" fill="#654334"/>
<path d="M88.405 42.2534H87.4889C87.4333 42.2476 87.3771 42.2535 87.324 42.2707C87.2708 42.288 87.2219 42.3162 87.1803 42.3536C87.1388 42.3911 87.1056 42.4368 87.0828 42.4878C87.0601 42.5389 87.0483 42.5942 87.0483 42.6501C87.0483 42.706 87.0601 42.7612 87.0828 42.8123C87.1056 42.8634 87.1388 42.9091 87.1803 42.9465C87.2219 42.9839 87.2708 43.0121 87.324 43.0294C87.3771 43.0467 87.4333 43.0526 87.4889 43.0467H88.405C88.4606 43.0526 88.5168 43.0467 88.5699 43.0294C88.6231 43.0121 88.672 42.9839 88.7136 42.9465C88.7551 42.9091 88.7883 42.8634 88.8111 42.8123C88.8338 42.7612 88.8456 42.706 88.8456 42.6501C88.8456 42.5942 88.8338 42.5389 88.8111 42.4878C88.7883 42.4368 88.7551 42.3911 88.7136 42.3536C88.672 42.3162 88.6231 42.288 88.5699 42.2707C88.5168 42.2535 88.4606 42.2476 88.405 42.2534Z" fill="#654334"/>
<path d="M85.9374 39.7849C85.8842 39.7817 85.8309 39.7898 85.781 39.8087C85.7312 39.8276 85.6859 39.8569 85.6482 39.8946C85.6106 39.9323 85.5813 39.9775 85.5624 40.0274C85.5435 40.0772 85.5353 40.1305 85.5385 40.1837V41.0954C85.5385 41.2011 85.5805 41.3026 85.6553 41.3774C85.7301 41.4522 85.8316 41.4942 85.9374 41.4942C86.0431 41.4942 86.1446 41.4522 86.2194 41.3774C86.2942 41.3026 86.3362 41.2011 86.3362 41.0954V40.1837C86.3362 40.0779 86.2942 39.9765 86.2194 39.9017C86.1446 39.8269 86.0431 39.7849 85.9374 39.7849Z" fill="#654334"/>
<path d="M87.2918 43.4461C87.2558 43.4085 87.2126 43.3787 87.1648 43.3583C87.1169 43.3379 87.0655 43.3274 87.0135 43.3274C86.9615 43.3274 86.91 43.3379 86.8622 43.3583C86.8144 43.3787 86.7712 43.4085 86.7352 43.4461C86.6971 43.4817 86.6667 43.5248 86.646 43.5727C86.6252 43.6206 86.6145 43.6722 86.6145 43.7244C86.6145 43.7766 86.6252 43.8282 86.646 43.8761C86.6667 43.9239 86.6971 43.967 86.7352 44.0027L87.3707 44.6382C87.406 44.6769 87.449 44.7078 87.4969 44.7289C87.5448 44.75 87.5966 44.761 87.649 44.761C87.7014 44.761 87.7532 44.75 87.8011 44.7289C87.849 44.7078 87.892 44.6769 87.9273 44.6382C87.9648 44.6022 87.9947 44.559 88.0151 44.5112C88.0355 44.4634 88.046 44.4119 88.046 44.3599C88.046 44.3079 88.0355 44.2565 88.0151 44.2086C87.9947 44.1608 87.9648 44.1176 87.9273 44.0816L87.2918 43.4461Z" fill="#654334"/>
<path d="M84.5042 40.6231C84.4685 40.585 84.4254 40.5547 84.3775 40.5339C84.3296 40.5131 84.278 40.5024 84.2258 40.5024C84.1737 40.5024 84.122 40.5131 84.0742 40.5339C84.0263 40.5547 83.9832 40.585 83.9475 40.6231C83.91 40.6591 83.8802 40.7023 83.8598 40.7501C83.8394 40.798 83.8289 40.8494 83.8289 40.9014C83.8289 40.9534 83.8394 41.0049 83.8598 41.0527C83.8802 41.1005 83.91 41.1437 83.9475 41.1797L84.5874 41.8153C84.6627 41.886 84.7605 41.9279 84.8636 41.9336C84.9682 41.9289 85.0677 41.887 85.1441 41.8153C85.1816 41.7793 85.2114 41.7361 85.2318 41.6882C85.2522 41.6404 85.2628 41.5889 85.2628 41.5369C85.2628 41.4849 85.2522 41.4335 85.2318 41.3857C85.2114 41.3378 85.1816 41.2946 85.1441 41.2586L84.5042 40.6231Z" fill="#654334"/>
<path d="M87.0113 41.9724C87.0638 41.9738 87.116 41.964 87.1643 41.9436C87.2127 41.9232 87.2562 41.8927 87.2918 41.8541L87.9273 41.2186C87.9648 41.1826 87.9947 41.1393 88.0151 41.0915C88.0355 41.0437 88.046 40.9922 88.046 40.9402C88.046 40.8882 88.0355 40.8368 88.0151 40.789C87.9947 40.7411 87.9648 40.6979 87.9273 40.6619C87.8917 40.6238 87.8486 40.5935 87.8007 40.5727C87.7528 40.552 87.7012 40.5413 87.649 40.5413C87.5968 40.5413 87.5452 40.552 87.4973 40.5727C87.4495 40.5935 87.4064 40.6238 87.3707 40.6619L86.7352 41.2974C86.6971 41.3331 86.6667 41.3762 86.646 41.4241C86.6252 41.472 86.6145 41.5236 86.6145 41.5758C86.6145 41.6279 86.6252 41.6796 86.646 41.7274C86.6667 41.7753 86.6971 41.8184 86.7352 41.8541C86.8104 41.9248 86.9082 41.9667 87.0113 41.9724Z" fill="#654334"/>
<path d="M86.034 38.4223C84.9312 38.4235 83.8739 38.8621 83.0941 39.6418C82.3143 40.4216 81.8757 41.4789 81.8745 42.5817H72.4205C72.2159 42.5746 72.0165 42.6468 71.8639 42.7833C71.8215 42.8316 71.7892 42.8879 71.7689 42.9489C71.7486 43.0099 71.7406 43.0743 71.7456 43.1384L72.9421 57.4311C72.953 57.5587 73.0113 57.6775 73.1053 57.7642C73.1994 57.851 73.3225 57.8995 73.4505 57.9001H84.1756C84.3036 57.8995 84.4267 57.851 84.5208 57.7642C84.6148 57.6775 84.6731 57.5587 84.684 57.4311L85.5606 46.7017C85.7061 46.7185 85.8524 46.7273 85.9989 46.728C87.1032 46.728 88.1623 46.2893 88.9431 45.5084C89.724 44.7276 90.1627 43.6685 90.1627 42.5642C90.1627 41.4599 89.724 40.4008 88.9431 39.6199C88.1623 38.8391 87.1032 38.4004 85.9989 38.4004L86.034 38.4223ZM83.8863 57.155H73.6653L72.907 47.9289C72.9465 47.8895 72.9859 47.8895 72.9859 47.8456C73.8258 47.1516 74.8812 46.7719 75.9707 46.7719C77.0602 46.7719 78.1157 47.1516 78.9555 47.8456C79.8321 48.4461 80.7437 49.0816 82.4136 49.0816C83.1524 49.088 83.8841 48.9386 84.5613 48.6433L83.8863 57.155ZM84.684 47.6879C84.0121 48.0945 83.2383 48.3012 82.4531 48.2839C81.3642 48.2881 80.3087 47.9078 79.4727 47.2101C78.5961 46.614 77.6801 45.9785 76.0496 45.9785C74.9023 45.952 73.78 46.3168 72.8676 47.0129L72.5476 43.3926H85.039L84.684 47.6879ZM86.034 45.9347C85.9036 45.9325 85.7734 45.9237 85.6439 45.9084L85.8762 43.0989C85.8733 42.9714 85.832 42.8477 85.7578 42.7439C85.5854 42.6193 85.3735 42.5617 85.1618 42.5817H82.6722C82.6722 41.9158 82.8698 41.2648 83.2398 40.7112C83.6099 40.1575 84.1359 39.7261 84.7512 39.4714C85.3665 39.2168 86.0436 39.1504 86.6966 39.2806C87.3497 39.4109 87.9495 39.7319 88.4201 40.2031C88.8907 40.6743 89.2109 41.2745 89.3403 41.9277C89.4697 42.581 89.4024 43.2579 89.147 43.8729C88.8915 44.4879 88.4594 45.0133 87.9053 45.3827C87.3511 45.752 86.6999 45.9487 86.034 45.9478V45.9347Z" fill="#654334"/>
<path d="M7.99121 77.9957C7.99121 73.2315 11.6597 69.9224 15.8367 69.9224C19.0757 69.9224 21.609 71.8728 21.609 73.7268C21.6227 73.9154 21.5985 74.1049 21.5379 74.2841C21.4773 74.4633 21.3816 74.6286 21.2562 74.7703C21.1309 74.912 20.9785 75.0272 20.808 75.1092C20.6375 75.1911 20.4524 75.2382 20.2635 75.2476C20.0946 75.2572 19.9255 75.2322 19.7666 75.1742C19.6077 75.1162 19.4622 75.0264 19.3392 74.9103C19.2161 74.7942 19.118 74.6543 19.0509 74.499C18.9837 74.3438 18.9489 74.1764 18.9486 74.0073C18.9449 73.8108 18.9985 73.6175 19.1027 73.4509C19.207 73.2844 19.3575 73.1518 19.5359 73.0693C19.0976 72.3856 17.7827 71.5178 15.806 71.5178C12.2996 71.5178 9.77507 74.4982 9.77507 77.9694C9.77507 81.2786 12.2602 84.3291 15.9112 84.3291C17.7089 84.3239 19.4314 83.6069 20.7017 82.3349L21.7317 83.5796C20.1784 85.0981 18.0878 85.9409 15.9156 85.9245C11.1425 85.9245 7.99121 82.2384 7.99121 77.9957Z" fill="#654334"/>
<path d="M26.7502 77.9475C26.7502 73.4287 30.055 69.9224 34.6089 69.9224C39.0882 69.9224 42.3711 73.4287 42.3711 77.8993C42.3711 82.4269 39.04 85.9245 34.5124 85.9245C29.9849 85.9245 26.7502 82.405 26.7502 77.9475ZM40.5653 77.9475C40.5653 74.3097 38.0802 71.5178 34.5606 71.5178C31.0411 71.5178 28.5297 74.3053 28.5297 77.8993C28.5297 81.4933 31.0192 84.3291 34.5606 84.3291C38.1021 84.3291 40.5653 81.5591 40.5653 77.9475Z" fill="#654334"/>
<path d="M47.7488 77.9957C47.7488 73.2315 51.4085 69.9224 55.5855 69.9224C58.8245 69.9224 61.3578 71.8728 61.3578 73.7268C61.3715 73.9168 61.3467 74.1077 61.2851 74.2881C61.2234 74.4684 61.1261 74.6344 60.9989 74.7764C60.8717 74.9183 60.7172 75.0331 60.5447 75.1141C60.3722 75.1951 60.1852 75.2405 59.9947 75.2476C59.828 75.2535 59.6618 75.2258 59.5059 75.1662C59.3501 75.1065 59.2079 75.0162 59.0877 74.9005C58.9674 74.7847 58.8717 74.646 58.8062 74.4926C58.7406 74.3392 58.7066 74.1741 58.7061 74.0073C58.7025 73.8108 58.756 73.6175 58.8603 73.4509C58.9646 73.2844 59.1151 73.1518 59.2935 73.0693C58.8552 72.3856 57.5403 71.5178 55.5636 71.5178C52.0572 71.5178 49.5326 74.4982 49.5326 77.9694C49.5326 81.2786 52.0178 84.3291 55.6688 84.3291C57.465 84.3228 59.1857 83.6058 60.4549 82.3349L61.4849 83.5796C59.9316 85.0981 57.8409 85.9409 55.6688 85.9245C50.8914 85.9245 47.7488 82.2384 47.7488 77.9957Z" fill="#654334"/>
<path d="M67.0513 84.0937H69.0192V71.7557H67.0513V70.2085H72.7973V71.7294H70.7812V78.466L77.4651 71.7294H75.4008V70.2085H81.3616V71.7557H79.6084L74.6118 76.7522L79.5383 84.0937H81.4887V85.6452H78.4206L73.297 77.9006L70.7812 80.4427V84.1024H72.7973V85.654H67.0513V84.0937Z" fill="#654334"/>
<path d="M90.2853 84.093H92.3716V71.6761H88.5015V74.1612H86.8359V70.2166H99.6692V74.1612H98.0037V71.6761H94.1335V84.0842H96.2198V85.6358H90.2853V84.093Z" fill="#654334"/>
<path d="M103.399 84.0937H104.876L109.496 71.7294H107.743V70.2085H114.782V71.7294H113.028L117.653 84.0937H119.13V85.6452H113.953V84.12H115.763L114.378 80.32H108.067L106.682 84.12H108.558V85.6452H103.399V84.0937ZM113.861 78.8341L111.231 71.633L108.58 78.8341H113.861Z" fill="#654334"/>
<path d="M124.661 84.0937H126.769V71.7557H124.678V70.2085H130.591V71.7557H128.505V84.0937H130.591V85.6452H124.661V84.0937Z" fill="#654334"/>
<path d="M137.257 84.0937H139.225V71.7557H137.257V70.2085H143.122V71.7557H140.987V84.12H146.334V81.7576H148V85.654H137.257V84.0937Z" fill="#654334"/>
</svg>
