<svg width="134" height="134" viewBox="0 0 134 134" fill="none" xmlns="http://www.w3.org/2000/svg">
<g opacity="0.2">
<path d="M132.78 67.4502H66.3901V133.84H132.78V67.4502Z" stroke="white" stroke-width="0.5" stroke-miterlimit="10"/>
<path d="M99.6402 100.66V133.85C90.8377 133.85 82.3957 130.353 76.1713 124.129C69.947 117.905 66.4502 109.463 66.4502 100.66H99.6402Z" stroke="white" stroke-width="0.5" stroke-miterlimit="10"/>
<path d="M132.8 100.66V67.46C128.44 67.4586 124.122 68.3165 120.093 69.9845C116.065 71.6525 112.404 74.0979 109.321 77.1811C106.238 80.2643 103.793 83.9247 102.125 87.9533C100.457 91.9819 99.5988 96.2997 99.6001 100.66H132.8Z" stroke="white" stroke-width="0.5" stroke-miterlimit="10"/>
<path d="M132.8 100.66H99.6001C99.6014 105.019 100.461 109.334 102.13 113.361C103.8 117.387 106.245 121.045 109.328 124.126C112.411 127.207 116.071 129.651 120.098 131.317C124.125 132.984 128.442 133.841 132.8 133.84V100.66Z" stroke="white" stroke-width="0.5" stroke-miterlimit="10"/>
<path d="M66.4502 100.66H99.6402C99.6415 96.3006 98.7839 91.9836 97.1166 87.9556C95.4492 83.9277 93.0047 80.2677 89.9226 77.1846C86.8405 74.1016 83.1812 71.6559 79.1537 69.9874C75.1263 68.3188 70.8096 67.46 66.4502 67.46V100.66Z" stroke="white" stroke-width="0.5" stroke-miterlimit="10"/>
<path d="M99.6401 133.84V100.64" stroke="white" stroke-width="0.5" stroke-miterlimit="10"/>
<path d="M93.8799 133.33L99.6399 100.64" stroke="white" stroke-width="0.5" stroke-miterlimit="10"/>
<path d="M88.29 131.84L99.64 100.64" stroke="white" stroke-width="0.5" stroke-miterlimit="10"/>
<path d="M83.05 129.39L99.64 100.64" stroke="white" stroke-width="0.5" stroke-miterlimit="10"/>
<path d="M78.3101 126.07L99.6401 100.64" stroke="white" stroke-width="0.5" stroke-miterlimit="10"/>
<path d="M74.22 121.98L99.64 100.64" stroke="white" stroke-width="0.5" stroke-miterlimit="10"/>
<path d="M70.8999 117.24L99.6399 100.64" stroke="white" stroke-width="0.5" stroke-miterlimit="10"/>
<path d="M68.45 112L99.6399 100.64" stroke="white" stroke-width="0.5" stroke-miterlimit="10"/>
<path d="M66.95 106.41L99.6399 100.64" stroke="white" stroke-width="0.5" stroke-miterlimit="10"/>
<path d="M99.6401 100.64H132.84" stroke="white" stroke-width="0.5" stroke-miterlimit="10"/>
<path d="M100.15 94.88L132.84 100.64" stroke="white" stroke-width="0.5" stroke-miterlimit="10"/>
<path d="M101.65 89.29L132.84 100.64" stroke="white" stroke-width="0.5" stroke-miterlimit="10"/>
<path d="M104.09 84.05L132.84 100.64" stroke="white" stroke-width="0.5" stroke-miterlimit="10"/>
<path d="M107.41 79.3101L132.84 100.64" stroke="white" stroke-width="0.5" stroke-miterlimit="10"/>
<path d="M111.5 75.22L132.84 100.64" stroke="white" stroke-width="0.5" stroke-miterlimit="10"/>
<path d="M116.24 71.8999L132.84 100.64" stroke="white" stroke-width="0.5" stroke-miterlimit="10"/>
<path d="M121.48 69.4502L132.84 100.64" stroke="white" stroke-width="0.5" stroke-miterlimit="10"/>
<path d="M127.07 67.96L132.84 100.64" stroke="white" stroke-width="0.5" stroke-miterlimit="10"/>
<path d="M66.5199 67.4502H0.129883V133.84H66.5199V67.4502Z" stroke="white" stroke-width="0.5" stroke-miterlimit="10"/>
<path d="M33.26 100.66V133.85C42.0625 133.85 50.5045 130.353 56.7289 124.129C62.9532 117.905 66.45 109.463 66.45 100.66H33.26Z" stroke="white" stroke-width="0.5" stroke-miterlimit="10"/>
<path d="M33.2601 67.4502V100.66C28.8998 100.662 24.582 99.8036 20.5534 98.1357C16.5248 96.4677 12.8644 94.0222 9.78119 90.9391C6.69802 87.8559 4.25259 84.1954 2.5846 80.1668C0.916605 76.1382 0.0587462 71.8204 0.0600601 67.4602L33.2601 67.4502Z" stroke="white" stroke-width="0.5" stroke-miterlimit="10"/>
<path d="M33.2601 133.84H0.0600586C0.0613716 129.481 0.921165 125.166 2.59033 121.14C4.2595 117.113 6.70536 113.455 9.78827 110.374C12.8712 107.293 16.5307 104.849 20.558 103.183C24.5853 101.516 28.9015 100.659 33.2601 100.66V133.84Z" stroke="white" stroke-width="0.5" stroke-miterlimit="10"/>
<path d="M33.26 67.4502H66.45C66.4526 71.8105 65.5961 76.1285 63.9293 80.1576C62.2625 84.1867 59.8182 87.8479 56.736 90.932C53.6537 94.0161 49.994 96.4626 45.9659 98.1318C41.9378 99.801 37.6203 100.66 33.26 100.66V67.4502Z" stroke="white" stroke-width="0.5" stroke-miterlimit="10"/>
<path d="M33.26 133.84V100.64" stroke="white" stroke-width="0.5" stroke-miterlimit="10"/>
<path d="M39.02 133.33L33.26 100.64" stroke="white" stroke-width="0.5" stroke-miterlimit="10"/>
<path d="M44.61 131.84L33.26 100.64" stroke="white" stroke-width="0.5" stroke-miterlimit="10"/>
<path d="M49.85 129.39L33.26 100.64" stroke="white" stroke-width="0.5" stroke-miterlimit="10"/>
<path d="M54.59 126.07L33.26 100.64" stroke="white" stroke-width="0.5" stroke-miterlimit="10"/>
<path d="M58.68 121.98L33.26 100.64" stroke="white" stroke-width="0.5" stroke-miterlimit="10"/>
<path d="M62 117.24L33.26 100.64" stroke="white" stroke-width="0.5" stroke-miterlimit="10"/>
<path d="M64.45 112L33.26 100.64" stroke="white" stroke-width="0.5" stroke-miterlimit="10"/>
<path d="M65.95 106.41L33.26 100.64" stroke="white" stroke-width="0.5" stroke-miterlimit="10"/>
<path d="M0.0600586 67.4502H33.2601" stroke="white" stroke-width="0.5" stroke-miterlimit="10"/>
<path d="M0.570068 73.2102L33.2601 67.4502" stroke="white" stroke-width="0.5" stroke-miterlimit="10"/>
<path d="M2.07007 78.8002L33.2601 67.4502" stroke="white" stroke-width="0.5" stroke-miterlimit="10"/>
<path d="M4.51001 84.0502L33.26 67.4502" stroke="white" stroke-width="0.5" stroke-miterlimit="10"/>
<path d="M7.83008 88.7902L33.2601 67.4502" stroke="white" stroke-width="0.5" stroke-miterlimit="10"/>
<path d="M11.9199 92.8802L33.2599 67.4502" stroke="white" stroke-width="0.5" stroke-miterlimit="10"/>
<path d="M16.6602 96.2002L33.2602 67.4502" stroke="white" stroke-width="0.5" stroke-miterlimit="10"/>
<path d="M21.8999 98.6402L33.2599 67.4502" stroke="white" stroke-width="0.5" stroke-miterlimit="10"/>
<path d="M27.49 100.14L33.26 67.4502" stroke="white" stroke-width="0.5" stroke-miterlimit="10"/>
<path d="M66.4501 1H0.0600586V67.39H66.4501V1Z" stroke="white" stroke-width="0.5" stroke-miterlimit="10"/>
<path d="M33.1899 34.2V1C41.9951 1 50.4397 4.49785 56.6659 10.7241C62.8921 16.9503 66.39 25.3948 66.39 34.2H33.1899Z" stroke="white" stroke-width="0.5" stroke-miterlimit="10"/>
<path d="M0 34.2002V67.3902C8.80346 67.3902 17.2465 63.8937 23.4724 57.6697C29.6983 51.4456 33.1974 43.0036 33.2 34.2002H0Z" stroke="white" stroke-width="0.5" stroke-miterlimit="10"/>
<path d="M0 34.2H33.2C33.1974 25.3956 29.6987 16.9526 23.473 10.727C17.2474 4.50136 8.80437 1.00265 0 1V34.2Z" stroke="white" stroke-width="0.5" stroke-miterlimit="10"/>
<path d="M66.39 34.2002H33.1899C33.1926 43.0036 36.6916 51.4456 42.9175 57.6697C49.1435 63.8937 57.5865 67.3902 66.39 67.3902V34.2002Z" stroke="white" stroke-width="0.5" stroke-miterlimit="10"/>
<path d="M33.1899 1V34.2" stroke="white" stroke-width="0.5" stroke-miterlimit="10"/>
<path d="M38.9599 1.51001L33.1899 34.2" stroke="white" stroke-width="0.5" stroke-miterlimit="10"/>
<path d="M44.5499 3L33.1899 34.19" stroke="white" stroke-width="0.5" stroke-miterlimit="10"/>
<path d="M49.7899 5.4502L33.1899 34.2002" stroke="white" stroke-width="0.5" stroke-miterlimit="10"/>
<path d="M54.5299 8.77002L33.1899 34.19" stroke="white" stroke-width="0.5" stroke-miterlimit="10"/>
<path d="M58.6199 12.8599L33.1899 34.1999" stroke="white" stroke-width="0.5" stroke-miterlimit="10"/>
<path d="M61.9399 17.6001L33.1899 34.2001" stroke="white" stroke-width="0.5" stroke-miterlimit="10"/>
<path d="M64.3899 22.8398L33.1899 34.1998" stroke="white" stroke-width="0.5" stroke-miterlimit="10"/>
<path d="M65.8799 28.4302L33.1899 34.2002" stroke="white" stroke-width="0.5" stroke-miterlimit="10"/>
<path d="M33.19 34.2002H0" stroke="white" stroke-width="0.5" stroke-miterlimit="10"/>
<path d="M32.69 39.9602L0 34.2002" stroke="white" stroke-width="0.5" stroke-miterlimit="10"/>
<path d="M31.19 45.5502L0 34.2002" stroke="white" stroke-width="0.5" stroke-miterlimit="10"/>
<path d="M28.75 50.7902L0 34.2002" stroke="white" stroke-width="0.5" stroke-miterlimit="10"/>
<path d="M25.43 55.5302L0 34.2002" stroke="white" stroke-width="0.5" stroke-miterlimit="10"/>
<path d="M21.34 59.6199L0 34.1899" stroke="white" stroke-width="0.5" stroke-miterlimit="10"/>
<path d="M16.6 62.9402L0 34.2002" stroke="white" stroke-width="0.5" stroke-miterlimit="10"/>
<path d="M11.35 65.3902L0 34.2002" stroke="white" stroke-width="0.5" stroke-miterlimit="10"/>
<path d="M5.77 66.8802L0 34.2002" stroke="white" stroke-width="0.5" stroke-miterlimit="10"/>
<path d="M132.78 1H66.3901V67.39H132.78V1Z" stroke="white" stroke-width="0.5" stroke-miterlimit="10"/>
<path d="M99.5801 34.2601H66.3901C66.3901 25.4575 69.8869 17.0155 76.1112 10.7912C82.3355 4.56685 90.7776 1.07007 99.5801 1.07007V34.2601Z" stroke="white" stroke-width="0.5" stroke-miterlimit="10"/>
<path d="M99.5801 67.45H132.8C132.8 58.6475 129.303 50.2055 123.079 43.9811C116.855 37.7568 108.413 34.26 99.61 34.26L99.5801 67.45Z" stroke="white" stroke-width="0.5" stroke-miterlimit="10"/>
<path d="M99.5801 67.45V34.26C90.7776 34.26 82.3355 37.7568 76.1112 43.9811C69.8869 50.2055 66.3901 58.6475 66.3901 67.45H99.5801Z" stroke="white" stroke-width="0.5" stroke-miterlimit="10"/>
<path d="M99.5801 1.07007V34.2601C103.941 34.264 108.26 33.4084 112.291 31.7422C116.321 30.0761 119.983 27.6319 123.068 24.5495C126.153 21.4672 128.601 17.807 130.271 13.7783C131.941 9.74951 132.8 5.43117 132.8 1.07007H99.5801Z" stroke="white" stroke-width="0.5" stroke-miterlimit="10"/>
<path d="M66.3901 34.26H99.5801" stroke="white" stroke-width="0.5" stroke-miterlimit="10"/>
<path d="M66.8901 28.49L99.5801 34.26" stroke="white" stroke-width="0.5" stroke-miterlimit="10"/>
<path d="M68.3901 22.8999L99.5801 34.2599" stroke="white" stroke-width="0.5" stroke-miterlimit="10"/>
<path d="M70.8401 17.6602L99.5801 34.2602" stroke="white" stroke-width="0.5" stroke-miterlimit="10"/>
<path d="M74.1499 12.9199L99.5799 34.2599" stroke="white" stroke-width="0.5" stroke-miterlimit="10"/>
<path d="M78.25 8.83008L99.58 34.2601" stroke="white" stroke-width="0.5" stroke-miterlimit="10"/>
<path d="M82.98 5.51001L99.58 34.26" stroke="white" stroke-width="0.5" stroke-miterlimit="10"/>
<path d="M88.23 3.07007L99.58 34.2601" stroke="white" stroke-width="0.5" stroke-miterlimit="10"/>
<path d="M93.8201 1.57007L99.5801 34.2601" stroke="white" stroke-width="0.5" stroke-miterlimit="10"/>
<path d="M99.5801 34.26V67.45" stroke="white" stroke-width="0.5" stroke-miterlimit="10"/>
<path d="M105.35 34.76L99.5801 67.45" stroke="white" stroke-width="0.5" stroke-miterlimit="10"/>
<path d="M110.93 36.26L99.5801 67.45" stroke="white" stroke-width="0.5" stroke-miterlimit="10"/>
<path d="M116.18 38.7002L99.5801 67.4502" stroke="white" stroke-width="0.5" stroke-miterlimit="10"/>
<path d="M120.92 42.02L99.5801 67.45" stroke="white" stroke-width="0.5" stroke-miterlimit="10"/>
<path d="M125.01 46.1099L99.5801 67.4499" stroke="white" stroke-width="0.5" stroke-miterlimit="10"/>
<path d="M128.33 50.8501L99.5801 67.4501" stroke="white" stroke-width="0.5" stroke-miterlimit="10"/>
<path d="M130.77 56.1001L99.5801 67.4501" stroke="white" stroke-width="0.5" stroke-miterlimit="10"/>
<path d="M132.27 61.6899L99.5801 67.4499" stroke="white" stroke-width="0.5" stroke-miterlimit="10"/>
</g>
</svg>
