<svg width="297" height="297" viewBox="0 0 297 297" fill="none" xmlns="http://www.w3.org/2000/svg">
<g opacity="0.2">
<path d="M296.844 148.056H148.922V295.978H296.844V148.056Z" stroke="white" stroke-miterlimit="10"/>
<path d="M223.006 222.05V296C203.393 296 184.583 288.209 170.715 274.341C156.847 260.472 149.056 241.663 149.056 222.05H223.006Z" stroke="white" stroke-miterlimit="10"/>
<path d="M296.889 222.05V148.078C287.174 148.075 277.553 149.986 268.577 153.703C259.601 157.419 251.446 162.868 244.576 169.737C237.707 176.607 232.258 184.763 228.541 193.739C224.825 202.715 222.914 212.335 222.917 222.05H296.889Z" stroke="white" stroke-miterlimit="10"/>
<path d="M296.889 222.05H222.917C222.92 231.762 224.835 241.377 228.554 250.348C232.273 259.319 237.723 267.469 244.592 274.334C251.461 281.199 259.615 286.644 268.588 290.357C277.561 294.071 287.178 295.981 296.889 295.978V222.05Z" stroke="white" stroke-miterlimit="10"/>
<path d="M149.056 222.05H223.006C223.009 212.337 221.098 202.718 217.383 193.744C213.668 184.769 208.221 176.614 201.354 169.745C194.487 162.876 186.334 157.427 177.36 153.709C168.387 149.991 158.769 148.078 149.056 148.078V222.05Z" stroke="white" stroke-miterlimit="10"/>
<path d="M223.006 295.978V222.006" stroke="white" stroke-miterlimit="10"/>
<path d="M210.172 294.842L223.006 222.006" stroke="white" stroke-miterlimit="10"/>
<path d="M197.717 291.522L223.006 222.006" stroke="white" stroke-miterlimit="10"/>
<path d="M186.042 286.063L223.006 222.006" stroke="white" stroke-miterlimit="10"/>
<path d="M175.481 278.666L223.006 222.006" stroke="white" stroke-miterlimit="10"/>
<path d="M166.368 269.553L223.005 222.006" stroke="white" stroke-miterlimit="10"/>
<path d="M158.971 258.992L223.006 222.006" stroke="white" stroke-miterlimit="10"/>
<path d="M153.512 247.317L223.005 222.006" stroke="white" stroke-miterlimit="10"/>
<path d="M150.17 234.862L223.005 222.006" stroke="white" stroke-miterlimit="10"/>
<path d="M223.006 222.006H296.978" stroke="white" stroke-miterlimit="10"/>
<path d="M224.142 209.172L296.978 222.005" stroke="white" stroke-miterlimit="10"/>
<path d="M227.484 196.717L296.978 222.006" stroke="white" stroke-miterlimit="10"/>
<path d="M232.921 185.042L296.978 222.006" stroke="white" stroke-miterlimit="10"/>
<path d="M240.318 174.481L296.978 222.006" stroke="white" stroke-miterlimit="10"/>
<path d="M249.431 165.368L296.978 222.005" stroke="white" stroke-miterlimit="10"/>
<path d="M259.992 157.97L296.978 222.005" stroke="white" stroke-miterlimit="10"/>
<path d="M271.667 152.512L296.978 222.006" stroke="white" stroke-miterlimit="10"/>
<path d="M284.122 149.192L296.978 222.005" stroke="white" stroke-miterlimit="10"/>
<path d="M149.212 148.056H1.28967V295.978H149.212V148.056Z" stroke="white" stroke-miterlimit="10"/>
<path d="M75.1058 222.05V296C94.7186 296 113.528 288.209 127.396 274.341C141.265 260.472 149.056 241.663 149.056 222.05H75.1058Z" stroke="white" stroke-miterlimit="10"/>
<path d="M75.1059 148.056V222.051C65.391 222.053 55.7706 220.142 46.7945 216.426C37.8185 212.709 29.6627 207.261 22.7932 200.391C15.9237 193.522 10.4751 185.366 6.75865 176.39C3.04224 167.414 1.13086 157.793 1.13379 148.078L75.1059 148.056Z" stroke="white" stroke-miterlimit="10"/>
<path d="M75.1059 295.978H1.13379C1.13671 286.267 3.0524 276.651 6.77143 267.68C10.4905 258.709 15.94 250.559 22.809 243.694C29.6779 236.829 37.8317 231.384 46.8049 227.671C55.778 223.957 65.3947 222.047 75.1059 222.05V295.978Z" stroke="white" stroke-miterlimit="10"/>
<path d="M75.1058 148.056H149.056C149.062 157.771 147.153 167.392 143.439 176.369C139.726 185.346 134.28 193.504 127.412 200.375C120.545 207.247 112.39 212.698 103.415 216.417C94.4406 220.136 84.8208 222.051 75.1058 222.051V148.056Z" stroke="white" stroke-miterlimit="10"/>
<path d="M75.1058 295.978V222.006" stroke="white" stroke-miterlimit="10"/>
<path d="M87.9396 294.842L75.1058 222.006" stroke="white" stroke-miterlimit="10"/>
<path d="M100.394 291.522L75.1058 222.006" stroke="white" stroke-miterlimit="10"/>
<path d="M112.07 286.063L75.1058 222.006" stroke="white" stroke-miterlimit="10"/>
<path d="M122.631 278.666L75.1058 222.006" stroke="white" stroke-miterlimit="10"/>
<path d="M131.744 269.553L75.1058 222.006" stroke="white" stroke-miterlimit="10"/>
<path d="M139.141 258.992L75.1058 222.006" stroke="white" stroke-miterlimit="10"/>
<path d="M144.6 247.317L75.1058 222.006" stroke="white" stroke-miterlimit="10"/>
<path d="M147.942 234.862L75.1058 222.006" stroke="white" stroke-miterlimit="10"/>
<path d="M1.13379 148.056H75.1059" stroke="white" stroke-miterlimit="10"/>
<path d="M2.27014 160.89L75.106 148.056" stroke="white" stroke-miterlimit="10"/>
<path d="M5.6123 173.345L75.106 148.056" stroke="white" stroke-miterlimit="10"/>
<path d="M11.0486 185.042L75.1058 148.056" stroke="white" stroke-miterlimit="10"/>
<path d="M18.446 195.603L75.106 148.056" stroke="white" stroke-miterlimit="10"/>
<path d="M27.5587 204.716L75.1059 148.056" stroke="white" stroke-miterlimit="10"/>
<path d="M38.1199 212.113L75.1059 148.056" stroke="white" stroke-miterlimit="10"/>
<path d="M49.7949 217.55L75.1059 148.056" stroke="white" stroke-miterlimit="10"/>
<path d="M62.2498 220.892L75.1058 148.056" stroke="white" stroke-miterlimit="10"/>
<path d="M149.056 0H1.13379V147.922H149.056V0Z" stroke="white" stroke-miterlimit="10"/>
<path d="M74.95 73.9721V0C94.5686 0 113.384 7.79348 127.256 21.6659C141.129 35.5384 148.922 54.3535 148.922 73.9721H74.95Z" stroke="white" stroke-miterlimit="10"/>
<path d="M1 73.9727V147.923C20.6148 147.923 39.4265 140.132 53.2983 126.264C67.1701 112.397 74.9662 93.5874 74.9721 73.9727H1Z" stroke="white" stroke-miterlimit="10"/>
<path d="M1 73.9721H74.9721C74.9662 54.3553 67.1709 35.5437 53.2997 21.6725C39.4285 7.80129 20.6168 0.00590601 1 0V73.9721Z" stroke="white" stroke-miterlimit="10"/>
<path d="M148.922 73.9727H74.95C74.9559 93.5874 82.752 112.397 96.6238 126.264C110.496 140.132 129.307 147.923 148.922 147.923V73.9727Z" stroke="white" stroke-miterlimit="10"/>
<path d="M74.9497 0V73.9721" stroke="white" stroke-miterlimit="10"/>
<path d="M87.8057 1.13623L74.9497 73.972" stroke="white" stroke-miterlimit="10"/>
<path d="M100.261 4.45605L74.9497 73.9498" stroke="white" stroke-miterlimit="10"/>
<path d="M111.936 9.91528L74.9497 73.9725" stroke="white" stroke-miterlimit="10"/>
<path d="M122.497 17.3123L74.9497 73.95" stroke="white" stroke-miterlimit="10"/>
<path d="M131.61 26.4246L74.9497 73.9717" stroke="white" stroke-miterlimit="10"/>
<path d="M139.007 36.9863L74.9497 73.9724" stroke="white" stroke-miterlimit="10"/>
<path d="M144.466 48.6609L74.9497 73.9718" stroke="white" stroke-miterlimit="10"/>
<path d="M147.786 61.1165L74.9497 73.9725" stroke="white" stroke-miterlimit="10"/>
<path d="M74.9499 73.9727H1" stroke="white" stroke-miterlimit="10"/>
<path d="M73.8358 86.8064L1 73.9727" stroke="white" stroke-miterlimit="10"/>
<path d="M70.4937 99.2613L1 73.9727" stroke="white" stroke-miterlimit="10"/>
<path d="M65.0572 110.936L1 73.9727" stroke="white" stroke-miterlimit="10"/>
<path d="M57.66 121.498L1 73.9727" stroke="white" stroke-miterlimit="10"/>
<path d="M48.5471 130.61L1 73.9497" stroke="white" stroke-miterlimit="10"/>
<path d="M37.9861 138.008L1 73.9727" stroke="white" stroke-miterlimit="10"/>
<path d="M26.2887 143.466L1 73.9727" stroke="white" stroke-miterlimit="10"/>
<path d="M13.856 146.786L1 73.9727" stroke="white" stroke-miterlimit="10"/>
<path d="M296.844 0H148.922V147.922H296.844V0Z" stroke="white" stroke-miterlimit="10"/>
<path d="M222.872 74.1059H148.922C148.922 54.4931 156.713 35.6837 170.582 21.8154C184.45 7.9471 203.259 0.156006 222.872 0.156006V74.1059Z" stroke="white" stroke-miterlimit="10"/>
<path d="M222.872 148.056H296.889C296.889 128.443 289.098 109.634 275.229 95.7654C261.361 81.8971 242.552 74.106 222.939 74.106L222.872 148.056Z" stroke="white" stroke-miterlimit="10"/>
<path d="M222.872 148.056V74.106C203.259 74.106 184.45 81.8971 170.582 95.7654C156.713 109.634 148.922 128.443 148.922 148.056H222.872Z" stroke="white" stroke-miterlimit="10"/>
<path d="M222.872 0.156006V74.1059C232.589 74.1146 242.212 72.2084 251.192 68.496C260.172 64.7836 268.332 59.3378 275.206 52.4701C282.08 45.6023 287.533 37.4472 291.253 28.4708C294.974 19.4945 296.889 9.87287 296.889 0.156006H222.872Z" stroke="white" stroke-miterlimit="10"/>
<path d="M148.922 74.106H222.872" stroke="white" stroke-miterlimit="10"/>
<path d="M150.036 61.2498L222.872 74.1058" stroke="white" stroke-miterlimit="10"/>
<path d="M153.378 48.7947L222.872 74.1056" stroke="white" stroke-miterlimit="10"/>
<path d="M158.837 37.1201L222.872 74.1062" stroke="white" stroke-miterlimit="10"/>
<path d="M166.212 26.5586L222.872 74.1057" stroke="white" stroke-miterlimit="10"/>
<path d="M175.347 17.446L222.872 74.106" stroke="white" stroke-miterlimit="10"/>
<path d="M185.886 10.0486L222.872 74.1058" stroke="white" stroke-miterlimit="10"/>
<path d="M197.583 4.6123L222.872 74.106" stroke="white" stroke-miterlimit="10"/>
<path d="M210.038 1.27026L222.872 74.1061" stroke="white" stroke-miterlimit="10"/>
<path d="M222.872 74.106V148.056" stroke="white" stroke-miterlimit="10"/>
<path d="M235.728 75.22L222.872 148.056" stroke="white" stroke-miterlimit="10"/>
<path d="M248.161 78.562L222.872 148.056" stroke="white" stroke-miterlimit="10"/>
<path d="M259.858 83.999L222.872 148.056" stroke="white" stroke-miterlimit="10"/>
<path d="M270.419 91.3958L222.872 148.056" stroke="white" stroke-miterlimit="10"/>
<path d="M279.532 100.508L222.872 148.055" stroke="white" stroke-miterlimit="10"/>
<path d="M286.929 111.07L222.872 148.056" stroke="white" stroke-miterlimit="10"/>
<path d="M292.366 122.767L222.872 148.056" stroke="white" stroke-miterlimit="10"/>
<path d="M295.708 135.222L222.872 148.056" stroke="white" stroke-miterlimit="10"/>
</g>
</svg>
